<?xml version="1.0" encoding="UTF-8" standalone="no"?>
<!-- Generator: Adobe Illustrator 18.1.1, SVG Export Plug-In . SVG Version: 6.00 Build 0)  -->

<svg
   xmlns:dc="http://purl.org/dc/elements/1.1/"
   xmlns:cc="http://creativecommons.org/ns#"
   xmlns:rdf="http://www.w3.org/1999/02/22-rdf-syntax-ns#"
   xmlns:svg="http://www.w3.org/2000/svg"
   xmlns="http://www.w3.org/2000/svg"
   xmlns:sodipodi="http://sodipodi.sourceforge.net/DTD/sodipodi-0.dtd"
   xmlns:inkscape="http://www.inkscape.org/namespaces/inkscape"
   version="1.1"
   id="Capa_1"
   x="0px"
   y="0px"
   viewBox="0 0 256 256"
   xml:space="preserve"
   sodipodi:docname="Bitcoinbox-setup.svg"
   inkscape:version="0.92.2 5c3e80d, 2017-08-06"
   width="256"
   height="256"
   inkscape:export-filename="Bitcoinbox-setup.png"
   inkscape:export-xdpi="96"
   inkscape:export-ydpi="96"><metadata
     id="metadata41"><rdf:RDF><cc:Work
         rdf:about=""><dc:format>image/svg+xml</dc:format><dc:type
           rdf:resource="http://purl.org/dc/dcmitype/StillImage" /><dc:title></dc:title></cc:Work></rdf:RDF></metadata><defs
     id="defs39" /><sodipodi:namedview
     pagecolor="#ffffff"
     bordercolor="#666666"
     borderopacity="1"
     objecttolerance="10"
     gridtolerance="10"
     guidetolerance="10"
     inkscape:pageopacity="0"
     inkscape:pageshadow="2"
     inkscape:window-width="1020"
     inkscape:window-height="593"
     id="namedview37"
     showgrid="false"
     inkscape:zoom="0.38566692"
     inkscape:cx="305.9635"
     inkscape:cy="305.9635"
     inkscape:window-x="0"
     inkscape:window-y="0"
     inkscape:window-maximized="0"
     inkscape:current-layer="Capa_1" /><g
     id="g4"
     style="fill:#666666"
     transform="matrix(-0.37332523,0,0,-0.37332523,243.05595,245.48915)"><path
       d="m 385.127,607.254 c -0.797,0 -2.319,0 -3.116,0 -16.448,-3.116 -31.303,-14.057 -39.129,-28.984 -0.797,-0.797 -0.797,-1.594 -1.594,-2.319 -0.797,-1.594 -7.029,-13.333 -25.071,-14.057 h -0.725 c -6.232,0 -11.739,0 -17.97,0 h -0.87 c -18.767,0 -25.071,13.333 -25.071,14.057 -0.797,0.797 -0.797,1.594 -1.594,2.319 -7.826,14.854 -22.68,25.796 -39.129,28.984 -2.319,0.797 -4.71,0.797 -7.029,0 -14.854,-3.913 -30.506,-9.42 -44.636,-16.448 -2.319,-0.797 -3.913,-2.319 -5.507,-3.913 -10.144,-13.333 -14.854,-31.303 -10.941,-47.751 0,-0.797 0,-1.594 0.797,-3.116 0,-1.594 3.116,-14.854 -10.144,-26.593 l -0.797,-0.797 c -4.71,-3.913 -9.42,-7.826 -14.057,-11.739 v 0 c -6.232,-4.71 -12.536,-7.029 -19.564,-7.029 -5.507,0 -9.42,1.594 -9.42,1.594 -0.797,0.797 -1.594,0.797 -3.116,0.797 -15.651,6.232 -34.419,5.507 -49.273,-3.116 -2.319,-0.797 -3.913,-2.319 -4.71,-4.71 -8.623,-12.536 -16.449,-25.796 -23.477,-39.926 -0.797,-2.319 -1.594,-3.913 -1.594,-6.232 0,-17.246 8.623,-34.419 21.883,-44.636 0.797,-0.797 1.594,-1.594 2.319,-1.594 0.797,-0.797 11.739,-9.42 9.42,-27.39 0,0 0,0 0,-0.797 -1.594,-5.507 -2.319,-11.739 -3.116,-17.97 0,-0.797 0,-0.797 0,-0.797 -3.116,-17.97 -17.97,-21.883 -17.97,-21.883 -0.797,0 -1.594,-0.797 -3.116,-0.797 C 20.361,316.904 6.304,303.644 0.797,287.195 0,284.878 0,283.284 0,280.965 c 1.594,-14.057 3.913,-28.984 7.826,-43.839 0.797,-2.319 1.594,-3.913 3.116,-5.507 11.739,-14.057 28.984,-21.883 46.157,-21.158 0.797,0 1.594,0 3.116,0 3.913,0 16.449,-0.797 24.274,-14.854 0,0 0,-0.797 0.797,-0.797 2.319,-4.71 5.507,-10.144 9.42,-15.651 0,0 0,-0.797 0.797,-0.797 8.623,-15.651 1.594,-27.39 0.797,-28.984 -0.797,-0.797 -0.797,-1.594 -1.594,-2.319 -9.42,-15.651 -11.739,-34.419 -4.71,-51.664 0.797,-1.594 1.594,-3.913 3.116,-5.507 10.144,-10.144 21.158,-19.564 32.897,-27.39 1.594,-1.594 3.913,-2.319 5.507,-2.319 17.97,-3.913 36.81,1.594 50.07,13.333 0.797,0.797 1.594,0.797 2.319,1.594 0,0 7.029,6.232 17.246,6.232 3.116,0 7.029,-0.797 10.941,-1.594 v 0 c 6.232,-2.319 12.536,-4.71 17.97,-6.232 16.449,-6.232 18.767,-20.361 18.767,-21.883 0,-0.797 0,-1.594 0.797,-2.319 2.319,-17.97 13.333,-34.419 29.709,-43.041 1.594,-0.797 3.913,-1.594 5.507,-1.594 15.651,-0.797 26.593,-0.797 42.244,0 2.319,0 3.913,0.797 5.507,1.594 16.448,8.623 27.39,24.274 29.709,42.244 0,0.797 0.797,1.594 0.797,3.116 0,1.594 2.319,14.854 18.767,21.883 v 0 c 6.232,1.594 12.536,3.913 17.97,6.232 v 0 c 3.913,1.594 7.826,2.319 10.941,2.319 10.941,0 17.246,-6.232 17.246,-6.232 0.797,-0.797 1.594,-1.594 2.319,-1.594 13.333,-11.739 32.1,-17.246 50.07,-13.333 2.319,0.797 3.913,1.594 5.507,2.319 11.739,8.623 22.68,17.97 32.897,27.39 1.594,1.594 2.319,3.116 3.116,5.507 6.232,17.246 4.71,36.013 -4.71,51.664 0,0.797 -0.797,1.594 -1.594,2.319 -0.797,0.725 -7.826,13.333 0.797,28.984 0,0 0,0.797 0.797,0.797 3.116,5.507 6.232,10.144 9.42,15.651 0,0 0,0.797 0.797,0.797 7.826,13.333 20.361,14.854 24.274,14.854 0.797,0 2.319,0 3.116,0 17.246,-0.797 35.216,7.029 46.157,21.158 1.594,1.594 2.319,3.913 3.116,5.507 3.913,14.057 6.232,28.984 7.826,43.839 0,2.319 0,3.913 -0.797,6.232 -6.232,17.246 -19.564,29.709 -36.013,35.216 -0.797,0.797 -1.594,0.797 -3.116,0.797 -1.594,0 -14.854,4.71 -17.97,22.68 v 0.797 c -0.797,6.232 -1.594,12.536 -3.116,17.97 v 0.797 c -2.319,15.651 9.42,24.274 9.42,24.274 0.797,0.797 1.594,1.594 2.319,2.319 13.333,10.941 21.883,27.39 21.883,44.636 0,2.319 -0.797,4.71 -1.594,6.232 -6.232,13.333 -14.057,27.39 -23.477,39.926 -1.594,1.594 -3.116,3.116 -4.71,4.71 -8.623,4.71 -17.97,7.029 -28.187,7.029 v 0 c -7.029,0 -14.854,-1.594 -21.158,-3.913 -0.797,0 -1.594,-0.797 -3.116,-0.797 v 0 c 0,0 -3.913,-1.594 -9.42,-1.594 -7.029,0 -13.333,2.319 -18.767,7.029 0,0 0,0 -0.797,0 -3.913,3.913 -8.623,7.826 -14.057,11.739 0,0 -0.797,0 -0.797,0.797 -11.739,10.144 -11.739,21.158 -10.941,25.796 0.797,1.594 0.797,3.116 0.797,4.71 v 0 c 3.116,16.448 -0.797,33.622 -11.739,46.157 -1.594,1.594 -3.116,3.116 -5.507,3.913 -14.057,6.232 -29.709,11.739 -44.636,16.448 1.013,1.664 -0.508,1.664 -1.305,1.664 z m -190.933,-41.52 c 10.941,4.71 21.883,8.623 32.897,11.739 7.826,-2.319 14.057,-7.826 17.246,-14.854 0.797,-0.797 0.797,-1.594 1.594,-3.116 6.232,-10.941 21.883,-26.593 48.548,-27.39 0.797,0 0.797,0 0.797,0 h 0.797 c 6.232,0 11.739,0 17.97,0 h 0.797 0.797 c 25.796,0.797 42.244,16.449 48.548,27.39 0.797,0.797 1.594,1.594 1.594,3.116 3.116,7.029 9.42,12.536 17.246,14.854 10.941,-3.116 22.68,-7.029 32.897,-11.739 3.913,-7.029 5.507,-14.854 3.116,-22.68 0,-0.797 -0.797,-2.319 -0.797,-3.116 -2.319,-12.536 0,-34.419 19.564,-52.461 l 0.797,-0.797 0.797,-0.797 c 5.507,-3.913 9.42,-7.826 14.057,-11.739 l 0.797,-0.797 c 0,0 0.797,0 0.797,-0.797 10.941,-8.623 23.477,-13.333 36.81,-13.333 7.826,0 14.057,1.594 17.97,3.116 0.797,0 2.319,0.797 3.116,0.797 3.913,1.594 7.826,2.319 11.739,2.319 v 0 c 3.913,0 7.826,-0.797 10.942,-2.319 6.232,-9.42 12.536,-19.564 17.246,-29.709 -0.797,-7.826 -5.507,-15.651 -11.739,-20.361 -0.797,-0.797 -1.594,-1.594 -2.319,-2.319 -10.144,-8.623 -22.68,-26.593 -18.767,-52.461 v -0.797 -0.797 c 1.594,-5.507 2.319,-11.739 3.116,-17.97 0,-0.797 0,-0.797 0,-1.594 v -0.797 c 5.507,-25.796 23.477,-38.332 35.216,-43.041 0.797,-0.797 1.594,-0.797 3.116,-1.594 7.826,-2.319 14.854,-7.826 18.767,-15.651 -1.594,-10.941 -3.116,-21.883 -5.507,-32.1 -6.232,-6.232 -14.057,-9.42 -22.68,-8.623 -1.594,0 -2.319,0 -3.913,0 -8.623,0 -32.1,-3.116 -47.751,-28.187 l -0.797,-0.797 c -3.116,-6.232 -6.232,-10.942 -9.42,-16.449 l -0.797,-0.797 c 0,0 0,-0.797 -0.797,-0.797 -12.536,-23.477 -7.029,-44.636 -0.797,-55.577 0.797,-0.797 0.797,-1.594 1.594,-3.116 4.71,-7.029 6.232,-15.651 3.913,-24.274 -7.826,-7.029 -15.651,-14.057 -24.274,-20.361 -8.623,-0.797 -17.246,2.319 -23.477,7.826 -0.797,0.797 -1.594,1.594 -3.116,2.319 -0.797,5.507 -12.536,13.333 -30.506,13.333 -6.232,0 -13.333,-0.797 -19.564,-3.116 h -0.797 -0.797 c -5.507,-2.319 -11.739,-4.71 -17.246,-6.232 h -0.797 c 0,0 0,0 -0.797,0 -24.274,-9.42 -34.419,-29.709 -36.81,-42.244 0,-0.797 -0.797,-2.319 -0.797,-3.116 -0.797,-8.623 -5.507,-16.448 -12.536,-21.158 -11.739,-0.797 -19.564,-0.797 -31.303,0 -7.029,4.71 -11.739,12.536 -12.536,21.158 0,0.797 0,2.319 -0.797,3.116 -2.319,12.536 -11.739,32.897 -36.81,42.244 0,0 0,0 -0.797,0 h -0.797 c -5.507,1.594 -11.739,3.913 -17.246,6.232 h -0.797 -0.797 c -6.232,2.319 -12.536,3.116 -19.564,3.116 -17.97,0 -29.709,-7.826 -35.216,-12.536 -0.797,-0.797 -1.594,-1.594 -3.116,-2.319 -6.232,-6.232 -14.854,-9.42 -23.477,-7.826 -8.623,6.232 -16.449,13.333 -24.274,20.361 -2.319,8.623 -0.797,17.246 3.913,24.274 0.797,0.797 0.797,1.594 1.594,3.116 6.232,10.942 11.739,32.897 -0.797,55.577 v 0.797 l -0.797,0.797 c -3.116,5.507 -6.232,10.144 -9.42,15.651 0,0.797 -0.797,0.797 -0.797,1.594 -15.651,25.071 -39.129,28.187 -47.751,28.187 -0.797,0 -2.319,0 -3.116,0 -8.623,-0.797 -16.449,2.319 -22.68,8.623 -2.319,10.942 -4.71,21.883 -5.507,32.1 3.913,7.826 10.144,13.333 18.767,15.651 0.797,0 2.319,0.797 3.116,1.594 11.739,4.71 29.709,17.246 35.216,43.041 v 0.797 c 0,0.797 0,0.797 0,1.594 0.797,6.232 1.594,11.739 3.116,17.97 v 0.797 0.797 c 3.913,25.796 -8.623,43.839 -18.767,52.461 -0.797,0.797 -1.594,1.594 -2.319,2.319 -7.029,4.71 -10.941,12.536 -11.739,20.361 5.507,10.144 10.941,20.361 17.246,29.709 7.029,3.116 15.651,3.116 23.477,-0.797 0.797,-0.797 2.319,-0.797 3.116,-0.797 3.913,-1.594 10.144,-3.116 17.97,-3.116 13.333,0 25.796,4.71 36.81,13.333 0,0 0,0 0.797,0 0.797,0 0.797,0.797 1.594,0.797 3.913,3.913 8.623,7.826 14.057,11.739 l 0.797,0.797 0.797,0.797 c 19.564,17.246 21.883,39.926 19.564,52.461 0,0.797 0,2.319 -0.797,3.116 -3.043,8.624 -1.449,16.449 2.464,23.478 z M 306.072,462.478 c -84.489,0 -152.601,-68.837 -152.601,-152.602 0,-83.765 68.113,-153.399 152.601,-153.399 84.488,0 152.601,68.837 152.601,152.601 0,83.764 -68.112,153.4 -152.601,153.4 z m 0,-277.088 c -68.113,0 -124.414,55.577 -124.414,124.414 0,68.837 56.302,123.69 124.414,123.69 68.112,0 124.414,-55.577 124.414,-124.414 0,-68.837 -56.301,-123.69 -124.414,-123.69 z"
       id="path2"
       style="fill:#666666"
       inkscape:connector-curvature="0" /></g><g
     id="g6"
     transform="translate(0,-355.927)" /><g
     id="g8"
     transform="translate(0,-355.927)" /><g
     id="g10"
     transform="translate(0,-355.927)" /><g
     id="g12"
     transform="translate(0,-355.927)" /><g
     id="g14"
     transform="translate(0,-355.927)" /><g
     id="g16"
     transform="translate(0,-355.927)" /><g
     id="g18"
     transform="translate(0,-355.927)" /><g
     id="g20"
     transform="translate(0,-355.927)" /><g
     id="g22"
     transform="translate(0,-355.927)" /><g
     id="g24"
     transform="translate(0,-355.927)" /><g
     id="g26"
     transform="translate(0,-355.927)" /><g
     id="g28"
     transform="translate(0,-355.927)" /><g
     id="g30"
     transform="translate(0,-355.927)" /><g
     id="g32"
     transform="translate(0,-355.927)" /><g
     id="g34"
     transform="translate(0,-355.927)" /></svg>