<?xml version="1.0" encoding="UTF-8" standalone="no"?>
<svg
   xmlns:dc="http://purl.org/dc/elements/1.1/"
   xmlns:cc="http://creativecommons.org/ns#"
   xmlns:rdf="http://www.w3.org/1999/02/22-rdf-syntax-ns#"
   xmlns:svg="http://www.w3.org/2000/svg"
   xmlns="http://www.w3.org/2000/svg"
   xmlns:sodipodi="http://sodipodi.sourceforge.net/DTD/sodipodi-0.dtd"
   xmlns:inkscape="http://www.inkscape.org/namespaces/inkscape"
   viewBox="0 0 256 256"
   version="1.1"
   id="svg4"
   sodipodi:docname="Bitcoinbox_chart.svg"
   width="256"
   height="256"
   inkscape:version="0.92.2 5c3e80d, 2017-08-06"
   inkscape:export-filename="Bitcoinbox_chart.png"
   inkscape:export-xdpi="96"
   inkscape:export-ydpi="96">
  <metadata
     id="metadata10">
    <rdf:RDF>
      <cc:Work
         rdf:about="">
        <dc:format>image/svg+xml</dc:format>
        <dc:type
           rdf:resource="http://purl.org/dc/dcmitype/StillImage" />
        <dc:title></dc:title>
      </cc:Work>
    </rdf:RDF>
  </metadata>
  <defs
     id="defs8" />
  <sodipodi:namedview
     pagecolor="#ffffff"
     bordercolor="#666666"
     borderopacity="1"
     objecttolerance="10"
     gridtolerance="10"
     guidetolerance="10"
     inkscape:pageopacity="0"
     inkscape:pageshadow="2"
     inkscape:window-width="1061"
     inkscape:window-height="730"
     id="namedview6"
     showgrid="false"
     inkscape:zoom="1.5898438"
     inkscape:cx="128"
     inkscape:cy="128"
     inkscape:window-x="0"
     inkscape:window-y="0"
     inkscape:window-maximized="0"
     inkscape:current-layer="svg4" />
  <path
     style="line-height:normal;-inkscape-font-specification:'Bitstream Vera Sans';text-indent:0;text-align:start;text-transform:none;stroke-width:8.69794846;fill:#666666"
     d="m 186.38248,33.231036 -3.01566,16.977939 17.81978,2.964399 -37.55863,23.176238 -9.04697,-9.43219 -5.48301,-5.659308 -6.30547,4.581342 -44.960699,32.60843 -7.676217,-7.54575 -5.483013,-5.65932 -6.031313,4.85084 -65.796146,51.742304 10.966023,13.47456 59.490684,-46.89146 7.676217,7.54575 5.483012,5.12034 6.031312,-4.31186 44.4124,-32.608434 8.77283,9.1627 4.93471,5.12033 6.30546,-3.77287 44.9607,-27.757594 -4.66056,19.403364 16.99734,4.04237 9.59527,-39.88469 2.1932,-8.893207 -9.32112,-1.616949 z m 38.92938,67.103294 V 221.06635 H 242.8575 V 100.33433 Z m -35.09128,17.24743 v 103.48459 h 17.54564 V 117.58176 Z m -35.09128,17.24743 v 86.23716 h 17.54564 v -86.23716 z m -35.09127,17.24743 v 68.98973 h 17.54563 v -68.98973 z m -35.091288,17.24743 v 51.7423 h 17.545638 v -51.7423 z m -35.091278,17.24744 v 34.49486 h 17.54564 v -34.49486 z m -35.09128,17.24743 v 17.24743 h 17.545644 v -17.24743 z"
     id="path2"
     inkscape:connector-curvature="0" />
</svg>
