<?xml version="1.0" encoding="UTF-8" standalone="no"?>
<!-- Generator: Adobe Illustrator 19.0.0, SVG Export Plug-In . SVG Version: 6.00 Build 0)  -->

<svg
   xmlns:dc="http://purl.org/dc/elements/1.1/"
   xmlns:cc="http://creativecommons.org/ns#"
   xmlns:rdf="http://www.w3.org/1999/02/22-rdf-syntax-ns#"
   xmlns:svg="http://www.w3.org/2000/svg"
   xmlns="http://www.w3.org/2000/svg"
   xmlns:sodipodi="http://sodipodi.sourceforge.net/DTD/sodipodi-0.dtd"
   xmlns:inkscape="http://www.inkscape.org/namespaces/inkscape"
   version="1.1"
   id="Layer_1"
   x="0px"
   y="0px"
   viewBox="0 0 256.00001 256.00001"
   xml:space="preserve"
   sodipodi:docname="Bitcoinbox_secure.svg"
   width="256"
   height="256"
   inkscape:version="0.92.2 5c3e80d, 2017-08-06"
   inkscape:export-filename="Bitcoinbox_secure.png"
   inkscape:export-xdpi="96"
   inkscape:export-ydpi="96"><metadata
     id="metadata55"><rdf:RDF><cc:Work
         rdf:about=""><dc:format>image/svg+xml</dc:format><dc:type
           rdf:resource="http://purl.org/dc/dcmitype/StillImage" /><dc:title></dc:title></cc:Work></rdf:RDF></metadata><defs
     id="defs53" /><sodipodi:namedview
     pagecolor="#ffffff"
     bordercolor="#666666"
     borderopacity="1"
     objecttolerance="10"
     gridtolerance="10"
     guidetolerance="10"
     inkscape:pageopacity="0"
     inkscape:pageshadow="2"
     inkscape:window-width="1038"
     inkscape:window-height="664"
     id="namedview51"
     showgrid="false"
     inkscape:zoom="0.46093662"
     inkscape:cx="256.00049"
     inkscape:cy="256.00049"
     inkscape:window-x="0"
     inkscape:window-y="0"
     inkscape:window-maximized="0"
     inkscape:current-layer="Layer_1" /><g
     id="g6"
     transform="matrix(0.423728,0,0,0.423728,23.864382,21.694321)"
     style="fill:#666666"><g
       id="g4"
       style="fill:#666666"><path
         d="m 436.352,21.245 c -117.987,-28.327 -242.714,-28.327 -360.701,0 -5.618,1.348 -9.579,6.373 -9.579,12.15 v 285.349 c 0,37.878 17.943,72.077 49.264,93.836 45.764,31.667 92.21,66.343 133.19,96.937 2.217,1.656 4.846,2.483 7.475,2.483 2.633,0 5.267,-0.831 7.485,-2.49 40.997,-30.671 87.463,-65.434 133.291,-97.206 31.241,-21.746 49.151,-55.919 49.151,-93.754 V 33.396 c 0.002,-5.777 -3.959,-10.801 -9.576,-12.151 z m -15.413,297.308 c 0,29.54 -14.006,56.235 -38.419,73.227 -43.406,30.094 -87.233,62.739 -126.526,92.127 C 216.72,454.594 172.919,422.035 129.577,392.044 105.097,375.037 91.064,348.32 91.064,318.747 V 43.314 c 108.709,-24.437 221.167,-24.437 329.876,0 v 275.239 z"
         id="path2"
         inkscape:connector-curvature="0"
         style="fill:#666666" /></g></g><g
     id="g12"
     transform="matrix(0.423728,0,0,0.423728,23.864382,21.694321)"
     style="fill:#666666"><g
       id="g10"
       style="fill:#666666"><path
         d="M 385.695,61.617 C 342.984,53.829 299.347,49.88 256.001,49.88 c -43.346,0 -86.982,3.95 -129.694,11.738 -5.938,1.083 -10.254,6.256 -10.254,12.293 v 244.842 c 0,21.267 10.094,40.48 27.722,52.728 37.214,25.75 73.83,52.711 104.739,75.689 2.213,1.644 4.833,2.468 7.455,2.468 2.625,0 5.251,-0.825 7.465,-2.474 30.926,-23.039 67.56,-50.067 104.789,-75.88 17.622,-12.267 27.725,-31.487 27.725,-52.731 V 73.91 c 0,-6.036 -4.316,-11.209 -10.253,-12.293 z m -31.73,289.142 c -34.562,23.962 -68.553,48.92 -98.004,70.813 -29.433,-21.834 -63.405,-46.727 -97.947,-70.628 -10.787,-7.496 -16.971,-19.228 -16.971,-32.189 V 84.414 C 178.529,78.08 217.615,74.873 256,74.873 c 38.384,0 77.471,3.208 114.957,9.541 v 234.139 h 0.001 c 0,12.949 -6.198,24.692 -16.993,32.206 z"
         id="path8"
         inkscape:connector-curvature="0"
         style="fill:#666666" /></g></g><g
     id="g18"
     transform="matrix(0.423728,0,0,0.423728,23.864382,21.694321)"
     style="fill:#666666"><g
       id="g16"
       style="fill:#666666"><path
         d="m 340.198,174.916 c -5.112,-4.636 -13.015,-4.25 -17.65,0.862 l -80.242,88.493 -39.038,-39.71 c -4.838,-4.923 -12.751,-4.989 -17.671,-0.151 -4.921,4.838 -4.989,12.749 -0.151,17.671 l 48.316,49.148 c 2.352,2.393 5.563,3.736 8.91,3.736 0.084,0 0.169,0 0.252,-0.003 3.438,-0.07 6.695,-1.552 9.004,-4.1 l 89.133,-98.297 c 4.635,-5.111 4.249,-13.014 -0.863,-17.649 z"
         id="path14"
         inkscape:connector-curvature="0"
         style="fill:#666666" /></g></g><g
     id="g20"
     transform="translate(0,-256.00098)" /><g
     id="g22"
     transform="translate(0,-256.00098)" /><g
     id="g24"
     transform="translate(0,-256.00098)" /><g
     id="g26"
     transform="translate(0,-256.00098)" /><g
     id="g28"
     transform="translate(0,-256.00098)" /><g
     id="g30"
     transform="translate(0,-256.00098)" /><g
     id="g32"
     transform="translate(0,-256.00098)" /><g
     id="g34"
     transform="translate(0,-256.00098)" /><g
     id="g36"
     transform="translate(0,-256.00098)" /><g
     id="g38"
     transform="translate(0,-256.00098)" /><g
     id="g40"
     transform="translate(0,-256.00098)" /><g
     id="g42"
     transform="translate(0,-256.00098)" /><g
     id="g44"
     transform="translate(0,-256.00098)" /><g
     id="g46"
     transform="translate(0,-256.00098)" /><g
     id="g48"
     transform="translate(0,-256.00098)" /></svg>