<?xml version="1.0" encoding="UTF-8" standalone="no"?>
<!-- Created with Inkscape (http://www.inkscape.org/) -->

<svg
   xmlns:dc="http://purl.org/dc/elements/1.1/"
   xmlns:cc="http://creativecommons.org/ns#"
   xmlns:rdf="http://www.w3.org/1999/02/22-rdf-syntax-ns#"
   xmlns:svg="http://www.w3.org/2000/svg"
   xmlns="http://www.w3.org/2000/svg"
   xmlns:sodipodi="http://sodipodi.sourceforge.net/DTD/sodipodi-0.dtd"
   xmlns:inkscape="http://www.inkscape.org/namespaces/inkscape"
   width="160"
   height="30"
   viewBox="0 0 42.333334 7.9375"
   version="1.1"
   id="svg8"
   inkscape:version="0.91 r13725"
   sodipodi:docname="tel.svg"
   inkscape:export-filename="tel.png"
   inkscape:export-xdpi="90.000008"
   inkscape:export-ydpi="90.000008">
  <defs
     id="defs2" />
  <sodipodi:namedview
     id="base"
     pagecolor="#000000"
     bordercolor="#666666"
     borderopacity="1.0"
     inkscape:pageopacity="0"
     inkscape:pageshadow="2"
     inkscape:zoom="4.9625"
     inkscape:cx="80"
     inkscape:cy="15"
     inkscape:document-units="mm"
     inkscape:current-layer="layer1"
     showgrid="false"
     units="px"
     inkscape:window-width="1280"
     inkscape:window-height="717"
     inkscape:window-x="0"
     inkscape:window-y="0"
     inkscape:window-maximized="1" />
  <metadata
     id="metadata5">
    <rdf:RDF>
      <cc:Work
         rdf:about="">
        <dc:format>image/svg+xml</dc:format>
        <dc:type
           rdf:resource="http://purl.org/dc/dcmitype/StillImage" />
        <dc:title />
      </cc:Work>
    </rdf:RDF>
  </metadata>
  <g
     inkscape:label="Layer 1"
     inkscape:groupmode="layer"
     id="layer1"
     transform="translate(0,-289.06251)">
    <g
       style="font-style:normal;font-weight:normal;font-size:9.29755878px;line-height:1.25;font-family:sans-serif;letter-spacing:0px;word-spacing:0px;fill:#000000;fill-opacity:1;stroke:none;stroke-width:0.26458332"
       id="text836">
      <path
         d="m 2.8802351,291.82542 0,1.18005 1.1800515,0 0,0.36016 -1.1800515,0 0,1.18005 -0.3559222,0 0,-1.18005 -1.1800516,0 0,-0.36016 1.1800516,0 0,-1.18005 0.3559222,0 z"
         style="font-size:4.33886099px;fill:#000000;fill-opacity:1;stroke-width:0.26458332"
         id="path4136" />
      <path
         d="m 5.8992179,293.04361 q -0.3050762,0 -0.4809187,0.16313 -0.1737239,0.16313 -0.1737239,0.44914 0,0.28601 0.1737239,0.44914 0.1758425,0.16313 0.4809187,0.16313 0.3050762,0 0.4809187,-0.16313 0.1758425,-0.16525 0.1758425,-0.44914 0,-0.28601 -0.1758425,-0.44914 -0.173724,-0.16313 -0.4809187,-0.16313 z m -0.4279541,-0.1822 q -0.2754159,-0.0678 -0.4300726,-0.25635 -0.1525381,-0.18855 -0.1525381,-0.45973 0,-0.37923 0.2690602,-0.59956 0.2711788,-0.22033 0.7415046,-0.22033 0.4724443,0 0.7415046,0.22033 0.2690602,0.22033 0.2690602,0.59956 0,0.27118 -0.1546567,0.45973 -0.1525381,0.18856 -0.4258355,0.25635 0.3093134,0.072 0.4809187,0.28177 0.1737239,0.20974 0.1737239,0.5127 0,0.45973 -0.2817717,0.70549 -0.2796531,0.24575 -0.8029435,0.24575 -0.5232904,0 -0.8050621,-0.24575 -0.2796531,-0.24576 -0.2796531,-0.70549 0,-0.30296 0.1737239,-0.5127 0.1737239,-0.20974 0.4830372,-0.28177 z m -0.1567752,-0.67583 q 0,0.24576 0.1525381,0.38347 0.1546566,0.1377 0.4321912,0.1377 0.275416,0 0.4300726,-0.1377 0.1567753,-0.13771 0.1567753,-0.38347 0,-0.24575 -0.1567753,-0.38346 -0.1546566,-0.13771 -0.4300726,-0.13771 -0.2775346,0 -0.4321912,0.13771 -0.1525381,0.13771 -0.1525381,0.38346 z"
         style="font-size:4.33886099px;fill:#000000;fill-opacity:1;stroke-width:0.26458332"
         id="path4138" />
      <path
         d="m 8.7148163,292.79362 q -0.2881275,0 -0.4576142,0.19702 -0.1673682,0.19703 -0.1673682,0.54024 0,0.34109 0.1673682,0.54024 0.1694867,0.19703 0.4576142,0.19703 0.2881275,0 0.4554957,-0.19703 0.1694867,-0.19915 0.1694867,-0.54024 0,-0.34321 -0.1694867,-0.54024 -0.1673682,-0.19702 -0.4554957,-0.19702 z m 0.8495524,-1.34107 0,0.38982 q -0.1610124,-0.0763 -0.326262,-0.11652 -0.163131,-0.0402 -0.3241434,-0.0402 -0.4237169,0 -0.6482869,0.286 -0.2224514,0.28601 -0.2542301,0.86439 0.1249965,-0.18432 0.3135505,-0.28177 0.188554,-0.0996 0.4152425,-0.0996 0.4766815,0 0.7520975,0.29025 0.2775346,0.28813 0.2775346,0.78599 0,0.48728 -0.2881275,0.78176 -0.2881275,0.29448 -0.7669276,0.29448 -0.5487134,0 -0.8389594,-0.41948 -0.2902461,-0.42159 -0.2902461,-1.2203 0,-0.74998 0.3559222,-1.19488 0.3559222,-0.44702 0.9554816,-0.44702 0.1610124,0 0.3241434,0.0318 0.1652496,0.0318 0.3432107,0.0953 z"
         style="font-size:4.33886099px;fill:#000000;fill-opacity:1;stroke-width:0.26458332"
         id="path4140" />
      <path
         d="m 11.964725,294.18553 0.699133,0 0,-2.41307 -0.760572,0.15254 0,-0.38982 0.756335,-0.15254 0.427954,0 0,2.80289 0.699133,0 0,0.36015 -1.821983,0 0,-0.36015 z"
         style="font-size:4.33886099px;fill:#000000;fill-opacity:1;stroke-width:0.26458332"
         id="path4142" />
      <path
         d="m 14.657446,291.38264 1.680038,0 0,0.36016 -1.2881,0 0,0.7754 q 0.09322,-0.0318 0.186436,-0.0466 0.09322,-0.017 0.186435,-0.017 0.529646,0 0.83896,0.29025 0.309313,0.29024 0.309313,0.78599 0,0.51058 -0.317788,0.79447 -0.317787,0.28177 -0.896161,0.28177 -0.199147,0 -0.406768,-0.0339 -0.205503,-0.0339 -0.425836,-0.1017 l 0,-0.43007 q 0.190673,0.10381 0.394057,0.15466 0.203384,0.0508 0.430073,0.0508 0.366515,0 0.580492,-0.19279 0.213977,-0.19279 0.213977,-0.52329 0,-0.3305 -0.213977,-0.52329 -0.213977,-0.19279 -0.580492,-0.19279 -0.171606,0 -0.343211,0.0381 -0.169487,0.0381 -0.347448,0.11864 l 0,-1.58894 z"
         style="font-size:4.33886099px;fill:#000000;fill-opacity:1;stroke-width:0.26458332"
         id="path4144" />
      <path
         d="m 17.784477,294.18553 1.493602,0 0,0.36015 -2.008418,0 0,-0.36015 q 0.243637,-0.25212 0.663117,-0.67583 0.421598,-0.42584 0.529646,-0.54872 0.205503,-0.23092 0.286009,-0.38982 0.08263,-0.16101 0.08263,-0.31566 0,-0.25212 -0.177961,-0.41101 -0.175843,-0.15889 -0.459733,-0.15889 -0.201266,0 -0.425836,0.0699 -0.222451,0.0699 -0.476681,0.21186 l 0,-0.43219 q 0.258467,-0.10381 0.483037,-0.15678 0.22457,-0.053 0.411005,-0.053 0.491512,0 0.783877,0.24575 0.292364,0.24576 0.292364,0.65676 0,0.19491 -0.07415,0.37076 -0.07203,0.17372 -0.264823,0.411 -0.05296,0.0614 -0.336855,0.35592 -0.283891,0.29237 -0.800825,0.8199 z"
         style="font-size:4.33886099px;fill:#000000;fill-opacity:1;stroke-width:0.26458332"
         id="path4146" />
      <path
         d="m 20.252628,294.18553 0.699133,0 0,-2.41307 -0.760572,0.15254 0,-0.38982 0.756335,-0.15254 0.427954,0 0,2.80289 0.699133,0 0,0.36015 -1.821983,0 0,-0.36015 z"
         style="font-size:4.33886099px;fill:#000000;fill-opacity:1;stroke-width:0.26458332"
         id="path4148" />
      <path
         d="m 23.856338,291.66441 q -0.330499,0 -0.497867,0.32626 -0.16525,0.32415 -0.16525,0.97667 0,0.6504 0.16525,0.97667 0.167368,0.32414 0.497867,0.32414 0.332618,0 0.497868,-0.32414 0.167368,-0.32627 0.167368,-0.97667 0,-0.65252 -0.167368,-0.97667 -0.16525,-0.32626 -0.497868,-0.32626 z m 0,-0.33897 q 0.531765,0 0.811418,0.42159 0.281772,0.41948 0.281772,1.22031 0,0.79871 -0.281772,1.2203 -0.279653,0.41948 -0.811418,0.41948 -0.531764,0 -0.813536,-0.41948 -0.279653,-0.42159 -0.279653,-1.2203 0,-0.80083 0.279653,-1.22031 0.281772,-0.42159 0.813536,-0.42159 z"
         style="font-size:4.33886099px;fill:#000000;fill-opacity:1;stroke-width:0.26458332"
         id="path4150" />
      <path
         d="m 26.879558,291.75551 -1.080478,1.68851 1.080478,0 0,-1.68851 z m -0.112284,-0.37287 0.53812,0 0,2.06138 0.451258,0 0,0.35592 -0.451258,0 0,0.74574 -0.425836,0 0,-0.74574 -1.427925,0 0,-0.41312 1.315641,-2.00418 z"
         style="font-size:4.33886099px;fill:#000000;fill-opacity:1;stroke-width:0.26458332"
         id="path4152" />
      <path
         d="m 29.642193,291.75551 -1.080478,1.68851 1.080478,0 0,-1.68851 z m -0.112285,-0.37287 0.53812,0 0,2.06138 0.451259,0 0,0.35592 -0.451259,0 0,0.74574 -0.425835,0 0,-0.74574 -1.427926,0 0,-0.41312 1.315641,-2.00418 z"
         style="font-size:4.33886099px;fill:#000000;fill-opacity:1;stroke-width:0.26458332"
         id="path4154" />
      <path
         d="m 32.197206,292.79362 q -0.288128,0 -0.457614,0.19702 -0.167369,0.19703 -0.167369,0.54024 0,0.34109 0.167369,0.54024 0.169486,0.19703 0.457614,0.19703 0.288127,0 0.455495,-0.19703 0.169487,-0.19915 0.169487,-0.54024 0,-0.34321 -0.169487,-0.54024 -0.167368,-0.19702 -0.455495,-0.19702 z m 0.849552,-1.34107 0,0.38982 q -0.161012,-0.0763 -0.326262,-0.11652 -0.163131,-0.0402 -0.324143,-0.0402 -0.423717,0 -0.648287,0.286 -0.222452,0.28601 -0.25423,0.86439 0.124996,-0.18432 0.31355,-0.28177 0.188554,-0.0996 0.415243,-0.0996 0.476681,0 0.752097,0.29025 0.277535,0.28813 0.277535,0.78599 0,0.48728 -0.288128,0.78176 -0.288127,0.29448 -0.766927,0.29448 -0.548714,0 -0.83896,-0.41948 -0.290246,-0.42159 -0.290246,-1.2203 0,-0.74998 0.355922,-1.19488 0.355923,-0.44702 0.955482,-0.44702 0.161012,0 0.324143,0.0318 0.16525,0.0318 0.343211,0.0953 z"
         style="font-size:4.33886099px;fill:#000000;fill-opacity:1;stroke-width:0.26458332"
         id="path4156" />
      <path
         d="m 35.167459,291.75551 -1.080478,1.68851 1.080478,0 0,-1.68851 z m -0.112285,-0.37287 0.538121,0 0,2.06138 0.451258,0 0,0.35592 -0.451258,0 0,0.74574 -0.425836,0 0,-0.74574 -1.427926,0 0,-0.41312 1.315641,-2.00418 z"
         style="font-size:4.33886099px;fill:#000000;fill-opacity:1;stroke-width:0.26458332"
         id="path4158" />
      <path
         d="m 36.646232,291.38264 2.033841,0 0,0.1822 -1.148273,2.98084 -0.447022,0 1.080479,-2.80288 -1.519025,0 0,-0.36016 z"
         style="font-size:4.33886099px;fill:#000000;fill-opacity:1;stroke-width:0.26458332"
         id="path4160" />
      <path
         d="m 40.813487,292.84022 q 0.307195,0.0657 0.4788,0.2733 0.173724,0.20762 0.173724,0.5127 0,0.46821 -0.322025,0.72456 -0.322024,0.25634 -0.915228,0.25634 -0.199147,0 -0.411005,-0.0403 -0.20974,-0.0381 -0.43431,-0.11652 l 0,-0.41313 q 0.177961,0.10382 0.389819,0.15678 0.211859,0.053 0.442784,0.053 0.402532,0 0.612271,-0.15889 0.211859,-0.15889 0.211859,-0.46185 0,-0.27965 -0.197029,-0.43643 -0.194909,-0.15889 -0.544476,-0.15889 l -0.368633,0 0,-0.35169 0.385582,0 q 0.315669,0 0.483037,-0.12499 0.167368,-0.12712 0.167368,-0.3644 0,-0.24364 -0.173724,-0.37287 -0.171605,-0.13135 -0.49363,-0.13135 -0.175842,0 -0.377108,0.0381 -0.201265,0.0381 -0.442784,0.11864 l 0,-0.38134 q 0.243637,-0.0678 0.455496,-0.1017 0.213977,-0.0339 0.402531,-0.0339 0.487274,0 0.771165,0.22245 0.28389,0.22033 0.28389,0.59744 0,0.2627 -0.15042,0.4449 -0.150419,0.18008 -0.427954,0.24999 z"
         style="font-size:4.33886099px;fill:#000000;fill-opacity:1;stroke-width:0.26458332"
         id="path4162" />
    </g>
  </g>
</svg>
