<?xml version="1.0" encoding="UTF-8" standalone="no"?>
<!-- Created with Inkscape (http://www.inkscape.org/) -->

<svg
   xmlns:dc="http://purl.org/dc/elements/1.1/"
   xmlns:cc="http://creativecommons.org/ns#"
   xmlns:rdf="http://www.w3.org/1999/02/22-rdf-syntax-ns#"
   xmlns:svg="http://www.w3.org/2000/svg"
   xmlns="http://www.w3.org/2000/svg"
   xmlns:sodipodi="http://sodipodi.sourceforge.net/DTD/sodipodi-0.dtd"
   xmlns:inkscape="http://www.inkscape.org/namespaces/inkscape"
   width="400"
   height="600"
   viewBox="0 0 105.83333 158.75"
   version="1.1"
   id="svg1968"
   inkscape:version="0.91 r13725"
   sodipodi:docname="eprism.svg">
  <sodipodi:namedview
     id="base"
     pagecolor="#ffffff"
     bordercolor="#666666"
     borderopacity="1.0"
     inkscape:pageopacity="0.0"
     inkscape:pageshadow="2"
     inkscape:zoom="1.2138666"
     inkscape:cx="200"
     inkscape:cy="175.84172"
     inkscape:document-units="mm"
     inkscape:current-layer="layer1"
     showgrid="false"
     inkscape:window-width="1280"
     inkscape:window-height="717"
     inkscape:window-x="0"
     inkscape:window-y="0"
     inkscape:window-maximized="1"
     units="px" />
  <defs
     id="defs1962">
    <rect
       height="9"
       width="9"
       id="p"
       x="0"
       y="0" />
  </defs>
  <metadata
     id="metadata1965">
    <rdf:RDF>
      <cc:Work
         rdf:about="">
        <dc:format>image/svg+xml</dc:format>
        <dc:type
           rdf:resource="http://purl.org/dc/dcmitype/StillImage" />
        <dc:title />
      </cc:Work>
    </rdf:RDF>
  </metadata>
  <g
     inkscape:label="Layer 1"
     inkscape:groupmode="layer"
     id="layer1"
     transform="translate(0,-138.24998)">
    <path
       style="fill:none;fill-rule:evenodd;stroke:#f0f0f0;stroke-width:3.83098102;stroke-linecap:round;stroke-linejoin:round;stroke-miterlimit:4;stroke-dasharray:none;stroke-opacity:1"
       d="M 21.208755,158.14866 18.417277,261.43337 38.46517,286.55668"
       id="path4191"
       inkscape:connector-curvature="0"
       sodipodi:nodetypes="ccc" />
    <path
       style="fill:#ffffff;fill-rule:evenodd;stroke:#f0f0f0;stroke-width:3.83098102;stroke-linecap:round;stroke-linejoin:round;stroke-miterlimit:4;stroke-dasharray:none;stroke-opacity:1"
       d="m 25.269088,174.64376 14.718706,99.73192"
       id="path4193"
       inkscape:connector-curvature="0"
       sodipodi:nodetypes="cc" />
    <path
       style="fill:none;fill-rule:evenodd;stroke:#f0f0f0;stroke-width:3.83098102;stroke-linecap:round;stroke-linejoin:round;stroke-miterlimit:4;stroke-dasharray:none;stroke-opacity:1"
       d="m 28.314338,157.38735 52.276783,2.03016 16.748874,110.64406 -52.530556,16.74888"
       id="path4195"
       inkscape:connector-curvature="0"
       sodipodi:nodetypes="cccc" />
    <path
       style="fill:none;fill-rule:evenodd;stroke:#f0f0f0;stroke-width:3.83098102;stroke-linecap:round;stroke-linejoin:round;stroke-miterlimit:4;stroke-dasharray:none;stroke-opacity:1"
       d="M 86.427852,243.41565 43.286814,252.29762 30.598275,169.56834 75.261933,169.0608"
       id="path4197"
       inkscape:connector-curvature="0"
       sodipodi:nodetypes="cccc" />
    <text
       xml:space="preserve"
       style="font-style:normal;font-weight:900;font-size:10.58333302px;line-height:125%;font-family:'Arial Black';letter-spacing:0px;word-spacing:0px;fill:#000000;fill-opacity:1;stroke:none;stroke-width:1px;stroke-linecap:butt;stroke-linejoin:miter;stroke-opacity:1;-inkscape-font-specification:'Arial Black,  Heavy';font-stretch:normal;font-variant:normal;"
       x="56.718445"
       y="221.78639"
       id="text4138"
       sodipodi:linespacing="125%"><tspan
         sodipodi:role="line"
         id="tspan4140"
         x="56.718445"
         y="221.78639" /></text>
    <g
       id="g4150"
       transform="matrix(0.99636631,-0.28025855,0.08517141,0.97968987,-15.976523,59.467983)"
       style="fill:#ffffff">
      <g
         style="font-style:normal;font-weight:normal;font-size:10.58333302px;line-height:125%;font-family:sans-serif;letter-spacing:0px;word-spacing:0px;fill:#ffffff;fill-opacity:1;stroke:none;stroke-width:1px;stroke-linecap:butt;stroke-linejoin:miter;stroke-opacity:1"
         id="text4142">
        <path
           d="m 53.475974,222.22518 3.891235,0 q 1.27124,0 1.901693,0.60462 0.63562,0.60461 0.63562,1.72082 0,1.14722 -0.692464,1.79318 -0.687297,0.64595 -2.103231,0.64595 l -1.281576,0 0,2.8112 -2.351277,0 0,-7.57577 z m 2.351277,3.22978 0.573609,0 q 0.676961,0 0.950846,-0.23254 0.273885,-0.23771 0.273885,-0.60462 0,-0.35656 -0.237711,-0.60461 -0.237712,-0.24805 -0.894003,-0.24805 l -0.666626,0 0,1.68982 z"
           style="font-style:normal;font-variant:normal;font-weight:900;font-stretch:normal;font-family:'Arial Black';-inkscape-font-specification:'Arial Black, Heavy';fill:#ffffff"
           id="path4157"
           inkscape:connector-curvature="0" />
        <path
           d="m 61.015565,224.31291 1.968872,0 0,0.89917 q 0.28422,-0.58394 0.583944,-0.80098 0.304891,-0.22221 0.749308,-0.22221 0.465088,0 1.018026,0.28939 l -0.651123,1.49861 q -0.372071,-0.15503 -0.589112,-0.15503 -0.413411,0 -0.640787,0.34107 -0.325562,0.48059 -0.325562,1.79834 l 0,1.83968 -2.113566,0 0,-5.48804 z"
           style="font-style:normal;font-variant:normal;font-weight:900;font-stretch:normal;font-family:'Arial Black';-inkscape-font-specification:'Arial Black, Heavy';fill:#ffffff"
           id="path4159"
           inkscape:connector-curvature="0" />
        <path
           d="m 65.764629,222.22518 2.103231,0 0,1.43144 -2.103231,0 0,-1.43144 z m 0,2.08773 2.103231,0 0,5.48804 -2.103231,0 0,-5.48804 z"
           style="font-style:normal;font-variant:normal;font-weight:900;font-stretch:normal;font-family:'Arial Black';-inkscape-font-specification:'Arial Black, Heavy';fill:#ffffff"
           id="path4161"
           inkscape:connector-curvature="0" />
        <path
           d="m 68.829041,228.28166 2.087728,-0.19637 q 0.129191,0.37207 0.361735,0.53227 0.232544,0.1602 0.620117,0.1602 0.423747,0 0.656291,-0.18087 0.180868,-0.13436 0.180868,-0.3359 0,-0.22737 -0.237712,-0.3514 -0.170532,-0.0879 -0.904337,-0.21704 -1.095541,-0.1912 -1.524455,-0.3514 -0.423747,-0.16536 -0.718303,-0.55294 -0.289388,-0.38757 -0.289388,-0.88366 0,-0.54261 0.315227,-0.93535 0.315226,-0.39274 0.868164,-0.58394 0.552937,-0.19637 1.483113,-0.19637 0.981852,0 1.44694,0.14986 0.470256,0.14986 0.780314,0.46509 0.315227,0.31522 0.521932,0.85266 l -1.99471,0.19637 q -0.07751,-0.26355 -0.258382,-0.38757 -0.248047,-0.16537 -0.599447,-0.16537 -0.356567,0 -0.521932,0.12919 -0.160197,0.12403 -0.160197,0.30489 0,0.20154 0.206706,0.30489 0.206706,0.10336 0.89917,0.18604 1.049032,0.11886 1.560628,0.33073 0.511597,0.21187 0.780314,0.60461 0.273886,0.39274 0.273886,0.863 0,0.47542 -0.289389,0.92501 -0.28422,0.44958 -0.904337,0.7183 -0.61495,0.26355 -1.679484,0.26355 -1.503784,0 -2.144572,-0.42891 -0.63562,-0.42892 -0.816488,-1.21957 z"
           style="font-style:normal;font-variant:normal;font-weight:900;font-stretch:normal;font-family:'Arial Black';-inkscape-font-specification:'Arial Black, Heavy';fill:#ffffff"
           id="path4163"
           inkscape:connector-curvature="0" />
        <path
           d="m 75.686504,224.31291 1.963705,0 0,0.80099 q 0.423746,-0.50126 0.852661,-0.71314 0.434082,-0.21187 1.043864,-0.21187 0.65629,0 1.038696,0.23254 0.382406,0.23255 0.625285,0.69247 0.496094,-0.53744 0.904337,-0.72864 0.408244,-0.19637 1.007691,-0.19637 0.883667,0 1.37976,0.5271 0.496094,0.52193 0.496094,1.63814 l 0,3.44682 -2.108398,0 0,-3.12642 q 0,-0.37208 -0.144694,-0.55294 -0.211874,-0.28422 -0.5271,-0.28422 -0.37207,0 -0.599446,0.26871 -0.227377,0.26872 -0.227377,0.863 l 0,2.83187 -2.108398,0 0,-3.02307 q 0,-0.36174 -0.04134,-0.49093 -0.06718,-0.2067 -0.232544,-0.33073 -0.165365,-0.12919 -0.387573,-0.12919 -0.361735,0 -0.594279,0.27389 -0.232544,0.27388 -0.232544,0.89917 l 0,2.80086 -2.108399,0 0,-5.48804 z"
           style="font-style:normal;font-variant:normal;font-weight:900;font-stretch:normal;font-family:'Arial Black';-inkscape-font-specification:'Arial Black, Heavy';fill:#ffffff"
           id="path4165"
           inkscape:connector-curvature="0" />
      </g>
      <g
         transform="matrix(0.8756163,-0.48300735,0.48300735,0.8756163,0,0)"
         style="font-style:normal;font-weight:normal;font-size:10.58333302px;line-height:125%;font-family:sans-serif;letter-spacing:0px;word-spacing:0px;fill:#ffffff;fill-opacity:1;stroke:none;stroke-width:1px;stroke-linecap:butt;stroke-linejoin:miter;stroke-opacity:1"
         id="text4146">
        <path
           d="m -64.292717,222.61469 -4.216797,0 q 0.05684,0.50643 0.273885,0.75448 0.304891,0.35656 0.795817,0.35656 0.310059,0 0.589111,-0.15503 0.170533,-0.0982 0.366903,-0.34623 l 2.072225,0.1912 q -0.475423,0.82683 -1.147217,1.18856 -0.671793,0.35657 -1.927531,0.35657 -1.090372,0 -1.715657,-0.30489 -0.625285,-0.31006 -1.038696,-0.97669 -0.408244,-0.67179 -0.408244,-1.57613 0,-1.28674 0.821655,-2.08256 0.826823,-0.79581 2.278931,-0.79581 1.178222,0 1.860351,0.35656 0.682129,0.35657 1.038696,1.03353 0.356568,0.67696 0.356568,1.76217 l 0,0.23771 z m -2.139404,-1.00769 q -0.06201,-0.60978 -0.33073,-0.87333 -0.263549,-0.26355 -0.697631,-0.26355 -0.501262,0 -0.800985,0.39791 -0.191203,0.24804 -0.242879,0.73897 l 2.072225,0 z"
           style="font-style:normal;font-variant:normal;font-weight:900;font-stretch:normal;font-family:'Arial Black';-inkscape-font-specification:'Arial Black, Heavy';fill:#ffffff"
           id="path4168"
           inkscape:connector-curvature="0" />
      </g>
    </g>
  </g>
</svg>
