<?xml version="1.0" encoding="UTF-8" standalone="no"?>
<!-- Generator: Adobe Fireworks 10, Export SVG Extension by Aaron Beall (http://fireworks.abeall.com) . Version: 0.6.1  -->

<svg
   xmlns:dc="http://purl.org/dc/elements/1.1/"
   xmlns:cc="http://creativecommons.org/ns#"
   xmlns:rdf="http://www.w3.org/1999/02/22-rdf-syntax-ns#"
   xmlns:svg="http://www.w3.org/2000/svg"
   xmlns="http://www.w3.org/2000/svg"
   xmlns:sodipodi="http://sodipodi.sourceforge.net/DTD/sodipodi-0.dtd"
   xmlns:inkscape="http://www.inkscape.org/namespaces/inkscape"
   id="Untitled-Page%201"
   viewBox="0 0 1024 400"
   version="1.1"
   xml:space="preserve"
   x="0px"
   y="0px"
   width="1024"
   height="400"
   sodipodi:docname="Home_main.svg"
   inkscape:export-filename="Home_main.png"
   inkscape:export-xdpi="96"
   inkscape:export-ydpi="96"
   inkscape:version="0.92.2 (5c3e80d, 2017-08-06)"><!--<style
     type="text/css"
     id="style4880"><![CDATA[
#iot_spin_1 {
    animation: spin 40s infinite linear;
    transform-origin: 50% 50%;
}

@keyframes spin {
    0%  {transform: rotate(0deg);}
    100% {transform: rotate(360deg);}
}
]]></style>--><metadata
     id="metadata852"><rdf:RDF><cc:Work
         rdf:about=""><dc:format>image/svg+xml</dc:format><dc:type
           rdf:resource="http://purl.org/dc/dcmitype/StillImage" /><dc:title /></cc:Work></rdf:RDF></metadata><defs
     id="defs850"><style
       id="style2296">.cls-1,.cls-21,.cls-6{fill:#5f3813;}.cls-13,.cls-2{fill:none;}.cls-3{isolation:isolate;}.cls-4{fill:#fde6c4;}.cls-5{fill:#edc188;}.cls-18,.cls-6{opacity:0.1;}.cls-7{fill:#f69322;}.cls-8{fill:#c4620a;}.cls-9{fill:#faaf42;}.cls-10{fill:#f05a2a;}.cls-11{fill:#1e75ba;}.cls-12{fill:#29a9e0;}.cls-13{stroke:#221f1f;stroke-miterlimit:10;stroke-width:0.6px;}.cls-14,.cls-15{fill:#221f1f;}.cls-14,.cls-27,.cls-29{opacity:0.3;}.cls-16{fill:#5c6987;}.cls-17{fill:#403f41;}.cls-18,.cls-20{fill:#fff;}.cls-19{fill:#ffdc24;}.cls-21,.cls-23{opacity:0.4;}.cls-22{fill:#be1e2c;}.cls-24{clip-path:url(#clip-path);}.cls-25{fill:red;}.cls-26{fill:#ff8a95;}.cls-27{mix-blend-mode:multiply;}.cls-28{fill:#ff2d6d;}.cls-29{mix-blend-mode:screen;}.cls-30{fill:#ff9b95;}.cls-31{fill:#b34465;}.cls-32{opacity:0.39;}.cls-33{clip-path:url(#clip-path-2);}.cls-34{fill:url(#linear-gradient);}</style><clipPath
       transform="translate(0.24 -0.04)"
       id="clip-path"><path
         id="path2298"
         d="M62.18,133.82A7.21,7.21,0,0,1,61,132.17a12.09,12.09,0,0,1-1-4.56c0-2,.11-3.85,1.35-5.5a5.22,5.22,0,0,1-1.66-1.88,6.24,6.24,0,0,1-1.16-4.12,30.68,30.68,0,0,1,1.14-3.92,9,9,0,0,1,1.14-2.4,6.25,6.25,0,0,1-.36-1.25,4.8,4.8,0,0,1,1-4.72,2.61,2.61,0,0,1,.37-.36l-.12-.1,0-.2A2.24,2.24,0,0,1,61.3,102a7.26,7.26,0,0,1,.05-2.07,6.15,6.15,0,0,1,1.52-2.73,1.27,1.27,0,0,1-.18-.2,5.52,5.52,0,0,1-.33-1.8,6.77,6.77,0,0,1,1-4.52A15,15,0,0,1,65.75,88a9,9,0,0,1-.65-2.82,7.73,7.73,0,0,1,1-3.69,6.88,6.88,0,0,1,2.49-3.34,4.92,4.92,0,0,1,1-.72l-.56.08v-.06l0-.2a1.57,1.57,0,0,1,.24-1.08,4.84,4.84,0,0,1,1.52-1.93,7.23,7.23,0,0,1,0-2.07c.38-1.31.6-2.38,1-3.49.9-1.3,2.26-3,3.9-3.41a10.19,10.19,0,0,1,3.13-4.48,7.83,7.83,0,0,1,3.38-1.85c.4-.07,1.49-.89,2-.36l.24,0a6.19,6.19,0,0,1,2.33-2.91c.16-.24,2.25-1.24,2.36-.64l.08,0a3.72,3.72,0,0,1,3.1-1.86c2.27,0,3.8,1.58,4.6,3.71a7.31,7.31,0,0,1,.47,4.49,21,21,0,0,1,3.19,8.89c.2,2.23.19,4.51.59,6.71l.47,2.6a7.61,7.61,0,0,1,.81,2.12,4.44,4.44,0,0,1-.14,2.14,15.75,15.75,0,0,1,2.29,5.11,13.82,13.82,0,0,1,.33,4.07c0,1-.2,2.3-1.12,2.88a5.78,5.78,0,0,1,.52.53,10.31,10.31,0,0,1,1.4,3l.44,2.4a13.29,13.29,0,0,1,0,3.08.85.85,0,0,0-.07.3h0c0,.13.06.25.08.34.18,1,.78,1.92.93,2.72s.7,1.52.64,2.36c-.13.44.17,2-.4,2.34h0a2.78,2.78,0,0,1,.1.39,6,6,0,0,1,1,3.12c-.15,1.47-1.22,3.52-2.85,3.62,2,.67,2.83,2,3.6,3.89a4.5,4.5,0,0,1-.36,4.81v.38a3.37,3.37,0,0,1,1.62.56,7.11,7.11,0,0,1,2.14,5,5.53,5.53,0,0,1-.76,2.62l0,0a21.83,21.83,0,0,1,1.67,2.15,9.1,9.1,0,0,1,.84,4.6,5.87,5.87,0,0,1-1.54,4l0,.36c.34,0,1.36,1.28,1.39,1.45a5.58,5.58,0,0,1,.87,2.53,6.73,6.73,0,0,1-.67,4.27l.24.15c.71.49.8,2.13.95,2.93a4.9,4.9,0,0,1-.74,3.85,6.4,6.4,0,0,1-4.91,2.54,8.18,8.18,0,0,1-2.45-.33l-.05.17a6.35,6.35,0,0,1-1.82,1.36,6.71,6.71,0,0,1-2.8.51,5.62,5.62,0,0,1-2.71-.13c-1.07-.22-2.05-1.07-3.25-.85-2,.16-4,.93-6.14.29a7.26,7.26,0,0,1-3.08-2.12,1.25,1.25,0,0,1-1.36.45,7.21,7.21,0,0,1-1.94-.47,8.83,8.83,0,0,1-4.63-3.91c-.55-.73-.89-1.49-1.44-2.22a19.15,19.15,0,0,0-2.36-1.63c-.71-.49-1.93-1.51-1.87-2.34l0-.05-.13-.08a1.35,1.35,0,0,1-.81-.32,11.51,11.51,0,0,1-2.47-2.23c-.78-.89-1.53-1.58-2.07-2.31a9.42,9.42,0,0,1-1-2.06h0a5.12,5.12,0,0,1-.48-.36,9.59,9.59,0,0,1-3.11-4.6c-.11-.6-.42-1.16-.53-1.76a4.33,4.33,0,0,1,0-1.87c-.41-.14-.41-1-.48-1.35l-.22-1.2c.12-.64.43-1.32.52-2,0,0,0,0-.21-.17A4.48,4.48,0,0,0,62.18,133.82Zm98.74-18a7.21,7.21,0,0,0,.47-1.94,12.09,12.09,0,0,0-.64-4.63c-.74-1.88-1.45-3.56-3.2-4.67a5.22,5.22,0,0,0,.89-2.34,6.24,6.24,0,0,0-.36-4.27,30.67,30.67,0,0,0-2.45-3.27,9,9,0,0,0-1.91-1.85,6.25,6.25,0,0,0-.11-1.3A4.8,4.8,0,0,0,151,87.5a2.42,2.42,0,0,0-.44-.21l.1-.14,0-.2a2.22,2.22,0,0,0-.08-1.22,7.28,7.28,0,0,0-.8-1.92,6.17,6.17,0,0,0-2.39-2,1.26,1.26,0,0,0,.1-.25,5.53,5.53,0,0,0-.33-1.8,6.77,6.77,0,0,0-2.56-3.87,15,15,0,0,0-3.12-1.65,9,9,0,0,0-.38-2.87,7.73,7.73,0,0,0-2.22-3.11A6.89,6.89,0,0,0,135.33,66a4.7,4.7,0,0,0-1.17-.33l.58-.13v-.06l0-.2a1.58,1.58,0,0,0-.63-.92,4.89,4.89,0,0,0-2.12-1.27,7.23,7.23,0,0,0-.78-1.92c-.82-1.09-1.41-2-2.19-2.91-1.3-.9-3.18-2.06-4.85-1.82a10.19,10.19,0,0,0-4.51-3.09,7.83,7.83,0,0,0-3.82-.54c-.4.07-1.71-.31-2,.36l-.23.05a6.19,6.19,0,0,0-3.2-1.91c-.24-.16-2.54-.36-2.43.24l-.06.07a3.72,3.72,0,0,0-3.55-.65c-2.13.8-3,2.82-3,5.09a7.31,7.31,0,0,0,1.14,4.36,21,21,0,0,0,.17,9.44c.6,2.16,1.44,4.28,1.84,6.48l.47,2.6a7.66,7.66,0,0,0,0,2.28,4.41,4.41,0,0,0,.87,2,15.76,15.76,0,0,0-.35,5.59,13.82,13.82,0,0,0,1.12,3.93c.38,1,1,2.08,2.06,2.31a5.56,5.56,0,0,0-.27.67,10.24,10.24,0,0,0-.21,3.34l.44,2.4a13.29,13.29,0,0,0,1.11,2.87c.05.08.15.16.17.26h0c0,.13,0,.26,0,.35.18,1-.07,2.08.08,2.88s-.12,1.67.22,2.44c.27.36.56,2,1.19,2.05h0a2.78,2.78,0,0,0,0,.4,6,6,0,0,0,.18,3.27c.65,1.33,2.38,2.87,3.94,2.38-1.62,1.33-2,2.83-2,4.91a4.5,4.5,0,0,0,2,4.38l.14.36a3.37,3.37,0,0,0-1.32,1.1,7.11,7.11,0,0,0-.25,5.41,5.53,5.53,0,0,0,1.64,2.18l0,0a21.78,21.78,0,0,0-.81,2.6,9.1,9.1,0,0,0,.84,4.6,5.87,5.87,0,0,0,2.85,3.2l.15.33a4.18,4.18,0,0,0-.79,1.85,5.58,5.58,0,0,0,.07,2.67,6.73,6.73,0,0,0,2.13,3.76l-.17.22c-.49.71,0,2.27.15,3.07a4.9,4.9,0,0,0,2.05,3.34,6.4,6.4,0,0,0,5.49.65,8.18,8.18,0,0,0,2.18-1.18l.11.14a6.35,6.35,0,0,0,2.18.64A6.71,6.71,0,0,0,135,162a5.62,5.62,0,0,0,2.49-1.07c.93-.58,1.54-1.73,2.74-1.94,2-.56,4-.53,5.85-1.89a7.26,7.26,0,0,0,2.13-3.07,1.25,1.25,0,0,0,1.43-.06,7.21,7.21,0,0,0,1.65-1.13,8.83,8.83,0,0,0,3-5.29c.25-.87.31-1.71.56-2.58a19.18,19.18,0,0,1,1.63-2.36c.49-.71,1.27-2.09.93-2.85l0,0,.09-.12a1.35,1.35,0,0,0,.65-.58,11.52,11.52,0,0,0,1.53-3c.42-1.11.87-2,1.13-2.89a9.43,9.43,0,0,0,.2-2.28h0a5.11,5.11,0,0,0,.32-.5,9.59,9.59,0,0,0,1.29-5.4c-.11-.6,0-1.24-.13-1.84a4.32,4.32,0,0,0-.64-1.75c.34-.28.07-1,0-1.43l-.22-1.2c-.34-.56-.89-1.08-1.2-1.64,0,0,0,0,.13-.23A4.52,4.52,0,0,1,160.91,115.84Z"
         class="cls-1" /></clipPath><clipPath
       transform="translate(0.24 -0.04)"
       id="clip-path-2"><path
         id="path2301"
         d="M68.18,128.45A7.21,7.21,0,0,1,67,126.8a12.09,12.09,0,0,1-1-4.56c0-2,.11-3.85,1.35-5.5a5.22,5.22,0,0,1-1.66-1.88,6.24,6.24,0,0,1-1.16-4.12,30.68,30.68,0,0,1,1.14-3.92,9,9,0,0,1,1.14-2.4,6.25,6.25,0,0,1-.36-1.25,4.8,4.8,0,0,1,1-4.72,2.61,2.61,0,0,1,.37-.36l-.12-.1,0-.2a2.24,2.24,0,0,1-.38-1.17,7.26,7.26,0,0,1,.05-2.07,6.15,6.15,0,0,1,1.52-2.73,1.27,1.27,0,0,1-.18-.2,5.52,5.52,0,0,1-.33-1.8,6.77,6.77,0,0,1,1-4.52,15,15,0,0,1,2.34-2.65,9,9,0,0,1-.65-2.82,7.73,7.73,0,0,1,1-3.69,6.88,6.88,0,0,1,2.49-3.34,4.92,4.92,0,0,1,1-.72l-.56.08v-.06l0-.2a1.57,1.57,0,0,1,.24-1.08,4.84,4.84,0,0,1,1.52-1.93,7.23,7.23,0,0,1,0-2.07c.38-1.31.6-2.38,1-3.49.9-1.3,2.26-3,3.9-3.41a10.19,10.19,0,0,1,3.13-4.48,7.83,7.83,0,0,1,3.38-1.85c.4-.07,1.49-.89,2-.36l.24,0a6.19,6.19,0,0,1,2.33-2.91C92.93,50,95,49,95.13,49.63l.08,0a3.72,3.72,0,0,1,3.1-1.86c2.27,0,3.8,1.58,4.6,3.71a7.31,7.31,0,0,1,.47,4.49,21,21,0,0,1,3.19,8.89c.2,2.23.19,4.51.59,6.71l.47,2.6a7.61,7.61,0,0,1,.81,2.12,4.44,4.44,0,0,1-.14,2.14,15.75,15.75,0,0,1,2.29,5.11,13.82,13.82,0,0,1,.33,4.07c0,1-.2,2.3-1.12,2.88a5.78,5.78,0,0,1,.52.53,10.31,10.31,0,0,1,1.4,3l.44,2.4a13.29,13.29,0,0,1,0,3.08.85.85,0,0,0-.07.3h0c0,.13.06.25.08.34.18,1,.78,1.92.93,2.72s.7,1.52.64,2.36c-.13.44.17,2-.4,2.34h0a2.78,2.78,0,0,1,.1.39,6,6,0,0,1,1,3.12c-.15,1.47-1.22,3.52-2.85,3.62,2,.67,2.83,2,3.6,3.89a4.5,4.5,0,0,1-.36,4.81v.38a3.37,3.37,0,0,1,1.62.56,7.11,7.11,0,0,1,2.14,5,5.53,5.53,0,0,1-.76,2.62l0,0a21.83,21.83,0,0,1,1.67,2.15,9.1,9.1,0,0,1,.84,4.6,5.87,5.87,0,0,1-1.54,4l0,.36c.34,0,1.36,1.28,1.39,1.45a5.58,5.58,0,0,1,.87,2.53,6.73,6.73,0,0,1-.67,4.27l.24.15c.71.49.8,2.13.95,2.93a4.9,4.9,0,0,1-.74,3.85,6.4,6.4,0,0,1-4.91,2.54,8.18,8.18,0,0,1-2.45-.33l-.05.17a6.35,6.35,0,0,1-1.82,1.36,6.71,6.71,0,0,1-2.8.51,5.62,5.62,0,0,1-2.71-.13c-1.07-.22-2.05-1.07-3.25-.85-2,.16-4,.93-6.14.29a7.26,7.26,0,0,1-3.08-2.12,1.25,1.25,0,0,1-1.36.45,7.21,7.21,0,0,1-1.94-.47,8.83,8.83,0,0,1-4.63-3.91c-.55-.73-.89-1.49-1.44-2.22A19.15,19.15,0,0,0,81.75,152c-.71-.49-1.93-1.51-1.87-2.34l0-.05-.13-.08a1.35,1.35,0,0,1-.81-.32A11.51,11.51,0,0,1,76.5,147c-.78-.89-1.53-1.58-2.07-2.31a9.42,9.42,0,0,1-1-2.06h0a5.12,5.12,0,0,1-.48-.36,9.59,9.59,0,0,1-3.11-4.6c-.11-.6-.42-1.16-.53-1.76a4.33,4.33,0,0,1,0-1.87c-.41-.14-.41-1-.48-1.35l-.22-1.2c.12-.64.43-1.32.52-2,0,0,0,0-.21-.17A4.48,4.48,0,0,0,68.18,128.45Zm99.18-18a7.21,7.21,0,0,0,.47-1.94,12.09,12.09,0,0,0-.64-4.63c-.74-1.88-1.45-3.56-3.2-4.67a5.22,5.22,0,0,0,.89-2.34,6.24,6.24,0,0,0-.36-4.27,30.67,30.67,0,0,0-2.45-3.27,9,9,0,0,0-1.91-1.85,6.25,6.25,0,0,0-.11-1.3,4.8,4.8,0,0,0-2.6-4.07,2.42,2.42,0,0,0-.44-.21l.1-.14,0-.2a2.22,2.22,0,0,0-.08-1.22,7.28,7.28,0,0,0-.8-1.92,6.17,6.17,0,0,0-2.39-2,1.26,1.26,0,0,0,.1-.25,5.53,5.53,0,0,0-.33-1.8A6.77,6.77,0,0,0,151,70.5a15,15,0,0,0-3.12-1.65A9,9,0,0,0,147.5,66a7.73,7.73,0,0,0-2.22-3.11,6.89,6.89,0,0,0-3.51-2.25,4.7,4.7,0,0,0-1.17-.33l.58-.13v-.06l0-.2a1.58,1.58,0,0,0-.63-.92,4.89,4.89,0,0,0-2.12-1.27,7.23,7.23,0,0,0-.78-1.92c-.82-1.09-1.41-2-2.19-2.91-1.3-.9-3.18-2.06-4.85-1.82A10.19,10.19,0,0,0,126.06,48a7.83,7.83,0,0,0-3.82-.54c-.4.07-1.71-.31-2,.36l-.23.05a6.19,6.19,0,0,0-3.2-1.91c-.24-.16-2.54-.36-2.43.24l-.06.07a3.72,3.72,0,0,0-3.55-.65c-2.13.8-3,2.82-3,5.09a7.31,7.31,0,0,0,1.14,4.36,21,21,0,0,0,.17,9.44c.6,2.16,1.44,4.28,1.84,6.48l.47,2.6a7.66,7.66,0,0,0,0,2.28,4.41,4.41,0,0,0,.87,2,15.76,15.76,0,0,0-.35,5.59A13.82,13.82,0,0,0,113,87.33c.38,1,1,2.08,2.06,2.31a5.56,5.56,0,0,0-.27.67,10.24,10.24,0,0,0-.21,3.34L115,96a13.29,13.29,0,0,0,1.11,2.87c.05.08.15.16.17.26h0c0,.13,0,.26,0,.35.18,1-.07,2.08.08,2.88s-.12,1.67.22,2.44c.27.36.56,2,1.19,2.05h0a2.78,2.78,0,0,0,0,.4,6,6,0,0,0,.18,3.27c.65,1.33,2.38,2.87,3.94,2.38-1.62,1.33-2,2.83-2,4.91a4.5,4.5,0,0,0,2,4.38l.14.36a3.37,3.37,0,0,0-1.32,1.1,7.11,7.11,0,0,0-.25,5.41,5.53,5.53,0,0,0,1.64,2.18l0,0a21.78,21.78,0,0,0-.81,2.6,9.1,9.1,0,0,0,.84,4.6,5.87,5.87,0,0,0,2.85,3.2l.15.33a4.18,4.18,0,0,0-.79,1.85,5.58,5.58,0,0,0,.07,2.67,6.73,6.73,0,0,0,2.13,3.76l-.17.22c-.49.71,0,2.27.15,3.07a4.9,4.9,0,0,0,2.05,3.34,6.4,6.4,0,0,0,5.49.65,8.18,8.18,0,0,0,2.18-1.18l.11.14a6.35,6.35,0,0,0,2.18.64,6.71,6.71,0,0,0,2.8-.51A5.62,5.62,0,0,0,144,155.6c.93-.58,1.54-1.73,2.74-1.94,2-.56,4-.53,5.85-1.89a7.26,7.26,0,0,0,2.13-3.07,1.25,1.25,0,0,0,1.43-.06,7.21,7.21,0,0,0,1.65-1.13,8.83,8.83,0,0,0,3-5.29c.25-.87.31-1.71.56-2.58a19.18,19.18,0,0,1,1.63-2.36c.49-.71,1.27-2.09.93-2.85l0,0,.09-.12a1.35,1.35,0,0,0,.65-.58,11.52,11.52,0,0,0,1.53-3c.42-1.11.87-2,1.13-2.89a9.43,9.43,0,0,0,.2-2.28h0a5.11,5.11,0,0,0,.32-.5,9.59,9.59,0,0,0,1.29-5.4c-.11-.6,0-1.24-.13-1.84a4.32,4.32,0,0,0-.64-1.75c.34-.28.07-1,0-1.43l-.22-1.2c-.34-.56-.89-1.08-1.2-1.64,0,0,0,0,.13-.23A4.52,4.52,0,0,1,167.36,110.47Z"
         class="cls-2" /></clipPath><linearGradient
       gradientUnits="userSpaceOnUse"
       y2="57.67"
       x2="191.66"
       y1="152.48"
       x1="53.84"
       id="linear-gradient"><stop
         id="stop2304"
         stop-color="#fff"
         offset="0" /><stop
         id="stop2306"
         stop-color="#855914"
         offset="1" /></linearGradient></defs><sodipodi:namedview
     pagecolor="#3ec7c2"
     bordercolor="#666666"
     borderopacity="1"
     objecttolerance="10"
     gridtolerance="10"
     guidetolerance="10"
     inkscape:pageopacity="0"
     inkscape:pageshadow="2"
     inkscape:window-width="1920"
     inkscape:window-height="1025"
     id="namedview848"
     showgrid="false"
     inkscape:zoom="1.0095607"
     inkscape:cx="305.56532"
     inkscape:cy="245.28189"
     inkscape:window-x="0"
     inkscape:window-y="27"
     inkscape:window-maximized="1"
     inkscape:current-layer="Layer_1_1" /><g
     id="Layer_1_1"
     transform="translate(0,-413)"><text
       xml:space="preserve"
       style="font-style:normal;font-weight:normal;font-size:40px;line-height:125%;font-family:sans-serif;letter-spacing:0px;word-spacing:0px;fill:#000000;fill-opacity:1;stroke:none;stroke-width:1px;stroke-linecap:butt;stroke-linejoin:miter;stroke-opacity:1"
       x="425.81192"
       y="607.80249"
       id="text1238"><tspan
         sodipodi:role="line"
         id="tspan1236"
         x="425.81192"
         y="607.80249"
         style="font-style:normal;font-variant:normal;font-weight:bold;font-stretch:normal;font-size:64px;font-family:Oswald;-inkscape-font-specification:'Oswald Bold'">IoT</tspan></text>
<text
       xml:space="preserve"
       style="font-style:normal;font-weight:normal;font-size:40px;line-height:125%;font-family:sans-serif;letter-spacing:0px;word-spacing:0px;fill:#000000;fill-opacity:1;stroke:none;stroke-width:1px;stroke-linecap:butt;stroke-linejoin:miter;stroke-opacity:1"
       x="453.10291"
       y="548.98901"
       id="text1242"><tspan
         sodipodi:role="line"
         id="tspan1240"
         x="453.10291"
         y="548.98901"
         style="font-style:normal;font-variant:normal;font-weight:bold;font-stretch:normal;font-size:64px;font-family:Oswald;-inkscape-font-specification:'Oswald Bold'">AI</tspan></text>
<text
       xml:space="preserve"
       style="font-style:normal;font-weight:normal;font-size:40px;line-height:125%;font-family:sans-serif;letter-spacing:0px;word-spacing:0px;fill:#000000;fill-opacity:1;stroke:none;stroke-width:1px;stroke-linecap:butt;stroke-linejoin:miter;stroke-opacity:1"
       x="262.20044"
       y="661.2049"
       id="text1246"><tspan
         sodipodi:role="line"
         id="tspan1244"
         x="262.20044"
         y="661.2049"
         style="font-style:normal;font-variant:normal;font-weight:bold;font-stretch:normal;font-size:53.33333206px;font-family:Oswald;-inkscape-font-specification:'Oswald Bold'">Blockchain</tspan></text>
<text
       xml:space="preserve"
       style="font-style:normal;font-weight:normal;font-size:40px;line-height:125%;font-family:sans-serif;letter-spacing:0px;word-spacing:0px;fill:#000000;fill-opacity:1;stroke:none;stroke-width:1px;stroke-linecap:butt;stroke-linejoin:miter;stroke-opacity:1"
       x="270.92584"
       y="700.92078"
       id="text1266"><tspan
         sodipodi:role="line"
         id="tspan1264"
         x="270.92584"
         y="700.92078"
         style="font-style:normal;font-variant:normal;font-weight:600;font-stretch:normal;font-size:26.66666603px;font-family:Oswald;-inkscape-font-specification:'Oswald Semi-Bold'">The world in changing</tspan></text>
<path
       style="fill:none;fill-rule:evenodd;stroke:#ffffff;stroke-width:1px;stroke-linecap:butt;stroke-linejoin:miter;stroke-opacity:0.55050504"
       d="M 542.08264,454.74105 V 763.63361"
       id="path1268"
       inkscape:connector-curvature="0" /><g
       id="g10965"
       transform="matrix(0.17363371,0,0,0.15284149,422.01391,491.65382)"
       style="fill:#4b4b4b;fill-opacity:1"><g
         id="g10945"
         style="fill:#4b4b4b;fill-opacity:1"><g
           id="g10943"
           style="fill:#4b4b4b;fill-opacity:1"><path
             id="path10929"
             d="m 880.896,31.827 c 8.586,-6.366 22.543,-3.462 32.296,-2.933 13.729,0.745 27.282,0.833 39.921,6.902 5.579,2.679 8.725,6.565 13.728,9.668 6.16,3.818 7.658,3.593 15.733,4.294 21.052,1.826 42.866,10.63 61.015,21.09 8.612,4.964 17.765,20.161 27.134,21.869 10.129,1.849 26.239,-12.491 35.777,-16.144 56.509,-21.641 108.355,-4.681 141.872,45.499 11.681,17.488 19.163,37.681 18.811,58.89 -0.185,11.178 -7.517,24.502 -6.628,34.981 1.511,17.809 22.119,12.416 34.375,14.285 12.84,1.959 23.307,6.852 31.873,17.132 15.454,18.551 18.037,50.135 19.737,73.401 1.725,23.628 4.294,47.72 22.732,63.427 19.993,17.032 39.678,30.853 53.39,53.645 21.538,35.8 22.944,68.116 21.272,108.768 -0.763,18.546 -5.525,35.896 -9.857,53.824 -3.518,14.558 -2.109,12.441 9.075,21.206 11.109,8.705 17.169,17.616 22.679,30.319 5.942,13.699 9.702,24.006 9.585,38.794 -0.06,7.56 -0.357,15.126 -0.763,22.676 -0.265,4.985 -0.597,9.965 -0.996,14.94 3.141,1.773 6.257,3.591 9.347,5.452 9.391,12.082 18.277,22.442 24.838,36.2 7.398,15.517 14.672,36.458 17.254,53.971 4.993,33.863 -7.967,49.498 -35.738,64.766 23.528,28.487 42.667,66.538 37.954,104.647 -2.736,22.131 -9.717,40.395 -24.388,57.226 -7.405,8.494 -15.051,16.462 -23.306,24.12 -6.185,5.739 -23.045,17.783 -26.022,26.096 -3.102,8.659 4.257,24.176 2.914,34.407 -1.087,8.288 -6.771,16.356 -7.355,24.289 -0.56,7.604 5.909,19.081 7.343,29.514 1.475,10.733 4.447,20.909 5.659,31.595 4.065,35.849 -5.751,62.123 -25.473,91.5 -8.981,13.378 -16.349,27.445 -26.732,39.748 -15.417,18.268 -28.265,27.033 -50.456,34.831 -5.758,2.023 -14.963,3.516 -20.157,6.262 -14.816,7.832 -10.621,40.288 -18.413,56.459 -8.36,17.349 -13.638,36.369 -27.07,50.892 -10.228,11.06 -23.395,14.855 -36.284,21.771 -27.002,14.488 -55.351,17.727 -85.77,14.05 -17.746,-2.145 -48.335,-15.154 -62.399,-7.176 -5.936,3.367 -12.499,13.241 -17.777,18.06 -7.605,6.944 -15.634,13.639 -21.588,21.979 -9.395,13.159 -16.697,20.809 -32.313,29.021 -19.197,10.096 -44.709,22.968 -66.108,26.684 -21.415,3.719 -48.811,4.664 -69.855,-0.737 -5.013,-1.286 -9.509,-3.01 -14.117,-5.456 -7.438,-3.95 -12.737,-13.847 -19.193,-17.031 -0.754,-0.371 -8.198,2.194 -10.607,1.407 -6.094,-1.991 -11.333,-4.85 -16.928,-7.972 -9.911,-5.531 -19.208,-11.991 -26.215,-21.195 -15.992,-21.003 -18.357,-46.07 -15.142,-71.682 0.498,-3.967 1.607,-7.849 2.17,-11.839 0.618,-4.387 -0.485,-7.004 1.15,-11.644 0.662,-1.877 6.465,-5.722 6.763,-7.346 2.07,-11.267 -3.715,-28.997 -5.448,-40.166 -4.159,-26.802 -16.345,-51.467 -17.13,-78.78 -0.362,-12.577 -0.281,-27.762 4.455,-39.641 5.05,-12.665 21.104,-26.688 19.859,-40.579 -1.136,-12.671 -12.472,-27.066 -16.914,-39.421 -8.942,-24.87 -4.945,-52.574 -4.473,-78.462 0.429,-23.531 3.761,-38.067 9.075,-60.034 3.809,-15.746 7.838,-29.267 13.336,-44.364 4.626,-12.701 4.177,-13.426 -3.808,-24.442 -3.773,-5.206 -7.526,-11.215 -9.082,-17.534 -7.054,-28.647 10.766,-70.177 32.176,-89.641 -9.503,-10.264 -17.181,-19.044 -23.565,-32.176 -10.083,-20.742 -5.522,-47.146 -5.412,-70.179 0.148,-30.859 -1.001,-62.305 1.704,-93.096 0.651,-7.405 2.288,-13.739 4.116,-20.841 2.521,-9.793 5.238,-18.883 9.354,-28.263 4.995,-11.381 9.295,-22.911 14.158,-34.336 4.5,-10.576 11.237,-21.407 15.1,-32.013 -27.491,-6.662 -43.957,-55.247 -44.725,-80.281 -0.795,-25.934 -1.682,-55.02 1.855,-80.78 0.8,-5.828 2.805,-11.454 4.429,-17.09 2.466,-8.553 4.249,-17.013 6.086,-25.709 2.292,-10.848 3.765,-10.786 -2.041,-17.198 -4.387,-4.842 -7.875,-2.637 -10.333,-9.937 -1.79,-5.315 0.558,-17.48 2.193,-22.932 3.683,-12.29 12.382,-19.084 22.42,-26.465 -11.585,-3.267 -28.458,-26.352 -33.878,-36.534 -7.99,-15.006 -5.984,-33.979 0.825,-49.024 5.203,-11.496 12.553,-22.154 18.856,-33.072 3.198,-5.538 9.41,-12.688 11.328,-18.639 2.856,-8.867 -3.219,-15.839 -7.11,-25.68 -8.658,-21.889 -8.239,-57.093 -1.371,-79.073 2.981,-9.54 9.903,-20.165 17.643,-26.445 14.192,-11.508 34.002,-15.783 47.575,-26.575 m 19.842,10.722 c -27.41,9.575 -54.624,15.914 -66.064,45.744 -10.137,26.432 -9.745,60.812 3.351,86.293 11.373,-10.13 23.419,-19.044 35.852,-27.789 5.104,-3.591 19.285,-18.366 25.306,-18.471 13.526,-0.235 3.851,16.85 -3.019,22.446 -8.857,7.212 -20.819,11.381 -30.205,18.153 -16.777,12.104 -27.157,26.107 -37.883,43.098 -17.208,27.261 -30.572,47.588 -10.89,78.155 12.286,19.08 20.564,30.269 43.455,18.677 13.626,-6.9 27.736,-12.485 42.694,-16.222 16.838,-4.206 33.755,-2.357 50.7,0.573 15.085,2.607 29.146,6.749 43.496,11.377 7.419,2.393 34.602,5.705 33.797,17.576 -27.068,4.411 -53.321,-13.802 -79.449,-18.09 -19.408,-3.185 -38.909,-1.166 -57.644,4.623 -18.348,5.669 -65.887,21.29 -68.216,43.958 -0.976,9.5 6.782,21.697 7.045,32.105 0.239,9.471 -0.327,22.048 -3.24,31.146 -4.943,15.431 -11.267,27.731 -12.554,44.512 -3.234,42.147 -7.501,108.118 38.24,131.65 3.247,-7.178 16.376,-19.966 25.368,-17.394 -0.876,17.674 -21.364,38.575 -28.969,54.131 -9.446,19.322 -17.582,39.866 -25.431,59.903 -16.747,42.757 -11.216,98.735 -11.188,143.929 0.041,63.778 46.92,94.808 101.833,115.5 10.631,4.005 20.052,7.463 29.118,13.964 7.017,5.031 14.508,12.783 1.598,14.041 -5.713,0.557 -13.109,-6.292 -18.041,-8.297 -6.574,-2.674 -13.009,-3.975 -19.846,-6.243 -13.74,-4.559 -26.381,-9.839 -39.093,-16.869 -5.569,-3.08 -11.424,-7.193 -17.402,-9.422 -8.595,-3.204 -4.708,-4.899 -12.925,-0.331 -13.371,7.431 -22.656,33.282 -23.862,47.475 -1.11,13.066 4.744,24.651 8.666,36.944 7.646,-8.134 9.283,-19.279 21.389,-22.057 3.482,-0.799 17.304,-1.401 17.313,4.909 0.006,4.443 -20.189,20.292 -23.501,25.17 -5.329,7.849 -8.361,16.158 -12.457,24.667 -11.368,23.619 -20.07,53.372 -23.818,79.767 -6.458,45.471 0.27,86.137 17.519,128.052 6.907,16.782 14.336,34.204 19.424,51.526 2.474,8.422 3.913,20.851 -8.583,15.137 -6.316,-2.888 -11.682,-18.675 -13.084,-24.602 -13.857,12.769 -21.011,26.937 -17.104,46.993 5.502,28.246 41.096,46.297 66.965,48.652 27.102,2.466 62.304,-1.023 84.945,-17.728 11.662,-8.604 21.537,-22.118 26.241,-35.802 4.832,-14.059 -1.569,-29.968 14.717,-33.901 16.877,-4.077 38.56,3.156 52.073,-11.106 14.983,-15.814 12.665,-49.462 6,-68.122 -2.357,-6.599 -16.085,-20.422 -14.484,-27.381 2.977,-12.936 13.147,-1.663 17.943,2.908 15.39,14.66 27.059,26.917 46.529,36.512 43.057,21.22 90.828,18.58 136.335,5.275 20.84,-6.093 42.295,-14.934 55.582,-32.861 20.037,-27.033 36.575,-66.384 42.546,-99.423 2.145,-11.869 1.736,-23.161 -0.094,-35.06 -0.695,-4.519 -8.156,-19.429 -7.778,-21.502 1.532,-8.415 19.189,-10.487 25.609,-12.652 16.91,-5.7 33.185,-13.491 44.568,-27.748 6.347,-7.949 10.725,-17.243 13.525,-26.988 4.607,-16.035 -9.965,-22.957 -13.563,-38.833 -2.464,-10.87 -4.095,-33.619 11.808,-23.918 12.829,7.825 11.266,25.936 27.363,31.719 13.272,4.768 31.179,-13.132 38.674,-8.924 5.106,2.865 5.791,15.626 4.293,20.046 -4.066,11.992 -17.733,12.838 -28.539,13.518 -8.731,0.549 -19.679,-1.406 -23.989,4.189 -3.462,4.496 -3.726,17.908 -6.526,24.054 -12.362,27.133 -44.211,49.907 -73.932,50.954 16.904,41.302 -3.618,83.124 -20.829,120.533 -13.215,28.724 -29.06,57.238 -59.002,70.354 -29.971,13.129 -65.467,15.675 -97.952,16.489 -40.509,1.016 -65.041,-7.446 -98.84,-30.531 0.942,24.662 2.932,46.621 -10.771,68.802 -15.299,24.764 -33.097,24.113 -59.27,18.588 -2.29,39.351 -37.791,75.726 -76.46,81.475 -43.625,6.486 -74.017,1.117 -114.066,-13.018 2.095,21.696 7.427,25.126 22.895,39.158 14.358,13.025 30.954,18.958 46.751,29.251 13.246,8.631 14.317,20.043 -3.95,14.138 -20.768,-6.714 -35.784,-19.252 -54.082,-31.249 -1.406,25.853 -12.486,50.251 -9.193,76.36 3.958,31.381 23.542,45.675 47.45,63.222 -0.43,-9.285 -0.229,-20.597 7.418,-27.261 5.269,6.273 6.432,14.577 10.585,21.451 6.586,10.903 16.667,16.721 28.496,20.907 33.795,11.958 66.729,3.638 99.015,-8.385 39.782,-14.814 58.755,-52.073 94.657,-72.849 -12.817,-7.431 -23.808,-12.529 -35.754,-22.104 -13.164,-10.552 -30.692,-17 -42.343,-28.805 -12.306,18.589 -39.505,36.077 -62.184,36.745 -21.389,0.63 -13.631,-9.499 0.229,-15.906 16.409,-7.586 33.259,-13.876 45.643,-27.767 6.813,-7.641 11.609,-16.71 14.352,-26.553 3.659,-13.132 2.213,-38.615 14.386,-46.928 11.084,14.011 4.403,31.412 0.136,46.175 -2.722,9.419 -3.003,11.561 1.808,18.813 1.197,1.805 12.604,13.134 14.767,13.427 5.396,0.728 26.874,-14.838 31.977,-19.458 5.219,-4.723 10.514,-11.946 12.796,-18.708 8.645,-25.61 -1.788,-44.363 -14.52,-65.477 -4.005,-6.642 -13.091,-21.724 2.116,-21.599 7.886,0.064 18.714,13.93 24.82,18.037 8.818,5.93 18.08,9.067 28.458,11.295 5.545,1.19 11.517,2.506 17.218,2.547 3.688,0.027 19.084,-4.977 21.617,-2.975 5.266,4.162 -7.541,17.123 -12.142,19.297 -6.216,2.936 -16.204,2.099 -22.926,1.618 -3.511,0.25 -7.01,0.071 -10.494,-0.539 -6.332,-4.436 -9.415,-2.546 -9.251,5.669 -9.685,15.685 -6.718,36.127 -17.2,52.172 -9.64,14.757 -21.167,26.539 -39.599,29.499 46.469,43.151 125.063,51.951 182.07,28.512 22.798,-9.374 35.796,-22.46 47.687,-43.906 12.974,-23.402 14.52,-46.12 22,-71.295 -22.877,0.131 -39.292,-0.772 -61.513,-6.336 1.957,27.808 -6.861,49.995 -34.537,60.816 -9.495,3.713 -75.113,12.079 -67.67,-9.153 2.886,-8.23 27.229,-5.454 32.994,-5.515 15.281,-0.164 28.5,-1.86 40.41,-12.611 9.964,-8.994 20.289,-26.762 11.558,-38.291 -7.375,-9.738 -24.322,-19.081 -33.754,-27.64 -5.654,-5.13 -18.852,-15.801 -20.815,-24.006 -5.885,-24.598 21.109,2.348 25.976,7.288 16.806,17.059 39.328,33.218 63.247,37.674 51.974,9.681 104.84,-2.566 135.897,-47.694 31.86,-46.292 48.979,-91.714 26.27,-145.722 -8.522,5.486 -79.575,23.552 -79.17,0.983 14.156,-5.109 30.04,-0.483 44.567,-5.085 17.203,-5.45 30.429,-20.489 34.831,-37.895 4.036,-15.956 -2.025,-26.18 -3.353,-41.46 -1.297,-14.906 1.653,-14.346 14.997,-19.606 44.608,-17.58 71.839,-73.271 61.489,-119.081 -2.451,-10.844 -6.016,-23.531 -10.798,-33.431 -2.882,-5.967 -7.025,-11.454 -10.693,-16.929 -6.314,-9.426 -5.262,-11.404 -14.147,-11.041 -13.031,0.533 -26.185,10.418 -39.212,11.941 -12.945,1.514 -19.324,-2.509 -29.356,6.16 -39.556,34.18 -51.983,90.181 -111.736,97.489 -9.241,1.13 -46.997,1.915 -21.938,-11.629 21.369,-11.549 45.703,-8.531 66.037,-25.129 12.059,-9.843 19.551,-23.193 28.084,-35.949 4.636,-6.929 10.631,-14.122 13.823,-21.89 2.546,-6.197 0.831,-16.992 5.359,-21.573 8.487,-8.585 29.706,0.914 39.9,0.078 15.067,-1.236 32.532,-10.674 45.795,-18.005 16.624,-9.188 35.986,-25.835 39.058,-45.405 3.88,-24.71 -14.824,-67.958 -34.609,-82.844 -10.934,-8.227 -10.468,-2.71 -18.09,6.975 -4.186,5.32 -8.506,11.119 -13.814,15.386 -2.783,2.239 -13.073,5.198 -14.38,6.953 -3.082,4.14 -4.303,24.282 -6.981,30.874 -3.23,7.952 -7.024,12.57 -11.623,19.306 -6.686,9.792 -13.81,22.558 -23.673,29.6 -7.858,5.611 -27.173,9.912 -23.638,-3.655 2.62,-10.059 22.803,-19.054 29.694,-27.48 19.428,-23.749 24.337,-56.429 15.524,-85.073 -5.247,-17.051 -12.875,-34.831 -24.609,-48.473 -4.845,-5.633 -35.437,-28.654 -6.885,-24.208 12.838,1.999 26.377,24.076 32.083,34.05 9.572,16.728 14.619,35.231 19.371,53.777 24.169,-12.355 33.698,-44.879 31.915,-70.311 -1.146,-16.355 -7.115,-35.607 -17.784,-48.077 -2.356,-2.753 -14.805,-15.947 -19.356,-15.359 -4.762,0.615 -10.043,11.477 -13.903,14.829 -3.966,3.444 -12.707,10.639 -18.004,8.073 -10.206,-4.945 2.213,-12.251 5.334,-15.422 12.392,-12.594 18.091,-28.133 24.065,-44.525 10.654,-29.234 13.11,-62.083 8.759,-92.771 -4.713,-33.248 -20.553,-60.605 -45.618,-81.998 -12.372,-10.559 -26.961,-32.067 -42.585,-26.996 -9.061,2.942 -32.071,20.466 -32.151,2.946 -0.01,-1.939 5.891,-15.838 7.321,-19.071 3.572,-8.074 3.75,-3.848 10.689,-8.853 9.621,-6.941 6.704,-10.988 6.065,-24.766 -0.495,-10.672 0.442,-21.483 -0.579,-32.124 -3.229,-33.665 -17.51,-56.411 -50.814,-63.192 -4.269,-0.869 -22.894,-5.668 -25.66,-2.176 -1.22,1.539 6.637,19.455 7.619,24.029 1.588,7.4 1.969,13.992 1.974,21.813 0,6.31 3.638,24.554 -3.812,27.205 -8.836,3.144 -8.55,-6.939 -9.055,-12.294 -1.704,-18.078 -2.745,-31.792 -9.806,-49.434 -22.536,14.222 -23.977,-2.376 -28.848,-19.514 -3.064,-10.784 -2.716,-10.857 -13.559,-16.39 -4.882,-2.492 -10.781,-6.017 -15.798,-7.886 -4.343,-1.619 -25.339,-2.831 -25.732,-10.269 -1.154,-21.841 77.885,20.609 84.111,25.334 8.661,-24.931 16.801,-47.011 5.176,-72.134 -10.734,-23.199 -32.321,-52.87 -56.194,-63.516 -20.203,-9.007 -43.714,-8.36 -64.303,-1.837 -9.065,2.872 -18.973,6.854 -27.403,11.11 -7.603,3.839 -12.176,9.37 -20.297,11.798 0.879,3.348 5.095,12.866 6.988,15.649 4.26,6.269 0.036,3.882 8.651,6.93 7.912,2.8 21.638,-2.231 28.682,2.017 13.448,8.108 -11.532,12.15 -20.229,11.884 -11.297,-0.347 -14.245,-5.315 -17.191,6.583 -1.339,5.406 -0.999,11.882 -1.837,17.508 -1.395,9.372 3.222,44.359 -2.56,49.946 -8.069,7.798 -15.475,-4.071 -16.471,-10.912 -1.491,-10.245 2.5,-26.533 3.768,-36.95 2.433,-19.957 6.179,-37.613 -3.899,-56.636 -17.053,-32.191 -52.843,-45.993 -86.419,-52.716 6.689,11.001 11.223,22.011 14.687,34.546 1.548,5.604 0.874,16.868 4.319,21.706 2.415,3.392 9.825,4.523 12.989,8.309 11.137,13.324 7.868,43.264 -4.293,54.172 -14.263,12.794 -35.322,9.085 -52.539,6.181 -3.808,-0.642 -19.641,-1.159 -20.109,-5.64 -1.27,-12.159 23.739,-3.518 26.7,-3.334 15.821,0.98 40.46,-13.176 32.631,-33.148 -1.596,-4.071 -5.269,-3.082 -6.777,-5.878 -4.02,-7.445 -4.198,-12.098 -5.116,-21.222 -3.967,-39.51 -32.202,-89.527 -80.738,-75.264 -4.378,1.529 2.231,-0.654 0,0 z"
             inkscape:connector-curvature="0"
             style="fill:#4b4b4b;fill-opacity:1" /><path
             id="path10931"
             d="m 1070.576,241.287 c 19.301,-7.173 47.871,26.599 52.292,42.316 4.095,14.562 4.239,36.456 1.475,51.236 12.608,-1.067 24.872,-1.896 36.987,-5.432 11.035,-3.221 17.845,-8.103 14.001,6.719 -3.443,13.274 -15.203,15.937 -27.406,17.307 -8.079,0.906 -18.697,-2.944 -26.068,-1.152 -7.778,1.892 -9.788,8.138 -17.308,13.887 -16.661,12.735 -34.61,12.237 -54.244,13.626 2.334,6.66 16.587,54.203 -3.281,36.146 -7.768,-7.06 -8.901,-22.496 -13.57,-31.705 -2.492,-4.913 -27.166,-29.657 -18.13,-36.464 6.088,-4.586 24.617,19.321 31.104,19.734 11.615,0.741 38.379,-13.013 47.369,-20.12 17.494,-13.83 16.139,-36.765 10.743,-56.432 -6.559,-23.908 -23.533,-29.806 -33.964,-49.666 2.878,-1.071 2.275,4.331 0,0 z"
             inkscape:connector-curvature="0"
             style="fill:#4b4b4b;fill-opacity:1" /><path
             id="path10933"
             d="m 909.722,349.866 c -1.05,-16.531 22.949,8.871 24.737,11.491 6.199,9.082 20.002,29.555 2.206,31.408 30.417,0 59.239,9.508 80.109,32.359 27.183,29.765 37.014,73.163 67.409,100.253 24.951,22.237 45.675,28.623 77.296,18.243 20.529,-6.739 26.815,-19.134 42.581,-30.588 38.294,48.883 -69.861,52.506 -93.553,53.493 16.933,22.647 -4.023,61.043 -20.835,77.668 22.724,16.555 27.363,47.957 12.914,72.035 -18.176,30.289 -58.499,39.016 -91.093,33.569 -0.361,15.54 0.827,28.77 -3.367,43.436 45.317,8.002 82.034,49.417 83.167,95.364 11.871,-2.715 22.613,-7.119 35.012,-7.003 26.265,0.244 53.212,12.381 76.8,22.423 5.682,-24.501 22.373,-42.75 46.237,-49.995 10.997,-3.338 41.544,-10.934 50.027,0.971 -15.224,7.342 -32.379,4.62 -47.688,12.039 -12.961,6.28 -20.611,16.689 -26.582,29.449 -3.23,6.902 -5.666,21.129 -12.24,25.831 -9.989,7.146 -19.51,-6.609 -28.346,-11.813 -14.029,-8.262 -33.271,-14.997 -49.643,-16.101 -8.803,-0.593 -38.69,1.461 -43.913,7.436 -3.805,4.352 -1.168,21.812 -2.252,28.451 -1.039,6.362 -2.863,11.885 -4.4,18.024 -1.367,5.464 -1.434,12.155 -4.658,16.967 -3.267,4.877 -18.469,13.853 -23.579,5.525 -2.738,-4.461 12.115,-24.848 13.667,-29.283 5.817,-16.626 9.65,-40.564 6.795,-58.035 -4.536,-27.754 -24.898,-58.468 -50.431,-70.878 -27.943,-13.583 -46.779,-7.803 -63.677,17.026 -4.219,6.199 -10.12,18.221 -18.603,18.597 -9.63,0.427 -22.957,-14.751 -32.721,-17.727 -22.908,-6.981 -34.953,4.043 -47.323,19.945 -10.214,13.129 -31.146,26.467 -22.791,-2.197 13.656,-46.852 68.914,-33.077 101.144,-21.625 10.31,-26.177 27.225,-36.2 54.131,-35.462 -1.041,-13.788 2.647,-26.712 -1.069,-40.253 -3.934,-14.337 -11.552,-22.36 -22.103,-31.978 -4.809,-4.383 -16.331,-12.391 -8.948,-18.108 3.786,-2.932 8.689,0.15 12.314,1.325 9.535,3.09 17.461,10.94 23.09,18.879 3.955,5.578 6.184,12.871 12.138,15.377 4.586,1.93 13.961,0.311 18.826,-0.125 12.521,-1.121 26.034,-4.955 37.095,-11.205 9.187,-5.19 14.991,-11.803 19.257,-21.415 8.696,-19.596 0.118,-28.701 -8.836,-44.532 -7.843,-13.869 -0.434,-19.179 7.327,-30.959 7.438,-11.291 13.001,-24.627 12.371,-38.276 -0.779,-16.886 -3.025,-31.93 -15.195,-45.136 -14.512,-15.747 -28.336,-27.494 -38.203,-47.282 -13.17,-26.414 -26.578,-56.143 -50.528,-74.864 -21.383,-16.716 -56.102,-20.139 -82.541,-18.764 -5.624,0.293 -33.59,5.423 -23.848,-7.599 6.423,-8.585 31.282,-4.156 39.366,-3.814 -3.186,-6.341 -3.243,-13.991 -5.894,-20.589 -3.097,-7.711 -9.273,-13.66 -11.156,-21.978 -0.272,-4.297 2.112,9.33 0,0 z"
             inkscape:connector-curvature="0"
             style="fill:#4b4b4b;fill-opacity:1" /><path
             id="path10935"
             d="m 1210.111,350.877 c 13.33,20.183 15.984,58.346 14.138,81.536 -0.461,5.79 -3.512,12.359 -3.548,17.877 -0.049,7.35 3.071,12.751 7.96,19.598 9.354,13.104 21.592,24.099 31.731,36.609 19.186,-31.705 29.345,-53.845 19.766,-92.14 -2.502,-10.003 -5.665,-18.012 -12.599,-25.595 -5.507,-6.024 -15.332,-10.415 -14.959,-19.589 15.886,0.076 33.673,16.969 41.764,30.283 7.885,12.971 4.756,33.304 5.812,47.66 14.959,-0.429 26.836,0.28 41.251,4.077 8.681,2.288 37.18,6.591 35.253,19.261 -2.837,18.642 -20.052,3.651 -26.214,-0.194 -13.617,-8.497 -24.208,-8.481 -39.567,-7.221 -14.675,1.204 -9.246,0.815 -12.717,13.459 -1.725,6.283 -6.119,11.853 -9.218,17.48 -3.094,5.617 -5.868,11.287 -9.978,16.259 -7.306,8.843 -8.268,4.913 -5.395,14.036 3.452,10.96 17.435,20.539 23.162,30.788 7.904,14.146 14.307,31.172 18.286,46.919 22.499,-27.655 48.423,-41.463 84.687,-30.455 -0.701,12.136 -24.3,9.486 -31.4,11.138 -6.514,1.516 -14.354,4.249 -19.945,8.185 -3.623,2.551 -6.654,6.354 -9.876,9.387 -4.337,4.081 -17.67,12.365 -19.304,17.537 -1.488,4.705 1.935,13.141 2.457,17.804 3.605,32.149 -0.458,82.495 -23.383,108.198 15.991,2.052 34.897,13.665 45.382,25.681 4.407,5.052 19.087,33.154 9.15,37.123 -11.204,4.475 -27.269,-32.738 -35.632,-38.695 -4.471,-3.185 -22.552,-14.449 -27.79,-12.878 -5.756,1.725 -13.233,15.771 -17.535,20.393 -12.823,13.779 -28.355,26.039 -45.539,33.926 -5.778,2.651 -26.799,12.418 -33.1,6.018 -7.628,-7.748 12.095,-14.864 17.054,-16.958 56.495,-23.855 99.367,-80.453 98.584,-143.405 -0.734,-58.988 -34.512,-127.641 -83.018,-162.936 -10.621,-7.728 -31.425,-10.926 -31.416,-24.636 0.01,-14.269 14.26,-29.197 15.705,-44.138 1.091,-11.299 -1.076,-24.065 -4.251,-34.823 -2.906,-9.843 -11.378,-32.622 4.242,-37.569 6.145,9.302 -4.035,1.278 0,0 z"
             inkscape:connector-curvature="0"
             style="fill:#4b4b4b;fill-opacity:1" /><path
             id="path10937"
             d="m 916.731,476.641 c 15.008,-1.574 30.757,16.302 41.821,23.649 7.97,5.293 17.122,11.078 26.666,12.823 10.517,1.922 18.263,-2.288 28.516,-2.921 5.965,17.974 -6.299,25.297 -20.325,26.532 -12.984,1.144 -19.437,-3.627 -27.829,7.858 -5.622,7.694 -8.787,17.087 -11.142,26.198 -5.175,20.025 -4.346,34.891 1.571,54.438 1.259,4.159 2.167,8.469 3.393,12.597 2.76,9.291 -0.873,6.947 6.727,11.526 8.31,5.007 16.905,-0.711 22.192,10.88 -1.985,5.374 -55.605,-4.061 -64.844,-1.973 -10.82,2.444 -20.935,9.001 -29.841,15.353 -5.835,4.162 -17.697,18.873 -25.264,17.913 -21.276,-2.7 19.229,-33.248 26.142,-36.88 17.558,-9.225 33.756,-7.876 52.61,-8.585 -16.132,-26.997 -18.616,-61.352 -4.961,-91.405 2.428,-5.342 15.992,-20.066 15.483,-25.531 -0.34,-3.647 -10.655,-12.783 -13.083,-15.547 -5.095,-5.801 -9.883,-13.502 -15.857,-18.001 -3.856,-2.901 -33.237,-16.274 -11.975,-18.924 3.559,-0.374 -6.597,0.821 0,0 z"
             inkscape:connector-curvature="0"
             style="fill:#4b4b4b;fill-opacity:1" /><path
             id="path10939"
             d="m 997.257,983.266 c -4.03,-15.266 18.484,-1.069 21.357,3.955 3.961,6.926 4.8,12.993 5.306,20.927 1.254,19.656 0.357,34.941 -12.783,49.646 19.939,4.826 46.101,-2.548 64.946,-8.739 11.802,-3.876 20.805,-8.838 29.775,-17.551 6.577,-6.388 12.487,-16.797 22.479,-18.046 6.972,22.474 -11.386,30.993 -26.485,41.167 -25.067,16.891 -50.494,17.574 -80.288,18.859 -11.155,0.481 -23.318,1.689 -34.101,-1.883 -1.967,-0.652 -3.464,-2.239 -5.342,-2.987 -4.32,-1.722 -8.288,-4.402 -13.001,-5.151 -9.738,-1.547 -13.991,1.835 -23.247,6.071 -12.034,5.507 -38.837,18.338 -52.745,14.506 -26.96,-7.429 24.112,-17.046 28.326,-18.535 10.102,-3.57 11.564,-9.431 19.324,-15.282 10.885,-8.209 23.233,-5.979 35.85,-4.452 9.512,1.15 12.581,3.592 19.736,-4.103 4.642,-4.993 7.031,-13.647 8.239,-20.145 2.753,-14.793 -4.586,-24.209 -7.346,-38.257 -0.9,-3.412 0.921,4.68 0,0 z"
             inkscape:connector-curvature="0"
             style="fill:#4b4b4b;fill-opacity:1" /><path
             id="path10941"
             d="m 1213.68,1007.205 c 1.417,-2.252 2.833,-4.502 4.251,-6.754 18.687,14.544 19.306,42.388 24.582,63.449 5.099,20.351 10.124,45.299 -3.56,62.668 -13.625,17.295 -34.748,22.931 -56.002,23.586 -11.098,0.341 -21.401,-0.089 -31.68,-4.827 -2.078,-0.958 -5.456,-3.234 -7.598,-3.72 -2.573,-4.918 -5.161,-5.638 -7.763,-2.159 -2.588,2.058 -5.14,4.161 -7.654,6.31 -48.179,30.398 -113.875,33.451 -166.852,18.896 2.384,20.168 6.085,43.961 -11.351,59.153 -7.079,6.167 -31.957,12.687 -40.641,6.936 -11.618,-7.693 5.199,-14.704 12.629,-19.335 10.912,-6.802 22.601,-10.485 25.672,-24.101 1.57,-6.962 0.566,-27.632 -2.66,-31.842 -1.422,-1.856 -73.764,-37.975 -47.296,-48.219 7.613,-2.946 19.265,12.991 24.416,17.412 9.811,8.423 19.957,14.72 31.936,19.678 29.911,12.377 56.55,16.459 88.44,12.063 25.736,-3.548 51.422,-10.925 72.071,-27.26 4.668,-3.692 9.536,-10.874 14.814,-13.453 8.169,-3.991 6.224,-1.113 14.096,3.542 27.554,16.294 76.825,16.395 87.087,-20.641 8.339,-30.093 -16.729,-61.536 -16.937,-91.382 0.873,-2.548 0.054,7.838 0,0 z"
             inkscape:connector-curvature="0"
             style="fill:#4b4b4b;fill-opacity:1" /></g></g></g><g
       id="g11170"
       style="opacity:0.24200003"
       transform="matrix(0.87825776,0,0,0.87825776,59.025541,76.108505)"><circle
         r="9.1053352"
         cy="508.32147"
         cx="712.31738"
         id="path11012"
         style="opacity:1;fill:#000000;fill-opacity:0.41919197;stroke:none;stroke-width:2.87899995;stroke-linecap:round;stroke-linejoin:round;stroke-miterlimit:4;stroke-dasharray:none;stroke-dashoffset:0;stroke-opacity:0.55050504" /><circle
         style="opacity:1;fill:#000000;fill-opacity:0.1372549;stroke:none;stroke-width:2.87899995;stroke-linecap:round;stroke-linejoin:round;stroke-miterlimit:4;stroke-dasharray:none;stroke-dashoffset:0;stroke-opacity:0.55050504"
         id="circle11014"
         cx="900.02734"
         cy="517.52802"
         r="9.1053352" /><circle
         r="9.1053352"
         cy="645.60193"
         cx="741.73462"
         id="circle11016"
         style="opacity:1;fill:#000000;fill-opacity:0.41919197;stroke:none;stroke-width:2.87899995;stroke-linecap:round;stroke-linejoin:round;stroke-miterlimit:4;stroke-dasharray:none;stroke-dashoffset:0;stroke-opacity:0.55050504" /><circle
         r="9.1053352"
         cy="571.3584"
         cx="790.76331"
         id="circle11018"
         style="opacity:1;fill:#000000;fill-opacity:0.2745098;stroke:none;stroke-width:2.87899995;stroke-linecap:round;stroke-linejoin:round;stroke-miterlimit:4;stroke-dasharray:none;stroke-dashoffset:0;stroke-opacity:0.55050504" /><circle
         style="opacity:1;fill:#000000;fill-opacity:0.2745098;stroke:none;stroke-width:2.87899995;stroke-linecap:round;stroke-linejoin:round;stroke-miterlimit:4;stroke-dasharray:none;stroke-dashoffset:0;stroke-opacity:0.55050504"
         id="circle11020"
         cx="863.60596"
         cy="710.03967"
         r="9.1053352" /><circle
         r="9.1053352"
         cy="714.24213"
         cx="766.94934"
         id="circle11022"
         style="opacity:1;fill:#000000;fill-opacity:0.41919197;stroke:none;stroke-width:2.87899995;stroke-linecap:round;stroke-linejoin:round;stroke-miterlimit:4;stroke-dasharray:none;stroke-dashoffset:0;stroke-opacity:0.55050504" /><circle
         style="opacity:1;fill:#000000;fill-opacity:0.1372549;stroke:none;stroke-width:2.87899995;stroke-linecap:round;stroke-linejoin:round;stroke-miterlimit:4;stroke-dasharray:none;stroke-dashoffset:0;stroke-opacity:0.55050504"
         id="circle11024"
         cx="919.63879"
         cy="641.39948"
         r="9.1053352" /><circle
         r="9.1053352"
         cy="610.58136"
         cx="859.40356"
         id="circle11026"
         style="opacity:1;fill:#000000;fill-opacity:0.2745098;stroke:none;stroke-width:2.87899995;stroke-linecap:round;stroke-linejoin:round;stroke-miterlimit:4;stroke-dasharray:none;stroke-dashoffset:0;stroke-opacity:0.55050504" /><path
         inkscape:connector-curvature="0"
         id="path11066"
         d="m 862.90561,600.77565 33.6197,-72.14227"
         style="fill:none;fill-rule:evenodd;stroke:#000000;stroke-width:4;stroke-linecap:butt;stroke-linejoin:miter;stroke-miterlimit:4;stroke-dasharray:none;stroke-opacity:0.2745098" /><path
         inkscape:connector-curvature="0"
         id="path11070"
         d="m 904.22982,528.63338 14.00821,102.96033"
         style="fill:none;fill-rule:evenodd;stroke:#000000;stroke-width:4;stroke-linecap:butt;stroke-linejoin:miter;stroke-miterlimit:4;stroke-dasharray:none;stroke-opacity:0.2745098" /><path
         inkscape:connector-curvature="0"
         id="path11072"
         d="M 910.53352,638.59781 867.10807,616.18468"
         style="fill:none;fill-rule:evenodd;stroke:#000000;stroke-width:4;stroke-linecap:butt;stroke-linejoin:miter;stroke-miterlimit:4;stroke-dasharray:none;stroke-opacity:0.2745098" /><path
         inkscape:connector-curvature="0"
         id="path11074"
         d="m 862.2052,698.83311 -2.80164,-79.14638"
         style="fill:none;fill-rule:evenodd;stroke:#000000;stroke-width:4;stroke-linecap:butt;stroke-linejoin:miter;stroke-miterlimit:4;stroke-dasharray:none;stroke-opacity:0.2745098" /><path
         inkscape:connector-curvature="0"
         id="path11076"
         d="m 870.61012,703.73598 44.12586,-54.63201"
         style="fill:none;fill-rule:evenodd;stroke:#000000;stroke-width:4;stroke-linecap:butt;stroke-linejoin:miter;stroke-miterlimit:4;stroke-dasharray:none;stroke-opacity:0.2745098" /><path
         inkscape:connector-curvature="0"
         id="path11078"
         d="m 800.56908,576.26129 50.42955,28.01641"
         style="fill:none;fill-rule:evenodd;stroke:#000000;stroke-width:4;stroke-linecap:butt;stroke-linejoin:miter;stroke-miterlimit:4;stroke-dasharray:none;stroke-opacity:0.2745098" /><path
         inkscape:connector-curvature="0"
         id="path11080"
         d="m 849.59781,613.38304 -77.74555,93.15458"
         style="fill:none;fill-rule:evenodd;stroke:#000000;stroke-width:4;stroke-linecap:butt;stroke-linejoin:miter;stroke-miterlimit:4;stroke-dasharray:none;stroke-opacity:0.2745098" /><path
         inkscape:connector-curvature="0"
         id="path11082"
         d="m 776.75513,714.24213 77.04514,-3.50205"
         style="fill:none;fill-rule:evenodd;stroke:#000000;stroke-width:4;stroke-linecap:butt;stroke-linejoin:miter;stroke-miterlimit:4;stroke-dasharray:none;stroke-opacity:0.2745098" /><path
         inkscape:connector-curvature="0"
         id="path11084"
         d="M 760.64569,705.83721 743.83584,654.70725"
         style="fill:none;fill-rule:evenodd;stroke:#000000;stroke-width:4;stroke-linecap:butt;stroke-linejoin:miter;stroke-miterlimit:4;stroke-dasharray:none;stroke-opacity:0.39215686" /><path
         inkscape:connector-curvature="0"
         id="path11086"
         d="m 744.53625,635.79617 40.62381,-55.33242"
         style="fill:none;fill-rule:evenodd;stroke:#000000;stroke-width:4;stroke-linecap:butt;stroke-linejoin:miter;stroke-miterlimit:4;stroke-dasharray:none;stroke-opacity:0.39215686" /><path
         inkscape:connector-curvature="0"
         id="path11090"
         d="m 751.54036,644.20109 89.65253,-34.32011"
         style="fill:none;fill-rule:evenodd;stroke:#000000;stroke-width:4;stroke-linecap:butt;stroke-linejoin:miter;stroke-miterlimit:4;stroke-dasharray:none;stroke-opacity:0.2745098" /><path
         inkscape:connector-curvature="0"
         id="path11092"
         d="M 735.43092,636.49658 714.41861,520.22845"
         style="fill:none;fill-rule:evenodd;stroke:#000000;stroke-width:4;stroke-linecap:butt;stroke-linejoin:miter;stroke-miterlimit:4;stroke-dasharray:none;stroke-opacity:0.39215686" /><path
         inkscape:connector-curvature="0"
         id="path11094"
         d="m 722.12312,514.62517 60.23529,49.02873"
         style="fill:none;fill-rule:evenodd;stroke:#000000;stroke-width:4;stroke-linecap:butt;stroke-linejoin:miter;stroke-miterlimit:4;stroke-dasharray:none;stroke-opacity:0.39215686" /><path
         inkscape:connector-curvature="0"
         id="path11096"
         d="m 799.86867,566.45554 88.95212,-44.12585"
         style="fill:none;fill-rule:evenodd;stroke:#000000;stroke-width:4;stroke-linecap:butt;stroke-linejoin:miter;stroke-miterlimit:4;stroke-dasharray:none;stroke-opacity:0.2745098" /><path
         inkscape:connector-curvature="0"
         id="path11098"
         d="m 722.82353,507.62107 165.99726,5.60328"
         style="fill:none;fill-rule:evenodd;stroke:#000000;stroke-width:4;stroke-linecap:butt;stroke-linejoin:miter;stroke-miterlimit:4;stroke-dasharray:none;stroke-opacity:0.2745098" /><path
         inkscape:connector-curvature="0"
         id="path11100"
         d="m 701.81122,516.7264 -22.41313,21.71272"
         style="fill:none;fill-rule:evenodd;stroke:#000000;stroke-width:4;stroke-linecap:butt;stroke-linejoin:miter;stroke-miterlimit:4;stroke-dasharray:none;stroke-opacity:0.39215686" /><path
         inkscape:connector-curvature="0"
         id="path11102"
         d="m 728.42681,647.00274 -18.21067,-0.70041"
         style="fill:none;fill-rule:evenodd;stroke:#000000;stroke-width:4;stroke-linecap:butt;stroke-linejoin:miter;stroke-miterlimit:4;stroke-dasharray:none;stroke-opacity:0.39215686" /><path
         inkscape:connector-curvature="0"
         id="path11104"
         d="M 755.04241,712.1409 699.00958,686.22572"
         style="fill:none;fill-rule:evenodd;stroke:#000000;stroke-width:4;stroke-linecap:butt;stroke-linejoin:miter;stroke-miterlimit:4;stroke-dasharray:none;stroke-opacity:0.39215686" /><path
         inkscape:connector-curvature="0"
         id="path11106"
         d="m 756.44323,726.14911 -35.02052,40.6238"
         style="fill:none;fill-rule:evenodd;stroke:#000000;stroke-width:2.4000001;stroke-linecap:butt;stroke-linejoin:miter;stroke-miterlimit:4;stroke-dasharray:none;stroke-opacity:0.2745098" /><path
         inkscape:connector-curvature="0"
         id="path11108"
         d="m 771.85226,727.54993 16.80985,51.83037"
         style="fill:none;fill-rule:evenodd;stroke:#000000;stroke-width:2.4000001;stroke-linecap:butt;stroke-linejoin:miter;stroke-miterlimit:4;stroke-dasharray:none;stroke-opacity:0.2745098" /><path
         inkscape:connector-curvature="0"
         id="path11112"
         d="m 860.10397,723.54993 -23.81396,46.22709"
         style="fill:none;fill-rule:evenodd;stroke:#000000;stroke-width:2.4000001;stroke-linecap:butt;stroke-linejoin:miter;stroke-miterlimit:4;stroke-dasharray:none;stroke-opacity:0.1372549" /><path
         inkscape:connector-curvature="0"
         id="path11114"
         d="m 879.11628,718.54583 53.23119,44.82626"
         style="fill:none;fill-rule:evenodd;stroke:#000000;stroke-width:2.4000001;stroke-linecap:butt;stroke-linejoin:miter;stroke-miterlimit:4;stroke-dasharray:none;stroke-opacity:0.1372549" /><path
         inkscape:connector-curvature="0"
         id="path11116"
         d="m 934.34747,644.9015 58.83447,7.00411"
         style="fill:none;fill-rule:evenodd;stroke:#000000;stroke-width:2.4000001;stroke-linecap:butt;stroke-linejoin:miter;stroke-miterlimit:4;stroke-dasharray:none;stroke-opacity:0.1372549" /><path
         inkscape:connector-curvature="0"
         id="path11118"
         d="m 932.94665,625.29001 43.42544,-44.82626"
         style="fill:none;fill-rule:evenodd;stroke:#000000;stroke-width:2.4000001;stroke-linecap:butt;stroke-linejoin:miter;stroke-miterlimit:4;stroke-dasharray:none;stroke-opacity:0.1372549" /><path
         inkscape:connector-curvature="0"
         id="path11120"
         d="m 924.54172,661.71135 35.02052,57.43366"
         style="fill:none;fill-rule:evenodd;stroke:#000000;stroke-width:2.4000001;stroke-linecap:butt;stroke-linejoin:miter;stroke-miterlimit:4;stroke-dasharray:none;stroke-opacity:0.1372549" /><path
         inkscape:connector-curvature="0"
         id="path11122"
         d="M 895.52941,505.81532 877.31874,430.171"
         style="fill:none;fill-rule:evenodd;stroke:#000000;stroke-width:2.4000001;stroke-linecap:butt;stroke-linejoin:miter;stroke-miterlimit:4;stroke-dasharray:none;stroke-opacity:0.1372549" /><path
         inkscape:connector-curvature="0"
         id="path11124"
         d="m 910.33926,509.01368 39.22298,-51.83037"
         style="fill:none;fill-rule:evenodd;stroke:#000000;stroke-width:2.4000001;stroke-linecap:butt;stroke-linejoin:miter;stroke-miterlimit:4;stroke-dasharray:none;stroke-opacity:0.1372549" /><path
         inkscape:connector-curvature="0"
         id="path11126"
         d="m 913.1409,521.42681 74.2435,16.80985"
         style="fill:none;fill-rule:evenodd;stroke:#000000;stroke-width:2.4000001;stroke-linecap:butt;stroke-linejoin:miter;stroke-miterlimit:4;stroke-dasharray:none;stroke-opacity:0.1372549" /><path
         inkscape:connector-curvature="0"
         id="path11128"
         d="M 720.42681,498.00958 807.2777,455.98495"
         style="fill:none;fill-rule:evenodd;stroke:#000000;stroke-width:2.4000001;stroke-linecap:butt;stroke-linejoin:miter;stroke-miterlimit:4;stroke-dasharray:none;stroke-opacity:0.2745098" /><path
         inkscape:connector-curvature="0"
         id="path11130"
         d="M 702.01368,497.00547 666.99316,447.97674"
         style="fill:none;fill-rule:evenodd;stroke:#000000;stroke-width:2.4000001;stroke-linecap:butt;stroke-linejoin:miter;stroke-miterlimit:4;stroke-dasharray:none;stroke-opacity:0.2745098" /></g></g></svg>