<?xml version="1.0" encoding="UTF-8" standalone="no"?>
<svg
   xmlns:dc="http://purl.org/dc/elements/1.1/"
   xmlns:cc="http://creativecommons.org/ns#"
   xmlns:rdf="http://www.w3.org/1999/02/22-rdf-syntax-ns#"
   xmlns:svg="http://www.w3.org/2000/svg"
   xmlns="http://www.w3.org/2000/svg"
   xmlns:sodipodi="http://sodipodi.sourceforge.net/DTD/sodipodi-0.dtd"
   xmlns:inkscape="http://www.inkscape.org/namespaces/inkscape"
   id="Layer_1"
   data-name="Layer 1"
   viewBox="0 0 512 512"
   version="1.1"
   sodipodi:docname="Home_ai.svg"
   width="512"
   height="512"
   inkscape:version="0.92.2 5c3e80d, 2017-08-06"
   inkscape:export-filename="Home_ai.png"
   inkscape:export-xdpi="70.022102"
   inkscape:export-ydpi="70.022102">
  <metadata
     id="metadata305">
    <rdf:RDF>
      <cc:Work
         rdf:about="">
        <dc:format>image/svg+xml</dc:format>
        <dc:type
           rdf:resource="http://purl.org/dc/dcmitype/StillImage" />
        <dc:title>DigitalServices_ArtificialIntelligence</dc:title>
      </cc:Work>
    </rdf:RDF>
  </metadata>
  <sodipodi:namedview
     pagecolor="#ffffff"
     bordercolor="#666666"
     borderopacity="1"
     objecttolerance="10"
     gridtolerance="10"
     guidetolerance="10"
     inkscape:pageopacity="0"
     inkscape:pageshadow="2"
     inkscape:window-width="1202"
     inkscape:window-height="699"
     id="namedview303"
     showgrid="false"
     inkscape:zoom="0.472"
     inkscape:cx="250"
     inkscape:cy="250"
     inkscape:window-x="0"
     inkscape:window-y="0"
     inkscape:window-maximized="0"
     inkscape:current-layer="Layer_1" />
  <defs
     id="defs4">
    <style
       id="style2">.cls-1{fill:#595651;}.cls-2{fill:#fff;}.cls-3{fill:#0074c8;}</style>
  </defs>
  <title
     id="title6">DigitalServices_ArtificialIntelligence</title>
  <g
     id="g4805"
     transform="matrix(2.2132288,0,0,2.2132288,-325.02988,-329.24845)">
    <path
       style="fill:#0074c8"
       inkscape:connector-curvature="0"
       id="path200"
       d="m 249,272.61 h -12.77 l -5.08,-13.22 h -23.27 l -4.8,13.22 h -12.47 l 22.67,-58.21 h 12.43 z m -21.64,-23 -8,-21.6 -7.86,21.6 z"
       class="cls-3" />
    <rect
       style="fill:#0074c8"
       id="rect202"
       height="13.18"
       width="14.24"
       y="214.39999"
       x="253.63"
       class="cls-3" />
    <rect
       style="fill:#0074c8"
       id="rect204"
       height="38.099998"
       width="11.16"
       y="234.50999"
       x="255.17"
       class="cls-3" />
    <path
       style="fill:#595651"
       inkscape:connector-curvature="0"
       id="path206"
       d="m 349.39,207.27 0.2,0.65 0.9,-0.1 a 2.11,2.11 0 0 0 0.36,0.43 l -0.27,0.86 0.6,0.33 0.56,-0.72 a 2.14,2.14 0 0 0 0.56,0.06 l 0.43,0.8 0.64,-0.2 -0.1,-0.9 a 2.11,2.11 0 0 0 0.43,-0.36 l 0.87,0.26 0.31,-0.59 -0.71,-0.57 a 2.09,2.09 0 0 0 0.06,-0.56 l 0.8,-0.42 -0.2,-0.65 -0.9,0.11 a 1.68,1.68 0 0 0 -0.36,-0.43 l 0.27,-0.87 -0.6,-0.32 -0.57,0.71 a 2.05,2.05 0 0 0 -0.55,0 l -0.43,-0.8 -0.65,0.19 0.11,0.91 a 1.87,1.87 0 0 0 -0.43,0.36 l -0.87,-0.27 -0.32,0.6 0.71,0.56 a 2.12,2.12 0 0 0 -0.05,0.56 z m 2.37,-2 a 1.58,1.58 0 0 1 0.89,3 1.58,1.58 0 0 1 -0.89,-3 z m -45.7,33.15 2,0.79 0.13,-0.28 a 9.45,9.45 0 0 0 0.81,-3.71 v -0.3 l -2.14,-0.12 a 7.64,7.64 0 0 0 -0.12,-1.06 7.4,7.4 0 0 0 -0.26,-1 l 2,-0.85 -0.11,-0.28 a 9.45,9.45 0 0 0 -2,-3.2 l -0.21,-0.22 -1.6,1.43 a 9,9 0 0 0 -0.83,-0.67 8.38,8.38 0 0 0 -0.91,-0.54 l 0.79,-2 -0.28,-0.12 a 9.64,9.64 0 0 0 -3.71,-0.82 h -0.3 l -0.12,2.14 a 7.62,7.62 0 0 0 -1.06,0.11 7.43,7.43 0 0 0 -1,0.27 l -0.85,-2 -0.28,0.11 a 9.63,9.63 0 0 0 -3.2,2.05 l -0.22,0.21 1.43,1.59 a 9.14,9.14 0 0 0 -0.67,0.84 6.82,6.82 0 0 0 -0.54,0.91 l -2,-0.79 -0.12,0.27 a 9.68,9.68 0 0 0 -0.82,3.71 v 0.3 l 2.14,0.12 a 7.47,7.47 0 0 0 0.11,1.06 7.57,7.57 0 0 0 0.27,1 l -2,0.85 0.11,0.28 a 9.63,9.63 0 0 0 2.05,3.2 l 0.21,0.21 1.6,-1.43 a 7.6,7.6 0 0 0 0.83,0.67 6.47,6.47 0 0 0 0.91,0.55 l -0.79,2 0.27,0.13 a 9.52,9.52 0 0 0 3.71,0.81 h 0.31 l 0.11,-2.14 a 7.47,7.47 0 0 0 1.06,-0.11 7.19,7.19 0 0 0 1,-0.26 l 0.85,2 0.28,-0.11 a 9.45,9.45 0 0 0 3.2,-2 l 0.22,-0.21 -1.44,-1.6 a 6.58,6.58 0 0 0 0.67,-0.83 7.1,7.1 0 0 0 0.51,-0.99 z m -2.62,-0.48 a 5,5 0 1 1 -4.88,-7.79 4.76,4.76 0 0 1 0.83,-0.08 4.92,4.92 0 0 1 2.88,0.93 5,5 0 0 1 1.17,6.91 z m -53.61,-36.16 1.32,-0.84 v 0 l 0.26,1.56 2.29,0.07 0.34,-1.53 h 0.06 l 1.26,0.92 1.67,-1.57 -0.84,-1.31 v 0 l 1.55,-0.27 0.08,-2.29 -1.53,-0.33 v -0.07 l 0.93,-1.26 -1.57,-1.67 -1.32,0.84 v 0 l -0.26,-1.55 -2.29,-0.08 -0.34,1.54 h -0.06 l -1.26,-0.92 -1.67,1.56 0.84,1.33 v 0 l -1.54,0.24 -0.08,2.29 1.53,0.34 v 0 l -0.92,1.29 z m 1.82,-5.54 0.19,-0.15 a 1.64,1.64 0 0 1 0.91,-0.27 h 0.08 a 1.57,1.57 0 0 1 1.14,0.53 1.64,1.64 0 0 1 -0.1,2.32 1.67,1.67 0 0 1 -1.19,0.43 1.64,1.64 0 0 1 -1,-2.86 z m -8.88,37.5 c 0.1,0 0.18,0.11 0.29,0.15 a 0.26,0.26 0 0 0 0.29,-0.09 l 1.63,-2.13 v -5.08 c 0,0 0,0 -0.07,0 -0.07,0 0,-0.09 0.07,-0.13 v -3.71 a 3.14,3.14 0 0 0 -3.47,-1.16 6.47,6.47 0 0 1 0,-1.32 6.35,6.35 0 0 1 0.68,-2.28 3,3 0 0 0 1.3,0.63 3.21,3.21 0 0 0 1.48,-0.06 v -8.45 l -0.07,0.49 c -0.29,0.08 -0.58,0.18 -0.85,0.28 l -2.25,-2.2 a 0.27,0.27 0 0 0 -0.3,0 13.54,13.54 0 0 0 -2.48,1.65 0.25,0.25 0 0 0 -0.08,0.29 l 1.2,2.88 a 8.08,8.08 0 0 0 -0.6,0.67 l -3.06,-0.78 a 0.28,0.28 0 0 0 -0.28,0.11 14.38,14.38 0 0 0 -0.87,1.76 l 0.86,2.15 1.23,0.95 c -0.06,0.29 -0.13,0.58 -0.18,0.88 l -0.29,0.08 3.94,9.84 0.15,0.13 v 0.14 z m 69.93,-37.2 a 4,4 0 0 0 0.13,0.58 l -1.72,0.74 0.23,0.61 a 8.46,8.46 0 0 0 1.85,2.89 l 0.45,0.47 1.4,-1.25 a 5.32,5.32 0 0 0 0.47,0.36 l 0.51,0.32 -0.69,1.74 0.59,0.27 a 8.82,8.82 0 0 0 3.35,0.74 h 0.65 l 0.11,-1.88 a 4,4 0 0 0 0.59,-0.08 c 0.2,0 0.39,-0.08 0.59,-0.13 l 0.74,1.73 0.61,-0.24 a 8.52,8.52 0 0 0 2.88,-1.85 l 0.47,-0.45 -1.25,-1.39 0.37,-0.48 c 0.11,-0.17 0.22,-0.34 0.32,-0.51 l 1.74,0.69 0.26,-0.59 a 8.6,8.6 0 0 0 0.74,-3.35 v -0.65 l -1.87,-0.11 c 0,-0.19 0,-0.39 -0.08,-0.59 -0.08,-0.2 -0.08,-0.39 -0.13,-0.58 l 1.72,-0.75 -0.24,-0.61 a 8.48,8.48 0 0 0 -1.84,-2.89 l -0.45,-0.46 -1.4,1.25 c -0.15,-0.13 -0.31,-0.25 -0.48,-0.37 l -0.5,-0.32 0.69,-1.74 -0.6,-0.27 a 8.72,8.72 0 0 0 -3.34,-0.73 h -0.66 l -0.1,1.87 -0.59,0.08 a 5.61,5.61 0 0 0 -0.59,0.13 l -0.73,-1.74 -0.61,0.24 a 8.63,8.63 0 0 0 -2.89,1.84 l -0.47,0.46 1.25,1.39 a 5.46,5.46 0 0 0 -0.36,0.48 5.29,5.29 0 0 0 -0.32,0.5 l -1.75,-0.69 -0.26,0.6 a 8.54,8.54 0 0 0 -0.73,3.34 v 0.66 l 1.88,0.1 a 4.11,4.11 0 0 0 0.06,0.59 z m 3.57,-3.45 a 3.92,3.92 0 0 1 2.51,-1.57 4.87,4.87 0 0 1 0.65,-0.05 3.88,3.88 0 0 1 3.81,3.22 3.87,3.87 0 1 1 -7,-1.6 z m -43.15,8.66 c 0.16,0.7 0.24,1.05 0.44,1.73 l 2,0.37 a 9.13,9.13 0 0 0 1.51,2.35 c -0.22,0.83 -0.32,1.22 -0.5,2 0.53,0.45 0.81,0.68 1.37,1.12 l 1.66,-1.17 a 7.73,7.73 0 0 0 2.7,0.64 c 0.43,0.78 0.64,1.14 1,1.84 0.69,-0.15 1,-0.22 1.7,-0.4 0.13,-0.76 0.19,-1.16 0.32,-2 a 8.23,8.23 0 0 0 2.29,-1.46 l 1.94,0.55 c 0.44,-0.53 0.66,-0.8 1.09,-1.36 -0.45,-0.64 -0.68,-1 -1.2,-1.7 a 7.48,7.48 0 0 0 0.57,-2.72 l 1.79,-1 c -0.16,-0.7 -0.24,-1.05 -0.43,-1.72 -0.75,-0.15 -1.15,-0.23 -2,-0.38 a 8.67,8.67 0 0 0 -1.5,-2.35 c 0.21,-0.82 0.31,-1.21 0.49,-1.94 -0.53,-0.46 -0.8,-0.68 -1.37,-1.13 l -1.65,1.17 a 7.61,7.61 0 0 0 -2.72,-0.64 c -0.43,-0.77 -0.64,-1.13 -1,-1.82 -0.69,0.14 -1,0.22 -1.7,0.4 -0.13,0.75 -0.19,1.15 -0.32,2 a 8.33,8.33 0 0 0 -2.28,1.46 c -0.82,-0.24 -1.21,-0.35 -1.94,-0.54 -0.44,0.52 -0.66,0.79 -1.08,1.35 0.44,0.64 0.68,1 1.19,1.7 a 7.48,7.48 0 0 0 -0.57,2.72 z m 5.69,-6.11 a 6.59,6.59 0 1 1 -1.68,9 6.51,6.51 0 0 1 1.68,-9.03 z m -32.29,41.85 -2,0.62 2,5 z m -59.23,13.35 a 5.47,5.47 0 0 0 1.16,0.58 0.12,0.12 0 0 0 0.13,0 l 0.82,-1.08 0.38,0.08 0.09,0.3 0.84,-2.16 a 2.36,2.36 0 0 1 -0.46,0 2.65,2.65 0 0 1 -1,-0.3 1.27,1.27 0 0 0 0.27,-0.56 1.35,1.35 0 0 0 -0.17,-1 1.37,1.37 0 0 0 -1.58,-0.58 2.71,2.71 0 0 1 0,-0.57 2.83,2.83 0 0 1 0.3,-1 1.27,1.27 0 0 0 0.56,0.27 1.31,1.31 0 0 0 1,-0.17 v 0 a 1.38,1.38 0 0 0 0.55,-1.56 h 0.58 a 2.84,2.84 0 0 1 1,0.3 1.33,1.33 0 0 0 -0.27,0.56 1.38,1.38 0 0 0 0.17,1 c 0.08,0.11 0.2,0.15 0.3,0.24 l 1.74,-4.47 a 6.3,6.3 0 0 0 -1.13,-0.57 0.12,0.12 0 0 0 -0.13,0 l -0.83,1.07 -0.38,-0.07 -0.37,-1.32 a 0.1,0.1 0 0 0 -0.1,-0.08 h -0.67 a 5.13,5.13 0 0 0 -0.63,0.08 0.11,0.11 0 0 0 -0.08,0 l -0.19,1.39 -0.37,0.13 -1,-1 a 0.09,0.09 0 0 0 -0.13,0 5.35,5.35 0 0 0 -1.08,0.72 0.11,0.11 0 0 0 0,0.13 l 0.51,1.25 -0.26,0.29 -1.33,-0.34 a 0.17,0.17 0 0 0 -0.09,0 5.91,5.91 0 0 0 -0.61,1.2 0.11,0.11 0 0 0 0,0.13 l 1.07,0.83 c 0,0.12 -0.05,0.25 -0.08,0.38 l -1.32,0.36 a 0.13,0.13 0 0 0 -0.08,0.11 5.11,5.11 0 0 0 0,0.67 c 0,0.25 0,0.45 0.07,0.63 a 0.11,0.11 0 0 0 0.1,0.09 L 186,247 a 3.19,3.19 0 0 0 0.13,0.37 l -1,1 a 0.18,0.18 0 0 0 0,0.08 6.34,6.34 0 0 0 0.75,1.13 0.1,0.1 0 0 0 0.13,0 l 1.25,-0.51 0.29,0.26 -0.34,1.32 a 0.13,0.13 0 0 0 0.08,0.16 z m 142.56,-46.63 c 0.15,0.67 0.23,1 0.41,1.66 l 1.94,0.33 a 8.31,8.31 0 0 0 1.43,2.25 c -0.22,0.8 -0.32,1.17 -0.5,1.88 0.51,0.43 0.77,0.65 1.32,1.07 0.61,-0.42 0.94,-0.66 1.63,-1.15 a 7.17,7.17 0 0 0 2.61,0.58 c 0.42,0.75 0.61,1.1 1,1.76 0.68,-0.14 1,-0.22 1.66,-0.4 0.13,-0.73 0.2,-1.12 0.33,-1.95 a 7.89,7.89 0 0 0 2.24,-1.43 c 0.8,0.23 1.18,0.33 1.89,0.51 0.43,-0.51 0.65,-0.77 1.07,-1.32 l -1.15,-1.63 a 7.24,7.24 0 0 0 0.59,-2.62 l 1.75,-1 c -0.15,-0.68 -0.22,-1 -0.41,-1.66 l -1.93,-0.34 a 8.39,8.39 0 0 0 -1.44,-2.24 c 0.22,-0.8 0.32,-1.18 0.5,-1.87 -0.51,-0.44 -0.77,-0.66 -1.32,-1.08 l -1.62,1.14 a 7,7 0 0 0 -2.63,-0.58 l -1,-1.75 c -0.68,0.15 -1,0.23 -1.66,0.41 -0.13,0.72 -0.2,1.11 -0.33,1.93 a 8.26,8.26 0 0 0 -2.24,1.43 c -0.79,-0.23 -1.17,-0.33 -1.87,-0.51 -0.44,0.51 -0.66,0.78 -1.08,1.33 l 1.15,1.61 a 7.29,7.29 0 0 0 -0.59,2.63 z m 7.4,-3.26 a 3.06,3.06 0 1 1 -0.84,4.25 3.06,3.06 0 0 1 0.84,-4.28 z m -76.93,-10.84 0.93,0.42 a 6.33,6.33 0 0 1 3.56,7.06 v 0.07 a 6.43,6.43 0 0 1 -2.71,4.12 6.29,6.29 0 0 1 -3.28,1.05 h -1 a 5.65,5.65 0 0 1 -1,-0.06 24.89,24.89 0 0 0 0.39,3 H 269 a 14.28,14.28 0 1 1 7.48,8.25 v 4.76 a 6.4,6.4 0 0 1 2.43,0 H 279 a 6.33,6.33 0 0 1 5.17,6 v 1 a 6.9,6.9 0 0 1 -0.05,1 25.44,25.44 0 0 0 6.62,-1.33 6,6 0 0 1 -0.44,-0.92 l -0.36,-0.95 a 6.34,6.34 0 0 1 2.46,-7.51 h 0.08 a 6.34,6.34 0 0 1 7.88,0.58 l 0.75,0.69 a 7,7 0 0 1 0.68,0.76 26.07,26.07 0 0 0 3.74,-5.62 5.48,5.48 0 0 1 -1,-0.34 l -0.92,-0.42 a 6.32,6.32 0 0 1 -3.57,-7.06 v -0.07 a 6.35,6.35 0 0 1 6,-5.17 h 1 a 6.77,6.77 0 0 1 1,0.06 25.41,25.41 0 0 0 -1.32,-6.63 7,7 0 0 1 -0.91,0.45 l -1,0.35 a 6.33,6.33 0 0 1 -7.51,-2.47 v -0.06 a 6.34,6.34 0 0 1 0.57,-7.89 l 0.69,-0.75 a 7.92,7.92 0 0 1 0.76,-0.67 25.35,25.35 0 0 0 -5.62,-3.74 5.68,5.68 0 0 1 -0.34,1 l -0.42,0.92 a 6.21,6.21 0 0 1 -2.22,2.63 6.44,6.44 0 0 1 -4.84,1 h -0.07 a 6.34,6.34 0 0 1 -5.17,-6 v -1 a 5.65,5.65 0 0 1 0.06,-1 25.41,25.41 0 0 0 -6.63,1.32 5.88,5.88 0 0 1 0.44,0.91 l 0.36,1 a 6.33,6.33 0 0 1 -2.46,7.51 l -0.08,0.05 a 6.34,6.34 0 0 1 -7.88,-0.58 l -0.74,-0.69 a 6.86,6.86 0 0 1 -0.68,-0.76 25.58,25.58 0 0 0 -3.74,5.62 6.74,6.74 0 0 1 1.03,0.08 z m 26.46,44.59 -2.71,-0.6 1.64,-2.25 -3.33,-3.54 -2.33,1.49 -0.43,-2.74 -3.1,-0.1 v 7.29 c 0.17,0 0.31,-0.14 0.48,-0.13 a 2.6926752,2.6926752 0 1 1 -0.24,5.38 2.64,2.64 0 0 1 -1.78,-0.81 v 7.9 l 4,0.12 0.6,-2.69 2.22,1.62 3.55,-3.32 -1.46,-2.32 2.74,-0.43 z m -21.57,-54.35 v 0.05 0 l 0.57,0.1 a 2.58,2.58 0 0 0 0.43,0.66 c -0.07,0.23 -0.1,0.35 -0.15,0.56 v 0.05 0 l 0.42,0.34 h 0.05 0.05 c 0.18,-0.12 0.29,-0.19 0.48,-0.34 a 2.28,2.28 0 0 0 0.77,0.18 l 0.29,0.52 v 0.05 h 0.06 l 0.53,-0.12 v 0 -0.05 c 0,-0.21 0.07,-0.34 0.1,-0.57 a 2.84,2.84 0 0 0 0.66,-0.42 l 0.56,0.15 h 0.05 v 0 c 0.14,-0.16 0.21,-0.25 0.34,-0.42 v -0.05 -0.05 c -0.12,-0.18 -0.2,-0.28 -0.34,-0.47 a 2.33,2.33 0 0 0 0.18,-0.78 l 0.44,-0.24 0.12,-0.08 v 0 a 4.56,4.56 0 0 0 -0.13,-0.53 v -0.05 h -0.05 l -0.57,-0.1 a 2.84,2.84 0 0 0 -0.42,-0.66 c 0.06,-0.23 0.09,-0.34 0.14,-0.55 v -0.05 0 c -0.16,-0.14 -0.25,-0.21 -0.42,-0.34 v 0 h -0.05 l -0.47,0.34 a 2.32,2.32 0 0 0 -0.78,-0.17 l -0.29,-0.52 v -0.05 h -0.06 l -0.53,0.13 v 0 0 c 0,0.22 -0.06,0.34 -0.1,0.58 a 2.51,2.51 0 0 0 -0.66,0.41 l -0.55,-0.14 v 0 0 l -0.35,0.41 v 0.05 0 l 0.34,0.48 a 2.21,2.21 0 0 0 -0.17,0.77 l -0.52,0.29 h -0.05 v 0.06 c 0,0.22 0.02,0.33 0.08,0.54 z m 2.34,-1.51 a 0.82,0.82 0 0 1 0.49,-0.16 0.89,0.89 0 0 1 0.87,1.07 0.87,0.87 0 0 1 -0.37,0.56 0.89,0.89 0 0 1 -1.24,-0.24 0.88,0.88 0 0 1 -0.13,-0.67 0.85,0.85 0 0 1 0.38,-0.59 z m 59.34,33.16 0.62,-2.05 -2.12,-1.3 -1.54,1.49 -0.58,-0.21 -0.23,-2.15 -2.46,-0.37 -0.85,2 h -0.47 l -1,-1.89 -2.42,0.59 v 2.14 l -0.56,0.26 -1.67,-1.34 -2,1.48 0.8,2 c -0.11,0.11 -0.22,0.23 -0.32,0.35 l -2.05,-0.62 -1.3,2.13 1.49,1.54 a 5.71,5.71 0 0 0 -0.21,0.58 l -2.15,0.22 -0.37,2.46 2,0.85 c 0,0.16 0,0.32 0,0.48 l -1.88,1 0.58,2.42 h 2.15 c 0.08,0.18 0.16,0.37 0.26,0.55 l -1.35,1.67 1.48,2 2,-0.8 0.35,0.32 -0.61,2.06 2.12,1.29 1.54,-1.49 c 0.19,0.08 0.39,0.15 0.58,0.21 l 0.23,2.16 2.46,0.36 0.84,-2 h 0.48 l 1,1.89 2.42,-0.59 v -2.14 l 0.56,-0.27 1.67,1.35 2,-1.48 -0.8,-2 a 3.73,3.73 0 0 0 0.32,-0.36 l 2.05,0.62 1.3,-2.12 -1.49,-1.54 c 0.08,-0.19 0.14,-0.39 0.21,-0.58 l 2.15,-0.22 0.37,-2.47 -2,-0.84 c 0,-0.16 0,-0.32 0,-0.48 l 1.88,-1 -0.58,-2.43 h -2.15 l -0.26,-0.56 1.35,-1.66 -1.48,-2 -2,0.8 z m -7.95,14.83 a 7,7 0 1 1 7.92,-5.87 6.91,6.91 0 0 1 -7.92,5.87 z M 175.3,290.7 c 1,-0.69 1.54,-1.07 2.66,-1.88 a 12,12 0 0 0 4.28,1 c 0.68,1.21 1,1.79 1.62,2.87 1.1,-0.24 1.65,-0.36 2.71,-0.66 0.22,-1.19 0.33,-1.82 0.55,-3.18 a 14,14 0 0 0 3.66,-2.33 c 1.31,0.36 1.93,0.52 3.08,0.82 0.71,-0.84 1.06,-1.27 1.75,-2.16 -0.69,-1 -1.07,-1.53 -1.87,-2.66 a 10.19,10.19 0 0 0 0.39,-1.22 h -8 a 4.64,4.64 0 0 1 -0.66,0.67 5.0131153,5.0131153 0 0 1 -5.58,-8.33 4.93,4.93 0 0 1 1.26,-0.52 l 2.82,-7.24 c -0.29,0 -0.58,-0.09 -0.87,-0.1 -0.67,-1.21 -1,-1.78 -1.61,-2.86 -1.1,0.24 -1.65,0.37 -2.71,0.67 -0.22,1.17 -0.32,1.81 -0.55,3.15 a 13.73,13.73 0 0 0 -3.65,2.34 c -1.3,-0.36 -1.92,-0.53 -3.07,-0.82 -0.71,0.84 -1.06,1.27 -1.75,2.16 0.69,1 1.07,1.53 1.87,2.65 a 11.84,11.84 0 0 0 -1,4.29 c -1.22,0.68 -1.79,1 -2.87,1.62 0.23,1.1 0.36,1.65 0.66,2.71 1.18,0.22 1.82,0.32 3.17,0.54 a 13.29,13.29 0 0 0 2.35,3.68 c -0.37,1.31 -0.54,1.93 -0.83,3.08 0.89,0.67 1.3,1.01 2.19,1.71 z M 187.53,217 a 7.4,7.4 0 0 0 13.53,5 l 1.26,-3.23 A 7.45,7.45 0 0 0 187.53,217 Z m 115.37,-30 -0.78,1.07 1.33,1.42 1.12,-0.71 h 0.06 l 0.2,1.31 1.94,0.06 0.29,-1.3 h 0.05 l 1.07,0.79 1.42,-1.33 -0.71,-1.12 v 0 l 1.31,-0.21 0.06,-1.94 -1.29,-0.29 v 0 l 0.78,-1.09 -1.33,-1.41 -1.12,0.71 h -0.05 l -0.21,-1.31 -1.94,-0.07 -0.29,1.3 h -0.05 l -1.07,-0.78 -1.42,1.33 0.71,1.12 v 0 l -1.31,0.2 -0.06,1.95 1.29,0.28 z m 2.09,-2.21 0.17,-0.13 a 1.42,1.42 0 0 1 0.77,-0.23 H 306 a 1.4,1.4 0 0 1 1.33,1.45 1.4,1.4 0 0 1 -2.79,-0.12 1.45,1.45 0 0 1 0.46,-1.03 z m -10.49,75.55 1.87,-1.31 -1.11,-2.46 -2.21,0.53 a 6.14,6.14 0 0 0 -0.45,-0.43 l 0.4,-2.24 -2.53,-1 -1.19,1.94 c -0.2,0 -0.41,0 -0.62,0 l -1.3,-1.87 -2.46,1.11 0.52,2.21 a 4.47,4.47 0 0 0 -0.42,0.45 l -2.24,-0.4 -1,2.53 1.93,1.19 c 0,0.2 0,0.41 0,0.62 l -1.86,1.3 1.17,2.49 2.21,-0.52 a 6.14,6.14 0 0 0 0.45,0.43 l -0.4,2.23 2.53,1 1.19,-1.94 c 0.2,0 0.41,0 0.61,0 l 1.3,1.86 2.47,-1.11 -0.53,-2.21 a 6.14,6.14 0 0 0 0.43,-0.45 l 2.23,0.41 1,-2.53 -1.97,-1.17 a 4.24,4.24 0 0 0 -0.02,-0.66 z m -2.57,1.57 a 3,3 0 0 1 -1.6,1.65 3,3 0 0 1 -2.31,0 3,3 0 0 1 -1.69,-3.91 3,3 0 0 1 1.6,-1.66 3.26,3.26 0 0 1 0.44,-0.15 3,3 0 0 1 1.87,0.12 3,3 0 0 1 1.69,3.91 z M 258.69,324 a 6.34,6.34 0 1 0 7.95,4.12 6.35,6.35 0 0 0 -7.95,-4.12 z m 13.2,4.66 2.1,-1.12 -0.41,-1.69 h -2.38 a 12.83,12.83 0 0 0 -0.69,-1.45 l 1.5,-1.86 -1,-1.39 -2.21,0.89 a 11.11,11.11 0 0 0 -1.08,-1 l 0.69,-2.29 -1.48,-0.9 -1.71,1.66 a 11.34,11.34 0 0 0 -1.51,-0.55 l -0.25,-2.4 -1.72,-0.25 -0.94,2.22 a 10,10 0 0 0 -1.45,0.06 l -1.13,-2.1 -1.69,0.41 v 2.39 a 11.25,11.25 0 0 0 -1.45,0.68 l -1.86,-1.5 -1.39,1 0.89,2.21 a 12.29,12.29 0 0 0 -1,1.07 l -2.29,-0.68 -0.9,1.48 1.66,1.72 a 10.4,10.4 0 0 0 -0.55,1.51 l -2.4,0.24 -0.25,1.72 2.22,0.94 a 11.64,11.64 0 0 0 0.06,1.45 l -2.1,1.13 0.41,1.69 h 2.39 a 11.25,11.25 0 0 0 0.68,1.45 l -1.5,1.85 1,1.4 2.22,-0.89 a 10,10 0 0 0 1.07,1 l -0.69,2.29 1.48,0.9 1.72,-1.66 a 9.32,9.32 0 0 0 1.51,0.54 l 0.25,2.41 1.71,0.25 0.94,-2.22 a 11.8,11.8 0 0 0 1.46,-0.06 l 1.12,2.1 1.69,-0.41 v -2.39 a 11.25,11.25 0 0 0 1.45,-0.68 l 1.86,1.5 1.39,-1 -0.89,-2.21 a 12.67,12.67 0 0 0 1,-1.08 l 2.28,0.69 0.9,-1.48 -1.62,-1.74 a 10.4,10.4 0 0 0 0.55,-1.51 l 2.4,-0.25 0.26,-1.71 -2.21,-0.94 a 11.8,11.8 0 0 0 -0.11,-1.46 z m -2.66,2.54 a 8.77,8.77 0 1 1 -7.38,-10 8.78,8.78 0 0 1 7.38,9.98 z m 2.58,-25.44 1.3,-1.78 -1.79,-1.91 -1.86,1.18 a 5.38,5.38 0 0 0 -0.55,-0.24 l -0.34,-2.18 -2.62,-0.08 -0.48,2.16 c -0.19,0.05 -0.37,0.13 -0.56,0.2 l -1.78,-1.3 -1.91,1.8 1.19,1.86 a 3.87,3.87 0 0 0 -0.25,0.55 l -2.18,0.34 -0.08,2.64 2.15,0.48 a 4.79,4.79 0 0 0 0.21,0.57 l -1.26,1.73 1.79,1.91 1.86,-1.19 a 5.52,5.52 0 0 0 0.55,0.26 l 0.34,2.16 2.62,0.08 0.48,-2.14 a 5.2,5.2 0 0 0 0.55,-0.21 l 1.78,1.29 1.91,-1.79 -1.18,-1.86 c 0.09,-0.18 0.18,-0.36 0.25,-0.54 l 2.18,-0.35 0.08,-2.62 -2.15,-0.47 a 5.59,5.59 0 0 0 -0.25,-0.57 z M 269,310 a 2.85,2.85 0 0 1 -2.1,0.76 2.92,2.92 0 0 1 -1.84,-5.07 2.33,2.33 0 0 1 0.35,-0.27 2.84,2.84 0 0 1 1.75,-0.49 2.87,2.87 0 0 1 2,0.94 A 2.91,2.91 0 0 1 269,310 Z m -18.62,34.76 1.33,-1.42 -1.71,-2.85 -1.89,0.51 a 6,6 0 0 0 -0.57,-0.42 l -0.06,-1.95 -3.25,-0.81 -1,1.69 a 6,6 0 0 0 -0.72,0.11 l -1.41,-1.33 -2.85,1.71 0.52,1.88 c -0.15,0.19 -0.3,0.39 -0.43,0.58 l -1.94,0.06 -0.81,3.26 1.69,1 a 5.37,5.37 0 0 0 0.11,0.7 l -1.34,1.42 1.73,2.88 1.88,-0.52 a 4.73,4.73 0 0 0 0.57,0.43 l 0.06,1.95 3.25,0.81 1,-1.69 0.72,-0.12 1.42,1.34 2.87,-1.72 -0.52,-1.89 a 6,6 0 0 0 0.42,-0.57 l 2,-0.06 0.81,-3.25 -1.7,-1 c -0.09,-0.23 -0.13,-0.49 -0.17,-0.71 z m -5.7,3.81 h -0.09 a 2.49,2.49 0 0 1 -2,-0.22 2.59,2.59 0 0 1 0.53,-4.76 2.55,2.55 0 0 1 0.72,-0.1 2.64,2.64 0 0 1 1.25,0.32 2.59,2.59 0 0 1 -0.45,4.74 z m -8.22,-14.43 -0.33,1.33 a 0.09,0.09 0 0 0 0,0.12 6.42,6.42 0 0 0 1.17,0.59 0.13,0.13 0 0 0 0.13,0 l 0.82,-1.08 a 3.25,3.25 0 0 0 0.38,0.08 l 0.37,1.32 c 0,0 0.06,0.08 0.1,0.08 h 0.68 a 5,5 0 0 0 0.62,-0.08 0.09,0.09 0 0 0 0.09,-0.09 l 0.18,-1.34 0.37,-0.13 1,1 a 0.1,0.1 0 0 0 0.13,0 4.36,4.36 0 0 0 0.59,-0.35 5.86,5.86 0 0 0 0.5,-0.37 0.11,0.11 0 0 0 0,-0.13 l -0.52,-1.25 c 0.09,-0.1 0.18,-0.19 0.26,-0.29 l 1.33,0.34 c 0,0 0.1,0 0.12,-0.05 a 6,6 0 0 0 0.58,-1.16 0.11,0.11 0 0 0 0,-0.13 l -1.08,-0.83 c 0,-0.12 0.06,-0.25 0.08,-0.38 l 1.32,-0.37 a 0.1,0.1 0 0 0 0.08,-0.1 c 0,-0.2 0,-0.42 0,-0.68 a 5.5,5.5 0 0 0 -0.08,-0.62 c 0,0 0,-0.09 -0.09,-0.09 l -1.35,-0.18 a 2.29,2.29 0 0 0 -0.12,-0.37 l 1,-1 a 0.12,0.12 0 0 0 0,-0.13 7.25,7.25 0 0 0 -0.72,-1.08 0.11,0.11 0 0 0 -0.13,0 l -1.25,0.52 -0.29,-0.26 0.33,-1.33 a 0.1,0.1 0 0 0 0,-0.12 5.8,5.8 0 0 0 -1.17,-0.58 0.11,0.11 0 0 0 -0.13,0 l -0.82,1.08 -0.38,-0.08 -0.37,-1.32 -0.11,-0.08 h -0.67 l -0.62,0.08 a 0.13,0.13 0 0 0 -0.1,0.09 l -0.17,1.35 a 3.22,3.22 0 0 0 -0.37,0.12 l -1,-1 a 0.13,0.13 0 0 0 -0.13,0 6.43,6.43 0 0 0 -1.09,0.72 0.11,0.11 0 0 0 0,0.13 l 0.52,1.25 c -0.09,0.09 -0.17,0.19 -0.26,0.3 l -1.33,-0.35 a 0.12,0.12 0 0 0 -0.12,0 5.54,5.54 0 0 0 -0.58,1.17 c 0,0 0,0.1 0,0.12 l 1.08,0.83 c 0,0.13 -0.06,0.25 -0.08,0.39 l -1.32,0.36 a 0.11,0.11 0 0 0 -0.08,0.1 c 0,0.21 0,0.43 0,0.68 0,0.25 0.05,0.44 0.08,0.63 0.03,0.19 0,0.08 0.09,0.09 l 1.35,0.18 0.12,0.37 -1,1 c 0,0 0,0.09 0,0.13 a 6.15,6.15 0 0 0 0.72,1.08 0.16,0.16 0 0 0 0.09,0.05 l 1.29,-0.54 z m 0.21,-3.91 a 2.59,2.59 0 0 1 0.3,-1 1.39,1.39 0 0 0 0.56,0.27 1.36,1.36 0 0 0 1,-0.18 v 0 a 1.38,1.38 0 0 0 0.55,-1.56 2.72,2.72 0 0 1 0.57,0 2.64,2.64 0 0 1 1,0.3 1.29,1.29 0 0 0 -0.28,0.56 1.38,1.38 0 0 0 1.76,1.62 3.62,3.62 0 0 1 0,0.57 2.82,2.82 0 0 1 -0.29,1 1.37,1.37 0 0 0 -0.57,-0.27 1.31,1.31 0 0 0 -1,0.17 1.38,1.38 0 0 0 -0.61,0.86 1.46,1.46 0 0 0 0,0.72 h -0.57 a 2.78,2.78 0 0 1 -1,-0.3 1.46,1.46 0 0 0 0.27,-0.56 1.38,1.38 0 0 0 -1.75,-1.63 2.71,2.71 0 0 1 0.07,-0.55 z m 45.47,-48.51 2,-2.65 -2.95,-3.8 -3.05,1.24 a 10.82,10.82 0 0 0 -1.69,-1 l -0.48,-3.25 -1,-0.12 v 9.06 h -0.06 a 5.29,5.29 0 0 1 -0.85,9.14 l -0.16,0.07 v 0 a 5.33,5.33 0 0 1 -7,-2.84 5.18,5.18 0 0 1 2,-6.37 H 260 l -1.43,0.22 -0.61,4.77 3,1.28 a 10.27,10.27 0 0 0 0.51,1.86 l -1.89,2.67 2.94,3.8 3,-1.24 a 11.36,11.36 0 0 0 1.69,1 l 0.49,3.25 4.77,0.6 1.28,-3 a 10.25,10.25 0 0 0 1.88,-0.51 l 2.65,2 3.8,-2.95 -1.24,-3.05 a 12.08,12.08 0 0 0 0.95,-1.68 l 3.26,-0.49 0.6,-4.77 -3,-1.28 a 12,12 0 0 0 -0.5,-1.94 z m -17.56,69 c -0.1,-0.43 -0.14,-0.64 -0.26,-1.06 l -1.23,-0.21 a 5.67,5.67 0 0 0 -0.92,-1.44 c 0.14,-0.51 0.2,-0.74 0.32,-1.19 -0.33,-0.28 -0.5,-0.41 -0.84,-0.68 l -1,0.72 a 4.6,4.6 0 0 0 -1.67,-0.37 l -0.63,-1.11 c -0.43,0.09 -0.64,0.14 -1.06,0.25 l -0.21,1.24 a 5.12,5.12 0 0 0 -1.42,0.91 l -1.2,-0.32 c -0.28,0.33 -0.42,0.5 -0.68,0.84 0.26,0.39 0.41,0.6 0.72,1 a 4.51,4.51 0 0 0 -0.37,1.67 l -1.12,0.63 c 0.09,0.43 0.14,0.64 0.26,1.05 l 1.23,0.22 a 5.36,5.36 0 0 0 0.92,1.43 c -0.14,0.51 -0.21,0.75 -0.32,1.2 0.32,0.28 0.49,0.41 0.84,0.69 l 1,-0.74 a 4.6,4.6 0 0 0 1.67,0.37 c 0.26,0.48 0.39,0.7 0.63,1.13 l 1.05,-0.26 c 0.09,-0.47 0.13,-0.71 0.22,-1.24 a 5.36,5.36 0 0 0 1.43,-0.92 c 0.5,0.15 0.75,0.21 1.19,0.33 0.28,-0.33 0.42,-0.49 0.69,-0.84 l -0.73,-1 a 4.6,4.6 0 0 0 0.37,-1.67 z m -4.72,2.09 a 2,2 0 0 1 -2.71,-0.54 2,2 0 1 1 2.71,0.54 z m 99.74,-98.43 a 2.42,2.42 0 0 0 -0.13,-0.46 l 0.71,-0.31 a 3.44,3.44 0 0 0 -0.71,-1.12 l -0.58,0.52 a 2.67,2.67 0 0 0 -0.36,-0.31 2.38,2.38 0 0 0 -0.41,-0.23 l 0.28,-0.72 a 3.34,3.34 0 0 0 -1.3,-0.29 v 0.77 a 3.89,3.89 0 0 0 -0.47,0 3.47,3.47 0 0 0 -0.46,0.13 l -0.3,-0.71 a 3.27,3.27 0 0 0 -1.12,0.72 l 0.51,0.57 a 3.37,3.37 0 0 0 -0.3,0.36 4.49,4.49 0 0 0 -0.24,0.42 l -0.71,-0.29 a 3.34,3.34 0 0 0 -0.29,1.3 h 0.77 a 2.49,2.49 0 0 0 0,0.47 2.42,2.42 0 0 0 0.13,0.46 l -0.71,0.3 a 3.25,3.25 0 0 0 0.71,1.12 l 0.58,-0.51 a 3.65,3.65 0 0 0 0.36,0.31 3.3,3.3 0 0 0 0.41,0.23 l -0.28,0.72 a 3.53,3.53 0 0 0 1.3,0.29 v -0.78 a 2.56,2.56 0 0 0 0.47,0 2.42,2.42 0 0 0 0.46,-0.13 l 0.3,0.71 a 3.11,3.11 0 0 0 1.12,-0.71 l -0.51,-0.58 a 2.12,2.12 0 0 0 0.3,-0.36 2.38,2.38 0 0 0 0.23,-0.41 l 0.72,0.28 a 3.33,3.33 0 0 0 0.29,-1.29 l -0.77,-0.05 a 2.38,2.38 0 0 0 0.01,-0.37 z m -1,1.56 a 1.91,1.91 0 1 1 -0.44,-2.67 1.92,1.92 0 0 1 0.45,2.73 z m 12.74,-23.53 a 0.36,0.36 0 0 0 0.27,-0.33 17.67,17.67 0 0 0 0,-2.17 c -0.05,-0.72 -0.13,-1.4 -0.23,-2 a 0.36,0.36 0 0 0 -0.31,-0.3 l -4.34,-0.57 c -0.11,-0.41 -0.24,-0.8 -0.38,-1.19 l 3.08,-3.18 a 0.34,0.34 0 0 0 0.06,-0.41 18.58,18.58 0 0 0 -2.32,-3.49 0.38,0.38 0 0 0 -0.41,-0.11 l -4,1.67 a 12.39,12.39 0 0 0 -0.94,-0.83 l 1.09,-4.28 a 0.35,0.35 0 0 0 -0.15,-0.39 19,19 0 0 0 -3.76,-1.83 0.34,0.34 0 0 0 -0.41,0.11 l -2.66,3.46 q -0.58,-0.13 -1.23,-0.24 l -1.2,-4.26 a 0.34,0.34 0 0 0 -0.32,-0.26 15.93,15.93 0 0 0 -2.18,0 c -0.75,0 -1.41,0.13 -2,0.23 a 0.38,0.38 0 0 0 -0.3,0.31 l -0.57,4.33 c -0.41,0.12 -0.81,0.25 -1.19,0.4 l -3.16,-3.1 a 0.38,0.38 0 0 0 -0.42,-0.06 20,20 0 0 0 -3.49,2.32 0.37,0.37 0 0 0 -0.1,0.42 l 1.67,4 c -0.28,0.29 -0.56,0.6 -0.84,0.95 l -4.29,-1.1 a 0.35,0.35 0 0 0 -0.39,0.15 19.59,19.59 0 0 0 -1.87,3.75 0.34,0.34 0 0 0 0.12,0.41 l 3.46,2.67 c -0.09,0.4 -0.18,0.81 -0.25,1.23 l -4.3,1.28 a 0.39,0.39 0 0 0 -0.27,0.34 19.94,19.94 0 0 0 0,2.17 c 0.06,0.79 0.14,1.44 0.24,2 a 0.37,0.37 0 0 0 0.31,0.3 l 4.33,0.57 a 11.84,11.84 0 0 0 0.4,1.19 l -3.1,3.17 a 0.36,0.36 0 0 0 -0.06,0.42 19.34,19.34 0 0 0 2.32,3.48 0.37,0.37 0 0 0 0.42,0.11 l 4,-1.67 c 0.29,0.27 0.6,0.56 0.93,0.83 l -1.08,4.28 a 0.35,0.35 0 0 0 0.15,0.39 19.43,19.43 0 0 0 3.76,1.88 0.36,0.36 0 0 0 0.41,-0.12 l 2.65,-3.46 c 0.44,0.1 0.85,0.19 1.23,0.25 l 1.2,4.25 a 0.34,0.34 0 0 0 0.33,0.26 15.72,15.72 0 0 0 2.17,0 17,17 0 0 0 2,-0.23 0.35,0.35 0 0 0 0.3,-0.31 l 0.57,-4.33 c 0.39,-0.11 0.78,-0.23 1.19,-0.39 l 3.17,3.09 a 0.35,0.35 0 0 0 0.42,0.06 q 1,-0.51 1.89,-1.11 c 0.56,-0.38 1.09,-0.78 1.6,-1.2 a 0.37,0.37 0 0 0 0.1,-0.42 l -1.67,-4 c 0.3,-0.31 0.58,-0.62 0.83,-0.93 l 4.29,1.08 a 0.39,0.39 0 0 0 0.4,-0.15 20.19,20.19 0 0 0 1.87,-3.75 0.37,0.37 0 0 0 -0.12,-0.41 l -3.47,-2.66 c 0.1,-0.4 0.18,-0.81 0.25,-1.24 z m -10.23,-0.3 a 9,9 0 0 1 -1,3.19 4.44,4.44 0 0 0 -5.11,-0.3 4.44,4.44 0 0 0 -1.88,5.08 9.53,9.53 0 0 1 -1.85,0 8.77,8.77 0 0 1 -3.19,-1 4.37,4.37 0 0 0 0.88,-1.81 4.44,4.44 0 0 0 -5.65,-5.22 8.8,8.8 0 0 1 0,-1.85 9,9 0 0 1 1,-3.2 4.44,4.44 0 0 0 5.16,0.31 l 0.11,-0.06 a 4.45,4.45 0 0 0 1.76,-5 9.08,9.08 0 0 1 5.05,1 4.35,4.35 0 0 0 -0.88,1.82 4.44,4.44 0 0 0 5.65,5.22 8.8,8.8 0 0 1 -0.04,1.87 z m -9.77,25.64 c -0.11,-0.51 -0.17,-0.77 -0.31,-1.27 -0.55,-0.1 -0.85,-0.16 -1.48,-0.26 a 6.53,6.53 0 0 0 -1.11,-1.73 c 0.17,-0.62 0.25,-0.9 0.39,-1.44 -0.4,-0.34 -0.6,-0.51 -1,-0.83 l -1.25,0.88 a 5.44,5.44 0 0 0 -2,-0.45 c -0.32,-0.57 -0.47,-0.84 -0.76,-1.34 -0.52,0.11 -0.78,0.17 -1.28,0.31 -0.1,0.56 -0.15,0.86 -0.25,1.49 a 6.35,6.35 0 0 0 -1.72,1.1 c -0.61,-0.18 -0.9,-0.25 -1.45,-0.39 -0.33,0.39 -0.5,0.6 -0.82,1 0.32,0.47 0.5,0.71 0.88,1.24 a 5.44,5.44 0 0 0 -0.45,2 c -0.57,0.32 -0.85,0.47 -1.35,0.77 0.11,0.51 0.17,0.77 0.31,1.27 l 1.49,0.26 a 6.6,6.6 0 0 0 1.1,1.72 c -0.17,0.62 -0.25,0.91 -0.39,1.46 0.4,0.33 0.6,0.5 1,0.82 l 1.25,-0.89 a 5.44,5.44 0 0 0 2,0.45 c 0.31,0.57 0.47,0.84 0.76,1.36 l 1.27,-0.31 c 0.11,-0.57 0.16,-0.87 0.26,-1.5 a 6.49,6.49 0 0 0 1.73,-1.1 l 1.44,0.39 c 0.34,-0.4 0.51,-0.6 0.83,-1 l -0.88,-1.25 a 5.65,5.65 0 0 0 0.45,-2 c 0.58,-0.26 0.85,-0.42 1.35,-0.71 z m -5.69,2.52 a 2.36,2.36 0 1 1 0.65,-3.27 2.36,2.36 0 0 1 -0.64,3.32 z m -46.24,-4.14 c 0.72,-1.07 1.06,-1.58 1.67,-2.53 -0.54,-0.92 -0.82,-1.38 -1.41,-2.3 -1.1,0.31 -1.7,0.48 -2.95,0.86 a 11.09,11.09 0 0 0 -3.57,-2.26 c -0.24,-1.32 -0.35,-1.95 -0.58,-3.13 -1.06,-0.13 -1.58,-0.19 -2.63,-0.26 -0.55,1 -0.84,1.55 -1.45,2.7 a 12.71,12.71 0 0 0 -4,1 c -1.06,-0.75 -1.56,-1.1 -2.51,-1.73 -0.89,0.53 -1.34,0.81 -2.23,1.41 0.32,1.13 0.5,1.74 0.88,3 a 11.19,11.19 0 0 0 -2.17,3.61 c -1.3,0.22 -1.91,0.33 -3.07,0.55 -0.12,1.09 -0.17,1.62 -0.23,2.69 1,0.58 1.54,0.88 2.68,1.52 a 13.35,13.35 0 0 0 1,4.1 c -0.73,1.09 -1.07,1.6 -1.68,2.56 0.54,0.91 0.82,1.38 1.4,2.29 1.12,-0.31 1.72,-0.48 3,-0.86 a 11.45,11.45 0 0 0 3.55,2.24 c 0.24,1.33 0.36,2 0.58,3.15 1.06,0.14 1.59,0.2 2.64,0.27 0.55,-1 0.85,-1.56 1.45,-2.72 a 12.45,12.45 0 0 0 4,-1 c 1.07,0.76 1.57,1.11 2.52,1.75 0.89,-0.53 1.34,-0.82 2.22,-1.41 -0.31,-1.13 -0.49,-1.74 -0.87,-3 a 11.25,11.25 0 0 0 2.17,-3.6 l 3.06,-0.56 c 0.12,-1.08 0.17,-1.62 0.23,-2.69 -1,-0.57 -1.54,-0.88 -2.68,-1.51 a 13.54,13.54 0 0 0 -1.01,-4.09 z m -7.74,14.28 a 10,10 0 1 1 6.88,-12.15 9.88,9.88 0 0 1 -6.87,12.2 z m 43.12,-22.23 -0.58,0.22 a 3.89,3.89 0 0 1 -4.6,-1.51 v 0 a 3.87,3.87 0 0 1 0.35,-4.82 l 0.43,-0.45 a 3.64,3.64 0 0 1 0.46,-0.42 15.23,15.23 0 0 0 -3.44,-2.28 4.43,4.43 0 0 1 -0.2,0.58 l -0.26,0.56 a 3.83,3.83 0 0 1 -1.36,1.61 3.89,3.89 0 0 1 -3,0.57 v 0 a 3.89,3.89 0 0 1 -3.16,-3.66 v -0.62 a 4.22,4.22 0 0 1 0,-0.62 15.91,15.91 0 0 0 -4.05,0.81 3.11,3.11 0 0 1 0.27,0.55 l 0.22,0.59 a 3.88,3.88 0 0 1 -1.5,4.59 h -0.05 a 3.87,3.87 0 0 1 -4.82,-0.36 l -0.45,-0.42 a 4.58,4.58 0 0 1 -0.42,-0.46 15.57,15.57 0 0 0 -2.28,3.44 3.06,3.06 0 0 1 0.58,0.2 l 0.57,0.26 a 3.87,3.87 0 0 1 2.18,4.31 v 0.05 a 3.92,3.92 0 0 1 -1.66,2.51 3.74,3.74 0 0 1 -2,0.64 h -0.62 a 4.29,4.29 0 0 1 -0.62,0 15.75,15.75 0 0 0 0.81,4 4.83,4.83 0 0 1 0.56,-0.27 l 0.58,-0.21 a 3.87,3.87 0 0 1 4.6,1.51 v 0 A 3.87,3.87 0 0 1 311,264 l -0.43,0.46 a 3.55,3.55 0 0 1 -0.46,0.41 15.27,15.27 0 0 0 3.44,2.29 3.6,3.6 0 0 1 0.2,-0.58 L 314,266 a 3.87,3.87 0 0 1 4.32,-2.18 v 0 a 3.88,3.88 0 0 1 3.16,3.66 v 0.62 a 4.36,4.36 0 0 1 0,0.62 15.91,15.91 0 0 0 4.05,-0.81 3.2,3.2 0 0 1 -0.27,-0.56 l -0.22,-0.58 a 3.87,3.87 0 0 1 1.5,-4.59 h 0.05 a 3.88,3.88 0 0 1 4.82,0.36 l 0.45,0.42 a 3.72,3.72 0 0 1 0.42,0.47 15.81,15.81 0 0 0 2.28,-3.44 4.5,4.5 0 0 1 -0.58,-0.21 l -0.57,-0.25 a 3.88,3.88 0 0 1 -2.18,-4.32 v 0 a 3.89,3.89 0 0 1 3.66,-3.16 h 0.62 a 4.22,4.22 0 0 1 0.62,0 15.82,15.82 0 0 0 -0.81,-4 2.89,2.89 0 0 1 -0.52,0.18 z m -9.48,12.06 a 8.72,8.72 0 1 1 2.4,-12.1 8.73,8.73 0 0 1 -2.39,12.15 z M 214.47,195.37 a 13.57,13.57 0 0 0 0.65,2.41 l -3.74,1.62 a 17.62,17.62 0 0 0 3.77,5.91 l 3,-2.72 a 13.4,13.4 0 0 0 1.9,1.6 13.9,13.9 0 0 0 2.17,1.24 l -0.13,0.32 h 9.43 l 0.13,0.31 c 0.34,-0.09 0.7,-0.16 1,-0.28 l 1.62,3.75 a 17.7,17.7 0 0 0 5.91,-3.78 l -2.72,-3 a 14.26,14.26 0 0 0 1.61,-1.91 14.09,14.09 0 0 0 1.23,-2.16 l 3.8,1.5 a 17.59,17.59 0 0 0 1.5,-6.85 l -4.07,-0.23 a 14.92,14.92 0 0 0 -0.21,-2.48 14.49,14.49 0 0 0 -0.66,-2.41 l 3.74,-1.62 a 17.62,17.62 0 0 0 -3.77,-5.91 l -3.05,2.72 a 13.4,13.4 0 0 0 -1.9,-1.6 13.9,13.9 0 0 0 -2.17,-1.24 l 1.51,-3.79 a 17.69,17.69 0 0 0 -6.86,-1.51 L 228,179.3 a 13.22,13.22 0 0 0 -2.49,0.21 13.48,13.48 0 0 0 -2.4,0.66 l -1.62,-3.75 a 17.8,17.8 0 0 0 -5.91,3.78 l 2.72,3 a 13.53,13.53 0 0 0 -2.84,4.08 l -3.8,-1.51 a 17.59,17.59 0 0 0 -1.5,6.85 l 4.07,0.22 a 14,14 0 0 0 0.24,2.53 z m 5.23,-8.25 a 10.1,10.1 0 1 1 2.37,14.09 10.11,10.11 0 0 1 -2.37,-14.09 z m -43.54,38.61 0.76,-0.35 a 5.23,5.23 0 0 1 6.32,1.58 v 0 0 a 5.2,5.2 0 0 1 0,6.5 l -0.53,0.65 a 4.64,4.64 0 0 1 -0.57,0.6 20.66,20.66 0 0 0 4.86,2.79 4.52,4.52 0 0 1 0.22,-0.8 l 0.29,-0.79 a 5.21,5.21 0 0 1 5.56,-3.35 h 0.09 a 5.21,5.21 0 0 1 3.14,1.56 l 2,-5 a 11.74,11.74 0 1 1 6.7,-17.23 l 1.39,-3.56 a 5.16,5.16 0 0 1 0.2,-6.13 l 0.52,-0.65 a 5.51,5.51 0 0 1 0.58,-0.6 21.08,21.08 0 0 0 -4.83,-2.74 6.09,6.09 0 0 1 -0.22,0.81 l -0.29,0.78 a 5.22,5.22 0 0 1 -5.57,3.36 h -0.08 a 5.21,5.21 0 0 1 -4.59,-4.6 l -0.09,-0.83 a 5.89,5.89 0 0 1 0,-0.84 21.13,21.13 0 0 0 -5.35,1.49 4.72,4.72 0 0 1 0.41,0.73 l 0.35,0.75 a 5.21,5.21 0 0 1 -1.57,6.32 v 0 a 5.24,5.24 0 0 1 -3.9,1.1 5.18,5.18 0 0 1 -2.6,-1.1 l -0.65,-0.53 a 4.64,4.64 0 0 1 -0.6,-0.57 21.08,21.08 0 0 0 -2.74,4.83 6.09,6.09 0 0 1 0.81,0.22 l 0.78,0.29 a 5.2,5.2 0 0 1 3.35,5.58 v 0.06 a 5.22,5.22 0 0 1 -4.6,4.6 l -0.83,0.09 a 5.89,5.89 0 0 1 -0.84,0 21.13,21.13 0 0 0 1.49,5.35 6.44,6.44 0 0 1 0.63,-0.37 z M 198,191.34 a 3.57,3.57 0 0 0 0.18,0.66 l -1,0.44 a 4.76,4.76 0 0 0 1.05,1.64 l 0.84,-0.75 a 3.26,3.26 0 0 0 0.53,0.44 3.61,3.61 0 0 0 0.6,0.35 l -0.42,1 a 4.87,4.87 0 0 0 1.9,0.41 l 0.06,-1.12 a 3.21,3.21 0 0 0 0.68,-0.07 3.46,3.46 0 0 0 0.67,-0.18 l 0.45,1 a 4.81,4.81 0 0 0 1.63,-1.05 l -0.75,-0.84 a 2.88,2.88 0 0 0 0.44,-0.53 4,4 0 0 0 0.35,-0.59 l 1.05,0.41 a 5,5 0 0 0 0.41,-1.89 l -1.12,-0.06 a 4,4 0 0 0 -0.06,-0.69 4.37,4.37 0 0 0 -0.19,-0.67 l 1,-0.44 a 4.85,4.85 0 0 0 -1,-1.64 l -0.84,0.75 a 3.67,3.67 0 0 0 -0.52,-0.44 4.56,4.56 0 0 0 -0.6,-0.34 l 0.41,-1.06 a 5,5 0 0 0 -1.89,-0.41 l -0.06,1.13 a 3.22,3.22 0 0 0 -0.69,0.06 3.9,3.9 0 0 0 -0.67,0.18 l -0.44,-1 a 4.85,4.85 0 0 0 -1.64,1 l 0.75,0.84 a 3.75,3.75 0 0 0 -0.44,0.53 3.21,3.21 0 0 0 -0.34,0.59 l -1.05,-0.41 a 4.88,4.88 0 0 0 -0.42,1.9 l 1.13,0.06 a 4.2,4.2 0 0 0 0.01,0.79 z m 1.45,-2.29 a 2.79,2.79 0 1 1 0.65,3.9 2.79,2.79 0 0 1 -0.66,-3.9 z m 39.17,133.42 -0.94,-5.66 a 19.21,19.21 0 0 0 6.45,-2.69 l 3.36,4.65 a 24.84,24.84 0 0 0 7,-7 l -4.66,-3.34 a 19.06,19.06 0 0 0 1.62,-3.11 18.77,18.77 0 0 0 1,-3.35 l 5.66,0.91 a 24.93,24.93 0 0 0 0,-9.85 l -5.66,0.93 a 19.84,19.84 0 0 0 -1,-3.34 19,19 0 0 0 -1.64,-3.1 l 4.65,-3.36 a 24.75,24.75 0 0 0 -2.39,-2.92 h -7.49 l -0.44,0.63 c -0.38,-0.24 -0.81,-0.41 -1.2,-0.63 h -12.65 l -0.77,-2 a 19.91,19.91 0 0 0 -3.29,1 20.27,20.27 0 0 0 -3.1,1.63 l -3.36,-4.64 a 25,25 0 0 0 -7,7 l 4.66,3.34 a 19.6,19.6 0 0 0 -2.66,6.46 l -5.65,-0.91 a 24.61,24.61 0 0 0 0,9.86 l 5.65,-0.94 a 19.84,19.84 0 0 0 1,3.34 19,19 0 0 0 1.64,3.1 l -4.65,3.36 a 24.75,24.75 0 0 0 7,6.95 l 3.34,-4.65 a 19.36,19.36 0 0 0 6.45,2.65 l -0.9,5.66 a 24.56,24.56 0 0 0 9.96,0.02 z m -18.13,-19.11 a 14.19,14.19 0 1 1 18.51,7.82 14.18,14.18 0 0 1 -18.52,-7.82 z m -55,-80.13 -0.49,0.77 0.4,0.65 0.85,-0.25 a 3.29,3.29 0 0 0 1,0.65 c 0.07,0.37 0.1,0.55 0.17,0.89 0.3,0 0.45,0.06 0.75,0.08 l 0.42,-0.78 a 3.38,3.38 0 0 0 1.14,-0.27 l 0.71,0.5 0.64,-0.41 c -0.09,-0.32 -0.14,-0.49 -0.25,-0.86 a 3.18,3.18 0 0 0 0.62,-1 l 0.87,-0.16 c 0,-0.31 0.05,-0.46 0.07,-0.76 l -0.77,-0.44 a 3.77,3.77 0 0 0 -0.28,-1.17 l 0.47,-0.72 c -0.15,-0.26 -0.23,-0.39 -0.4,-0.65 l -0.84,0.24 a 3,3 0 0 0 -1,-0.64 c -0.06,-0.38 -0.1,-0.56 -0.16,-0.9 a 6.34,6.34 0 0 0 -0.75,-0.07 c -0.16,0.29 -0.24,0.44 -0.41,0.77 a 3.53,3.53 0 0 0 -1.14,0.28 l -0.72,-0.5 c -0.25,0.15 -0.38,0.23 -0.63,0.4 0.09,0.32 0.14,0.5 0.25,0.86 a 3.29,3.29 0 0 0 -0.62,1 l -0.88,0.16 c 0,0.31 0,0.46 -0.06,0.77 l 0.76,0.43 a 3.84,3.84 0 0 0 0.25,1.13 z m 2.21,-4.06 a 2.84,2.84 0 1 1 -2,3.46 2.8,2.8 0 0 1 1.97,-3.46 z m 79.7,-37.3 a 5.57,5.57 0 0 0 0.27,1 l -1.54,0.66 a 7.23,7.23 0 0 0 1.56,2.44 l 1.25,-1.13 a 5.52,5.52 0 0 0 0.78,0.67 6.69,6.69 0 0 0 0.9,0.51 l -0.62,1.56 a 7.43,7.43 0 0 0 2.82,0.62 l 0.09,-1.68 a 5.86,5.86 0 0 0 1,-0.09 5.45,5.45 0 0 0 1,-0.27 l 0.66,1.55 a 7.23,7.23 0 0 0 2.44,-1.56 l -1.12,-1.26 a 5,5 0 0 0 0.66,-0.78 5.67,5.67 0 0 0 0.51,-0.89 l 1.56,0.62 a 7.33,7.33 0 0 0 0.62,-2.82 l -1.68,-0.1 a 6,6 0 0 0 -0.09,-1 5.14,5.14 0 0 0 -0.27,-1 l 1.55,-0.67 a 7.45,7.45 0 0 0 -1.56,-2.43 l -1.25,1.12 a 5.86,5.86 0 0 0 -1.68,-1.17 l 0.62,-1.56 a 7.11,7.11 0 0 0 -2.82,-0.62 l -0.09,1.68 a 5.11,5.11 0 0 0 -1,0.08 5.57,5.57 0 0 0 -1,0.27 l -0.67,-1.54 a 7.29,7.29 0 0 0 -2.43,1.56 l 1.12,1.25 a 5.55,5.55 0 0 0 -0.66,0.78 5.76,5.76 0 0 0 -0.51,0.9 l -1.56,-0.62 a 7.08,7.08 0 0 0 -0.62,2.82 l 1.67,0.09 a 6.06,6.06 0 0 0 0.06,1.01 z m 2.16,-3.41 a 4.16,4.16 0 1 1 1,5.8 4.16,4.16 0 0 1 -1.03,-5.8 z M 237.4,307.32 a 10,10 0 1 0 -13.07,-5.52 10,10 0 0 0 13.07,5.52 z m -31,0.8 1.64,-2.25 -2.27,-2.42 -2.35,1.5 a 5.37,5.37 0 0 0 -0.69,-0.31 l -0.43,-2.75 -3.31,-0.11 -0.61,2.73 a 5.89,5.89 0 0 0 -0.7,0.26 l -2.26,-1.64 -2.42,2.27 1.5,2.35 a 5.42,5.42 0 0 0 -0.32,0.69 l -2.75,0.43 -0.1,3.31 2.72,0.61 a 4.71,4.71 0 0 0 0.27,0.71 l -1.64,2.25 2.27,2.41 2.34,-1.49 a 6.29,6.29 0 0 0 0.7,0.32 l 0.43,2.74 3.31,0.1 0.61,-2.71 c 0.24,-0.08 0.47,-0.17 0.7,-0.27 l 2.25,1.64 2.41,-2.27 -1.49,-2.34 a 6.21,6.21 0 0 0 0.31,-0.7 l 2.76,-0.43 0.1,-3.31 -2.72,-0.61 c -0.06,-0.24 -0.15,-0.47 -0.25,-0.71 z m -3.54,5.41 a 3.68,3.68 0 0 1 -2.66,1 3.71,3.71 0 0 1 -3.53,-3.86 3.66,3.66 0 0 1 1.2,-2.55 3.55,3.55 0 0 1 0.44,-0.35 3.62,3.62 0 0 1 2.22,-0.62 3.69,3.69 0 0 1 2.33,6.41 z m -43.11,-71.82 c 0.05,0.28 0.12,0.58 0.2,0.86 l -2.24,1 0.26,0.67 a 11,11 0 0 0 2.38,3.72 l 0.5,0.52 1.81,-1.63 a 7.48,7.48 0 0 0 0.71,0.55 7.25,7.25 0 0 0 0.75,0.47 l -0.9,2.26 0.66,0.29 a 11.07,11.07 0 0 0 4.31,1 h 0.72 l 0.13,-2.42 c 0.3,0 0.59,-0.07 0.88,-0.12 a 6.45,6.45 0 0 0 0.87,-0.2 l 1,2.24 0.67,-0.26 a 11,11 0 0 0 3.72,-2.38 l 0.52,-0.5 -1.62,-1.81 c 0.19,-0.22 0.37,-0.46 0.54,-0.7 a 8.65,8.65 0 0 0 0.47,-0.76 l 2.26,0.9 0.29,-0.66 a 10.86,10.86 0 0 0 0.95,-4.31 v -0.72 l -2.43,-0.13 a 6.41,6.41 0 0 0 -0.11,-0.88 6.82,6.82 0 0 0 -0.2,-0.87 l 2.24,-1 -0.26,-0.67 a 11.16,11.16 0 0 0 -2.38,-3.72 l -0.5,-0.52 -1.81,1.62 c -0.23,-0.19 -0.46,-0.37 -0.7,-0.54 a 8.65,8.65 0 0 0 -0.76,-0.47 l 0.9,-2.26 -0.66,-0.29 a 10.82,10.82 0 0 0 -4.31,-0.95 h -0.72 l -0.13,2.42 a 8.47,8.47 0 0 0 -0.88,0.12 6.82,6.82 0 0 0 -0.87,0.2 l -1,-2.23 -0.67,0.26 a 10.79,10.79 0 0 0 -3.72,2.37 l -0.52,0.5 1.63,1.81 a 7.48,7.48 0 0 0 -0.55,0.71 7.25,7.25 0 0 0 -0.47,0.75 l -2.26,-0.9 -0.29,0.66 a 11,11 0 0 0 -1,4.31 v 0.72 l 2.43,0.13 c 0.08,0.25 0.12,0.54 0.17,0.84 z m 4.42,-4.55 a 5.16,5.16 0 0 1 7.23,-1.16 5.18,5.18 0 1 1 -7.22,1.21 z M 203.74,296 c 1.3,-1.56 2,-2.36 3.22,-4 -1.31,-1.89 -2,-2.9 -3.55,-5 a 21.76,21.76 0 0 0 1.43,-5.67 h -3.22 A 18.76,18.76 0 0 1 193.57,294 19.51,19.51 0 0 1 171.86,261.59 18.72,18.72 0 0 1 186.62,259 l 1.19,-3 a 21.74,21.74 0 0 0 -4.57,-0.72 c -1.28,-2.28 -1.89,-3.37 -3.06,-5.4 -2,0.43 -3.05,0.65 -5,1.19 -0.38,2.21 -0.56,3.4 -1,5.91 a 25.13,25.13 0 0 0 -6.75,4.32 c -2.43,-0.71 -3.58,-1 -5.73,-1.6 -1.3,1.55 -2,2.36 -3.22,4 1.31,1.88 2,2.9 3.54,5 a 22,22 0 0 0 -1.7,8 c -2.25,1.25 -3.31,1.84 -5.31,3 0.46,2.07 0.71,3.1 1.29,5.1 2.2,0.44 3.39,0.65 5.91,1.1 a 26.39,26.39 0 0 0 4.45,6.95 c -0.65,2.45 -1,3.61 -1.48,5.77 1.58,1.36 2.39,2 4.06,3.34 1.85,-1.28 2.85,-2 4.92,-3.48 a 22,22 0 0 0 8,1.88 c 1.28,2.31 1.9,3.4 3.07,5.45 2,-0.43 3.06,-0.66 5,-1.19 0.39,-2.23 0.57,-3.42 1,-6 A 24.37,24.37 0 0 0 198,294.3 c 2.44,0.78 3.59,1.1 5.74,1.7 z m -48.69,-37.22 0.85,-0.6 a 4.06,4.06 0 0 0 1.37,0.3 l 0.52,0.92 0.87,-0.21 c 0.07,-0.38 0.1,-0.59 0.17,-1 a 4.36,4.36 0 0 0 1.18,-0.75 l 1,0.26 c 0.23,-0.26 0.35,-0.4 0.57,-0.69 -0.23,-0.31 -0.35,-0.49 -0.6,-0.85 a 3.83,3.83 0 0 0 0.3,-1.37 l 0.92,-0.52 c -0.08,-0.35 -0.12,-0.53 -0.21,-0.87 l -1,-0.17 a 4.49,4.49 0 0 0 -0.76,-1.18 c 0.12,-0.42 0.17,-0.62 0.26,-1 a 7.65,7.65 0 0 0 -0.69,-0.56 c -0.32,0.21 -0.49,0.33 -0.85,0.59 a 3.68,3.68 0 0 0 -1.38,-0.3 c -0.21,-0.39 -0.32,-0.58 -0.51,-0.92 l -0.87,0.21 c -0.07,0.38 -0.11,0.58 -0.18,1 a 4.79,4.79 0 0 0 -1.17,0.76 c -0.41,-0.12 -0.61,-0.18 -1,-0.27 -0.23,0.27 -0.34,0.41 -0.56,0.7 0.22,0.31 0.34,0.49 0.6,0.84 a 3.9,3.9 0 0 0 -0.31,1.38 c -0.39,0.21 -0.58,0.32 -0.92,0.52 0.07,0.35 0.12,0.52 0.21,0.87 l 1,0.17 a 4.36,4.36 0 0 0 0.75,1.18 c -0.12,0.42 -0.17,0.62 -0.27,1 0.28,0.2 0.42,0.32 0.71,0.54 z m 1.46,-5.48 a 1.61,1.61 0 1 1 -0.43,2.23 1.61,1.61 0 0 1 0.43,-2.25 z"
       class="cls-1" />
  </g>
</svg>
