<?xml version="1.0" encoding="UTF-8" standalone="no"?>
<svg
   xmlns:dc="http://purl.org/dc/elements/1.1/"
   xmlns:cc="http://creativecommons.org/ns#"
   xmlns:rdf="http://www.w3.org/1999/02/22-rdf-syntax-ns#"
   xmlns:svg="http://www.w3.org/2000/svg"
   xmlns="http://www.w3.org/2000/svg"
   xmlns:sodipodi="http://sodipodi.sourceforge.net/DTD/sodipodi-0.dtd"
   xmlns:inkscape="http://www.inkscape.org/namespaces/inkscape"
   viewBox="0 0 512 512"
   version="1.1"
   id="svg14"
   sodipodi:docname="Home_blockchain.svg"
   width="512"
   height="512"
   inkscape:version="0.92.2 5c3e80d, 2017-08-06"
   inkscape:export-filename="Home_blockchain.png"
   inkscape:export-xdpi="96"
   inkscape:export-ydpi="96">
  <metadata
     id="metadata18">
    <rdf:RDF>
      <cc:Work
         rdf:about="">
        <dc:format>image/svg+xml</dc:format>
        <dc:type
           rdf:resource="http://purl.org/dc/dcmitype/StillImage" />
        <dc:title>blockchain</dc:title>
      </cc:Work>
    </rdf:RDF>
  </metadata>
  <sodipodi:namedview
     pagecolor="#ffffff"
     bordercolor="#666666"
     borderopacity="1"
     objecttolerance="10"
     gridtolerance="10"
     guidetolerance="10"
     inkscape:pageopacity="0"
     inkscape:pageshadow="2"
     inkscape:window-width="1280"
     inkscape:window-height="717"
     id="namedview16"
     showgrid="false"
     inkscape:zoom="0.984375"
     inkscape:cx="222.46132"
     inkscape:cy="387.79032"
     inkscape:window-x="0"
     inkscape:window-y="0"
     inkscape:window-maximized="1"
     inkscape:current-layer="svg14" />
  <defs
     id="defs4">
    <style
       id="style2">.cls-1,.cls-2{fill:#669;}.cls-1{opacity:0;}</style>
  </defs>
  <title
     id="title6">blockchain</title>
  <g
     id="Layer_2"
     data-name="Layer 2"
     transform="matrix(5.1943242,0,0,5.1943242,-82.285715,-74.095237)"
     style="fill:#333333;fill-opacity:1;stroke:none;stroke-opacity:1">
    <g
       id="Layer_1-2"
       data-name="Layer 1"
       style="fill:#333333;fill-opacity:1;stroke:none;stroke-opacity:1">
      <rect
         class="cls-1"
         width="132"
         height="132"
         id="rect8"
         x="0"
         y="0"
         style="opacity:0;fill:#333333;fill-opacity:1;stroke:none;stroke-opacity:1" />
      <path
         class="cls-2"
         d="m 100.05,63 a 6.56,6.56 0 0 0 -6.28,4.7 l -16.85,-1 a 9.81,9.81 0 0 0 -2,-5 l 11,-11.36 a 4.55,4.55 0 0 0 2,0.47 4.65,4.65 0 0 0 0,-9.29 4.58,4.58 0 0 0 -2.11,0.53 l -13,-12.42 a 6.55,6.55 0 1 0 -7.19,3 V 57.9 a 10,10 0 0 0 -2.43,0.69 L 48.32,35 a 4.74,4.74 0 0 0 1.12,-3 4.8,4.8 0 1 0 -7.92,3.61 l -15.38,37 h -0.21 a 4.65,4.65 0 1 0 4.64,4.64 2,2 0 0 0 0,-0.24 l 27.32,-5.77 a 10.05,10.05 0 0 0 1.44,2.56 L 47,86.66 a 5.05,5.05 0 0 0 -2.35,-0.59 5.25,5.25 0 1 0 4.24,8.3 l 26.62,9.22 c 0,0.07 0,0.15 0,0.22 a 5.25,5.25 0 1 0 9,-3.63 L 98.23,75.82 a 6.46,6.46 0 0 0 1.82,0.27 6.56,6.56 0 0 0 0,-13.11 z m 0,10.47 a 3.26,3.26 0 0 1 -0.45,0 3.88,3.88 0 0 1 -2.35,-1.14 C 97.15,72.23 97.07,72.11 96.98,72 a 3.91,3.91 0 0 1 3.07,-6.31 3.92,3.92 0 0 1 0,7.83 z m -28.11,2.77 a 9.91,9.91 0 0 0 4.81,-6.53 l 16.39,0.94 -20.3,8 z M 60.48,70.58 a 7.36,7.36 0 0 1 -0.62,-2.93 v 0 a 7.21,7.21 0 0 1 2.2,-5.18 7.4,7.4 0 0 1 2.54,-1.6 8.22,8.22 0 0 1 1,-0.29 7.31,7.31 0 0 1 1.49,-0.16 7.51,7.51 0 0 1 1.51,0.16 7.22,7.22 0 0 1 5.64,6 7.75,7.75 0 0 1 0.09,1.09 7.45,7.45 0 0 1 -0.26,1.9 7.22,7.22 0 0 1 -3.07,4.16 7,7 0 0 1 -2.8,1.06 6.62,6.62 0 0 1 -1.1,0.09 7.14,7.14 0 0 1 -3.77,-1.07 7.27,7.27 0 0 1 -2.18,-2.06 8.38,8.38 0 0 1 -0.67,-1.17 z M 88.05,44.15 a 2,2 0 0 1 0,4 h -0.12 a 2,2 0 0 1 0,-4 z m -4.31,0 a 4.48,4.48 0 0 0 -0.45,2 4.57,4.57 0 0 0 0.51,2.08 l -11,11.38 a 9.81,9.81 0 0 0 -4.19,-1.7 V 32.64 a 6.56,6.56 0 0 0 2.11,-0.88 z M 67.17,22.34 a 3.91,3.91 0 0 1 1.53,7.51 l -0.1,-0.1 v 0.14 a 4,4 0 0 1 -1.43,0.28 3.92,3.92 0 0 1 0,-7.83 z m -24.68,9.58 a 2.16,2.16 0 0 1 4.31,0 2,2 0 0 1 -0.07,0.5 2.14,2.14 0 0 1 -4.06,0.35 2.19,2.19 0 0 1 -0.18,-0.85 z M 25.93,79.15 a 2,2 0 0 1 -2,-2 2,2 0 0 1 1,-1.73 1.92,1.92 0 0 1 1,-0.27 2,2 0 0 1 2,2 c 0,0.11 0,0.21 0,0.32 a 2,2 0 0 1 -2,1.68 z m 3.45,-5.07 A 4.78,4.78 0 0 0 28.93,73.63 L 44.29,36.68 c 0.12,0 0.23,0 0.36,0 a 4.82,4.82 0 0 0 1.14,-0.16 l 14.85,23.67 a 9.85,9.85 0 0 0 -3.42,7.46 c 0,0.18 0,0.36 0,0.54 z m 32.09,1.68 a 9.92,9.92 0 0 0 7.67,1.55 l 0.91,2.41 -19.67,7.73 z M 46.16,93.43 a 2.57,2.57 0 0 1 -1.51,0.49 2.61,2.61 0 1 1 0,-5.21 2.46,2.46 0 0 1 0.37,0 2.66,2.66 0 0 1 1.06,0.39 2.63,2.63 0 0 1 1.17,2.18 2.64,2.64 0 0 1 -1.09,2.11 z m 3.71,-1.89 c 0,-0.08 0,-0.15 0,-0.22 0,-0.07 0,-0.29 0,-0.43 l 21.23,-8.36 6.46,17.13 a 5.26,5.26 0 0 0 -1.07,1.09 z m 33.47,12.27 a 2.6,2.6 0 0 1 -5.1,0.73 2.58,2.58 0 0 1 -0.11,-0.73 2.61,2.61 0 0 1 2.33,-2.58 2.48,2.48 0 0 1 0.27,0 2.39,2.39 0 0 1 0.66,0.1 2.63,2.63 0 0 1 2,2.51 z M 81.89,98.7 a 5.5,5.5 0 0 0 -1.16,-0.14 c -0.12,0 -0.24,0 -0.36,0 L 73.9,81.43 94.67,73.27 a 7.5,7.5 0 0 0 1,1.08 z"
         id="path10"
         inkscape:connector-curvature="0"
         style="fill:#333333;fill-opacity:1;stroke:none;stroke-opacity:1" />
    </g>
  </g>
</svg>
