<?xml version="1.0" encoding="UTF-8" standalone="no"?>
<!-- Generator: Adobe Illustrator 18.1.1, SVG Export Plug-In . SVG Version: 6.00 Build 0)  -->

<svg
   xmlns:dc="http://purl.org/dc/elements/1.1/"
   xmlns:cc="http://creativecommons.org/ns#"
   xmlns:rdf="http://www.w3.org/1999/02/22-rdf-syntax-ns#"
   xmlns:svg="http://www.w3.org/2000/svg"
   xmlns="http://www.w3.org/2000/svg"
   xmlns:xlink="http://www.w3.org/1999/xlink"
   xmlns:sodipodi="http://sodipodi.sourceforge.net/DTD/sodipodi-0.dtd"
   xmlns:inkscape="http://www.inkscape.org/namespaces/inkscape"
   version="1.1"
   id="Layer_1"
   x="0px"
   y="0px"
   viewBox="0 0 600 350"
   enable-background="new 0 0 600 350"
   xml:space="preserve"
   sodipodi:docname="Products_deviceappstore.svg"
   inkscape:version="0.92.2 5c3e80d, 2017-08-06"
   inkscape:export-filename="Products_deviceappstore.png"
   inkscape:export-xdpi="96"
   inkscape:export-ydpi="96"><metadata
     id="metadata137"><rdf:RDF><cc:Work
         rdf:about=""><dc:format>image/svg+xml</dc:format><dc:type
           rdf:resource="http://purl.org/dc/dcmitype/StillImage" /><dc:title /></cc:Work></rdf:RDF></metadata><defs
     id="defs135"><rect
       y="0"
       x="0"
       id="p"
       width="9"
       height="9" /><linearGradient
       id="linearGradient910"
       inkscape:collect="always"><stop
         id="stop904"
         offset="0"
         style="stop-color:#797979;stop-opacity:1" /><stop
         style="stop-color:#898989;stop-opacity:1"
         offset="0.51827317"
         id="stop906" /><stop
         id="stop908"
         offset="1"
         style="stop-color:#6b6b6b;stop-opacity:1" /></linearGradient><linearGradient
       inkscape:collect="always"
       id="linearGradient883"><stop
         style="stop-color:#fff8bb;stop-opacity:1"
         offset="0"
         id="stop887" /><stop
         id="stop892"
         offset="0.51827317"
         style="stop-color:#fff06b;stop-opacity:1" /><stop
         style="stop-color:#fff8bb;stop-opacity:1"
         offset="1"
         id="stop889" /></linearGradient><inkscape:path-effect
       overflow_perspective="false"
       vertical_mirror="false"
       horizontal_mirror="false"
       deform_type="perspective"
       is_visible="true"
       id="path-effect943"
       down_right_point="58.82008,250.04907"
       down_left_point="31.80277,255.52321"
       up_right_point="57.671187,243.96632"
       up_left_point="30.721459,248.29156"
       effect="perspective-envelope" /><inkscape:path-effect
       overflow_perspective="false"
       vertical_mirror="false"
       horizontal_mirror="false"
       deform_type="perspective"
       is_visible="true"
       id="path-effect941"
       down_right_point="53.408938,257.16426"
       down_left_point="39.32653,259.73237"
       up_right_point="52.800701,253.96064"
       up_left_point="38.785875,255.78536"
       effect="perspective-envelope" /><inkscape:path-effect
       overflow_perspective="false"
       vertical_mirror="false"
       horizontal_mirror="false"
       deform_type="perspective"
       is_visible="true"
       id="path-effect874"
       down_right_point="948.7984,915.56816"
       down_left_point="119.18903,1061.2152"
       up_right_point="786.96831,-38.548948"
       up_left_point="-49.11426,-12.656134"
       effect="perspective-envelope" /><inkscape:path-effect
       overflow_perspective="false"
       vertical_mirror="false"
       horizontal_mirror="false"
       deform_type="perspective"
       is_visible="true"
       id="path-effect859"
       down_right_point="81.78892,284.7627"
       down_left_point="58.176986,284.54087"
       up_right_point="80.612654,280.05529"
       up_left_point="56.742479,278.21328"
       effect="perspective-envelope" /><inkscape:path-effect
       visualbounds="false"
       linkedpath=""
       is_visible="true"
       id="path-effect857"
       effect="bounding_box" /><inkscape:path-effect
       bendpath3-nodetypes="cc"
       bendpath2-nodetypes="cc"
       bendpath1-nodetypes="cc"
       bendpath4="m 142.45631,148.99049 v 27.69057"
       bendpath3="m 142.45631,176.68106 27.75815,-1.95988"
       bendpath2="m 170.14688,148.99049 -0.20275,25.19004"
       bendpath1="m 142.45631,148.99049 27.43648,2.86142"
       xx="true"
       yy="true"
       is_visible="true"
       id="path-effect4913"
       effect="envelope" /><inkscape:path-effect
       bendpath2-nodetypes="cc"
       bendpath4-nodetypes="cc"
       bendpath3-nodetypes="cc"
       bendpath1-nodetypes="cc"
       bendpath4="m 73.244907,172.97095 0.677504,21.96913"
       bendpath3="m 73.656696,194.89036 33.752754,-1.611"
       bendpath2="m 107.44674,173.36913 0.0416,19.85623"
       bendpath1="m 73.049502,172.17808 34.391028,1.22427"
       xx="true"
       yy="true"
       is_visible="true"
       id="path-effect4854"
       effect="envelope" /><inkscape:path-effect
       bendpath4-nodetypes="cc"
       bendpath3-nodetypes="cc"
       bendpath2-nodetypes="cc"
       bendpath1-nodetypes="cc"
       bendpath4="m 56.63302,44.506635 2.224521,10.294109"
       bendpath3="m 58.924818,54.96784 89.227022,0.408786"
       bendpath2="m 146.85503,45.64767 1.39449,9.635531"
       bendpath1="m 56.360872,44.261581 90.880038,1.305962"
       xx="true"
       yy="true"
       is_visible="true"
       id="path-effect4802"
       effect="envelope" /><inkscape:path-effect
       bendpath4-nodetypes="cc"
       bendpath3-nodetypes="cc"
       bendpath2-nodetypes="cc"
       bendpath1-nodetypes="cc"
       bendpath4="m 138.78546,55.591876 c 0,0 1.15243,7.532281 15.20594,87.211744"
       bendpath3="m 154.12656,142.5333 12.98548,-1.95988"
       bendpath2="m 155.08246,54.848474 12.23233,85.454616"
       bendpath1="m 138.85305,55.456712 15.8915,-0.540656"
       xx="true"
       yy="true"
       is_visible="true"
       id="path-effect4757"
       effect="envelope" /><inkscape:path-effect
       bendpath4-nodetypes="cc"
       bendpath3-nodetypes="cc"
       bendpath2-nodetypes="cc"
       bendpath1-nodetypes="cc"
       bendpath4="m 138.10965,55.321548 15.20593,86.738682"
       bendpath3="m 153.58591,142.39814 12.78274,-2.23021"
       bendpath2="m 153.86599,55.05122 12.57024,84.84638"
       bendpath1="m 137.97449,55.05122 15.82392,-0.135164"
       xx="true"
       yy="true"
       is_visible="true"
       id="path-effect4755"
       effect="envelope" /><inkscape:path-effect
       bendpath4="M 137.77174,55.05122 V 127.4017"
       bendpath3="m 137.77174,127.4017 h 17.10798"
       bendpath2="M 154.87972,55.05122 V 127.4017"
       bendpath1="m 137.77174,55.05122 h 17.10798"
       xx="true"
       yy="true"
       is_visible="true"
       id="path-effect4753"
       effect="envelope" /><inkscape:path-effect
       effect="envelope"
       id="path-effect4464"
       is_visible="true"
       yy="true"
       xx="true"
       bendpath1="M -114.76311,55.363106 H 0"
       bendpath2="M 0,55.363106 V 216.26214"
       bendpath3="M -114.76311,216.26214 H 0"
       bendpath4="M -114.76311,55.363106 V 216.26214" /><rect
       y="0"
       x="0"
       height="9"
       width="9"
       id="p-5" /><linearGradient
       gradientTransform="matrix(2.4911584,0,0,2.4911584,-58.951145,-373.57978)"
       gradientUnits="userSpaceOnUse"
       y2="246.06387"
       x2="48.113422"
       y1="246.06387"
       x1="32.457821"
       id="linearGradient885"
       xlink:href="#linearGradient883"
       inkscape:collect="always" /><linearGradient
       gradientTransform="matrix(2.4911584,0,0,2.4911584,-58.951145,-373.57978)"
       gradientUnits="userSpaceOnUse"
       y2="261.36664"
       x2="48.128876"
       y1="261.36664"
       x1="32.458874"
       id="linearGradient902"
       xlink:href="#linearGradient910"
       inkscape:collect="always" /><filter
       height="3.208"
       y="-1.104"
       width="1.552"
       x="-0.276"
       id="filter934"
       style="color-interpolation-filters:sRGB"
       inkscape:collect="always"><feGaussianBlur
         id="feGaussianBlur936"
         stdDeviation="1.9344432"
         inkscape:collect="always" /></filter><filter
       height="1.9984"
       y="-0.4992"
       width="1.9984"
       x="-0.4992"
       id="filter972"
       style="color-interpolation-filters:sRGB"
       inkscape:collect="always"><feGaussianBlur
         id="feGaussianBlur974"
         stdDeviation="7.6337874"
         inkscape:collect="always" /></filter></defs><sodipodi:namedview
     pagecolor="#ffffff"
     bordercolor="#666666"
     borderopacity="1"
     objecttolerance="10"
     gridtolerance="10"
     guidetolerance="10"
     inkscape:pageopacity="0"
     inkscape:pageshadow="2"
     inkscape:window-width="1081"
     inkscape:window-height="677"
     id="namedview133"
     showgrid="false"
     inkscape:zoom="0.54"
     inkscape:cx="95.37037"
     inkscape:cy="136.45755"
     inkscape:window-x="214"
     inkscape:window-y="54"
     inkscape:window-maximized="0"
     inkscape:current-layer="XMLID_1_" /><g
     id="g130"><g
       id="g24"
       transform="matrix(0.66416895,0,0,0.66416895,81.519961,50.566132)"><path
         d="m 33.3,31.2 c 0,-8.8 5.4,-17.3 14.2,-17.3 h 505.2 c 8.8,0 14.1,8.5 14.1,17.3 V 325 c 0,8.8 -5.2,17.8 -14.1,17.8 H 47.4 c -8.8,0 -14.2,-9 -14.2,-17.8 V 31.2 Z"
         id="path2"
         style="fill:#45c7c0;fill-opacity:0.98477155"
         inkscape:connector-curvature="0" /><path
         d="M 33.3,43 V 24.5 c 0,-8.8 5.4,-17.3 14.2,-17.3 h 505.2 c 8.8,0 14.1,8.5 14.1,17.3 V 43"
         id="path4"
         inkscape:connector-curvature="0"
         style="fill:#c9c9c9" /><circle
         cx="57.900002"
         cy="25.1"
         r="8.1000004"
         id="circle6"
         style="fill:#ff5774" /><circle
         cx="80.400002"
         cy="25.1"
         r="8.1000004"
         id="circle8"
         style="fill:#ffc122" /><circle
         cx="102.7"
         cy="25.1"
         r="8.1000004"
         id="circle10"
         style="fill:#a2a242" /><rect
         x="33.299999"
         y="43"
         width="533.5"
         height="38.200001"
         id="rect12"
         style="fill:#dddddd" /><path
         d="M 541.8,73.2 H 130.5 c -1.1,0 -2,-0.9 -2,-2 v -18 c 0,-1.1 0.9,-2 2,-2 h 411.3 c 1.1,0 2,0.9 2,2 v 18 c 0,1.1 -0.9,2 -2,2 z"
         id="path14"
         inkscape:connector-curvature="0"
         style="fill:#ffffff" /><polygon
         points="534.6,70.1 529.3,67.3 524.1,70.1 525.1,64.2 520.9,60.1 526.7,59.2 529.3,53.9 532,59.2 537.8,60.1 533.6,64.2 "
         id="polygon16"
         style="fill:#ffc122" /><path
         d="m 117.8,60.6 c -0.5,-0.5 -1.2,-0.5 -1.7,0 l -1.5,1.5 c 0,-2.2 -0.9,-4.3 -2.5,-5.9 -3.3,-3.3 -8.7,-3.3 -12,0 -3.3,3.3 -3.3,8.7 0,12 1.6,1.6 3.8,2.5 6,2.5 0.8,0 1.6,-0.1 2.4,-0.3 1.4,-0.4 2.6,-1.1 3.6,-2.1 0.5,-0.5 0.5,-1.2 0,-1.7 -0.5,-0.5 -1.2,-0.5 -1.7,0 -0.7,0.7 -1.6,1.3 -2.6,1.6 -2.2,0.6 -4.5,0 -6.1,-1.6 -2.4,-2.4 -2.4,-6.3 0,-8.7 2.4,-2.4 6.3,-2.4 8.7,0 1.1,1.1 1.8,2.6 1.8,4.2 l -1.4,-1.4 c -0.5,-0.5 -1.2,-0.5 -1.7,0 -0.5,0.5 -0.5,1.2 0,1.7 l 3.4,3.4 c 0.2,0.2 0.5,0.3 0.8,0.3 0.3,0 0.6,-0.1 0.8,-0.3 l 3.5,-3.5 c 0.6,-0.5 0.6,-1.3 0.2,-1.7 z"
         id="path18"
         inkscape:connector-curvature="0"
         style="fill:#999999" /><path
         d="m 86.7,63 c 0.1,-0.1 0.1,-0.1 0,0 0.1,-0.1 0.1,-0.1 0.1,-0.1 0,0 0,0 0,0 0.2,-0.2 0.3,-0.6 0.3,-0.9 0,-0.3 -0.1,-0.6 -0.3,-0.9 0,0 0,0 0,0 0,0 0,0 0,0 0,0 -0.1,-0.1 -0.1,-0.1 L 80,54.2 c -0.6,-0.6 -1.5,-0.6 -2.1,0 -0.6,0.6 -0.6,1.5 0,2.1 L 82,60.4 H 70.6 c -0.8,0 -1.5,0.7 -1.5,1.5 0,0.8 0.7,1.5 1.5,1.5 H 82 l -4.1,4.1 c -0.6,0.6 -0.6,1.5 0,2.1 0.6,0.6 1.5,0.6 2.1,0 L 86.7,63 c 0,0 0,0 0,0 z"
         id="path20"
         inkscape:connector-curvature="0"
         style="fill:#999999" /><path
         d="m 45.2,61.1 c 0,0.1 0,0.1 0,0 -0.1,0.1 -0.1,0.1 -0.1,0.1 0,0 0,0 0,0 -0.2,0.2 -0.3,0.6 -0.3,0.9 0,0.3 0.1,0.6 0.3,0.9 0,0 0,0 0,0 0,0 0,0 0,0 0,0 0.1,0.1 0.1,0.1 l 6.7,6.7 c 0.6,0.6 1.5,0.6 2.1,0 0.6,-0.6 0.6,-1.5 0,-2.1 l -4.1,-4.1 h 11.4 c 0.8,0 1.5,-0.7 1.5,-1.5 0,-0.8 -0.7,-1.5 -1.5,-1.5 H 49.9 L 54,56.5 c 0.6,-0.6 0.6,-1.5 0,-2.1 -0.6,-0.6 -1.5,-0.6 -2.1,0 l -6.7,6.7 c 0,0 0,0 0,0 z"
         id="path22"
         inkscape:connector-curvature="0"
         style="fill:#999999" /></g><rect
       x="129.67221"
       y="127.34406"
       width="302.26331"
       height="43.237396"
       id="rect26"
       style="fill:none;stroke-width:0.66416895" /><rect
       x="169.05745"
       y="87.892426"
       width="249.06335"
       height="25.238419"
       id="rect126"
       style="fill:none;stroke-width:0.66416895" /><text
       font-size="14"
       id="text128"
       style="font-size:9.29836559px;font-family:OpenSans;fill:#333333;stroke-width:0.66416895"
       x="169.06494"
       y="94.932014">http://deviceappstore.com</text>
<rect
       style="opacity:1;fill:#000006;fill-opacity:0.91878171;stroke:none;stroke-width:2.67055106;stroke-linecap:round;stroke-linejoin:round;stroke-miterlimit:4;stroke-dasharray:none;stroke-dashoffset:0;stroke-opacity:1"
       id="rect944"
       width="354.33414"
       height="98.395401"
       x="103.63679"
       y="104.49665" /><text
       xml:space="preserve"
       style="font-style:normal;font-weight:normal;font-size:26.56675911px;line-height:125%;font-family:sans-serif;letter-spacing:0px;word-spacing:0px;fill:#000000;fill-opacity:1;stroke:none;stroke-width:0.66416895px;stroke-linecap:butt;stroke-linejoin:miter;stroke-opacity:1"
       x="117.18829"
       y="129.28246"
       id="text948"><tspan
         sodipodi:role="line"
         id="tspan946"
         x="117.18829"
         y="129.28246"
         style="font-style:normal;font-variant:normal;font-weight:normal;font-stretch:normal;font-size:12.39781952px;font-family:'Arial Black';-inkscape-font-specification:'Arial Black, ';fill:#ffffff;fill-opacity:1;stroke-width:0.66416895px">DEVICE<tspan
   style="fill:#40ec40;fill-opacity:1;stroke-width:0.66416895px"
   id="tspan950">APPSTORE</tspan></tspan></text>
<g
       transform="matrix(-0.75174015,0,0,0.7676553,171.74336,-31.766424)"
       id="layer1"
       inkscape:label="Layer 1"
       style="stroke:#ffffff;stroke-opacity:1"><path
         sodipodi:nodetypes="ccc"
         inkscape:connector-curvature="0"
         id="path4191"
         d="m 60.677264,222.73238 1.516475,56.10957 -10.891048,13.64827"
         style="fill:none;fill-rule:evenodd;stroke:#ffffff;stroke-width:2.08118606;stroke-linecap:round;stroke-linejoin:round;stroke-miterlimit:4;stroke-dasharray:none;stroke-opacity:1" /><path
         sodipodi:nodetypes="cc"
         inkscape:connector-curvature="0"
         id="path4193"
         d="m 58.471482,231.69336 -7.995959,54.17952"
         style="fill:#ffffff;fill-rule:evenodd;stroke:#ffffff;stroke-width:2.08118606;stroke-linecap:round;stroke-linejoin:round;stroke-miterlimit:4;stroke-dasharray:none;stroke-opacity:1" /><path
         sodipodi:nodetypes="cccc"
         inkscape:connector-curvature="0"
         id="path4195"
         d="m 56.817146,222.31879 -28.39944,1.10289 -9.09885,60.10755 28.537302,9.09885"
         style="fill:none;fill-rule:evenodd;stroke:#ffffff;stroke-width:2.08118606;stroke-linecap:round;stroke-linejoin:round;stroke-miterlimit:4;stroke-dasharray:none;stroke-opacity:1" /><path
         sodipodi:nodetypes="cccc"
         inkscape:connector-curvature="0"
         id="path4197"
         d="m 25.246894,269.05379 23.436432,4.82515 6.893068,-44.94281 -24.263599,-0.27572"
         style="fill:none;fill-rule:evenodd;stroke:#ffffff;stroke-width:2.08118606;stroke-linecap:round;stroke-linejoin:round;stroke-miterlimit:4;stroke-dasharray:none;stroke-opacity:1" /><text
         transform="scale(-1,1)"
         id="text4138"
         y="257.30368"
         x="-41.386574"
         style="font-style:normal;font-variant:normal;font-weight:900;font-stretch:normal;font-size:6.5190177px;line-height:0%;font-family:'Arial Black';-inkscape-font-specification:'Arial Black, Heavy';letter-spacing:0px;word-spacing:0px;fill:#000000;fill-opacity:1;stroke:#ffffff;stroke-width:0.54325145px;stroke-linecap:butt;stroke-linejoin:miter;stroke-opacity:1"
         xml:space="preserve"><tspan
           style="font-size:5.74941111px;line-height:1.25;stroke:#ffffff;stroke-width:0.54325145px;stroke-opacity:1"
           y="257.30368"
           x="-41.386574"
           id="tspan4140"
           sodipodi:role="line"> </tspan></text>
</g><g
       transform="matrix(0.69321691,0,0,0.69321691,160.88833,-0.43227133)"
       inkscape:label="Layer 1"
       id="layer1-3"><ellipse
         cx="40.449352"
         cy="279.45786"
         rx="21.408857"
         ry="7.26372"
         id="path912"
         style="opacity:1;vector-effect:none;fill:#797979;fill-opacity:1;stroke:none;stroke-width:0.30000001;stroke-linecap:butt;stroke-linejoin:miter;stroke-miterlimit:4;stroke-dasharray:none;stroke-dashoffset:0;stroke-opacity:1;filter:url(#filter934)" /><path
         sodipodi:nodetypes="ccccc"
         inkscape:connector-curvature="0"
         id="path894"
         d="m 22.238613,270.81888 0.33791,8.06138 c 4.845601,8.15524 27.603263,9.74283 37.142521,1.3095 l 0.852557,-9.37088 z"
         style="fill:url(#linearGradient902);fill-opacity:1;stroke:#000000;stroke-width:0.30000001;stroke-linecap:butt;stroke-linejoin:miter;stroke-miterlimit:4;stroke-dasharray:none;stroke-opacity:1" /><path
         sodipodi:nodetypes="ccccc"
         inkscape:connector-curvature="0"
         id="path875"
         d="m 22.238613,270.81888 c 0.398448,-23.91273 1.181725,-46.80839 5.952323,-59.16613 -0.161177,-3.59063 13.764316,-13.5166 22.142662,-8.4523 8.35108,19.24721 9.330342,43.40896 10.238003,67.61843 -9.154519,7.6067 -27.38697,8.91197 -38.332988,0 z"
         style="fill:url(#linearGradient885);fill-opacity:1;stroke:#000000;stroke-width:0.30000001;stroke-linecap:butt;stroke-linejoin:miter;stroke-miterlimit:4;stroke-dasharray:none;stroke-opacity:1" /><path
         sodipodi:nodetypes="cc"
         inkscape:connector-curvature="0"
         id="path877"
         d="m 28.190936,211.65275 c 6.855871,5.78242 21.366784,0.51034 22.142662,-8.4523"
         style="opacity:0.54900004;fill:none;stroke:#b8ba13;stroke-width:1;stroke-linecap:butt;stroke-linejoin:miter;stroke-miterlimit:4;stroke-dasharray:none;stroke-opacity:1" /><circle
         r="18.350451"
         cy="239.40634"
         cx="41.405106"
         id="path942"
         style="opacity:0.50800003;vector-effect:none;fill:#edde05;fill-opacity:1;stroke:none;stroke-width:0.30000001;stroke-linecap:butt;stroke-linejoin:miter;stroke-miterlimit:4;stroke-dasharray:none;stroke-dashoffset:0;stroke-opacity:1;filter:url(#filter972)" /></g><rect
       style="opacity:1;fill:#305cff;fill-opacity:1;stroke:none;stroke-width:1.59400547;stroke-linecap:round;stroke-linejoin:round;stroke-miterlimit:4;stroke-dasharray:none;stroke-dashoffset:0;stroke-opacity:1"
       id="rect3083"
       width="24.59885"
       height="24.59885"
       x="122.50165"
       y="223.98802" /><rect
       y="223.98802"
       x="161.44984"
       height="24.59885"
       width="24.59885"
       id="rect3085"
       style="opacity:1;fill:#ffba9b;fill-opacity:1;stroke:none;stroke-width:1.59400547;stroke-linecap:round;stroke-linejoin:round;stroke-miterlimit:4;stroke-dasharray:none;stroke-dashoffset:0;stroke-opacity:1" /><rect
       style="opacity:1;fill:#ffffff;fill-opacity:1;stroke:none;stroke-width:1.59400547;stroke-linecap:round;stroke-linejoin:round;stroke-miterlimit:4;stroke-dasharray:none;stroke-dashoffset:0;stroke-opacity:1"
       id="rect3087"
       width="24.59885"
       height="24.59885"
       x="200.39803"
       y="223.98802" /><rect
       y="223.98802"
       x="239.34619"
       height="24.59885"
       width="24.59885"
       id="rect3089"
       style="opacity:1;fill:#8a8a8a;fill-opacity:0.91370556;stroke:none;stroke-width:1.59400547;stroke-linecap:round;stroke-linejoin:round;stroke-miterlimit:4;stroke-dasharray:none;stroke-dashoffset:0;stroke-opacity:1" /><g
       id="XMLID_1_"
       transform="matrix(4.7321938,0,0,4.7321938,229.47177,-2.4359031)"><path
         d="m 33.081699,26.091329 c 10.457123,0 18.986396,8.529273 18.986396,18.986395 0,10.457122 -8.529273,18.986395 -18.986396,18.986395 -10.457121,0 -18.986394,-8.529273 -18.986394,-18.986395 0,-10.457122 8.529273,-18.986395 18.986394,-18.986395"
         class="st0"
         id="XMLID_3_"
         inkscape:connector-curvature="0"
         style="fill:#86b290;fill-opacity:1;stroke-width:0.58419681" /><path
         d="m 33.665896,49.050262 -0.584197,0.584197 7.185621,7.18562 c 0.467357,0.467358 1.109973,0.701037 1.69417,0.701037 0.584198,0 1.226813,-0.233679 1.694171,-0.701037 0.642616,-0.584197 0.817876,-1.460492 0.642616,-2.219948 -0.116839,0.408938 -0.292098,0.759456 -0.642616,1.109974 -0.467358,0.467358 -1.109973,0.701037 -1.694171,0.701037 -0.584197,0 -1.226813,-0.233679 -1.69417,-0.701037 l -6.601424,-6.659843 m -10.690801,-14.546499 -1.69417,1.635751 1.75259,3.505181 3.505181,1.752589 3.972537,3.972539 0.584198,-0.584197 -6.075647,-6.017226 1.69417,-1.635751 0.350519,0.350517 -0.584197,-1.226813 -3.505181,-1.75259"
         class="st1"
         id="XMLID_6_"
         inkscape:connector-curvature="0"
         style="fill:#65a192;stroke-width:0.58419681" /><polyline
         points="50.5,53.4 34.2,37.2 37.1,34.4 53.5,50.5 50.5,53.4  "
         class="st2"
         id="XMLID_7_"
         style="fill:#4f5d73"
         transform="matrix(0.58419677,0,0,0.58419677,5.0402548,17.036279)" /><path
         d="m 43.714081,55.710105 c -0.934715,0.934715 -2.453627,0.934715 -3.388342,0 l -8.354013,-8.354013 c -0.934715,-0.934715 -0.934715,-2.453627 0,-3.388342 0.934715,-0.934714 2.453626,-0.934714 3.38834,0 l 8.354015,8.354014 c 0.934715,0.934715 0.934715,2.453627 0,3.388341"
         class="st3"
         id="XMLID_8_"
         inkscape:connector-curvature="0"
         style="fill:#f5cf87;stroke-width:0.58419681" /><path
         d="m 30.569653,45.428242 -2.395206,2.395207 c -0.701037,-0.175259 -1.402073,-0.350518 -2.219948,-0.350518 -3.271502,0 -5.958807,2.687305 -5.958807,5.958807 0,0.759456 0.175258,1.460492 0.408938,2.161528 l 3.855699,-3.855699 c 0.467357,-0.467357 1.109973,-0.701036 1.69417,-0.701036 0.584197,0 1.226813,0.233679 1.69417,0.701036 0.934715,0.934715 0.934715,2.453627 0,3.388342 l -3.855698,3.855699 c 0.642616,0.233678 1.402073,0.408937 2.161528,0.408937 3.271502,0 5.958807,-2.687306 5.958807,-5.958807 0,-0.759456 -0.175259,-1.460492 -0.408938,-2.161528 l 1.635751,-1.635751 -1.168393,-1.168394 c -0.584198,-0.584196 -0.817876,-1.402072 -0.642617,-2.161527 0,-0.05842 0,-0.11684 -0.05842,-0.17526 L 30.569653,45.428242 M 40.2089,33.21853 c -3.271501,0 -5.958807,2.687305 -5.958807,5.958807 0,0.759456 0.175259,1.460492 0.408937,2.161528 l -1.869429,1.86943 0.17526,0.175258 c 0.233678,-0.05842 0.408937,-0.116839 0.642615,-0.116839 0.584197,0 1.226814,0.233679 1.694171,0.701036 l 1.694171,1.694171 0.934714,-0.934715 c 0.642618,0.233679 1.402073,0.408938 2.161528,0.408938 3.271503,0 5.958808,-2.687306 5.958808,-5.958807 0.05842,-0.817876 -0.11684,-1.518912 -0.350519,-2.219948 l -3.855698,3.914119 c -0.467358,0.467357 -1.109974,0.701036 -1.694171,0.701036 -0.584196,0 -1.226813,-0.233679 -1.694171,-0.701036 -0.934715,-0.934715 -0.934715,-2.453627 0,-3.388342 l 3.855699,-3.855698 C 41.669392,33.393789 40.968356,33.21853 40.2089,33.21853"
         class="st1"
         id="XMLID_11_"
         inkscape:connector-curvature="0"
         style="fill:#65a192;stroke-width:0.58419681" /><path
         d="m 31.329109,46.304538 c -0.175259,0.759455 0.05842,1.577331 0.642617,2.161527 l 1.168393,1.168394 0.584196,-0.584197 -1.694169,-1.69417 c -0.350519,-0.350518 -0.584198,-0.701036 -0.701037,-1.051554 m -0.175259,-1.460492 -0.584197,0.584196 0.759456,0.759456 c -0.05842,-0.350518 -0.05842,-0.759456 0,-1.109974 L 31.15385,44.844046"
         class="st4"
         id="XMLID_14_"
         inkscape:connector-curvature="0"
         style="fill:#58877b;stroke-width:0.58419681" /><path
         d="m 31.679627,44.318268 -0.525777,0.525778 0.175259,0.175258 c 0.05842,-0.233678 0.175259,-0.467357 0.350518,-0.701036 m 1.168394,-1.168393 -0.525778,0.525777 c 0.233679,-0.175259 0.467358,-0.233679 0.701037,-0.350519 l -0.175259,-0.175258"
         class="st5"
         id="XMLID_17_"
         inkscape:connector-curvature="0"
         style="fill:#465162;stroke-width:0.58419681" /><path
         d="m 33.665896,43.266714 c -0.233678,0 -0.408938,0.05842 -0.642616,0.116839 -0.233679,0.05842 -0.467358,0.17526 -0.701037,0.350519 l -0.642616,0.642616 c -0.175259,0.233679 -0.292099,0.467358 -0.350518,0.701036 -0.116839,0.350518 -0.116839,0.759456 0,1.109974 0,0.05842 0,0.11684 0.05842,0.175259 0.116839,0.350518 0.292099,0.759456 0.642617,1.051555 l 1.69417,1.69417 3.388342,-3.388341 -1.694172,-1.694171 c -0.584197,-0.525777 -1.168393,-0.759456 -1.75259,-0.759456"
         class="st6"
         id="XMLID_18_"
         inkscape:connector-curvature="0"
         style="fill:#cbac72;stroke-width:0.58419681" /><rect
         height="4.7319489"
         width="10.164927"
         class="st7"
         transform="rotate(135)"
         y="-57.624851"
         x="3.4507747"
         id="XMLID_19_"
         style="fill:#ffffff;stroke-width:0.58419114" /><polygon
         points="27.8,30.7 30.6,27.8 36.6,30.9 39.8,36.9 36.8,39.8 30.8,36.7 "
         class="st2"
         id="XMLID_20_"
         style="fill:#4f5d73"
         transform="matrix(0.58419677,0,0,0.58419677,5.0402548,17.036279)" /><path
         d="m 41.844651,39.644695 c -0.934715,0.934714 -2.453627,0.934714 -3.388342,0 -0.934715,-0.934715 -0.934715,-2.453627 0,-3.388342 l 3.855699,-3.855698 c -0.642616,-0.17526 -1.343652,-0.350519 -2.161528,-0.350519 -3.271501,0 -5.958807,2.687305 -5.958807,5.958808 0,3.271501 2.745726,5.900387 6.017227,5.900387 3.271502,0 5.958807,-2.687306 5.958807,-5.958807 0,-0.759456 -0.175259,-1.460493 -0.408938,-2.161529 z"
         class="st7"
         id="XMLID_21_"
         inkscape:connector-curvature="0"
         style="fill:#ffffff;stroke-width:0.58419681" /><path
         d="m 24.318748,50.510755 c 0.934715,-0.934715 2.453626,-0.934715 3.388341,0 0.934715,0.934715 0.934715,2.453625 0,3.38834 l -3.855699,3.855699 c 0.642617,0.233679 1.402073,0.408938 2.161528,0.408938 3.271502,0 5.958808,-2.687305 5.958808,-5.958807 0,-3.271503 -2.687306,-5.958807 -5.958808,-5.958807 -3.271502,0 -5.958806,2.687304 -5.958806,5.958807 0,0.759455 0.175258,1.460491 0.408938,2.161528 z"
         class="st7"
         id="XMLID_22_"
         inkscape:connector-curvature="0"
         style="fill:#ffffff;stroke-width:0.58419681" /></g></g><style
     type="text/css"
     id="style926">
	.st0{fill:#CE0000;}
	.st1{fill:#FFFFFF;}
</style><style
     id="style940"
     type="text/css">
	.st0{fill:#76C2AF;}
	.st1{fill:#65A192;}
	.st2{fill:#4F5D73;}
	.st3{fill:#F5CF87;}
	.st4{fill:#58877B;}
	.st5{fill:#465162;}
	.st6{fill:#CBAC72;}
	.st7{fill:#FFFFFF;}
</style></svg>