<?xml version="1.0" encoding="UTF-8" standalone="no"?>
<svg
   xmlns:dc="http://purl.org/dc/elements/1.1/"
   xmlns:cc="http://creativecommons.org/ns#"
   xmlns:rdf="http://www.w3.org/1999/02/22-rdf-syntax-ns#"
   xmlns:svg="http://www.w3.org/2000/svg"
   xmlns="http://www.w3.org/2000/svg"
   xmlns:sodipodi="http://sodipodi.sourceforge.net/DTD/sodipodi-0.dtd"
   xmlns:inkscape="http://www.inkscape.org/namespaces/inkscape"
   version="1.1"
   id="Layer_1"
   x="0px"
   y="0px"
   viewBox="0 0 1024 300"
   enable-background="new 0 0 5120 2880"
   xml:space="preserve"
   sodipodi:docname="Products_space.svg"
   width="1024"
   height="300"
   inkscape:export-filename="Products_space.png"
   inkscape:export-xdpi="96"
   inkscape:export-ydpi="96"
   inkscape:version="0.92.2 5c3e80d, 2017-08-06"><metadata
     id="metadata2997"><rdf:RDF><cc:Work
         rdf:about=""><dc:format>image/svg+xml</dc:format><dc:type
           rdf:resource="http://purl.org/dc/dcmitype/StillImage" /><dc:title></dc:title></cc:Work></rdf:RDF></metadata><defs
     id="defs2995" /><sodipodi:namedview
     pagecolor="#000000"
     bordercolor="#666666"
     borderopacity="1"
     objecttolerance="10"
     gridtolerance="10"
     guidetolerance="10"
     inkscape:pageopacity="0"
     inkscape:pageshadow="2"
     inkscape:window-width="1225"
     inkscape:window-height="693"
     id="namedview2993"
     showgrid="false"
     inkscape:zoom="0.70214844"
     inkscape:cx="498.78912"
     inkscape:cy="200"
     inkscape:window-x="0"
     inkscape:window-y="0"
     inkscape:window-maximized="0"
     inkscape:current-layer="g2990" /><g
     id="g2990"
     transform="matrix(0.11019318,0,0,0.11019318,0.05509659,-17.411455)"><linearGradient
       id="SVGID_1_"
       gradientUnits="userSpaceOnUse"
       x1="6.6648998"
       y1="2872.7493"
       x2="5110.665"
       y2="8.7491999"
       gradientTransform="matrix(1.44025,0,0,1.0001736,3.100625,-3.600625)"><stop
         offset="0"
         style="stop-color:#37454D"
         id="stop2717" /><stop
         offset="1"
         style="stop-color:#000000"
         id="stop2719" /></linearGradient><path
       d="m 3306.1647,785.03356 c 5.0064,-1.43148 10.25,-1.53865 15.31,-2.79407 3.3529,-0.64302 7.6703,-1.56163 10.2347,1.43148 -45.3865,31.4085 -90.5663,63.12319 -135.861,94.66182 -46.6037,32.50317 -93.2074,64.99867 -139.7881,97.51714 -24.274,16.79509 -48.3337,33.90407 -72.7073,50.54597 -3.904,-4.5623 -6.9967,-9.7371 -10.5256,-14.5751 -26.2108,-37.60138 -52.4598,-75.17981 -78.6476,-112.78887 -0.9186,-1.21714 -1.9137,-2.35774 -2.8859,-3.48302 5.902,-3.37586 12.5389,-5.04465 18.9538,-7.17275 1.8066,-0.33682 3.705,-0.68895 5.2896,-1.77596 4.1567,-2.80938 9.2243,-3.51365 13.8556,-5.2743 5.6494,-2.10512 11.6356,-3.27634 17.1166,-5.87904 4.0801,-1.9061 8.4052,-3.23042 12.7838,-4.30977 3.8122,-1.11763 7.5555,-2.47257 11.4366,-3.4371 4.7997,-0.73488 9.3238,-2.56443 13.9857,-3.88109 1.8066,-0.51288 3.5213,-1.37025 5.1671,-2.31947 0.3828,-0.18372 1.1483,-0.55881 1.531,-0.74253 2.6181,-0.48227 5.2514,-1.14825 7.6627,-2.38836 3.95,-1.58459 8.0837,-2.66395 12.1791,-3.8964 6.3843,-1.73004 12.5925,-4.13371 19.0993,-5.46568 1.6994,0.43634 3.5213,0.0306 4.6848,-1.40852 2.3578,-1.03343 4.815,-1.85251 7.3488,-2.45726 2.5874,-0.0306 5.2361,-0.42102 7.3948,-2.01326 0.666,-0.22965 1.3626,-0.45165 2.1051,-0.66599 3.3529,-0.55116 6.7747,-1.11763 9.829,-2.7558 2.7176,-1.24011 5.6112,-2.0592 8.566,-2.64098 2.0745,-0.222 4.1643,-0.71192 6.1163,-1.56162 11.1534,-3.63613 22.6665,-5.8867 34.0419,-8.66547 2.0056,-0.19138 4.0112,-0.64302 5.8867,-1.51569 4.7001,-1.88313 9.7371,-2.64863 14.5751,-4.14136 4.8533,-1.46976 9.9438,-1.93672 14.8813,-3.12324 7.3641,-1.76831 14.6364,-3.88875 22.0464,-5.4963 4.0878,-0.1531 8.1526,-0.84971 12.0108,-2.31181 l 0.62,-0.16841 c 5.259,-0.71957 10.3572,-2.27354 15.4631,-3.71268 5.8484,-1.14825 11.628,-2.61801 17.4381,-3.97295 1.531,0.67364 3.307,0.50523 4.6619,-0.6124 4.5624,-1.11763 9.1707,-2.08982 13.7867,-3.06966 1.6918,0.42103 3.483,0.13014 5.037,-0.79612 1.3626,-0.24496 2.7634,-0.48226 4.1949,-0.71957 1.5157,0.62771 3.2687,0.32151 4.4246,-0.95688 5.4504,-2.35774 11.5667,-1.70706 17.1702,-3.58254 3.284,-1.10232 6.7441,-1.4468 10.2194,-1.65348 2.1128,0.14544 4.3864,0.13013 6.1776,-1.27073 4.9911,-1.40087 10.2731,-1.28604 15.2641,-2.79408 3.8581,-1.1406 7.9765,-0.78847 11.8653,-1.9061 z"
       id="path2752"
       inkscape:connector-curvature="0"
       style="fill:#be3e32;stroke:#be3e32;stroke-width:0.76550072" /><path
       d="m 3195.8484,878.33279 c 45.2947,-31.53863 90.4745,-63.25332 135.861,-94.66182 1.3014,2.90891 -0.176,5.89436 -1.531,8.4741 -2.6333,4.73845 -5.0752,9.59937 -8.2291,14.01631 -2.7175,3.85813 -3.8351,8.60423 -6.8589,12.25567 -1.9367,2.52615 -3.3835,5.35851 -4.8379,8.16024 -2.0592,3.98826 -4.9069,7.51722 -6.7824,11.60499 -2.2506,5.15182 -6.2771,9.23194 -8.6654,14.30721 -2.5262,5.19775 -6.3996,9.57641 -9.0023,14.72058 -2.8018,5.69532 -6.9737,10.55625 -9.9362,16.14441 -3.0927,6.13166 -7.6933,11.3141 -10.9926,17.31563 -3.6591,7.27991 -9.0559,13.46515 -13.2202,20.43887 -6.4302,11.88057 -15.4631,22.1 -21.9929,33.91933 -8.3822,12.49298 -17.6141,24.41948 -25.5983,37.18038 -4.4016,6.42255 -9.0406,12.66901 -13.4192,19.10691 -15.578,21.2426 -31.6994,42.0796 -47.3156,63.2916 -9.0712,10.1888 -17.2161,21.1508 -25.2922,32.1204 -4.3021,5.3815 -9.3697,10.1046 -13.2967,15.7923 -4.4782,5.236 -8.0837,11.2299 -13.1437,15.953 -5.8331,5.902 -9.8673,13.4116 -16.2133,18.816 -2.8553,-1.508 -4.1796,-4.57 -6.0015,-7.0349 -26.517,-38.0378 -53.0416,-76.0602 -79.5738,-114.0826 -2.2659,-3.1845 -4.3251,-6.5068 -6.8819,-9.4539 l 0.4287,-0.3216 c 24.3736,-16.6419 48.4333,-33.75088 72.7073,-50.54597 46.5807,-32.51847 93.1844,-65.01397 139.7881,-97.51714 z"
       id="path2754"
       inkscape:connector-curvature="0"
       style="fill:#e84c3d;stroke:#e84c3d;stroke-width:0.76550072" /><path
       d="m 3272.8577,791.00447 c 2.021,-0.48992 4.0725,-0.92626 6.1776,-1.27073 -1.7912,1.40086 -4.0648,1.41617 -6.1776,1.27073 z"
       id="path2756"
       inkscape:connector-curvature="0"
       style="fill:#855754;stroke:#855754;stroke-width:0.76550072" /><path
       d="m 2910.2477,888.37616 c 1.7453,-0.58943 3.5213,-1.14059 5.2896,-1.77596 -1.5846,1.08701 -3.483,1.43914 -5.2896,1.77596 z"
       id="path2798"
       inkscape:connector-curvature="0"
       style="fill:#9da0a2;stroke:#9da0a2;stroke-width:0.76550072" /><path
       d="m 2883.1566,898.49608 c 2.7482,-0.83439 5.5193,-1.6841 8.1373,-2.94717 0.9722,1.12528 1.9673,2.26588 2.8859,3.48302 26.1878,37.60906 52.4368,75.18749 78.6476,112.78887 3.5289,4.838 6.6216,10.0128 10.5256,14.5751 l -0.4287,0.3216 c -60.3214,42.2862 -120.8419,84.2892 -181.217,126.499 -4.4399,3.1615 -9.0788,6.0398 -13.289,9.4998 l -0.4517,0.3292 c -4.7308,-8.3363 -10.8701,-15.777 -16.0908,-23.7994 -1.3932,-1.8985 -2.5874,-4.3098 -5.0217,-4.9605 -18.4256,-5.7795 -36.767,-11.804 -55.185,-17.5759 -2.9701,-0.8956 -5.8331,-2.1663 -8.8798,-2.6716 -2.5491,0.1225 -4.9068,1.1866 -7.2875,1.9214 -19.6657,6.3231 -39.3697,12.5236 -59.0125,18.9003 -2.863,0.7348 -4.3251,3.4677 -6.0321,5.5958 -11.4749,14.7971 -23.0339,29.533 -34.5241,44.3225 -1.8602,2.4878 -4.195,4.6925 -5.4504,7.5631 -0.6889,3.4371 -0.3904,6.9737 -0.5818,10.4644 -0.6813,12.0107 -1.1865,24.0367 -1.6381,36.0627 -0.1302,7.5632 -1.1789,15.157 -0.6737,22.7124 5.7566,9.3927 12.6078,18.1501 18.7395,27.3284 l 0.3292,0.4746 c -95.4427,66.3766 -190.6786,133.0594 -286.0983,199.4742 -24.4654,17.1319 -48.992,34.1796 -73.4881,51.2886 -1.7453,1.1865 -3.4371,2.4419 -5.0982,3.728 l -0.2832,-0.4287 c -7.2417,-10.5639 -14.1771,-21.3498 -21.702,-31.7147 -76.1826,59.7626 -152.4265,119.4487 -228.6857,179.1118 -7.4483,-6.8512 -15.7234,-12.8527 -24.7716,-17.3845 -6.8665,-3.6055 -14.0622,-6.5909 -21.5871,-8.4741 0.2832,-1.8219 0.7885,-3.5978 1.3243,-5.3585 -0.5129,0.069 -1.5463,0.2067 -2.0668,0.2756 3.6361,-0.6354 5.0293,-4.2945 6.7287,-7.0885 1.7683,-2.863 3.1386,-5.9327 4.394,-9.0483 6.6905,-10.5256 13.4728,-20.99 20.1403,-31.5386 8.8033,-13.2891 17.0171,-27.0068 27.1753,-39.3314 4.3327,-5.68 8.4588,-11.5208 12.47,-17.4305 3.5443,-4.7843 5.6953,-10.4337 9.408,-15.1109 3.261,-5.0524 8.0225,-8.8492 11.5131,-13.7255 2.8936,-4.0035 5.5499,-8.1679 8.3287,-12.2556 2.5261,-3.7969 6.4838,-6.3614 8.9717,-10.1889 2.8782,-4.2868 5.4809,-8.7573 8.5123,-12.9446 2.3195,-3.261 5.726,-5.5805 7.9612,-8.9104 1.4468,-2.1511 2.6257,-4.4858 4.2868,-6.4991 2.2276,-2.817 5.3203,-4.815 7.4943,-7.6933 2.5414,-3.3758 4.3863,-7.2646 7.3182,-10.3496 3.062,-3.2686 6.4991,-6.2694 8.7879,-10.1811 2.9625,-5.1365 8.4511,-8.2062 11.207,-13.5111 1.73,-3.5137 5.4809,-5.1978 7.8004,-8.2215 2.4113,-2.9472 4.0342,-6.6216 7.2952,-8.8032 4.0955,-2.6563 5.5346,-7.701 9.3468,-10.6635 4.6542,-3.0543 6.2771,-8.9027 10.9084,-11.9418 3.5366,-2.4037 4.6466,-7.0579 8.4894,-9.1477 3.5902,-2.0975 4.4246,-6.7211 7.9842,-8.8339 2.151,-1.3626 3.8045,-3.3299 5.0599,-5.5269 1.2478,-2.3271 3.5443,-3.6897 5.5193,-5.3202 1.8754,-1.5234 2.7405,-3.8658 4.2485,-5.7107 1.6458,-1.6764 4.0495,-2.4802 5.481,-4.4093 1.332,-1.6994 2.1893,-3.8504 4.0724,-5.0752 1.9521,-1.3167 3.8658,-2.7941 5.0983,-4.861 1.8142,-3.2533 5.4657,-4.7461 7.5938,-7.7315 2.0056,-2.8324 5.014,-4.6925 7.211,-7.3488 2.2582,-2.8783 5.7183,-4.5471 7.6933,-7.6857 1.906,-2.9165 5.5345,-4.0724 7.3411,-7.0961 1.6229,-2.7176 4.6007,-4.0802 6.6828,-6.3767 2.6869,-2.9318 5.8331,-5.4044 8.5124,-8.3592 5.6953,-4.4552 10.1582,-10.2654 15.9071,-14.6747 2.6793,-1.9137 4.4093,-4.8303 7.0426,-6.8129 3.5137,-3.1003 7.2723,-5.9633 10.3802,-9.4922 2.1204,-2.2736 4.9145,-3.9041 6.545,-6.6293 3.6744,-0.9569 5.7107,-4.3863 8.5277,-6.6445 12.0107,-10.1735 23.3707,-21.0972 35.7183,-30.8727 3.3835,-2.7022 6.8282,-5.3585 9.9132,-8.4205 5.6724,-5.0753 11.8576,-9.5305 17.7213,-14.3914 5.7566,-4.149 10.7094,-9.2855 16.4813,-13.4345 12.6843,-9.1937 24.8328,-19.084 37.3258,-28.5379 7.4254,-5.2973 14.422,-11.1534 22.0541,-16.1674 23.2559,-17.1242 47.2696,-33.1691 71.1533,-49.3901 5.5116,-3.8581 11.3141,-7.2722 16.7644,-11.2222 6.5986,-3.8199 13.3657,-7.4101 19.6964,-11.6969 10.7476,-7.6091 22.5057,-13.6106 33.5442,-20.768 7.3871,-4.371 14.7436,-8.8186 22.1842,-13.1284 7.1421,-3.3911 13.358,-8.4281 20.5614,-11.7198 5.3432,-2.5414 10.2118,-5.9479 15.3865,-8.8032 4.195,-1.776 8.2445,-3.9041 12.0567,-6.4379 5.2054,-3.4601 11.1992,-5.4733 16.5195,-8.7573 3.6744,-2.3425 7.9995,-3.42181 11.6203,-5.87906 3.3529,-2.21996 6.989,-3.98826 10.7093,-5.53457 2.9702,-1.20184 5.4504,-3.36055 8.4665,-4.51646 3.8658,-1.58459 7.5478,-3.5902 11.2375,-5.57284 14.1312,-6.71345 28.1322,-13.76371 42.2939,-20.43122 3.7051,-2.43429 8.2139,-3.18448 11.8806,-5.70298 2.0516,-1.33197 4.371,-2.1434 6.6599,-3.04669 1.6305,-0.66599 3.1845,-1.54631 4.7843,-2.35009 2.7788,-1.48507 6.0322,-1.89844 8.7191,-3.62847 3.4065,-2.22761 7.5861,-2.77112 10.9543,-5.09824 3.2534,-2.21995 7.4713,-2.2123 10.6941,-4.51645 3.1615,-2.44961 7.4177,-2.41899 10.7093,-4.65425 3.1156,-2.05919 6.8819,-2.61801 10.2271,-4.21025 4.1643,-1.77596 8.2445,-3.80454 12.6155,-5.07527 3.1385,-0.88033 5.7336,-3.00842 8.8415,-4.00357 4.3557,-1.37025 8.4741,-3.3682 12.7073,-5.08293 5.1136,-2.13574 10.5103,-3.58254 15.4937,-6.08573 4.4323,-2.31946 9.5382,-2.83235 14.0011,-5.11354 3.1385,-1.62286 6.3306,-3.19979 9.8213,-3.98061 z"
       id="path2802"
       inkscape:connector-curvature="0"
       style="fill:#d1d1d1;stroke:#d1d1d1;stroke-width:0.76550072" /><path
       d="m 2801.7073,1153.2165 c 60.3751,-42.2098 120.8956,-84.2128 181.217,-126.499 2.5568,2.9471 4.616,6.2694 6.8819,9.4539 26.5322,38.0224 53.0568,76.0448 79.5738,114.0826 1.8219,2.4649 3.1462,5.5269 6.0015,7.0349 -3.46,3.0314 -6.0704,6.8666 -8.8645,10.4721 -1.9673,2.3577 -4.4552,4.2026 -6.3843,6.5756 -2.618,2.7864 -4.4628,6.2082 -7.2646,8.8186 -2.6409,2.4649 -5.1212,5.0982 -7.3564,7.9229 -4.1261,5.5193 -9.5305,9.9286 -13.603,15.4785 -1.8754,2.7022 -4.9681,4.1949 -6.8206,6.8971 -3.1156,4.2715 -7.0349,7.8617 -10.6558,11.6739 -1.7376,1.8602 -2.9701,4.149 -4.9757,5.7336 -1.9827,1.5693 -3.95,3.2228 -5.2284,5.4427 -1.6458,2.9166 -5.037,4.1337 -6.9201,6.8283 -1.4698,2.0974 -3.0084,4.1643 -5.0523,5.7183 -3.3682,2.4419 -5.3432,6.2541 -8.6578,8.742 -2.7175,2.0133 -4.1031,5.2896 -6.8819,7.2187 -3.4294,2.4036 -5.5345,6.1622 -8.8874,8.6348 -2.9396,2.174 -4.8303,5.4121 -7.7086,7.6397 -2.7482,2.1051 -4.6925,5.0064 -7.2187,7.3182 -11.1533,10.25 -21.7632,21.0819 -32.9778,31.2554 -2.5797,2.2965 -4.7155,5.0753 -7.5402,7.0809 -2.9624,2.1051 -5.0676,5.1288 -7.8157,7.4559 -2.6946,2.6793 -6.1393,4.5088 -8.5047,7.5096 -2.1741,2.7175 -5.0753,4.6772 -7.678,6.9354 -2.8477,2.2353 -5.2973,4.9069 -7.9306,7.3718 -2.4496,2.442 -5.4427,4.2256 -7.9689,6.5604 -2.84,2.2658 -5.0446,5.213 -7.9535,7.3794 -4.4552,3.4141 -8.8339,6.9507 -12.7839,10.9466 -3.8198,3.6744 -8.3133,6.5298 -12.3245,9.9592 -11.7198,10.5027 -24.4654,19.7959 -36.4761,29.9541 -10.2731,8.1449 -20.7375,16.0295 -31.0641,24.0979 -10.1811,8.5889 -21.2656,16.0143 -31.9673,23.9219 -13.9244,9.7755 -27.558,19.9719 -41.6585,29.4871 -12.0796,8.0454 -23.8913,16.4812 -36.124,24.2893 -11.2222,7.5555 -22.9421,14.3226 -34.2485,21.7403 -7.6933,4.7767 -15.1263,9.9591 -22.9957,14.422 -4.7078,2.5568 -9.5151,4.9987 -13.756,8.2904 -19.1146,10.5945 -37.7468,22.077 -57.2671,31.9214 -3.2075,1.8754 -6.4685,3.659 -9.7142,5.4503 -5.2437,2.1894 -9.7908,5.6571 -14.9273,8.0761 -5.703,2.4802 -11.0462,5.6876 -16.5118,8.6042 -4.5012,1.2324 -8.0225,4.394 -12.294,6.124 -3.5978,2.2046 -7.8693,3.0161 -11.2452,5.6035 -6.2158,3.1691 -12.8221,5.6493 -18.6323,9.5381 -3.3222,0.6277 -6.2771,2.1204 -8.9946,4.0725 -8.1832,2.8553 -15.5244,7.6856 -23.7765,10.3648 -2.3654,0.9186 -4.0801,3.0927 -6.6139,3.5826 -2.373,0.4976 -4.7461,1.1788 -6.6369,2.7328 -2.0439,1.7377 -4.769,1.9827 -7.2033,2.8017 -2.7405,0.888 -4.6083,3.5443 -7.5632,3.8582 -2.595,0.398 -5.0906,1.2401 -7.1498,2.8706 -3.3299,2.7022 -8.1908,1.7607 -11.4136,4.6466 -3.1998,2.9854 -8.0913,1.9826 -11.4136,4.7308 -3.4218,2.8859 -8.298,2.3195 -11.8499,4.9375 -2.7941,2.0439 -6.2542,2.5491 -9.4999,3.4294 -4.3634,0.7808 -7.8234,3.9883 -12.248,4.5241 -4.2256,0.5435 -7.2876,3.9194 -11.383,4.7844 -3.529,0.7885 -7.1115,1.6075 -10.1276,3.6897 -2.9242,2.0209 -6.5067,2.3654 -9.8443,3.2075 -4.2256,1.0104 -7.5708,4.2026 -11.8959,4.8992 -3.6132,0.62 -7.1804,1.5769 -10.3572,3.4294 -4.3481,2.5108 -9.408,2.9855 -14.1618,4.2332 -3.8352,0.9569 -6.9967,3.5519 -10.8089,4.5394 -4.3557,1.1713 -8.941,1.6918 -12.9905,3.7969 -3.9653,2.0745 -8.2445,3.4677 -12.6461,4.2256 -6.6905,1.4009 -14.1311,2.7022 -19.1069,7.7851 -4.0418,1.3703 -8.3746,1.4468 -12.447,2.6563 -6.8895,1.5387 -13.0977,5.0676 -19.9184,6.7977 -4.8532,1.5539 -9.9362,2.0209 -14.8813,3.062 -6.1776,1.5157 -12.4164,2.8553 -18.395,5.0523 -8.6731,2.7252 -17.4228,5.213 -26.2031,7.5249 -19.3212,4.2714 -38.5736,8.8798 -57.9943,12.6766 -1.3856,0.4211 -3.2381,0.4823 -3.8811,1.9903 -6.3536,13.9015 -12.3781,27.9561 -18.5787,41.9189 -9.431,21.457 -19.0992,42.7915 -28.4001,64.302 -2.7328,5.1059 -4.4093,10.6788 -7.1344,15.7923 -2.4114,5.481 -4.639,11.0385 -7.4331,16.3434 -23.9372,16.2823 -47.5682,33.0161 -71.3829,49.4744 -89.732,62.4112 -179.4716,124.8072 -269.2036,187.2185 -45.8535,31.9061 -91.7606,63.7356 -137.5682,95.7105 -92.105,63.8964 -184.0646,128.0071 -276.1391,191.9494 -5.9326,4.1566 -11.9035,8.2597 -17.8208,12.447 -40.5639,28.1168 -81.0512,56.3485 -121.5769,84.5113 9.9286,21.1278 17.0095,43.7866 19.0763,67.1114 2.0439,18.0123 0.7655,36.2006 -1.929,54.075 -2.3501,13.5876 -6.3001,26.8767 -11.3448,39.7065 -10.3495,24.8022 -25.4069,47.706 -44.7664,66.4072 -10.3496,9.9975 -21.7326,18.9538 -34.0419,26.4251 -3.3375,1.8372 -6.5909,3.8198 -9.8979,5.7259 3.1309,5.3892 7.479,9.9592 10.5563,15.4096 13.0058,20.2168 22.2531,42.7915 27.2288,66.3076 H 326.27696 c 10.44143,-7.9229 21.42637,-15.1109 32.08979,-22.7277 403.71744,-281.9186 807.38895,-563.8908 1211.09875,-845.8017 4.1873,-2.3195 7.4407,-6.5987 12.3552,-7.3795 -12.1026,17.1779 -24.8023,33.927 -36.4149,51.4493 -2.3424,3.7969 -5.259,7.5861 -5.4274,12.248 3.4677,-0.2908 6.7211,-1.6458 9.7065,-3.3758 15.0268,-8.3133 29.5407,-17.507 44.4909,-25.9505 53.9372,-31.1559 110.7297,-57.4585 169.658,-77.706 15.4631,-5.4197 31.2171,-9.9515 46.7032,-15.3329 53.4779,-18.4792 104.9501,-44.4986 148.3693,-81.1355 21.6943,-18.372 41.3218,-39.3314 57.3513,-62.8552 4.2945,-6.4149 8.6272,-12.8451 12.1792,-19.7117 -2.1817,-2.3883 -1.6229,-5.703 -1.5923,-8.6348 0.1991,-7.2264 -0.7272,-14.4221 -1.9061,-21.5259 -1.3396,-7.8005 -4.0877,-15.2258 -6.6216,-22.6818 50.0791,-30.6124 99.8826,-61.684 149.8774,-92.4419 32.0516,-19.8571 64.1643,-39.6376 96.2311,-59.4717 -7.1957,-11.2605 -15.0956,-22.0541 -22.4521,-33.2074 1.6611,-1.2861 3.3529,-2.5415 5.0982,-3.728 24.4961,-17.109 49.0227,-34.1567 73.4881,-51.2886 95.4197,-66.4148 190.6556,-133.0976 286.0983,-199.4742 6.1699,8.8186 12.3169,17.6678 18.4715,26.5017 0.888,1.4927 2.4726,2.2812 4.1184,2.7711 18.2189,5.6877 36.3536,11.6432 54.5725,17.3539 3.0084,0.8727 5.9174,2.3041 9.0865,2.6103 5.8408,-1.3319 11.4213,-3.6284 17.1932,-5.2896 16.2669,-5.1901 32.5338,-10.4184 48.8313,-15.5626 2.5797,-0.6583 3.8734,-3.1998 5.4733,-5.0982 10.916,-14.0852 21.9086,-28.1092 32.84,-42.1868 2.4343,-3.5672 5.902,-6.545 7.6397,-10.5333 1.2784,-21.8091 1.753,-43.6794 2.9778,-65.5039 0.038,-1.5922 0.1607,-3.3069 -0.8038,-4.6619 -6.1087,-9.0865 -12.715,-17.8514 -18.6399,-27.0681 4.2102,-3.46 8.8491,-6.3383 13.289,-9.4998 z"
       id="path2822"
       inkscape:connector-curvature="0"
       style="fill:#ffffff;stroke:#ffffff;stroke-width:0.76550072" /><path
       d="m 2695.5018,1115.9595 c 2.3807,-0.7348 4.7384,-1.7989 7.2875,-1.9214 3.0467,0.5053 5.9097,1.776 8.8798,2.6716 18.418,5.7719 36.7594,11.7964 55.185,17.5759 2.4343,0.6507 3.6285,3.062 5.0217,4.9605 5.2207,8.0224 11.36,15.4631 16.0908,23.7994 -4.8226,3.2534 -9.9515,6.147 -14.1771,10.1735 l -0.4822,0.2985 c -2.7022,-5.8025 -7.0962,-10.5868 -10.5257,-15.9453 -2.3501,-2.9625 -3.7433,-7.2723 -7.7239,-8.3976 -16.0602,-5.1901 -32.1663,-10.2577 -48.2418,-15.4019 -2.2965,-0.7502 -4.7691,-1.5616 -7.1192,-0.6506 -15.2564,4.9374 -30.5511,9.7984 -45.8305,14.6746 -3.7816,1.2937 -8.3593,1.7071 -10.8548,5.2054 -11.2223,14.5216 -22.5287,28.9742 -33.8351,43.4269 -1.7684,2.3883 -1.4545,5.5116 -1.6918,8.3133 -0.5435,14.7053 -1.2171,29.3952 -1.9214,44.0929 -0.038,3.3605 -0.7425,7.165 1.5463,10.0051 4.7538,6.6292 9.3008,13.4039 14.1082,19.9948 l 0.3291,0.467 c -5.3967,2.7022 -9.6759,7.1727 -15.2181,9.607 -6.1317,-9.1783 -12.9829,-17.9357 -18.7395,-27.3284 -0.5052,-7.5554 0.5435,-15.1492 0.6737,-22.7124 0.4516,-12.026 0.9568,-24.052 1.6381,-36.0627 0.1914,-3.4907 -0.1071,-7.0273 0.5818,-10.4644 1.2554,-2.8706 3.5902,-5.0753 5.4504,-7.5631 11.4902,-14.7895 23.0492,-29.5254 34.5241,-44.3225 1.707,-2.1281 3.1691,-4.861 6.0321,-5.5958 19.6428,-6.3767 39.3468,-12.5772 59.0125,-18.9003 z"
       id="path2830"
       inkscape:connector-curvature="0"
       style="fill:#585858;stroke:#585858;stroke-width:0.76550072" /><path
       d="m 2699.6967,1133.1221 c 2.3501,-0.911 4.8227,-0.1 7.1192,0.6506 16.0755,5.1442 32.1816,10.2118 48.2418,15.4019 3.9806,1.1253 5.3738,5.4351 7.7239,8.3976 3.4295,5.3585 7.8235,10.1428 10.5257,15.9453 -2.7865,0.9263 -5.3126,2.4037 -7.5708,4.2256 -37.2723,26.0194 -74.5751,52.0005 -111.8473,78.0275 -10.8166,7.7928 -22.0847,14.9655 -32.6716,23.0645 -4.8074,-6.5909 -9.3544,-13.3656 -14.1082,-19.9948 -2.2888,-2.8401 -1.5846,-6.6446 -1.5463,-10.0051 0.7043,-14.6977 1.3779,-29.3876 1.9214,-44.0929 0.2373,-2.8017 -0.077,-5.925 1.6918,-8.3133 11.3064,-14.4527 22.6128,-28.9053 33.8351,-43.4269 2.4955,-3.4983 7.0732,-3.9117 10.8548,-5.2054 15.2794,-4.8762 30.5741,-9.7372 45.8305,-14.6746 z"
       id="path2834"
       inkscape:connector-curvature="0"
       style="fill:#273546;stroke:#273546;stroke-width:0.76550072" /><path
       d="m 2773.7895,1173.219 c 4.2256,-4.0265 9.3545,-6.9201 14.1771,-10.1735 l 0.4517,-0.3292 c 5.9249,9.2167 12.5312,17.9816 18.6399,27.0681 0.9645,1.355 0.842,3.0697 0.8038,4.6619 -1.2248,21.8245 -1.6994,43.6948 -2.9778,65.5039 -1.7377,3.9883 -5.2054,6.9661 -7.6397,10.5333 -10.9314,14.0776 -21.924,28.1016 -32.84,42.1868 -1.5999,1.8984 -2.8936,4.4399 -5.4733,5.0982 -16.2975,5.1442 -32.5644,10.3725 -48.8313,15.5626 -5.7719,1.6612 -11.3524,3.9577 -17.1932,5.2896 -3.1691,-0.3062 -6.0781,-1.7376 -9.0865,-2.6103 -18.2189,-5.7107 -36.3536,-11.6662 -54.5725,-17.3539 -1.6458,-0.4899 -3.2304,-1.2784 -4.1184,-2.7711 -6.1546,-8.8339 -12.3016,-17.6831 -18.4715,-26.5017 l -0.3292,-0.4746 c 5.5422,-2.4343 9.8214,-6.9048 15.2181,-9.607 4.815,7.2416 9.9209,14.2919 14.8278,21.4799 1.3779,2.2353 4.0954,2.7635 6.4302,3.552 15.7004,4.8992 31.3396,9.9974 47.0171,14.9961 1.8065,0.6124 3.7892,0.8191 5.6723,0.1914 15.999,-5.1901 32.0286,-10.2807 48.0582,-15.3866 3.0543,-1.0104 6.6139,-1.6535 8.6118,-4.4705 11.1534,-14.3684 22.368,-28.6986 33.5596,-43.0364 2.6946,-3.2534 1.8448,-7.7239 2.1281,-11.6203 0.6736,-15.3177 1.2937,-30.643 2.0362,-45.9607 0.1608,-1.8449 -0.5129,-3.5979 -1.5846,-5.0523 -4.8992,-6.8819 -9.7678,-13.7867 -14.5139,-20.7757 z"
       id="path2842"
       inkscape:connector-curvature="0"
       style="fill:#6b6b6b;stroke:#6b6b6b;stroke-width:0.76550072" /><path
       d="m 2765.7365,1177.7431 c 2.2582,-1.8219 4.7843,-3.2993 7.5708,-4.2256 l 0.4822,-0.2985 c 4.7461,6.989 9.6147,13.8938 14.5139,20.7757 1.0717,1.4544 1.7454,3.2074 1.5846,5.0523 -0.7425,15.3177 -1.3626,30.643 -2.0362,45.9607 -0.2833,3.8964 0.5665,8.3669 -2.1281,11.6203 -11.1916,14.3378 -22.4062,28.668 -33.5596,43.0364 -1.9979,2.817 -5.5575,3.4601 -8.6118,4.4705 -16.0296,5.1059 -32.0592,10.1965 -48.0582,15.3866 -1.8831,0.6277 -3.8658,0.421 -5.6723,-0.1914 -15.6775,-4.9987 -31.3167,-10.0969 -47.0171,-14.9961 -2.3348,-0.7885 -5.0523,-1.3167 -6.4302,-3.552 -4.9069,-7.188 -10.0128,-14.2383 -14.8278,-21.4799 l -0.3291,-0.467 c 10.5869,-8.099 21.855,-15.2717 32.6716,-23.0645 37.2722,-26.027 74.575,-52.0081 111.8473,-78.0275 z"
       id="path2846"
       inkscape:connector-curvature="0"
       style="fill:#2f4155;stroke:#2f4155;stroke-width:0.76550072" /><path
       d="m 2118.8347,1406.9876 c 4.838,-0.1 9.6454,-1.1712 14.5063,-0.5818 -3.8122,2.9625 -5.2513,8.0072 -9.3468,10.6635 -3.261,2.1816 -4.8839,5.856 -7.2952,8.8032 -2.3195,3.0237 -6.0704,4.7078 -7.8004,8.2215 -2.7559,5.3049 -8.2445,8.3746 -11.207,13.5111 -2.2888,3.9117 -5.7259,6.9125 -8.7879,10.1811 -2.9319,3.085 -4.7768,6.9738 -7.3182,10.3496 -2.174,2.8783 -5.2667,4.8763 -7.4943,7.6933 -1.6611,2.0133 -2.84,4.348 -4.2868,6.4991 -2.2352,3.3299 -5.6417,5.6494 -7.9612,8.9104 -3.0314,4.1873 -5.6341,8.6578 -8.5123,12.9446 -2.4879,3.8275 -6.4456,6.392 -8.9717,10.1889 -2.7788,4.0877 -5.4351,8.2521 -8.3287,12.2556 -3.4906,4.8763 -8.2521,8.6731 -11.5131,13.7255 -3.7127,4.6772 -5.8637,10.3266 -9.408,15.1109 -4.0112,5.9097 -8.1373,11.7505 -12.47,17.4305 -10.1582,12.3246 -18.372,26.0423 -27.1753,39.3314 -6.6675,10.5486 -13.4498,21.013 -20.1403,31.5386 -4.7231,-0.7272 -9.3927,0.467 -14.1005,0.5053 -31.0564,1.8448 -62.0898,3.9423 -93.1462,5.925 -7.1651,0.4439 -14.3531,0.7425 -21.4723,1.6917 -21.0359,0.7043 -42.0183,2.6946 -63.0389,3.751 -45.4784,3.016 -90.9722,5.7871 -136.4352,8.8032 -13.1743,1.1865 -26.4634,1.1023 -39.6147,2.6563 -25.5218,1.508 -51.0206,3.1998 -76.5348,4.838 -14.5981,1.1329 -29.2421,1.6152 -43.8325,2.9472 0.4822,-0.467 1.0028,-0.8957 1.5616,-1.2861 30.1913,-15.3636 60.2449,-31.087 90.375,-46.6113 12.4623,-6.8053 25.4299,-12.6538 37.831,-19.5815 15.6545,-7.9153 31.1865,-16.0602 46.7492,-24.1669 70.5026,-36.2311 140.8138,-72.8297 211.2935,-109.1145 6.323,-3.3682 12.8068,-6.4608 18.9691,-10.1429 16.2439,-7.7928 32.0745,-16.4506 48.2036,-24.496 4.815,-2.1663 9.0941,-5.3508 13.9857,-7.3947 8.5047,-4.195 16.8027,-8.8186 25.2921,-13.0595 1.8602,-0.9109 3.728,-1.9826 5.8408,-2.2199 10.2424,-1.1406 20.5843,-1.0488 30.8114,-2.3424 3.2457,-0.1608 6.4991,-0.222 9.7678,-0.4058 37.0043,-2.3271 73.9933,-4.8379 111.0052,-7.0732 z"
       id="path2880"
       inkscape:connector-curvature="0"
       style="fill:#be3e32;stroke:#be3e32;stroke-width:0.76550072" /><path
       d="m -0.11724963,1421.4862 c 32.20461663,29.3723 63.61311163,59.6019 95.33546263,89.4947 11.528437,11.4366 23.370737,22.544 34.937457,33.9346 22.45213,21.4341 44.39139,43.4039 66.39953,65.2972 9.23194,8.8799 18.30313,17.9281 27.22886,27.1217 19.3289,19.704 38.8262,39.2473 58.07089,59.0355 19.98723,20.8445 40.10458,41.559 60.01526,62.4801 18.77008,20.0026 37.59374,39.9592 56.34085,59.9847 18.96146,20.6072 37.86167,41.2681 56.81547,61.883 15.98366,17.6908 31.82187,35.5193 47.76725,53.2483 19.23703,21.3575 37.97649,43.1513 56.9456,64.746 21.42636,24.32 42.24798,49.1605 63.33753,73.7637 4.07246,4.4169 7.44067,9.5075 12.06429,13.3809 l -0.45164,0.3292 c -4.80735,3.1156 -9.37739,6.5833 -13.6795,10.3572 -6.12401,5.3432 -12.39346,10.5792 -17.65245,16.8104 -2.64098,2.7022 -4.70783,6.0016 -7.74687,8.2981 -2.64863,1.2018 -5.65705,1.0563 -8.47409,1.531 -34.05713,4.769 -66.66746,18.9767 -93.59778,40.3189 -1.67644,1.6688 -4.05715,1.5157 -6.1929,1.0411 -17.78258,-3.8275 -36.14694,-4.1108 -54.23573,-2.9243 -28.32352,2.4879 -56.13417,11.0768 -80.76033,25.3228 -9.17835,5.4351 -18.23422,11.2146 -26.31026,18.2266 -0.78846,-0.421 -1.58458,-0.8114 -2.37305,-1.1789 1.33197,-3.3682 2.01327,-6.9431 2.35009,-10.5256 0.52819,-6.2006 2.2965,-12.2174 2.85532,-18.4103 0.58943,-6.9508 2.52615,-13.7025 3.1462,-20.6456 0.61241,-6.6981 2.47257,-13.2049 3.06201,-19.8953 0.5435,-6.2236 2.25822,-12.2634 2.88594,-18.4639 0.51288,-5.3202 1.70706,-10.5486 2.12043,-15.8765 0.0612,-1.5846 0.43634,-3.284 -0.3062,-4.7384 -49.40542,-85.3075 -98.65008,-170.7144 -148.07846,-256.0141 -1.23246,-2.0516 -2.20464,-4.3787 -4.09543,-5.9097 -2.51084,-1.6535 -5.51926,-2.2582 -8.29803,-3.2763 -52.59756,-18.9002 -105.279317,-37.5402 -157.892184,-56.4021 -7.211017,-2.3195 -14.1541084,-5.4045 -21.53353563,-7.1881 z"
       id="path2882"
       inkscape:connector-curvature="0"
       style="fill:#3d838e;stroke:#3d838e;stroke-width:0.76550072" /><path
       d="m 1991.3023,1690.8429 c 76.2592,-59.6631 152.5031,-119.3492 228.6857,-179.1118 7.5249,10.3649 14.4603,21.1508 21.702,31.7147 -4.1644,3.7892 -9.0789,6.5833 -13.58,9.9285 -74.9808,52.2761 -149.9233,104.621 -224.9348,156.8664 l -0.4899,0.3369 c -4.4016,-6.0934 -8.941,-12.1179 -12.8145,-18.5558 0.3522,-0.2909 1.0717,-0.888 1.4315,-1.1789 z"
       id="path2890"
       inkscape:connector-curvature="0"
       style="fill:#be3e32;stroke:#be3e32;stroke-width:0.76550072" /><path
       d="m 2241.69,1543.4458 0.2832,0.4287 c 7.3565,11.1533 15.2564,21.9469 22.4521,33.2074 -32.0668,19.8341 -64.1795,39.6146 -96.2311,59.4717 -49.9948,30.7579 -99.7983,61.8295 -149.8774,92.4419 -0.5664,0.2985 -1.1023,0.6201 -1.6075,0.9645 -3.9576,-6.9278 -8.8339,-13.2891 -13.5341,-19.7193 75.0115,-52.2454 149.954,-104.5903 224.9348,-156.8664 4.5011,-3.3452 9.4156,-6.1393 13.58,-9.9285 z"
       id="path2892"
       inkscape:connector-curvature="0"
       style="fill:#e84c3d;stroke:#e84c3d;stroke-width:0.76550072" /><path
       d="m 1941.2233,1644.2699 c 4.7078,-0.038 9.3774,-1.2325 14.1005,-0.5053 -1.2554,3.1156 -2.6257,6.1853 -4.394,9.0483 -1.6994,2.794 -3.0926,6.4531 -6.7287,7.0885 -18.2266,3.5519 -36.124,8.6272 -53.83,14.1847 -12.1715,3.6591 -23.9908,8.5124 -35.0523,14.7819 -22.2684,12.5924 -42.1485,28.9665 -60.6507,46.5194 -22.1,21.0896 -42.3781,43.9934 -61.9137,67.4406 -37.3181,45.0038 -72.0106,92.1051 -106.2974,139.436 -14.9961,20.5614 -29.5942,41.4136 -44.6363,61.9443 -4.9145,0.7808 -8.1679,5.06 -12.3552,7.3795 -403.7098,281.9109 -807.38131,563.8831 -1211.09875,845.8017 -10.66342,7.6168 -21.64836,14.8048 -32.08979,22.7277 H -0.11724963 v -631.5993 c 13.35033263,-4.2792 27.32072163,-6.4379 41.27580063,-7.456 31.010435,-2.1281 62.556719,2.8936 91.117549,15.2564 29.22682,12.4088 55.11606,32.2429 75.17218,56.8308 5.90966,-4.0112 11.15334,-8.9181 17.07066,-12.9293 12.01837,-8.1296 24.69506,-15.4248 38.22911,-20.7374 10.34192,-4.3863 21.18141,-7.3718 32.05917,-10.0893 24.77926,-5.0906 50.5154,-5.7719 75.47072,-1.5233 2.67925,0.3215 5.4274,1.4927 8.12962,0.9262 4.23322,-2.5032 7.77749,-6.0245 11.90354,-8.7037 12.27097,-8.1526 25.16966,-15.4632 38.90274,-20.8523 14.5139,-5.8943 29.80095,-9.9209 45.31765,-12.0413 3.18448,-0.5894 7.09619,-0.1454 9.42331,-2.8247 17.5759,-20.8676 39.57639,-37.9918 64.10304,-49.9183 40.19644,-19.7193 87.22115,-24.6185 130.76283,-14.5139 7.28757,1.6764 14.36845,4.1031 21.56416,6.124 5.68767,2.8094 11.71982,4.838 17.40749,7.6627 24.12858,11.5437 46.04487,27.8948 63.49828,48.2189 1.00281,1.0946 2.08217,2.1281 3.16152,3.1768 7.61673,-9.2855 15.55498,-18.3414 24.54961,-26.3179 32.26586,-28.9895 74.39902,-47.1166 117.80291,-49.4437 12.52359,-1.4085 25.10077,-0.1302 37.6014,0.8114 20.78334,2.7635 41.20686,8.5889 60.11476,17.6831 11.4213,5.4044 22.1153,12.225 32.4726,19.4284 43.1742,-30.0765 86.4403,-60.0306 129.5763,-90.1683 0.7042,-0.5129 1.4238,-1.0029 2.1587,-1.4698 29.3722,-20.4542 58.8287,-40.7706 88.1091,-61.3472 98.7573,-68.4511 197.3078,-137.2007 296.0115,-205.7207 73.3426,-51.0742 146.7618,-102.0489 220.1274,-153.0925 11.184,-7.9076 22.6205,-15.4631 33.6284,-23.6004 7.1192,-0.9492 14.3072,-1.2478 21.4723,-1.6917 31.0564,-1.9827 62.0898,-4.0802 93.1462,-5.925 z"
       id="path2902"
       inkscape:connector-curvature="0"
       style="fill:#f2f2f2;stroke:#f2f2f2;stroke-width:0.76550072" /><path
       d="m 1890.3711,1674.0861 c 17.706,-5.5575 35.6034,-10.6328 53.83,-14.1847 0.5205,-0.069 1.5539,-0.2067 2.0668,-0.2756 -0.5358,1.7607 -1.0411,3.5366 -1.3243,5.3585 7.5249,1.8832 14.7206,4.8686 21.5871,8.4741 -6.4761,2.0439 -12.5618,5.0676 -18.8849,7.479 -8.719,3.4753 -17.2467,7.632 -26.5093,9.4539 -14.5598,3.2151 -28.844,7.4943 -42.9905,12.1561 -6.7211,2.4267 -13.5417,4.815 -19.5892,8.6961 -9.1094,5.7872 -17.8744,12.1179 -26.3102,18.8543 -10.4108,8.122 -19.3978,17.8438 -28.7216,27.137 -19.2906,19.8495 -37.2263,40.9696 -54.7257,62.396 -45.1798,55.8892 -87.045,114.3352 -128.895,172.7276 -2.9012,4.2255 -6.2082,8.1832 -8.742,12.6537 12.0184,-5.9939 23.6846,-12.6767 35.7412,-18.6017 41.5131,-21.2043 84.6415,-39.2472 128.8338,-54.0826 12.8451,-4.348 25.8663,-8.1679 38.6808,-12.6078 17.1013,-5.902 33.9576,-12.5236 50.4158,-20.0408 22.9498,-9.9592 44.0776,-23.608 64.2256,-38.3439 6.2388,-4.6772 12.4087,-9.4769 18.2954,-14.6058 9.8061,-9.0788 18.8467,-18.9691 27.3896,-29.2498 8.6808,-10.4567 16.1062,-21.8856 23.2713,-33.4141 2.3577,-3.4371 5.7183,-6.0245 8.2291,-9.3467 3.8428,-5.037 8.099,-9.7296 12.4624,-14.3149 2.2965,-2.7099 5.5192,-5.037 6.2311,-8.7267 1.1789,7.1038 2.1052,14.2995 1.9061,21.5259 -0.031,2.9318 -0.5894,6.2465 1.5923,8.6348 -3.552,6.8666 -7.8847,13.2968 -12.1792,19.7117 -16.0295,23.5238 -35.657,44.4832 -57.3513,62.8552 -43.4192,36.6369 -94.8914,62.6563 -148.3693,81.1355 -15.4861,5.3814 -31.2401,9.9132 -46.7032,15.3329 -58.9283,20.2475 -115.7208,46.5501 -169.658,77.706 -14.9502,8.4435 -29.4641,17.6372 -44.4909,25.9505 -2.9854,1.73 -6.2388,3.085 -9.7065,3.3758 0.1684,-4.6619 3.085,-8.4511 5.4274,-12.248 11.6126,-17.5223 24.3123,-34.2714 36.4149,-51.4493 15.0421,-20.5307 29.6402,-41.3829 44.6363,-61.9443 34.2868,-47.3309 68.9793,-94.4322 106.2974,-139.436 19.5356,-23.4472 39.8137,-46.351 61.9137,-67.4406 18.5022,-17.5529 38.3823,-33.927 60.6507,-46.5194 11.0615,-6.2695 22.8808,-11.1228 35.0523,-14.7819 z"
       id="path2906"
       inkscape:connector-curvature="0"
       style="fill:#3cb4f2;stroke:#3cb4f2;stroke-width:0.76550072" /><path
       d="m 1947.6458,1680.9374 c 6.3231,-2.4114 12.4088,-5.4351 18.8849,-7.479 9.0482,4.5318 17.3233,10.5333 24.7716,17.3845 -0.3598,0.2909 -1.0793,0.888 -1.4315,1.1789 -101.7503,79.5738 -203.3935,159.2778 -305.1056,238.8898 -1.1329,0.9493 -2.197,1.9674 -3.2993,2.9396 -4.7385,3.0466 -8.9028,6.8588 -13.4499,10.1582 -1.906,1.4008 -3.7509,2.8706 -5.4656,4.4934 5.2207,-2.1357 9.584,-5.7795 14.4909,-8.5047 100.916,-62.373 201.8626,-124.7154 302.7862,-187.0884 12.2786,-7.6626 24.7256,-15.0803 36.8818,-22.9497 0.5052,-0.3444 1.0411,-0.666 1.6075,-0.9645 2.5339,7.456 5.282,14.8813 6.6216,22.6818 -0.7119,3.6897 -3.9346,6.0168 -6.2311,8.7267 -4.3634,4.5853 -8.6196,9.2779 -12.4624,14.3149 -2.5108,3.3222 -5.8714,5.9096 -8.2291,9.3467 -7.1651,11.5285 -14.5905,22.9574 -23.2713,33.4141 -8.5429,10.2807 -17.5835,20.171 -27.3896,29.2498 -5.8867,5.1289 -12.0566,9.9286 -18.2954,14.6058 -20.148,14.7359 -41.2758,28.3847 -64.2256,38.3439 -16.4582,7.5172 -33.3145,14.1388 -50.4158,20.0408 -12.8145,4.4399 -25.8357,8.2598 -38.6808,12.6078 -44.1923,14.8354 -87.3207,32.8783 -128.8338,54.0826 -12.0566,5.925 -23.7228,12.6078 -35.7412,18.6017 2.5338,-4.4705 5.8408,-8.4282 8.742,-12.6537 41.85,-58.3924 83.7152,-116.8384 128.895,-172.7276 17.4994,-21.4264 35.4351,-42.5465 54.7257,-62.396 9.3238,-9.2932 18.3108,-19.015 28.7216,-27.137 8.4358,-6.7364 17.2008,-13.0671 26.3102,-18.8543 6.0475,-3.8811 12.8681,-6.2694 19.5892,-8.6961 14.1465,-4.6618 28.4307,-8.941 42.9905,-12.1561 9.2626,-1.8219 17.7903,-5.9786 26.5093,-9.4539 z"
       id="path2908"
       inkscape:connector-curvature="0"
       style="fill:#4172fd;stroke:#4172fd;stroke-width:0.76550072" /><path
       d="m 2326.1783,1694.9307 c 4.4246,-0.5358 7.8846,-3.7433 12.248,-4.5241 -2.2353,0.9952 -4.1031,2.5721 -6.0092,4.0495 -3.7892,1.4774 -8.1526,1.2937 -11.5514,3.7357 -3.4754,2.5644 -7.9,2.7404 -11.8193,4.1949 -3.33,1.1559 -5.948,3.95 -9.5611,4.3098 -4.0189,0.4286 -7.7163,2.1051 -11.1534,4.1184 -2.5644,1.5539 -5.5805,1.8831 -8.4434,2.4725 -3.2228,0.643 -5.9939,2.4956 -8.9258,3.8581 -2.6563,1.2402 -5.5652,1.7071 -8.3899,2.3042 -3.8045,0.5512 -7.433,1.9214 -10.7017,3.9041 -3.2151,1.9673 -6.9967,2.4266 -10.6022,3.1385 -4.325,0.8114 -8.053,3.261 -12.0949,4.8227 -4.792,1.9137 -10.0816,1.8065 -14.9655,3.3988 -3.9883,1.1253 -7.433,3.5366 -11.3524,4.8073 4.9758,-5.0829 12.4164,-6.3842 19.1069,-7.7851 4.4016,-0.7579 8.6808,-2.1511 12.6461,-4.2256 4.0495,-2.1051 8.6348,-2.6256 12.9905,-3.7969 3.8122,-0.9875 6.9737,-3.5825 10.8089,-4.5394 4.7538,-1.2477 9.8137,-1.7224 14.1618,-4.2332 3.1768,-1.8525 6.744,-2.8094 10.3572,-3.4294 4.3251,-0.6966 7.6703,-3.8888 11.8959,-4.8992 3.3376,-0.8421 6.9201,-1.1866 9.8443,-3.2075 3.0161,-2.0822 6.5986,-2.9012 10.1276,-3.6897 4.0954,-0.865 7.1574,-4.2409 11.383,-4.7844 z"
       id="path2914"
       inkscape:connector-curvature="0"
       style="fill:#c8b4b2;stroke:#c8b4b2;stroke-width:0.76550072" /><path
       d="m 1684.7652,1930.9116 c 101.7121,-79.612 203.3553,-159.316 305.1056,-238.8898 3.8735,6.4379 8.4129,12.4624 12.8145,18.5558 -104.6363,72.9981 -209.2802,145.9886 -313.9318,218.9791 -2.2583,1.6994 -4.7308,3.1003 -7.2876,4.2945 1.1023,-0.9722 2.1664,-1.9903 3.2993,-2.9396 z"
       id="path2916"
       inkscape:connector-curvature="0"
       style="fill:#c15a50;stroke:#c15a50;stroke-width:0.76550072" /><path
       d="m 2320.8657,1698.1918 c 3.3988,-2.442 7.7622,-2.2583 11.5514,-3.7357 -0.8191,4.0648 -2.9395,7.655 -4.6006,11.406 -12.9906,29.7933 -26.3333,59.4105 -39.3544,89.1885 -6.3537,13.9168 -12.3705,27.9867 -18.6094,41.9571 -2.0592,3.5978 -2.8094,8.0071 -5.8407,10.9925 -27.0988,24.7946 -54.2205,49.5739 -81.2886,74.4067 -32.8476,29.8163 -65.3508,59.9923 -98.229,89.7703 -10.5792,10.1046 -21.6637,19.6581 -32.2965,29.7014 -4.1873,4.195 -8.987,7.7392 -12.9905,12.1256 -10.4415,8.964 -20.4083,18.4868 -30.6201,27.7187 -29.2344,26.8538 -58.6526,53.5162 -87.8106,80.4542 -16.1444,14.5139 -32.0438,29.2957 -48.0964,43.9091 -5.7795,4.9298 -11.0079,10.472 -16.8027,15.3866 -0.8344,0.6506 -1.8296,1.0487 -2.7482,1.5156 0.8115,-3.3835 2.197,-6.5756 3.8046,-9.6453 12.9599,-29.112 25.7055,-58.3235 38.7956,-87.3742 6.3153,-3.4065 10.8624,-9.1554 16.2592,-13.7561 4.6389,-3.7662 8.6119,-8.2597 13.2432,-12.0413 5.9632,-5.7795 12.3245,-11.1304 18.349,-16.8563 5.6035,-4.8456 10.7476,-10.2041 16.4659,-14.9273 7.3488,-6.9431 14.7742,-13.7943 22.2914,-20.5537 5.6571,-5.8637 12.2633,-10.6864 17.9969,-16.4582 14.2537,-12.7763 28.0633,-26.05 42.4471,-38.6961 4.9221,-5.0523 10.4643,-9.431 15.5626,-14.2919 4.0878,-3.5596 7.6933,-7.6397 11.8652,-11.1074 5.749,-4.6849 10.8013,-10.1506 16.5425,-14.8431 5.8944,-5.8637 12.3093,-11.1457 18.3184,-16.8869 33.8352,-30.9798 67.6473,-61.975 101.5284,-92.9089 2.641,-2.4955 5.5805,-4.9068 6.9584,-8.3822 13.0518,-28.8823 25.3993,-58.0632 38.5889,-86.8843 3.6897,-9.431 8.6349,-18.3414 11.9495,-27.9102 -0.3828,0 -1.1406,-0.01 -1.5234,-0.015 2.8247,-0.5971 5.7336,-1.064 8.3899,-2.3042 2.9319,-1.3625 5.703,-3.2151 8.9258,-3.8581 2.8629,-0.5894 5.879,-0.9186 8.4434,-2.4725 3.4371,-2.0133 7.1345,-3.6898 11.1534,-4.1184 3.6131,-0.3598 6.2311,-3.1539 9.5611,-4.3098 3.9193,-1.4545 8.3439,-1.6305 11.8193,-4.1949 z"
       id="path2920"
       inkscape:connector-curvature="0"
       style="fill:#e84c3d;stroke:#e84c3d;stroke-width:0.76550072" /><path
       d="m 2002.6853,1710.5776 0.4899,-0.3369 c 4.7002,6.4302 9.5765,12.7915 13.5341,19.7193 -12.1562,7.8694 -24.6032,15.2871 -36.8818,22.9497 -100.9236,62.373 -201.8702,124.7154 -302.7862,187.0884 -4.9069,2.7252 -9.2702,6.369 -14.4909,8.5047 1.7147,-1.6228 3.5596,-3.0926 5.4656,-4.4934 4.5471,-3.2994 8.7114,-7.1116 13.4499,-10.1582 2.5568,-1.1942 5.0293,-2.5951 7.2876,-4.2945 104.6516,-72.9905 209.2955,-145.981 313.9318,-218.9791 z"
       id="path2926"
       inkscape:connector-curvature="0"
       style="fill:#ec6e62;stroke:#ec6e62;stroke-width:0.76550072" /><path
       d="m 2251.8711,1723.3538 c 3.2687,-1.9827 6.8972,-3.3529 10.7017,-3.9041 0.3828,0.01 1.1406,0.015 1.5234,0.015 -3.3146,9.5688 -8.2598,18.4792 -11.9495,27.9102 -13.1896,28.8211 -25.5371,58.002 -38.5889,86.8843 -1.3779,3.4754 -4.3174,5.8867 -6.9584,8.3822 -33.8811,30.9339 -67.6932,61.9291 -101.5284,92.9089 -6.0091,5.7412 -12.424,11.0232 -18.3184,16.8869 -5.7412,4.6925 -10.7935,10.1582 -16.5425,14.8431 -4.1719,3.4677 -7.7774,7.5478 -11.8652,11.1074 -5.0983,4.8609 -10.6405,9.2396 -15.5626,14.2919 -14.3838,12.6461 -28.1934,25.9198 -42.4471,38.6961 -5.7336,5.7718 -12.3398,10.5945 -17.9969,16.4582 -7.5172,6.7594 -14.9426,13.6106 -22.2914,20.5537 -5.7183,4.7232 -10.8624,10.0817 -16.4659,14.9273 -6.0245,5.7259 -12.3858,11.0768 -18.349,16.8563 -4.6313,3.7816 -8.6043,8.2751 -13.2432,12.0413 -5.3968,4.6007 -9.9439,10.3496 -16.2592,13.7561 12.4011,-27.9714 24.6032,-56.0347 37.165,-83.9372 13.113,-29.9387 26.4098,-59.7856 39.7142,-89.6401 4.7078,-11.7045 10.6634,-22.9115 14.9808,-34.7538 2.7941,-5.3049 5.0217,-10.8624 7.4331,-16.3434 2.7251,-5.1135 4.4016,-10.6864 7.1344,-15.7923 9.3009,-21.5105 18.9691,-42.845 28.4001,-64.302 6.2006,-13.9628 12.2251,-28.0174 18.5787,-41.9189 0.643,-1.508 2.4955,-1.5692 3.8811,-1.9903 19.4207,-3.7968 38.6731,-8.4052 57.9943,-12.6766 8.7803,-2.3119 17.53,-4.7997 26.2031,-7.5249 5.9786,-2.197 12.2174,-3.5366 18.395,-5.0523 4.9451,-1.0411 10.0281,-1.5081 14.8813,-3.062 6.8207,-1.7301 13.0289,-5.259 19.9184,-6.7977 4.0724,-1.2095 8.4052,-1.286 12.447,-2.6563 3.9194,-1.2707 7.3641,-3.682 11.3524,-4.8073 4.8839,-1.5923 10.1735,-1.4851 14.9655,-3.3988 4.0419,-1.5617 7.7699,-4.0113 12.0949,-4.8227 3.6055,-0.7119 7.3871,-1.1712 10.6022,-3.1385 z"
       id="path2928"
       inkscape:connector-curvature="0"
       style="fill:#c74134;stroke:#c74134;stroke-width:0.76550072" /><path
       d="m -0.11724963,1766.6428 c 7.37942723,1.7836 14.32251863,4.8686 21.53353563,7.1881 52.612867,18.8619 105.294624,37.5019 157.892184,56.4021 2.77877,1.0181 5.78719,1.6228 8.29803,3.2763 1.89079,1.531 2.86297,3.8581 4.09543,5.9097 49.42838,85.2997 98.67304,170.7066 148.07846,256.0141 0.74254,1.4544 0.36744,3.1538 0.3062,4.7384 -0.41337,5.3279 -1.60755,10.5563 -2.12043,15.8765 -0.62772,6.2005 -2.34244,12.2403 -2.88594,18.4639 -0.58944,6.6904 -2.4496,13.1972 -3.06201,19.8953 -0.62005,6.9431 -2.55677,13.6948 -3.1462,20.6456 -0.55882,6.1929 -2.32713,12.2097 -2.85532,18.4103 -0.33682,3.5825 -1.01812,7.1574 -2.35009,10.5256 0.78847,0.3675 1.58459,0.7579 2.37305,1.1789 -1.60755,1.4621 -3.38351,2.7328 -5.25133,3.8658 -1.07936,-1.1253 -2.18168,-2.2123 -3.22276,-3.3376 -4.73845,-6.4073 -10.67873,-11.7734 -16.31282,-17.3539 -19.11455,-17.5759 -41.69683,-31.4238 -66.13926,-40.2271 -33.34522,-12.1255 -69.99739,-14.7512 -104.7894,-7.9842 -27.11404,5.259 -53.041549,16.4277 -75.508996,32.4726 -2.196987,1.5616 -4.462869,3.8581 -7.425357,3.1921 -15.692766,-2.4037 -31.661111,-3.2916 -47.50697663,-1.9673 z"
       id="path2930"
       inkscape:connector-curvature="0"
       style="fill:#479a8d;stroke:#479a8d;stroke-width:0.76550072" /><path
       d="m 1033.0715,2045.6296 c 19.237,-1.8449 38.7726,-1.1789 57.7723,2.4496 23.6846,4.9834 46.7874,13.5723 67.1114,26.8461 10.4491,6.1393 19.75,13.9704 28.6145,22.1919 -43.136,30.1377 -86.4021,60.0918 -129.5763,90.1683 -10.3573,-7.2034 -21.0513,-14.024 -32.4726,-19.4284 -18.9079,-9.0942 -39.33142,-14.9196 -60.11476,-17.6831 -12.50063,-0.9416 -25.07781,-2.2199 -37.6014,-0.8114 -43.40389,2.3271 -85.53705,20.4542 -117.80291,49.4437 -8.99463,7.9765 -16.93288,17.0324 -24.54961,26.3179 -1.07935,-1.0487 -2.15871,-2.0822 -3.16152,-3.1768 -17.45341,-20.3241 -39.3697,-36.6752 -63.49828,-48.2189 -5.68767,-2.8247 -11.71982,-4.8533 -17.40749,-7.6627 -2.39602,-4.6313 -6.27711,-8.1985 -9.36973,-12.3246 -18.74711,-22.544 -37.48657,-45.0956 -56.32554,-67.5554 l 0.45164,-0.3292 c 4.83031,-3.9193 10.41847,-6.7287 15.69277,-9.9897 15.08036,-8.7344 31.51566,-14.8661 48.31075,-19.3978 3.27634,-0.712 6.54503,-1.4545 9.82903,-2.1434 5.72594,-1.2631 11.61264,-1.4162 17.36921,-2.5032 10.91604,-1.1559 21.94691,-1.4162 32.90888,-0.6966 6.96605,0.1607 13.78667,1.6917 20.71445,2.3194 22.52868,3.774 44.32249,11.6816 64.14896,22.988 6.72875,4.2256 13.68715,8.1143 20.00253,12.96 8.44348,6.5144 16.37407,13.6871 23.7688,21.3651 3.62082,3.1232 6.1929,7.2416 9.82138,10.3572 5.15947,-5.9632 10.05102,-12.1791 15.77697,-17.6218 5.45802,-5.2667 10.43377,-11.0998 16.65729,-15.5167 5.93263,-5.1978 12.6078,-9.431 19.29062,-13.5953 20.07909,-13.0748 42.90632,-21.4876 66.31536,-26.2873 5.7259,-1.1406 11.5667,-1.4851 17.3233,-2.4649 z"
       id="path2946"
       inkscape:connector-curvature="0"
       style="fill:#9da0a2;stroke:#9da0a2;stroke-width:0.76550072" /><path
       d="m 621.01006,2096.543 c 4.30211,-3.7739 8.87215,-7.2416 13.6795,-10.3572 18.83897,22.4598 37.57843,45.0114 56.32554,67.5554 3.09262,4.1261 6.97371,7.6933 9.36973,12.3246 -7.19571,-2.0209 -14.27659,-4.4476 -21.56416,-6.124 -43.54168,-10.1046 -90.56639,-5.2054 -130.76283,14.5139 -24.52665,11.9265 -46.52714,29.0507 -64.10304,49.9183 -2.32712,2.6793 -6.23883,2.2353 -9.42331,2.8247 -15.5167,2.1204 -30.80375,6.147 -45.31765,12.0413 -13.73308,5.3891 -26.63177,12.6997 -38.90274,20.8523 -4.12605,2.6792 -7.67032,6.2005 -11.90354,8.7037 -2.70222,0.5665 -5.45037,-0.6047 -8.12962,-0.9262 -24.95532,-4.2486 -50.69146,-3.5673 -75.47072,1.5233 -1.82189,-0.5741 -3.69737,-1.0258 -5.61877,-0.7961 2.71753,-5.2514 5.0523,-10.7017 8.16789,-15.7311 3.81219,-5.9402 6.02449,-12.7073 9.53049,-18.816 4.56238,-7.7698 7.93824,-16.175 12.95992,-23.6846 -0.78081,-1.5616 -1.49272,-3.1385 -2.28119,-4.6695 1.04108,1.1253 2.1434,2.2123 3.22276,3.3376 1.86782,-1.133 3.64378,-2.4037 5.25133,-3.8658 8.07604,-7.012 17.13191,-12.7915 26.31026,-18.2266 24.62616,-14.246 52.43681,-22.8349 80.76033,-25.3228 18.08879,-1.1865 36.45315,-0.9032 54.23573,2.9243 2.13575,0.4746 4.51646,0.6277 6.1929,-1.0411 26.93032,-21.3422 59.54065,-35.5499 93.59778,-40.3189 2.81704,-0.4747 5.82546,-0.3292 8.47409,-1.531 3.03904,-2.2965 5.10589,-5.5959 7.74687,-8.2981 5.25899,-6.2312 11.52844,-11.4672 17.65245,-16.8104 z"
       id="path2950"
       inkscape:connector-curvature="0"
       style="fill:#a5c1c5;stroke:#a5c1c5;stroke-width:0.76550072" /><path
       d="m 130.32408,2140.1306 c 34.79201,-6.767 71.44418,-4.1413 104.7894,7.9842 24.44243,8.8033 47.02471,22.6512 66.13926,40.2271 5.63409,5.5805 11.57437,10.9466 16.31282,17.3539 0.78847,1.531 1.50038,3.1079 2.28119,4.6695 -5.02168,7.5096 -8.39754,15.9148 -12.95992,23.6846 -3.506,6.1087 -5.7183,12.8758 -9.53049,18.816 -3.11559,5.0294 -5.45036,10.4797 -8.16789,15.7311 1.9214,-0.2297 3.79688,0.222 5.61877,0.7961 -10.87776,2.7175 -21.71725,5.703 -32.05917,10.0893 -13.53405,5.3126 -26.21074,12.6078 -38.22911,20.7374 -5.91732,4.0112 -11.161,8.9181 -17.07066,12.9293 -20.05612,-24.5879 -45.94536,-44.422 -75.17218,-56.8308 -28.56083,-12.3628 -60.107114,-17.3845 -91.117549,-15.2564 -13.955079,1.0181 -27.925468,3.1768 -41.27580063,7.456 v -74.6899 c 15.84586563,-1.3243 31.81421063,-0.4364 47.50697663,1.9673 2.962488,0.666 5.22837,-1.6305 7.425357,-3.1921 22.467447,-16.0449 48.394956,-27.2136 75.508996,-32.4726 z"
       id="path2956"
       inkscape:connector-curvature="0"
       style="fill:#a9cac4;stroke:#a9cac4;stroke-width:0.76550072" /><path
       d="m 1093.8981,2538.9489 c 40.5257,-28.1628 81.013,-56.3945 121.5769,-84.5113 4.7844,13.7101 8.6348,27.8183 10.3113,42.2786 2.4036,20.4542 1.9596,41.2758 -1.7224,61.5539 -3.062,15.2871 -7.5478,30.3445 -14.2613,44.445 -2.9701,5.925 -5.458,12.1102 -9.0252,17.729 -4.0572,6.1546 -7.6091,12.6614 -12.1332,18.5098 -3.973,5.6341 -8.8722,10.518 -13.3044,15.7846 -5.4274,5.259 -10.6022,10.7936 -16.1598,15.9224 -6.3766,5.2054 -12.914,10.2654 -19.9106,14.6288 -4.9145,2.9548 -9.5535,6.4378 -14.8737,8.6654 0.6507,1.3703 1.3932,2.7099 2.3501,3.9424 16.7032,22.276 28.7063,48.0581 34.7537,75.264 2.1358,8.1908 2.8094,16.6343 4.0112,24.9936 -7.3411,-11.8347 -15.3789,-23.2177 -23.0033,-34.8686 -14.2689,-21.1508 -28.0173,-42.6537 -42.8068,-63.4447 5.0447,-12.8298 8.9947,-26.1189 11.3448,-39.7065 2.6945,-17.8744 3.9729,-36.0627 1.929,-54.075 -2.0668,-23.3248 -9.1477,-45.9836 -19.0763,-67.1114 z"
       id="path2970"
       inkscape:connector-curvature="0"
       style="fill:#a5a9ab;stroke:#a5a9ab;stroke-width:0.76550072" /><path
       d="m 1054.9342,2766.249 c 19.3595,-18.7012 34.4169,-41.605 44.7664,-66.4072 14.7895,20.791 28.5379,42.2939 42.8068,63.4447 7.6244,11.6509 15.6622,23.0339 23.0033,34.8686 l 0.2144,0.5588 c -0.2067,8.7497 0.7961,17.5147 0.084,26.2796 -0.5588,18.7854 -4.7538,37.234 -10.296,55.1237 h -7.7622 c -2.4343,-7.8846 -7.1038,-14.7894 -10.1811,-22.4062 -2.465,-6.323 -6.0245,-12.1178 -8.5813,-18.3949 0.4287,-0.084 1.286,-0.245 1.7147,-0.3292 -0.2985,-4.3251 -2.8859,-8.4894 -6.8512,-10.3036 -32.8936,-10.0587 -65.6723,-20.5997 -98.5046,-30.888 -2.0516,-0.6813 -4.0342,-1.531 -5.9786,-2.4343 0.4823,-0.9339 0.9798,-1.8295 1.5233,-2.6869 12.3093,-7.4713 23.6923,-16.4276 34.0419,-26.4251 z"
       id="path2978"
       inkscape:connector-curvature="0"
       style="fill:#b8e0e7;stroke:#b8e0e7;stroke-width:0.76550072" /><path
       d="m 2462.9273,2735.9122 c 1.8143,-0.4976 4.2409,-0.4669 5.2284,1.4851 0.4517,1.8219 0.444,4.2485 -1.5004,5.2284 -1.8525,0.4593 -4.2638,0.444 -5.2207,-1.5004 -0.4976,-1.8449 -0.4593,-4.2639 1.4927,-5.2131 z"
       id="path2982"
       inkscape:connector-curvature="0"
       style="fill:#fefefe;stroke:#fefefe;stroke-width:0.76550072" /><path
       d="m 1537.4216,2765.7591 c 3.0084,-2.3118 7.7163,0.4593 7.5938,4.126 0.1301,3.6515 -4.5777,6.4226 -7.5938,4.1261 -3.0237,-1.7683 -3.0161,-6.5068 0,-8.2521 z"
       id="path2984"
       inkscape:connector-curvature="0"
       style="fill:#ffffff;stroke:#ffffff;stroke-width:0.76550072" /><path
       d="m 1010.9944,2798.4 c 3.307,-1.9061 6.5604,-3.8887 9.8979,-5.7259 -0.5435,0.8574 -1.041,1.753 -1.5233,2.6869 1.9444,0.9033 3.927,1.753 5.9786,2.4343 32.8323,10.2883 65.611,20.8293 98.5046,30.888 3.9653,1.8142 6.5527,5.9785 6.8512,10.3036 -0.4287,0.084 -1.286,0.245 -1.7147,0.3292 2.5568,6.2771 6.1163,12.0719 8.5813,18.3949 3.0773,7.6168 7.7468,14.5216 10.1811,22.4062 h -98.9716 c -4.9757,-23.5161 -14.223,-46.0908 -27.2288,-66.3076 -3.0773,-5.4504 -7.4254,-10.0204 -10.5563,-15.4096 z"
       id="path2986"
       inkscape:connector-curvature="0"
       style="fill:#bdede6;stroke:#bdede6;stroke-width:0.76550072" /><path
       d="m 1165.7251,2798.7139 c 2.9548,3.8352 5.4197,8.0224 8.1219,12.049 14.9809,23.1181 30.0613,46.1673 44.9273,69.3543 h -63.261 c 5.5422,-17.8897 9.7372,-36.3383 10.296,-55.1237 0.7119,-8.7649 -0.2909,-17.5299 -0.084,-26.2796 z"
       id="path2988"
       inkscape:connector-curvature="0"
       style="fill:#55b5c5;stroke:#55b5c5;stroke-width:0.76550072" /><g
       id="g4078"
       transform="matrix(3.8594362,0,0,3.8594362,6992.8004,65.408662)"><g
         id="g3913"><ellipse
           id="ellipse3883"
           ry="21.6"
           rx="2.4000001"
           cy="495.28271"
           cx="28.475929"
           style="fill:#dcf9f6" /><ellipse
           id="ellipse3885"
           ry="2.4000001"
           rx="21.6"
           cy="496.0827"
           cx="28.475929"
           style="fill:#dcf9f6" /><ellipse
           id="ellipse3887"
           ry="2.3999841"
           rx="21.599855"
           cy="406.38818"
           cx="226.03519"
           style="fill:#dcf9f6;stroke-width:0.99999332"
           transform="rotate(-45.137749)" /><ellipse
           id="ellipse3889"
           ry="2.3999841"
           rx="21.599855"
           cy="-227.6275"
           cx="405.30649"
           style="fill:#dcf9f6;stroke-width:0.99999332"
           transform="rotate(45.137749)" /><ellipse
           id="ellipse3891"
           ry="9.6000004"
           rx="0.80000001"
           cy="154.48271"
           cx="-19.054909"
           style="fill:#dcf9f6" /><ellipse
           id="ellipse3893"
           ry="0.80000001"
           rx="9.6000004"
           cy="154.48271"
           cx="-19.054909"
           style="fill:#dcf9f6" /><ellipse
           id="ellipse3895"
           ry="0.80000269"
           rx="10.400035"
           cy="-268.61563"
           cx="25.465187"
           style="fill:#dcf9f6;stroke-width:1.00000334"
           transform="rotate(-135.2917)" /><ellipse
           id="ellipse3897"
           ry="0.80000269"
           rx="10.400035"
           cy="-22.772499"
           cx="-268.66998"
           style="fill:#dcf9f6;stroke-width:1.00000334"
           transform="rotate(-44.708297)" /><ellipse
           id="ellipse3899"
           ry="0.79999495"
           rx="10.399934"
           cy="-314.77963"
           cx="-301.11343"
           style="fill:#dcf9f6;stroke-width:0.99999362"
           transform="rotate(-135.14585)" /><ellipse
           id="ellipse3901"
           ry="0.79999495"
           rx="10.399934"
           cy="302.93845"
           cx="-312.66666"
           style="fill:#dcf9f6;stroke-width:0.99999362"
           transform="rotate(-44.854148)" /><ellipse
           id="ellipse3903"
           ry="0.80003381"
           rx="4.8002028"
           cy="42.848251"
           cx="-160.96434"
           style="fill:#dcf9f6;stroke-width:1.0000422"
           transform="rotate(-45.58339)" /><ellipse
           id="ellipse3905"
           ry="0.80003381"
           rx="4.8002028"
           cy="171.04126"
           cx="-8.0831947"
           style="fill:#dcf9f6;stroke-width:1.0000422"
           transform="rotate(45.58339)" /><ellipse
           id="ellipse3907"
           ry="0.800035"
           rx="4.80021"
           cy="440.53488"
           cx="-291.96765"
           style="fill:#dcf9f6;stroke-width:1.00004375"
           transform="rotate(-45.591492)" /><ellipse
           id="ellipse3909"
           ry="0.800035"
           rx="4.80021"
           cy="282.9458"
           cx="446.97049"
           style="fill:#dcf9f6;stroke-width:1.00004375"
           transform="rotate(45.591492)" /><circle
           id="circle3911"
           r="160"
           cy="250"
           cx="249.60001"
           style="fill:#dcf9f6" /></g><path
         id="path3915"
         d="m 385.6,250 c 0,88 -48,160 -136,160 -88,0 -160,-72 -160,-160 0,-88 72,-160 160,-160 88,0 136,72 136,160 z"
         style="fill:#95bfb9"
         inkscape:connector-curvature="0" /><g
         id="g3975"><circle
           id="circle3917"
           r="9.6000004"
           cy="165.2"
           cx="138.39999"
           style="fill:#78a8a0" /><circle
           id="circle3919"
           r="1.6"
           cy="201.2"
           cx="124.8"
           style="fill:#78a8a0" /><circle
           id="circle3921"
           r="29.6"
           cy="222"
           cx="189.60001"
           style="fill:#78a8a0" /><circle
           id="circle3923"
           r="8"
           cy="157.2"
           cx="202.39999"
           style="fill:#78a8a0" /><circle
           id="circle3925"
           r="2.4000001"
           cy="153.2"
           cx="257.60001"
           style="fill:#78a8a0" /><circle
           id="circle3927"
           r="2.4000001"
           cy="126"
           cx="278.39999"
           style="fill:#78a8a0" /><circle
           id="circle3929"
           r="4"
           cy="127.6"
           cx="201.60001"
           style="fill:#78a8a0" /><circle
           id="circle3931"
           r="1.6"
           cy="114"
           cx="233.60001"
           style="fill:#78a8a0" /><circle
           id="circle3933"
           r="6.4000001"
           cy="206"
           cx="270.39999"
           style="fill:#78a8a0" /><circle
           id="circle3935"
           r="4"
           cy="202"
           cx="318.39999"
           style="fill:#78a8a0" /><circle
           id="circle3937"
           r="6.4000001"
           cy="156.39999"
           cx="328.79999"
           style="fill:#78a8a0" /><circle
           id="circle3939"
           r="17.6"
           cy="285.20001"
           cx="300.79999"
           style="fill:#78a8a0" /><circle
           id="circle3941"
           r="5.5999999"
           cy="295.60001"
           cx="156"
           style="fill:#78a8a0" /><circle
           id="circle3943"
           r="2.4000001"
           cy="271.60001"
           cx="213.60001"
           style="fill:#78a8a0" /><circle
           id="circle3945"
           r="9.6000004"
           cy="331.60001"
           cx="241.60001"
           style="fill:#78a8a0" /><circle
           id="circle3947"
           r="6.4000001"
           cy="254.8"
           cx="124.8"
           style="fill:#78a8a0" /><circle
           id="circle3949"
           r="1.6"
           cy="250.8"
           cx="267.20001"
           style="fill:#78a8a0" /><circle
           id="circle3951"
           r="4"
           cy="254"
           cx="344"
           style="fill:#78a8a0" /><circle
           id="circle3953"
           r="9.6000004"
           cy="339.60001"
           cx="174.39999"
           style="fill:#78a8a0" /><circle
           id="circle3955"
           r="3.2"
           cy="305.20001"
           cx="193.60001"
           style="fill:#78a8a0" /><circle
           id="circle3957"
           r="3.2"
           cy="342.79999"
           cx="292.79999"
           style="fill:#78a8a0" /><circle
           id="circle3959"
           r="2.4000001"
           cy="369.20001"
           cx="241.60001"
           style="fill:#78a8a0" /><circle
           id="circle3961"
           r="1.6"
           cy="365.20001"
           cx="201.60001"
           style="fill:#78a8a0" /><circle
           id="circle3963"
           r="6.4000001"
           cy="328.39999"
           cx="332.79999"
           style="fill:#78a8a0" /><circle
           id="circle3965"
           r="4"
           cy="375.60001"
           cx="284"
           style="fill:#78a8a0" /><circle
           id="circle3967"
           r="3.2"
           cy="289.20001"
           cx="245.60001"
           style="fill:#78a8a0" /><circle
           id="circle3969"
           r="6.4000001"
           cy="300.39999"
           cx="353.60001"
           style="fill:#78a8a0" /><circle
           id="circle3971"
           r="5.5999999"
           cy="323.60001"
           cx="134.39999"
           style="fill:#78a8a0" /><circle
           id="circle3973"
           r="7.1999998"
           cy="241.2"
           cx="309.60001"
           style="fill:#78a8a0" /></g><g
         id="g3977" /><g
         id="g3979" /><g
         id="g3981" /><g
         id="g3983" /><g
         id="g3985" /><g
         id="g3987" /><g
         id="g3989" /><g
         id="g3991" /><g
         id="g3993" /><g
         id="g3995" /><g
         id="g3997" /><g
         id="g3999" /><g
         id="g4001" /><g
         id="g4003" /><g
         id="g4005" /></g><text
       xml:space="preserve"
       style="font-style:normal;font-weight:normal;font-size:362.99887085px;line-height:125%;font-family:sans-serif;letter-spacing:0px;word-spacing:0px;fill:#000000;fill-opacity:1;stroke:none;stroke-width:9.07497215px;stroke-linecap:butt;stroke-linejoin:miter;stroke-opacity:1"
       x="3263.3821"
       y="2678.3164"
       id="text4082"><tspan
         sodipodi:role="line"
         id="tspan4080"
         x="3263.3821"
         y="2678.3164"
         style="font-style:normal;font-variant:normal;font-weight:normal;font-stretch:normal;font-size:266.19915771px;font-family:'Arial Black';-inkscape-font-specification:'Arial Black, ';fill:#ffffff;stroke-width:9.07497215px">We take you to the moon</tspan></text>
</g></svg>