<?xml version="1.0" encoding="UTF-8" standalone="no"?>
<!-- Generator: Adobe Illustrator 16.0.0, SVG Export Plug-In . SVG Version: 6.00 Build 0)  -->

<svg
   xmlns:dc="http://purl.org/dc/elements/1.1/"
   xmlns:cc="http://creativecommons.org/ns#"
   xmlns:rdf="http://www.w3.org/1999/02/22-rdf-syntax-ns#"
   xmlns:svg="http://www.w3.org/2000/svg"
   xmlns="http://www.w3.org/2000/svg"
   xmlns:sodipodi="http://sodipodi.sourceforge.net/DTD/sodipodi-0.dtd"
   xmlns:inkscape="http://www.inkscape.org/namespaces/inkscape"
   version="1.1"
   id="Software_Demo_2_"
   x="0px"
   y="0px"
   width="1200px"
   height="1200px"
   viewBox="0 0 1200 1200"
   enable-background="new 0 0 1200 1200"
   xml:space="preserve"
   inkscape:version="0.91 r13725"
   sodipodi:docname="software.svg"><!--<style
     type="text/css"
     id="style4880"><![CDATA[
.software-animation-gear {
    animation: spin 5s infinite linear;
    transform-origin: 50% 50%;
}

@keyframes spin {
    0%  {transform: rotate(0deg);}
    100% {transform: rotate(360deg);}
}
]]></style>--><metadata
     id="metadata186"><rdf:RDF><cc:Work
         rdf:about=""><dc:format>image/svg+xml</dc:format><dc:type
           rdf:resource="http://purl.org/dc/dcmitype/StillImage" /></cc:Work></rdf:RDF></metadata><defs
     id="defs184" /><sodipodi:namedview
     pagecolor="#ffffff"
     bordercolor="#666666"
     borderopacity="1"
     objecttolerance="10"
     gridtolerance="10"
     guidetolerance="10"
     inkscape:pageopacity="0"
     inkscape:pageshadow="2"
     inkscape:window-width="963"
     inkscape:window-height="607"
     id="namedview182"
     showgrid="false"
     inkscape:zoom="1.5733333"
     inkscape:cx="796.05019"
     inkscape:cy="689.35849"
     inkscape:window-x="115"
     inkscape:window-y="87"
     inkscape:window-maximized="0"
     inkscape:current-layer="g58" /><g
     id="Background"><circle
       id="Background_2"
       fill="#1B4F7F"
       cx="600"
       cy="600"
       r="399" /></g><g
     id="Software_Demo_1_"><g
       id="g6"><g
         id="g8"><path
           fill-rule="evenodd"
           clip-rule="evenodd"
           fill="#FED9B1"
           d="M121.699,815.129c-25.722-26.124-1.133-94.359,39.316-124.146     c51.844-38.118,97.557-54.11,131.942-29.854c-32.319,31.052-68.37,58.308-99.557,90.428     c-26.587,27.453,35.118,10.993,62.173-15.195l4.131,86.63c-5.331,11.262-11.062,21.524-14.327,33.584     c-6.665,24.458-9.596,52.313-14.727,78.101l-74.034,2.931C148.754,887.098,156.084,850.047,121.699,815.129L121.699,815.129z"
           id="path10" /><path
           fill-rule="evenodd"
           clip-rule="evenodd"
           fill="#F87F74"
           d="M143.424,995.981c19.057,3.267,38.65,5.064,58.507,5.064     c12.662,0,25.255-0.732,37.65-2.132v-54.308c0-4.6-3.132-8.332-6.931-8.332h-82.364c-3.798,0-6.863,3.732-6.863,8.332V995.981z"
           id="path12" /><path
           fill-rule="evenodd"
           clip-rule="evenodd"
           fill="#FAA199"
           d="M241.448,943.205H141.49c-2.864,0-5.264-2.332-5.264-5.264     v-10.929c0-2.933,2.399-5.267,5.264-5.267h99.958c2.865,0,5.264,2.334,5.264,5.267v10.929     C246.712,940.873,244.313,943.205,241.448,943.205L241.448,943.205z"
           id="path14" /></g><g
         id="g16"><path
           fill-rule="evenodd"
           clip-rule="evenodd"
           fill="#FED9B1"
           d="M1079.281,815.129c25.654-26.124,1.131-94.359-39.316-124.146     c-51.911-38.118-97.556-54.11-131.942-29.854c32.319,31.052,68.304,58.308,99.557,90.428     c26.589,27.453-35.117,10.993-62.173-15.195l-4.133,86.63c5.333,11.262,11.063,21.524,14.327,33.584     c6.666,24.458,9.53,52.313,14.729,78.101l74.033,2.931C1052.16,887.098,1044.896,850.047,1079.281,815.129L1079.281,815.129z"
           id="path18" /><path
           fill-rule="evenodd"
           clip-rule="evenodd"
           fill="#F87F74"
           d="M1057.557,995.981c-19.125,3.267-38.648,5.064-58.508,5.064     c-12.725,0-25.257-0.732-37.648-2.132v-54.308c0-4.6,3.131-8.332,6.928-8.332h82.365c3.8,0,6.863,3.732,6.863,8.332V995.981z"
           id="path20" /><path
           fill-rule="evenodd"
           clip-rule="evenodd"
           fill="#FAA199"
           d="M959.533,943.205h99.89c2.931,0,5.331-2.332,5.331-5.264     v-10.929c0-2.933-2.4-5.267-5.331-5.267h-99.89c-2.931,0-5.264,2.334-5.264,5.267v10.929     C954.27,940.873,956.603,943.205,959.533,943.205L959.533,943.205z"
           id="path22" /></g><g
         id="g24"><path
           fill-rule="evenodd"
           clip-rule="evenodd"
           fill="#569C5A"
           d="M232.584,388.248h736.479c17.66,0,32.118,14.461,32.118,32.119     v421.749c0,17.661-14.458,32.12-32.118,32.12H232.584c-17.66,0-32.12-14.459-32.12-32.12V420.367     C200.465,402.708,214.925,388.248,232.584,388.248L232.584,388.248z"
           id="path26" /><path
           fill-rule="evenodd"
           clip-rule="evenodd"
           fill="#FBFBFB"
           d="M338.138,418.968h608.267c12.863,0,23.391,10.529,23.391,23.39     v374.767c0,12.863-10.527,23.393-23.391,23.393H338.138c-12.861,0-23.39-10.529-23.39-23.393V442.358     C314.748,429.497,325.277,418.968,338.138,418.968L338.138,418.968z"
           id="path28" /><g
           id="g30"><path
             fill-rule="evenodd"
             clip-rule="evenodd"
             fill="#FAB943"
             d="M257.44,656.463c13.928,0,25.256-11.328,25.256-25.255      c0-13.859-11.329-25.255-25.256-25.255c-13.86,0-25.255,11.396-25.255,25.255C232.185,645.135,243.58,656.463,257.44,656.463      L257.44,656.463z"
             id="path32" /><path
             fill-rule="evenodd"
             clip-rule="evenodd"
             fill="#FAB943"
             d="M257.44,476.411c10.662,0,19.258,3.997,19.258,8.928      s-8.596,8.928-19.258,8.928c-10.594,0-19.191-3.996-19.191-8.928S246.846,476.411,257.44,476.411L257.44,476.411z       M257.44,527.054c10.662,0,19.258,3.999,19.258,8.93c0,4.931-8.596,8.929-19.258,8.929c-10.594,0-19.191-3.998-19.191-8.929      C238.249,531.053,246.846,527.054,257.44,527.054L257.44,527.054z M257.44,501.732c10.662,0,19.258,4,19.258,8.93      c0,4.929-8.596,8.928-19.258,8.928c-10.594,0-19.191-3.999-19.191-8.928C238.249,505.732,246.846,501.732,257.44,501.732      L257.44,501.732z"
             id="path34" /></g></g><g
         id="g36"><path
           fill-rule="evenodd"
           clip-rule="evenodd"
           fill="#FED9B1"
           d="M1007.846,765.417l22.123,103.62l-64.238,39.451     c-2.932-17.728-5.662-35.586-10.13-51.913c-3.264-12.06-8.994-22.322-14.327-33.584c0.068-0.6-42.447-112.283-46.776-123.679     c-4.266-11.327,1.464-24.191,11.726-30.587c5.866-3.665,16.527-4.799,21.856-1.934     C949.87,678.655,963.33,767.281,1007.846,765.417L1007.846,765.417z"
           id="path38" /><path
           fill-rule="evenodd"
           clip-rule="evenodd"
           fill="#FFFFFF"
           d="M903.225,709.575c-0.799-2.4-4.799-13.263-4.731-14.86     c0.533-28.455,26.456-27.59,36.651-10.662c2.865,4.664,3.933,9.197,5.664,15.26C945.007,714.105,908.621,725.167,903.225,709.575     L903.225,709.575z"
           id="path40" /></g><g
         id="g42"><path
           fill-rule="evenodd"
           clip-rule="evenodd"
           fill="#FED9B1"
           d="M193.136,765.417l-22.124,103.62l64.239,39.451     c2.931-17.728,5.663-35.586,10.128-51.913c3.265-12.06,8.996-22.322,14.327-33.584c-0.066-0.6,42.448-112.283,46.78-123.679     c4.265-11.327-1.533-24.191-11.729-30.587c-5.864-3.665-16.525-4.799-21.856-1.934     C251.109,678.655,237.648,767.281,193.136,765.417L193.136,765.417z"
           id="path44" /><path
           fill-rule="evenodd"
           clip-rule="evenodd"
           fill="#FFFFFF"
           d="M297.689,709.575c0.866-2.4,4.865-13.263,4.798-14.86     c-0.601-28.455-26.456-27.59-36.718-10.662c-2.798,4.664-3.864,9.197-5.596,15.26     C255.975,714.105,292.292,725.167,297.689,709.575L297.689,709.575z"
           id="path46" /></g></g><g
       id="g48"><g
         id="g50"><path
           fill-rule="evenodd"
           clip-rule="evenodd"
           fill="#405268"
           d="M707.109,500.933c0-77.901,63.174-141.073,141.072-141.073     v61.173c-44.181,0-79.965,35.784-79.965,79.9H707.109z"
           id="path52" /><path
           fill-rule="evenodd"
           clip-rule="evenodd"
           fill="#FAB943"
           d="M848.182,642.004c-77.898,0-141.072-63.172-141.072-141.071     h61.107c0,44.112,35.784,79.896,79.965,79.896V642.004z"
           id="path54" /><path
           fill-rule="evenodd"
           clip-rule="evenodd"
           fill="#F87F74"
           d="M848.182,359.86c77.899,0,141.005,63.172,141.005,141.073     c0,77.899-63.105,141.071-141.005,141.071v-61.175c44.115,0,79.897-35.783,79.897-79.896c0-44.116-35.782-79.9-79.897-79.9     V359.86z"
           id="path56" /></g><g
         id="g58"><g
           id="g60"
           className="software-animation-gear"><path
             d="m 823.859,497.267 c 1.865,1.6 3.332,3.598 4.397,5.797 l 7.198,-1.268 1.599,11.662 -7.263,1.268 c -0.199,1.198 -0.536,2.465 -1.001,3.664 -0.466,1.201 -0.999,2.269 -1.664,3.333 l 4.461,5.863 -8.86,7.53 -4.53,-5.863 c -2.201,0.866 -4.667,1.331 -7.065,1.199 l -2.731,7.196 -10.462,-4.129 2.732,-7.2 c -1.867,-1.598 -3.331,-3.531 -4.399,-5.729 l -7.264,1.267 -1.531,-11.663 7.197,-1.267 c 0.268,-1.199 0.599,-2.465 1.066,-3.664 0.397,-1.198 0.997,-2.333 1.665,-3.331 l -4.465,-5.93 8.863,-7.465 4.465,5.865 c 2.264,-0.866 4.664,-1.333 7.13,-1.267 l 2.731,-7.128 10.463,4.129 -2.732,7.131 z"
             id="path62"
             inkscape:connector-curvature="0"
             style="clip-rule:evenodd;fill:#405268;fill-rule:evenodd" /><path
             d="m 814.396,506.264 c 2.867,1.199 4.265,4.595 3.067,7.594 -1.135,3.067 -4.466,4.665 -7.331,3.467 -2.865,-1.134 -4.265,-4.531 -3.134,-7.597 1.202,-3 4.467,-4.598 7.398,-3.464 l 0,0 z m 1.999,-5.331 c 5.732,2.264 8.465,8.928 6.133,14.927 -2.267,6.063 -8.73,9.128 -14.461,6.862 -5.664,-2.266 -8.396,-8.927 -6.133,-14.993 2.334,-5.997 8.797,-9.064 14.461,-6.796 l 0,0 z"
             id="path64"
             inkscape:connector-curvature="0"
             style="clip-rule:evenodd;fill:#fbfbfb;fill-rule:evenodd" /></g><g
           id="g66"
           className="software-animation-gear"><path
             d="m 882.967,452.019 c 2.731,2.333 4.864,5.266 6.465,8.464 l 10.527,-1.798 2.333,17.058 -10.594,1.8 c -0.336,1.798 -0.802,3.597 -1.467,5.33 -0.666,1.8 -1.533,3.401 -2.467,4.932 l 6.598,8.662 -13.063,10.997 -6.594,-8.596 c -3.269,1.265 -6.799,1.934 -10.396,1.798 l -4,10.461 -15.327,-6.063 3.999,-10.462 c -2.733,-2.332 -4.864,-5.267 -6.396,-8.461 l -10.595,1.864 -2.267,-17.125 10.529,-1.8 c 0.332,-1.799 0.8,-3.599 1.465,-5.331 0.733,-1.8 1.533,-3.398 2.466,-4.931 l -6.529,-8.663 13.061,-10.995 6.53,8.662 c 3.333,-1.333 6.862,-1.999 10.395,-1.865 l 3.996,-10.462 15.329,6.063 -3.998,10.461 z"
             id="path68"
             inkscape:connector-curvature="0"
             style="clip-rule:evenodd;fill:#f87f74;fill-rule:evenodd" /><path
             d="m 869.104,465.214 c 4.199,1.666 6.267,6.664 4.533,11.127 -1.732,4.468 -6.531,6.731 -10.729,5.065 -4.267,-1.665 -6.331,-6.663 -4.599,-11.127 1.735,-4.466 6.533,-6.73 10.795,-5.065 l 0,0 z m 3,-7.862 c 8.33,3.331 12.329,13.127 8.995,21.924 -3.396,8.795 -12.926,13.26 -21.255,9.996 -8.332,-3.265 -12.328,-13.127 -8.931,-21.925 3.331,-8.796 12.862,-13.261 21.191,-9.995 l 0,0 z"
             id="path70"
             inkscape:connector-curvature="0"
             style="clip-rule:evenodd;fill:#fbfbfb;fill-rule:evenodd" /></g><g
           id="g72"
           className="software-animation-gear"><path
             d="m 877.171,529.386 c 1.266,1.731 2.198,3.797 2.731,5.93 l 6.594,0.269 -0.93,10.529 -6.6,-0.267 c -0.399,0.999 -0.93,1.998 -1.596,2.999 -0.6,0.932 -1.335,1.8 -2.134,2.599 l 2.8,6.063 -9.264,4.864 -2.8,-6.065 c -2.133,0.335 -4.331,0.266 -6.463,-0.267 l -3.8,5.733 -8.395,-5.663 3.797,-5.733 c -1.265,-1.798 -2.199,-3.799 -2.732,-5.93 l -6.598,-0.336 0.935,-10.528 6.597,0.335 c 0.401,-1.067 0.934,-2.065 1.6,-2.998 0.599,-1.001 1.334,-1.869 2.133,-2.668 l -2.799,-5.996 9.263,-4.866 2.8,5.999 c 2.131,-0.334 4.331,-0.201 6.463,0.331 l 3.799,-5.73 8.396,5.667 -3.797,5.729 z"
             id="path74"
             inkscape:connector-curvature="0"
             style="clip-rule:evenodd;fill:#fab943;fill-rule:evenodd" /><path
             d="m 867.106,535.45 c 2.267,1.533 2.866,4.797 1.199,7.264 -1.6,2.465 -4.797,3.133 -7.129,1.6 -2.267,-1.6 -2.866,-4.798 -1.198,-7.263 1.597,-2.467 4.797,-3.201 7.128,-1.601 l 0,0 z m 2.8,-4.333 c 4.599,3.067 5.664,9.532 2.467,14.328 -3.2,4.798 -9.464,6.265 -13.996,3.133 -4.598,-3.066 -5.663,-9.463 -2.465,-14.261 3.197,-4.864 9.463,-6.264 13.994,-3.2 l 0,0 z"
             id="path76"
             inkscape:connector-curvature="0"
             style="clip-rule:evenodd;fill:#fbfbfb;fill-rule:evenodd" /></g></g></g><g
       id="g78"><rect
         x="368.992"
         y="482.273"
         fill-rule="evenodd"
         clip-rule="evenodd"
         fill="#405268"
         width="298.602"
         height="58.775"
         id="rect80" /><g
         id="g82"><rect
           x="368.992"
           y="569.302"
           fill-rule="evenodd"
           clip-rule="evenodd"
           fill="#BBBDBF"
           width="84.629"
           height="11.729"
           id="rect84" /><rect
           x="368.992"
           y="596.289"
           fill-rule="evenodd"
           clip-rule="evenodd"
           fill="#BBBDBF"
           width="121.08"
           height="11.795"
           id="rect86" /><rect
           x="368.992"
           y="623.346"
           fill-rule="evenodd"
           clip-rule="evenodd"
           fill="#BBBDBF"
           width="62.306"
           height="11.727"
           id="rect88" /><rect
           x="368.992"
           y="650.4"
           fill-rule="evenodd"
           clip-rule="evenodd"
           fill="#BBBDBF"
           width="98.756"
           height="11.728"
           id="rect90" /></g><g
         id="g92"><rect
           x="532.12"
           y="564.838"
           fill-rule="evenodd"
           clip-rule="evenodd"
           fill="#F87F74"
           width="49.378"
           height="49.378"
           id="rect94" /><rect
           x="595.892"
           y="564.838"
           fill-rule="evenodd"
           clip-rule="evenodd"
           fill="#CCCBC9"
           width="49.376"
           height="49.378"
           id="rect96" /><rect
           x="532.12"
           y="631.009"
           fill-rule="evenodd"
           clip-rule="evenodd"
           fill="#FAB943"
           width="49.378"
           height="49.31"
           id="rect98" /><rect
           x="595.892"
           y="631.009"
           fill-rule="evenodd"
           clip-rule="evenodd"
           fill="#405268"
           width="49.376"
           height="49.31"
           id="rect100" /><rect
           x="532.12"
           y="697.112"
           fill-rule="evenodd"
           clip-rule="evenodd"
           fill="#CCCBC9"
           width="49.378"
           height="49.379"
           id="rect102" /><rect
           x="595.892"
           y="697.112"
           fill-rule="evenodd"
           clip-rule="evenodd"
           fill="#F87F74"
           width="49.376"
           height="49.379"
           id="rect104" /></g><g
         id="g106"><path
           fill-rule="evenodd"
           clip-rule="evenodd"
           fill="#ADECF7"
           d="M432.63,796.202c27.788,0,50.445-22.655,50.445-50.443     c0-27.786-22.658-50.445-50.445-50.445c-27.721,0-50.444,22.659-50.444,50.445C382.187,773.547,404.909,796.202,432.63,796.202     L432.63,796.202z"
           id="path108" /><polygon
           fill-rule="evenodd"
           clip-rule="evenodd"
           fill="#F26D6E"
           points="404.709,735.029 430.898,779.742 492.803,678.256      432.431,747.49    "
           id="polygon110" /></g></g><g
       id="g112"><rect
         x="294.891"
         y="333.871"
         fill-rule="evenodd"
         clip-rule="evenodd"
         fill="#FAB943"
         width="348.715"
         height="72.57"
         id="rect114" /><path
         fill-rule="evenodd"
         clip-rule="evenodd"
         fill="#FEFEFE"
         d="M601.557,349.998c-7.596,3.798-10.595,13.061-6.731,20.657    c3.398,6.73,11.064,9.862,18.06,7.796l7.663,15.193l5.066-2.599l-7.733-15.126c5.798-4.464,7.733-12.462,4.331-19.191    C618.351,349.131,609.087,346.133,601.557,349.998L601.557,349.998z M604.023,354.929c-4.867,2.465-6.8,8.396-4.333,13.26    c2.531,4.865,8.464,6.799,13.328,4.333c4.796-2.532,6.796-8.463,4.265-13.328C614.816,354.329,608.888,352.397,604.023,354.929    L604.023,354.929z"
         id="path116" /></g><g
       id="g118"><rect
         x="501"
         y="859.575"
         fill-rule="evenodd"
         clip-rule="evenodd"
         fill="#FAA199"
         width="394.629"
         height="66.771"
         id="rect120" /><path
         fill-rule="evenodd"
         clip-rule="evenodd"
         fill="#FEFEFE"
         d="M598.024,888.695h274.28c2.334,0,4.264,1.935,4.264,4.267l0,0    c0,2.397-1.93,4.33-4.264,4.33h-274.28c-2.332,0-4.264-1.933-4.264-4.33l0,0C593.761,890.63,595.692,888.695,598.024,888.695    L598.024,888.695z"
         id="path122" /><path
         fill-rule="evenodd"
         clip-rule="evenodd"
         fill="#F87F74"
         d="M647.004,907.023c7.729,0,14.062-6.267,14.062-14.062    c0-7.729-6.333-14.063-14.062-14.063c-7.73,0-14.061,6.333-14.061,14.063C632.943,900.757,639.273,907.023,647.004,907.023    L647.004,907.023z"
         id="path124" /><polygon
         fill-rule="evenodd"
         clip-rule="evenodd"
         fill="#FEFEFE"
         points="558.241,892.962 544.049,901.156 529.854,909.352     529.854,892.962 529.854,876.568 544.049,884.766   "
         id="polygon126" /></g><g
       id="g128"><path
         fill-rule="evenodd"
         clip-rule="evenodd"
         fill="#F77B55"
         d="M749.158,431.895c34.253,0,62.173-27.987,62.173-62.239    c0-34.252-27.92-62.173-62.173-62.173c-34.25,0-62.174,27.921-62.174,62.173C686.984,403.908,714.908,431.895,749.158,431.895    L749.158,431.895z"
         id="path130" /><path
         fill-rule="evenodd"
         clip-rule="evenodd"
         fill="#FFFFFF"
         d="M749.624,344.601c3.466,0,6.798,0.8,9.797,2.199v-50.179v-17.593    h9.794h47.247v8.798c0,4.797-3.931,8.795-8.795,8.795h-38.452v58.774c2.267,3.599,3.601,7.863,3.601,12.395    c0,12.794-10.396,23.189-23.191,23.189c-12.794,0-23.189-10.395-23.189-23.189C726.435,354.995,736.83,344.601,749.624,344.601    L749.624,344.601z"
         id="path132" /></g><g
       id="g134"><path
         fill-rule="evenodd"
         clip-rule="evenodd"
         fill="#5C90BA"
         d="M472.947,271.099c-12.462,6.73-17.728,16.593-16.394,29.121    c-6.198-9.661-15.193-16.392-29.987-16.725c12.595-7.664,17.126-17.992,17.593-29.455    C449.291,265.569,458.752,271.432,472.947,271.099L472.947,271.099z"
         id="path136" /><path
         fill-rule="evenodd"
         clip-rule="evenodd"
         fill="#5C90BA"
         d="M604.488,283.827c-8.195,4.464-11.661,10.928-10.728,19.191    c-4.133-6.331-10.062-10.795-19.792-10.995c8.329-5.064,11.262-11.862,11.595-19.393    C588.963,280.229,595.159,284.093,604.488,283.827L604.488,283.827z"
         id="path138" /><path
         fill-rule="evenodd"
         clip-rule="evenodd"
         fill="#B9D8E4"
         d="M573.036,227.985c-16.526,8.93-23.523,21.99-21.724,38.649    c-8.197-12.861-20.192-21.723-39.782-22.19c16.725-10.196,22.657-23.855,23.389-39.116    C541.649,220.655,554.244,228.451,573.036,227.985L573.036,227.985z"
         id="path140" /><path
         fill-rule="evenodd"
         clip-rule="evenodd"
         fill="#B9D8E4"
         d="M368.258,283.427c-8.396,4.531-11.928,11.129-10.994,19.591    c-4.2-6.531-10.263-11.062-20.192-11.262c8.53-5.131,11.529-12.127,11.862-19.858    C352.333,279.695,358.729,283.627,368.258,283.427L368.258,283.427z"
         id="path142" /><path
         fill-rule="evenodd"
         clip-rule="evenodd"
         fill="#5C90BA"
         d="M235.451,340.602c-13.595,7.397-19.393,18.125-17.927,31.853    c-6.73-10.596-16.592-17.925-32.719-18.325c13.728-8.397,18.659-19.658,19.191-32.187    C209.595,334.538,219.99,341.001,235.451,340.602L235.451,340.602z"
         id="path144" /><path
         fill-rule="evenodd"
         clip-rule="evenodd"
         fill="#5C90BA"
         d="M402.577,221.387c-8.663,4.665-12.328,11.528-11.396,20.257    c-4.332-6.73-10.595-11.395-20.857-11.661c8.797-5.331,11.862-12.528,12.262-20.458    C386.118,217.523,392.714,221.587,402.577,221.387L402.577,221.387z"
         id="path146" /><path
         fill-rule="evenodd"
         clip-rule="evenodd"
         fill="#B9D8E4"
         d="M282.229,270.232c-15.26,8.264-21.723,20.326-20.058,35.785    c-7.597-11.928-18.725-20.124-36.783-20.589c15.458-9.397,20.923-22.058,21.59-36.186    C253.242,263.436,264.836,270.633,282.229,270.232L282.229,270.232z"
         id="path148" /></g></g><g
     id="g150"><path
       fill="#FFFFFF"
       d="M317.82,383.159c1.872,1.152,4.608,2.112,7.489,2.112c4.272,0,6.769-2.256,6.769-5.521   c0-3.024-1.728-4.752-6.097-6.433c-5.28-1.872-8.545-4.608-8.545-9.169c0-5.041,4.177-8.785,10.465-8.785   c3.312,0,5.712,0.768,7.152,1.584l-1.152,3.408c-1.056-0.576-3.216-1.536-6.145-1.536c-4.417,0-6.097,2.641-6.097,4.849   c0,3.024,1.968,4.512,6.433,6.241c5.473,2.112,8.257,4.752,8.257,9.504c0,4.993-3.696,9.313-11.329,9.313   c-3.12,0-6.529-0.912-8.257-2.064L317.82,383.159z"
       id="path152" /><path
       fill="#FFFFFF"
       d="M344.556,377.398c0.096,5.713,3.744,8.065,7.969,8.065c3.024,0,4.849-0.528,6.433-1.2l0.72,3.024   c-1.488,0.672-4.033,1.44-7.729,1.44c-7.152,0-11.425-4.705-11.425-11.713c0-7.009,4.128-12.529,10.897-12.529   c7.584,0,9.601,6.673,9.601,10.945c0,0.864-0.096,1.536-0.144,1.968H344.556z M356.941,374.375   c0.048-2.688-1.104-6.865-5.856-6.865c-4.272,0-6.145,3.937-6.481,6.865H356.941z"
       id="path154" /><path
       fill="#FFFFFF"
       d="M379.117,388.248l-0.336-2.928h-0.144c-1.296,1.824-3.792,3.456-7.104,3.456   c-4.704,0-7.104-3.312-7.104-6.672c0-5.617,4.992-8.689,13.969-8.641v-0.48c0-1.92-0.528-5.376-5.28-5.376   c-2.161,0-4.417,0.672-6.049,1.728l-0.96-2.784c1.92-1.248,4.704-2.064,7.633-2.064c7.104,0,8.833,4.849,8.833,9.505v8.689   c0,2.016,0.096,3.984,0.384,5.568H379.117z M378.493,376.391c-4.608-0.096-9.841,0.72-9.841,5.232c0,2.736,1.824,4.032,3.984,4.032   c3.024,0,4.945-1.92,5.617-3.888c0.144-0.432,0.24-0.912,0.24-1.344V376.391z"
       id="path156" /><path
       fill="#FFFFFF"
       d="M389.388,372.262c0-2.736-0.048-5.088-0.192-7.249h3.696l0.144,4.56h0.192   c1.056-3.12,3.6-5.088,6.433-5.088c0.48,0,0.816,0.048,1.2,0.144v3.984c-0.432-0.096-0.864-0.144-1.44-0.144   c-2.976,0-5.088,2.256-5.665,5.425c-0.096,0.576-0.192,1.248-0.192,1.968v12.385h-4.176V372.262z"
       id="path158" /><path
       fill="#FFFFFF"
       d="M421.165,387.383c-1.104,0.576-3.552,1.344-6.673,1.344c-7.008,0-11.569-4.752-11.569-11.857   c0-7.153,4.896-12.337,12.481-12.337c2.496,0,4.705,0.624,5.856,1.2l-0.96,3.265c-1.008-0.576-2.592-1.104-4.896-1.104   c-5.329,0-8.208,3.936-8.208,8.785c0,5.376,3.456,8.688,8.064,8.688c2.4,0,3.984-0.624,5.185-1.152L421.165,387.383z"
       id="path160" /><path
       fill="#FFFFFF"
       d="M426.107,354.165h4.224v14.497h0.096c0.672-1.2,1.728-2.256,3.024-2.976c1.248-0.72,2.736-1.2,4.32-1.2   c3.12,0,8.113,1.92,8.113,9.937v13.825h-4.225v-13.345c0-3.744-1.392-6.913-5.376-6.913c-2.736,0-4.896,1.92-5.665,4.225   c-0.24,0.576-0.288,1.2-0.288,2.016v14.017h-4.224V354.165z"
       id="path162" /><path
       fill="#FFFFFF"
       d="M451.739,385.751c0-1.776,1.2-3.024,2.88-3.024s2.832,1.248,2.832,3.024c0,1.728-1.104,3.024-2.88,3.024   C452.891,388.775,451.739,387.479,451.739,385.751z"
       id="path164" /><path
       fill="#FFFFFF"
       d="M461.674,385.751c0-1.776,1.2-3.024,2.88-3.024s2.832,1.248,2.832,3.024c0,1.728-1.104,3.024-2.88,3.024   C462.827,388.775,461.674,387.479,461.674,385.751z"
       id="path166" /><path
       fill="#FFFFFF"
       d="M471.609,385.751c0-1.776,1.2-3.024,2.88-3.024s2.832,1.248,2.832,3.024c0,1.728-1.104,3.024-2.88,3.024   C472.762,388.775,471.609,387.479,471.609,385.751z"
       id="path168" /></g><g
     id="g170" /><g
     id="g172" /><g
     id="g174" /><g
     id="g176" /><g
     id="g178" /><g
     id="g180" /></svg>
