<?xml version="1.0" encoding="UTF-8" standalone="no"?>
<!-- Generator: Adobe Illustrator 15.1.0, SVG Export Plug-In . SVG Version: 6.00 Build 0)  -->

<svg
   xmlns:dc="http://purl.org/dc/elements/1.1/"
   xmlns:cc="http://creativecommons.org/ns#"
   xmlns:rdf="http://www.w3.org/1999/02/22-rdf-syntax-ns#"
   xmlns:svg="http://www.w3.org/2000/svg"
   xmlns="http://www.w3.org/2000/svg"
   xmlns:sodipodi="http://sodipodi.sourceforge.net/DTD/sodipodi-0.dtd"
   xmlns:inkscape="http://www.inkscape.org/namespaces/inkscape"
   version="1.1"
   id="Capa_1"
   x="0px"
   y="0px"
   width="480"
   height="620"
   viewBox="0 0 479.99999 620"
   enable-background="new 0 0 626.843 436.479"
   xml:space="preserve"
   sodipodi:docname="innovation.svg"
   inkscape:export-filename="innovation.png"
   inkscape:export-xdpi="96"
   inkscape:export-ydpi="96"
   inkscape:version="0.92.2 (5c3e80d, 2017-08-06)"><metadata
     id="metadata131"><rdf:RDF><cc:Work
         rdf:about=""><dc:format>image/svg+xml</dc:format><dc:type
           rdf:resource="http://purl.org/dc/dcmitype/StillImage" /><dc:title /></cc:Work></rdf:RDF></metadata><defs
     id="defs129" /><sodipodi:namedview
     pagecolor="#ffffff"
     bordercolor="#666666"
     borderopacity="1"
     objecttolerance="10"
     gridtolerance="10"
     guidetolerance="10"
     inkscape:pageopacity="0"
     inkscape:pageshadow="2"
     inkscape:window-width="2174"
     inkscape:window-height="1797"
     id="namedview127"
     showgrid="false"
     inkscape:zoom="2.1627615"
     inkscape:cx="151.36664"
     inkscape:cy="263.5229"
     inkscape:window-x="0"
     inkscape:window-y="55"
     inkscape:window-maximized="0"
     inkscape:current-layer="g18" /><g
     id="g18"
     transform="matrix(1.2162932,0,0,1.2162932,-143.47639,59.200624)"><g
       id="g8"
       style="opacity:0.96"><path
         d="m 322.938,34.096 v 229.301 c 0,0 4.836,40.052 38.689,41.02 0,0 38.204,9.672 56.581,-18.859 0,0 36.755,-1.449 47.393,-42.071 0,0 20.919,-11.306 17.09,-48.353 0,0 20.112,-26.082 0,-49.327 0,0 11.926,-26.113 -12.737,-45.458 0,0 1.449,-34.334 -31.917,-44.974 0,0 -4.837,-24.181 -47.876,-26.599 0,0 -6.772,-22.729 -33.853,-21.763 -27.083,0.968 -30.468,21.28 -33.37,27.083 z"
         id="path2"
         inkscape:connector-curvature="0"
         style="fill:#91a1a9;fill-opacity:1" /><path
         d="m 331.165,33.819 c 0,0 16.153,-32.445 46.761,-12.041 0,0 20.404,22.104 0,41.66 0,0 -3.685,5.101 -18.847,7.651 0,0 0.843,-12.813 -5.927,-9.911 0,0 -2.419,0.966 -0.969,4.352 0,0 4.839,7.253 -0.966,17.893 0,0 -1.449,7.255 4.354,3.385 0,0 4.114,-6.286 3.507,-7.737 0,0 13.9,-0.968 24.539,-10.156 0,0 12.572,-8.221 11.124,-31.434 0,0 25.63,-3.384 38.203,24.18 0,0 28.533,5.319 27.565,37.72 0,0 -1.451,35.788 -32.401,42.558 0,0 -11.606,1.45 -18.859,0 0,0 2.9,-14.991 2.417,-20.312 0,0 7.738,-6.771 7.738,-8.704 0,0 -0.484,-4.353 -5.803,-1.451 0,0 -1.168,7.737 -17.754,3.385 0,0 -7.595,0 0,4.836 0,0 4.214,1.451 6.632,1.451 0,0 7.255,32.401 -24.665,33.368 0,0 -35.27,-12.573 -46.65,-59.483 v -61.21 z"
         id="path4"
         inkscape:connector-curvature="0"
         style="fill:#f0f0f0;fill-opacity:1" /><path
         d="m 423.591,196.576 c 0,0 20.475,14.997 43.204,1.944 0,0 31.919,-13.057 7.256,-50.294 0,0 11.123,-24.18 -5.804,-37.721 0,0 -12.089,48.36 -63.352,39.655 0,0 -6.769,7.737 -13.056,10.155 l 15.443,1.451 c 0,0 8.252,6.77 -2.388,9.671 0,0 -46.876,-0.966 -73.731,-47.876 v 139.836 c 0,0 7.961,36.186 41.814,35.701 0,0 40.623,-0.318 46.909,-35.701 0,0 6.287,-26.197 -13.542,-40.705 0,0 0.485,-10.153 8.223,-5.319 0,0 24.663,22.728 10.156,58.515 0,0 22.777,-0.483 35.81,-36.753 0,0 18.354,-14.509 16.418,-36.264 0,0 -19.827,11.608 -36.271,8.463 0,0 -15.476,-3.628 -18.859,-8.463 0,0 -20.312,20.787 -48.359,5.318 0,0 -5.805,7.257 -10.639,3.145 0,0 3.385,-2.66 10.154,-8.946 l -0.483,-11.606 c 0,0 5.803,-4.377 5.319,2.164 l 0.483,8.958 c 0,0 23.213,13.028 41.106,-8.958"
         id="path6"
         inkscape:connector-curvature="0"
         style="fill:#f0f0f0;fill-opacity:1" /></g><g
       id="g16"><path
         d="m 318.292,34.096 v 229.301 c 0,0 -4.835,40.052 -38.688,41.02 0,0 -38.203,9.672 -56.585,-18.859 0,0 -36.755,-1.449 -47.393,-42.071 0,0 -20.92,-11.306 -17.092,-48.353 0,0 -20.11,-26.082 0,-49.327 0,0 -11.926,-26.113 12.739,-45.458 0,0 -1.45,-34.334 31.917,-44.974 0,0 4.837,-24.181 47.882,-26.599 0,0 6.771,-22.729 33.851,-21.763 27.082,0.968 30.466,21.28 33.369,27.083 z"
         id="path10"
         inkscape:connector-curvature="0"
         style="fill:#91a1a9;fill-opacity:1" /><path
         d="m 310.065,33.819 c 0,0 -16.152,-32.445 -46.759,-12.041 0,0 -20.404,22.104 0,41.66 0,0 3.685,5.101 18.847,7.651 0,0 -0.844,-12.813 5.927,-9.911 0,0 2.42,0.966 0.968,4.352 0,0 -4.84,7.253 0.965,17.893 0,0 1.451,7.255 -4.352,3.385 0,0 -4.115,-6.286 -3.508,-7.737 0,0 -13.902,-0.968 -24.54,-10.156 0,0 -12.573,-8.221 -11.124,-31.434 0,0 -25.634,-3.384 -38.208,24.18 0,0 -28.532,5.319 -27.564,37.72 0,0 1.45,35.788 32.399,42.558 0,0 11.606,1.45 18.864,0 0,0 -2.902,-14.991 -2.42,-20.312 0,0 -7.738,-6.771 -7.738,-8.704 0,0 0.483,-4.353 5.805,-1.451 0,0 1.166,7.737 17.755,3.385 0,0 7.596,0 0,4.836 0,0 -4.211,1.451 -6.631,1.451 0,0 -7.256,32.401 24.664,33.368 0,0 35.271,-12.573 46.65,-59.483 z"
         id="path12"
         inkscape:connector-curvature="0"
         style="fill:#f0f0f0;fill-opacity:1" /><path
         d="m 217.635,196.576 c 0,0 -20.477,14.997 -43.206,1.944 0,0 -31.918,-13.057 -7.255,-50.294 0,0 -11.123,-24.18 5.804,-37.721 0,0 12.089,48.36 63.356,39.655 0,0 6.769,7.737 13.057,10.155 l -15.443,1.451 c 0,0 -8.258,6.77 2.387,9.671 0,0 46.875,-0.966 73.73,-47.876 v 139.836 c 0,0 -7.96,36.186 -41.814,35.701 0,0 -40.624,-0.318 -46.914,-35.701 0,0 -6.286,-26.197 13.548,-40.705 0,0 -0.484,-10.153 -8.227,-5.319 0,0 -24.664,22.728 -10.157,58.515 0,0 -22.775,-0.483 -35.811,-36.753 0,0 -18.353,-14.509 -16.416,-36.264 0,0 19.827,11.608 36.27,8.463 0,0 15.477,-3.628 18.86,-8.463 0,0 20.315,20.787 48.363,5.318 0,0 5.804,7.257 10.639,3.145 0,0 -3.384,-2.66 -10.155,-8.946 l 0.484,-11.606 c 0,0 -5.803,-4.377 -5.32,2.164 l -0.482,8.958 c 0,0 -23.213,13.028 -41.11,-8.958"
         id="path14"
         inkscape:connector-curvature="0"
         style="fill:#f0f0f0;fill-opacity:1" /></g></g><g
     id="g28"
     transform="matrix(1.2162932,0,0,1.2162932,-143.47639,59.200624)"><path
       d="M 379.723,316.948 H 261.506 c -4.891,0 -8.864,3.282 -8.864,7.34 v 4.886 c 0,4.058 3.974,7.34 8.864,7.34 h 118.217 c 4.89,0 8.863,-3.282 8.863,-7.34 v -4.886 c 0,-4.058 -3.973,-7.34 -8.863,-7.34 z"
       id="path20"
       inkscape:connector-curvature="0"
       style="fill:#91a1a9;fill-opacity:1" /><path
       d="M 379.723,346.282 H 261.506 c -4.891,0 -8.864,3.289 -8.864,7.347 v 4.885 c 0,4.052 3.974,7.334 8.864,7.334 h 118.217 c 4.89,0 8.863,-3.282 8.863,-7.334 v -4.885 c 0,-4.058 -3.973,-7.347 -8.863,-7.347 z"
       id="path22"
       inkscape:connector-curvature="0"
       style="fill:#91a1a9;fill-opacity:1" /><path
       d="M 379.723,375.631 H 261.506 c -4.891,0 -8.864,3.273 -8.864,7.333 v 4.891 c 0,4.051 3.974,7.333 8.864,7.333 h 118.217 c 4.89,0 8.863,-3.282 8.863,-7.333 v -4.891 c 0,-4.06 -3.973,-7.333 -8.863,-7.333 z"
       id="path24"
       inkscape:connector-curvature="0"
       style="fill:#91a1a9;fill-opacity:1" /><path
       d="m 276.284,404.963 h 88.661 c 0,14.675 -23.642,24.45 -44.33,24.45 -20.688,0 -44.331,-9.775 -44.331,-24.45 z"
       id="path26"
       inkscape:connector-curvature="0"
       style="fill:#91a1a9;fill-opacity:1" /></g><path
     d="m 351.27396,347.35872 c -3.28399,11.7871 -12.43781,11.511 -25.69663,14.94581 -10.40903,-12.19577 -16.41144,-15.13677 -13.12745,-26.92265 2.30001,-8.2866 17.25312,-11.12786 20.33034,1.04115 11.83697,-9.39465 20.79983,2.66003 18.49374,10.93569 z"
     id="path30"
     inkscape:connector-curvature="0"
     style="fill:#4ecdc4;stroke-width:1.2162931" /><path
     d="m 311.31995,96.628396 c 2.19176,12.037654 -6.16296,15.786274 -16.59268,24.665214 -14.68917,-6.42689 -21.37392,-6.45244 -23.56568,-18.48887 -1.54834,-8.459324 10.66203,-17.545034 18.7443,-7.939964 6.54852,-13.62005 19.87544,-6.6884 21.41406,1.76362 z"
     id="path32"
     inkscape:connector-curvature="0"
     style="fill:#ff6b6b;stroke-width:1.2162931" /><path
     d="m 405.94147,261.63803 -7.15545,19.67232 c -0.21407,-0.11554 -0.41111,-0.22379 -0.62518,-0.30285 -2.88504,-1.05453 -6.08268,0.43665 -7.12747,3.32169 -1.05331,2.88505 0.43664,6.08269 3.32169,7.12748 2.87654,1.05331 6.08268,-0.43786 7.12748,-3.3144 l 4.95761,-13.62491 17.24704,3.85321 -2.78653,7.66387 c -0.20555,-0.10704 -0.40138,-0.2238 -0.62517,-0.30286 -2.88505,-1.05453 -6.08269,0.44638 -7.12748,3.3217 -1.05331,2.87531 0.43665,6.08268 3.32169,7.13599 2.82302,1.02777 5.93065,-0.39165 7.04721,-3.14412 l 0.0195,0.01 9.25234,-25.42418 z m 2.18811,8.26228 0.92925,-2.56273 17.24825,3.84957 -0.92924,2.55421 z"
     id="path34"
     inkscape:connector-curvature="0"
     style="fill:#ff6b6b;stroke-width:1.2162931" /><path
     d="m 423.2031,250.03702 c 3.01884,-0.52787 5.05492,-3.42143 4.51975,-6.44027 l -4.21567,-23.90138 -4.80558,0.84898 3.26088,18.48887 c -0.24082,0.009 -0.45489,0.009 -0.6872,0.0438 -3.02735,0.53517 -5.05492,3.42994 -4.51975,6.44878 0.53396,3.02979 3.419,5.04762 6.44757,4.51123 z"
     id="path36"
     inkscape:connector-curvature="0"
     style="fill:#4ecdc4;stroke-width:1.2162931" /><g
     id="g44"
     transform="matrix(1.2162932,0,0,1.2162932,-143.47639,59.200624)"><circle
       cx="370.272"
       cy="281.07001"
       r="2.8010001"
       id="circle38"
       style="fill:#c44d58" /><circle
       cx="373.33301"
       cy="285.87201"
       r="1.954"
       id="circle40"
       style="fill:#c44d58" /><polygon
       points="347.951,272.023 342.037,270.257 346.46,265.953 342.609,261.806 348.777,259.812 348.019,254.394 354.279,255.243 356.817,250.007 361.492,253.473 366.647,249.822 368.482,254.976 374.874,253.888 373.378,259.348 379.293,261.114 374.87,265.418 378.721,269.565 372.552,271.56 373.311,276.978 367.05,276.128 364.512,281.363 359.838,277.897 354.682,281.548 352.847,276.396 346.457,277.483 "
       id="polygon42"
       style="fill:#c44d58" /></g><g
     id="g50"
     transform="matrix(1.2162932,0,0,1.2162932,-143.47639,59.200624)"><g
       id="g48"><path
         d="m 404.905,77.197 c -1.79,-0.495 -2.77,-0.555 -2.996,-1.545 -0.227,-1.015 0.363,-2.788 2.289,-4.375 2.291,-1.928 4.165,-2.453 5.307,-1.748 0.715,0.453 0.866,1.474 1.01,2.745 0.1,0.907 0.054,1.36 0.806,1.807 1.438,0.878 6.293,-3.836 10.389,-9.756 3.473,0.292 8.412,4.416 8.167,5.585 -0.155,0.788 -1.3,1.206 -2.285,1.444 -2.076,0.454 -3.435,1.415 -3.805,2.715 -0.305,0.985 -0.173,2.596 2.074,4.84 2.047,2.065 4.32,2.876 5.724,2.03 1.175,-0.717 2.01,-1.362 1.384,-3.545 -0.215,-0.692 -0.472,-2.303 1.57,-2.704 1.693,-0.322 7.847,5.102 9.727,10.139 -5.348,2.482 -9.847,7.651 -9.531,9.309 0.09,0.43 0.592,1.266 1.941,1.337 1.317,0.048 2.302,0.465 2.851,1.396 0.562,0.985 0.145,2.698 -2.799,5.575 -1.789,1.754 -3.479,2.19 -4.373,1.934 -0.979,-0.281 -1.319,-1.373 -1.706,-2.728 -0.426,-1.451 -0.956,-1.928 -2.228,-1.772 -2.422,0.25 -5.039,3.174 -7.245,7.227 L 399.755,85.683 c 4.497,-3.396 6.956,-5.126 6.789,-6.6 -0.08,-0.693 -0.064,-1.469 -1.639,-1.886 z"
         id="path46"
         inkscape:connector-curvature="0"
         style="fill:#b2d84a" /></g></g><g
     id="g56"
     transform="matrix(1.2162932,0,0,1.2162932,-143.47639,59.200624)"><path
       d="m 188.959,150.468 c 0.445,1.121 1.349,1.217 2.018,0.212 0.671,-1.004 1.378,-0.854 1.58,0.335 0.201,1.19 1.066,1.471 1.929,0.628 0.863,-0.844 1.524,-0.55 1.476,0.655 -0.05,1.207 0.737,1.661 1.757,1.015 1.021,-0.646 1.605,-0.221 1.307,0.949 -0.3,1.169 0.377,1.777 1.508,1.358 1.133,-0.418 1.615,0.118 1.08,1.2 -0.536,1.082 -0.001,1.816 1.192,1.642 1.195,-0.175 1.556,0.451 0.808,1.397 -0.749,0.947 -0.38,1.778 0.825,1.855 1.205,0.077 1.429,0.763 0.499,1.534 -0.929,0.77 -0.741,1.66 0.422,1.985 1.162,0.326 1.237,1.044 0.168,1.604 -1.068,0.562 -1.068,1.47 0,2.031 1.069,0.56 0.994,1.279 -0.168,1.604 -1.163,0.325 -1.351,1.215 -0.422,1.986 0.93,0.771 0.706,1.458 -0.499,1.535 -1.205,0.077 -1.574,0.907 -0.825,1.854 0.748,0.946 0.388,1.572 -0.808,1.396 -1.193,-0.175 -1.729,0.561 -1.192,1.643 0.535,1.082 0.053,1.618 -1.08,1.199 -1.131,-0.418 -1.808,0.188 -1.508,1.359 0.299,1.169 -0.286,1.594 -1.307,0.948 -1.02,-0.645 -1.807,-0.191 -1.757,1.015 0.049,1.207 -0.612,1.5 -1.476,0.656 -0.862,-0.843 -1.728,-0.562 -1.931,0.627 -0.2,1.19 -0.907,1.34 -1.578,0.336 -0.669,-1.005 -1.572,-0.911 -2.018,0.211 -0.446,1.122 -1.169,1.122 -1.614,0 -0.445,-1.122 -1.35,-1.217 -2.018,-0.211 -0.671,1.004 -1.377,0.854 -1.578,-0.336 -0.204,-1.189 -1.068,-1.471 -1.932,-0.627 -0.863,0.844 -1.524,0.55 -1.475,-0.656 0.049,-1.206 -0.738,-1.66 -1.757,-1.015 -1.021,0.646 -1.606,0.221 -1.306,-0.948 0.298,-1.17 -0.378,-1.777 -1.509,-1.359 -1.133,0.419 -1.615,-0.117 -1.08,-1.199 0.535,-1.082 0.001,-1.817 -1.192,-1.643 -1.195,0.175 -1.556,-0.45 -0.808,-1.396 0.75,-0.947 0.38,-1.778 -0.825,-1.854 -1.204,-0.078 -1.428,-0.764 -0.498,-1.535 0.93,-0.771 0.739,-1.661 -0.423,-1.986 -1.162,-0.326 -1.237,-1.044 -0.168,-1.604 1.068,-0.561 1.068,-1.469 0,-2.031 -1.069,-0.56 -0.994,-1.278 0.168,-1.604 1.162,-0.326 1.353,-1.215 0.423,-1.985 -0.93,-0.771 -0.706,-1.458 0.498,-1.534 1.205,-0.078 1.575,-0.908 0.825,-1.855 -0.748,-0.946 -0.388,-1.572 0.808,-1.397 1.193,0.174 1.728,-0.561 1.192,-1.642 -0.535,-1.082 -0.053,-1.618 1.08,-1.2 1.131,0.419 1.807,-0.188 1.509,-1.358 -0.301,-1.17 0.285,-1.594 1.306,-0.949 1.019,0.646 1.806,0.191 1.757,-1.015 -0.05,-1.206 0.611,-1.5 1.475,-0.655 0.863,0.843 1.728,0.562 1.932,-0.628 0.201,-1.19 0.907,-1.34 1.578,-0.335 0.668,1.005 1.572,0.909 2.018,-0.212 0.446,-1.122 1.168,-1.122 1.614,0 z"
       id="path52"
       inkscape:connector-curvature="0"
       style="fill:#b2d84a" /><circle
       cx="188.15199"
       cy="167.854"
       r="12.926"
       id="circle54"
       style="fill:#f0f0f0;fill-opacity:1" /></g><g
     id="g68"
     transform="matrix(1.2162932,0,0,1.2162932,-143.47639,59.200624)"><path
       d="m 365.792,164.133 c -6.133,-3.872 -14.244,-2.039 -18.117,4.096 -1.273,2.02 -1.893,4.255 -2.02,6.478 -0.373,6.636 -1.393,9.852 -2.634,12.802 -1.039,2.474 -0.85,3.321 0.84,4.388 0.719,0.454 1.896,1.196 3.149,1.987 1.254,0.791 2.432,1.534 3.149,1.987 1.691,1.069 2.538,0.874 4.324,-1.127 2.13,-2.39 4.594,-4.692 10.423,-7.885 1.953,-1.07 3.705,-2.59 4.98,-4.609 3.874,-6.135 2.041,-14.245 -4.094,-18.117 z"
       id="path58"
       inkscape:connector-curvature="0"
       style="fill:#ff6b6b" /><path
       d="m 350.473,197.194 -7.936,-5.011 c -0.33,-0.207 -0.764,-0.109 -0.972,0.22 l -0.25,0.396 c -0.209,0.329 -0.11,0.764 0.219,0.972 l 7.937,5.01 c 0.328,0.207 0.763,0.109 0.972,-0.22 l 0.25,-0.396 c 0.209,-0.329 0.108,-0.765 -0.22,-0.971 z"
       id="path60"
       inkscape:connector-curvature="0"
       style="fill:#ff6b6b" /><path
       d="m 348.971,199.573 -7.938,-5.01 c -0.329,-0.207 -0.763,-0.108 -0.971,0.221 l -0.25,0.396 c -0.209,0.329 -0.11,0.764 0.219,0.971 l 7.937,5.01 c 0.329,0.207 0.764,0.108 0.971,-0.221 l 0.25,-0.396 c 0.209,-0.328 0.108,-0.763 -0.218,-0.971 z"
       id="path62"
       inkscape:connector-curvature="0"
       style="fill:#ff6b6b" /><path
       d="m 347.467,201.955 -7.937,-5.009 c -0.328,-0.208 -0.764,-0.11 -0.972,0.22 l -0.25,0.396 c -0.208,0.329 -0.109,0.764 0.22,0.971 l 7.937,5.01 c 0.328,0.208 0.764,0.109 0.972,-0.22 l 0.25,-0.396 c 0.207,-0.329 0.108,-0.764 -0.22,-0.972 z"
       id="path64"
       inkscape:connector-curvature="0"
       style="fill:#ff6b6b" /><path
       d="m 339.019,199.952 5.953,3.758 c -0.752,1.19 -2.841,0.983 -4.229,0.105 -1.388,-0.876 -2.475,-2.672 -1.724,-3.863 z"
       id="path66"
       inkscape:connector-curvature="0"
       style="fill:#ff6b6b" /></g><g
     id="g74"
     transform="matrix(1.2162932,0,0,1.2162932,-143.47639,59.200624)"><path
       d="m 419.291,166.611 c 1.874,0.659 3.842,0 4.395,-1.476 0.014,-0.037 0.022,-0.074 0.034,-0.111 0.019,-0.03 0.036,-0.063 0.05,-0.102 l 2.956,-7.894 c 2.22,1.979 5.104,0.62 5.104,0.62 -3.29,-0.334 -4.902,-3.7 -4.963,-4.303 l -3.54,9.444 c -0.439,-0.653 -1.145,-1.208 -2.034,-1.521 -1.873,-0.657 -3.839,0.004 -4.392,1.478 -0.554,1.477 0.516,3.206 2.39,3.865 z"
       id="path70"
       inkscape:connector-curvature="0"
       style="opacity:0.75;fill:#c44d58" /><path
       d="m 430.593,160.107 -6.345,16.942 c -0.791,-1.172 -2.057,-2.167 -3.648,-2.729 -3.362,-1.182 -6.889,0.004 -7.879,2.649 -0.992,2.646 0.929,5.751 4.288,6.933 3.36,1.182 6.889,0 7.88,-2.648 0.026,-0.065 0.039,-0.13 0.061,-0.198 0.035,-0.057 0.067,-0.114 0.091,-0.183 l 5.304,-14.158 c 3.983,3.55 9.157,1.11 9.157,1.11 -5.904,-0.596 -8.797,-6.636 -8.909,-7.718 z"
       id="path72"
       inkscape:connector-curvature="0"
       style="fill:#c44d58" /></g><g
     id="g80"
     transform="matrix(1.2162932,0,0,1.2162932,-143.47639,59.200624)"><path
       d="m 439.947,233.213 c 1.967,-0.278 3.41,-1.77 3.221,-3.334 -0.005,-0.039 -0.014,-0.076 -0.021,-0.115 0.002,-0.035 0.003,-0.072 -0.003,-0.112 l -1.013,-8.368 c 2.882,0.734 4.815,-1.801 4.815,-1.801 -3.074,1.22 -6.056,-1.025 -6.388,-1.532 l 1.209,10.012 c -0.691,-0.377 -1.572,-0.545 -2.507,-0.413 -1.965,0.279 -3.405,1.772 -3.217,3.335 0.191,1.564 1.938,2.605 3.904,2.328 z"
       id="path76"
       inkscape:connector-curvature="0"
       style="opacity:0.75;fill:#ff6b6b" /><path
       d="m 446.983,222.233 2.174,17.96 c -1.242,-0.676 -2.824,-0.976 -4.495,-0.741 -3.529,0.501 -6.112,3.178 -5.772,5.981 0.338,2.807 3.474,4.677 6.999,4.178 3.527,-0.499 6.114,-3.174 5.774,-5.98 -0.007,-0.07 -0.025,-0.134 -0.038,-0.204 0.005,-0.066 0.007,-0.133 -0.003,-0.204 l -1.815,-15.01 c 5.171,1.315 8.639,-3.232 8.639,-3.232 -5.516,2.189 -10.866,-1.838 -11.463,-2.748 z"
       id="path78"
       inkscape:connector-curvature="0"
       style="fill:#ff6b6b" /></g><g
     id="g86"
     transform="matrix(1.2162932,0,0,1.2162932,-143.47639,59.200624)"><path
       d="m 376.036,117.393 c -3.866,-2.279 -4.959,3.047 -6.021,5.868 -1.017,2.7 -3.391,5.314 -4.934,6.767 -1.339,1.26 -4.607,3.054 -4.214,0.973 0.333,-1.768 2.372,-3.261 3.248,-4.805 1.107,-1.952 1.932,-3.834 2.49,-6.087 0.264,-1.064 1.316,-4.951 -0.753,-5.501 -2.509,-0.668 -5.095,-0.243 -7.719,-0.261 -2.128,-0.015 -11.796,-0.318 -6.242,-3.315 2.182,-1.178 4.837,-1.373 7.25,-1.668 1.689,-0.207 6.139,-0.658 7.051,-2.486 0.808,-1.619 0.854,-3.954 0.574,-5.612 -0.364,-2.177 -0.771,-4.515 -1.686,-6.546 -0.616,-1.367 -1.659,-3.167 -2.67,-4.284 -2.095,-2.313 1.854,-1.205 3.064,-0.358 4.218,2.956 5.757,6.061 6.811,9.915 0.443,1.622 1.73,4.898 3.259,5.538 2.214,0.928 6.588,-2.211 8.5,-3.413 1.94,-1.218 3.815,-2.198 6.053,-2.98 7.961,-2.782 0.522,4.062 -3.098,6.74 -2.725,2.016 -5.406,2.975 -6.236,5.795 -0.554,1.883 0.164,3.454 1.241,4.694 1.655,1.91 3.645,4.4 4.45,6.819 0.354,1.062 0.986,4.222 0.654,4.943 -0.771,1.673 -2.571,0.655 -3.237,-0.939 -0.812,-1.941 -1.567,-3.566 -2.922,-5.145 -0.74,-0.862 -1.374,-1.681 -2.132,-2.529 -0.782,-0.876 -1.761,-1.443 -2.781,-2.123 z"
       id="path82"
       inkscape:connector-curvature="0"
       style="fill:#0a3d54" /><path
       d="m 376.036,117.393 c -3.866,-2.279 -4.959,3.047 -6.021,5.868 -1.017,2.7 -3.391,5.314 -4.934,6.767 -1.339,1.26 -4.607,3.054 -4.214,0.973 0.333,-1.768 2.372,-3.261 3.248,-4.805 1.107,-1.952 1.932,-3.834 2.49,-6.087 0.264,-1.064 1.316,-4.951 -0.753,-5.501 -2.509,-0.668 -5.095,-0.243 -7.719,-0.261 -2.128,-0.015 -11.796,-0.318 -6.242,-3.315 2.182,-1.178 4.837,-1.373 7.25,-1.668 1.689,-0.207 6.139,-0.658 7.051,-2.486 0.808,-1.619 0.854,-3.954 0.574,-5.612 -0.364,-2.177 -0.771,-4.515 -1.686,-6.546 -0.616,-1.367 -1.659,-3.167 -2.67,-4.284 -2.095,-2.313 1.854,-1.205 3.064,-0.358 4.218,2.956 5.757,6.061 6.811,9.915 0.443,1.622 1.73,4.898 3.259,5.538 2.214,0.928 6.588,-2.211 8.5,-3.413 1.94,-1.218 3.815,-2.198 6.053,-2.98 7.961,-2.782 0.522,4.062 -3.098,6.74 -2.725,2.016 -5.406,2.975 -6.236,5.795 -0.554,1.883 0.164,3.454 1.241,4.694 1.655,1.91 3.645,4.4 4.45,6.819 0.354,1.062 0.986,4.222 0.654,4.943 -0.771,1.673 -2.571,0.655 -3.237,-0.939 -0.812,-1.941 -1.567,-3.566 -2.922,-5.145 -0.74,-0.862 -1.374,-1.681 -2.132,-2.529 -0.782,-0.876 -1.761,-1.443 -2.781,-2.123 z"
       id="path84"
       inkscape:connector-curvature="0"
       style="fill:#4ecdc4" /></g><g
     id="g96"
     transform="matrix(1.2162932,0,0,1.2162932,-143.47639,59.200624)"><path
       d="m 238.555,235.934 0.653,2.988 5.242,-1.146 0.86,3.938 -5.242,1.146 0.674,3.082 5.526,-1.208 0.86,3.938 -10.174,2.224 -3.909,-17.883 10.175,-2.224 0.86,3.938 z"
       id="path88"
       inkscape:connector-curvature="0"
       style="fill:#4ecdc4" /><path
       d="m 260.346,234.551 0.777,3.557 -12.143,2.653 -0.777,-3.557 z m 1.244,5.691 0.777,3.559 -12.143,2.653 -0.777,-3.558 z"
       id="path90"
       inkscape:connector-curvature="0"
       style="fill:#4ecdc4" /><path
       d="m 268.167,232.915 0.047,-0.011 c 0.725,-1.574 1.857,-2.417 3.423,-2.76 1.755,-0.383 3.429,-0.004 4.658,1.418 0.498,-1.7 1.958,-2.863 3.619,-3.227 3.083,-0.674 4.591,1.108 5.202,3.906 l 1.695,7.756 -4.316,0.943 -1.27,-5.812 c -0.275,-1.256 -0.68,-3.329 -2.505,-2.931 -1.993,0.436 -1.654,2.324 -1.339,3.771 l 1.271,5.812 -4.316,0.943 -1.271,-5.812 c -0.295,-1.352 -0.746,-3.414 -2.667,-2.994 -1.921,0.42 -1.47,2.482 -1.175,3.834 l 1.271,5.812 -4.316,0.943 -2.659,-12.167 4.316,-0.943 z"
       id="path92"
       inkscape:connector-curvature="0"
       style="fill:#4ecdc4" /><path
       d="m 296.618,229.257 c -0.744,-0.335 -1.586,-0.548 -2.416,-0.366 -1.66,0.363 -2.686,1.928 -2.317,3.611 0.384,1.756 1.911,2.714 3.689,2.325 0.759,-0.166 1.521,-0.655 1.977,-1.302 l 0.798,3.653 c -0.845,0.681 -1.841,1.123 -2.885,1.351 -3.605,0.788 -7.203,-1.233 -8.006,-4.91 -0.855,-3.913 1.541,-7.27 5.36,-8.104 0.996,-0.218 2.044,-0.199 3.001,0.089 z"
       id="path94"
       inkscape:connector-curvature="0"
       style="fill:#4ecdc4" /></g><g
     id="g100"
     transform="matrix(1.2162932,0,0,1.2162932,-143.47639,59.200624)"><path
       d="m 272.853,263.471 c -1.048,3.369 -4.11,4.355 -7.288,3.367 -3.177,-0.986 -5.141,-3.537 -4.093,-6.906 1.031,-3.316 4.169,-4.25 7.263,-3.287 3.095,0.96 5.149,3.509 4.118,6.826 z m 10.438,-1.998 -18.577,17.068 -2.708,-0.842 18.578,-17.068 z m -18.495,-0.448 c -0.403,1.299 0.328,2.646 1.627,3.051 1.299,0.405 2.667,-0.293 3.07,-1.592 0.404,-1.297 -0.319,-2.674 -1.618,-3.078 -1.298,-0.402 -2.674,0.321 -3.079,1.619 z m 19.082,18.143 c -1.049,3.369 -4.112,4.357 -7.289,3.369 -3.177,-0.988 -5.142,-3.537 -4.094,-6.908 1.031,-3.314 4.17,-4.248 7.264,-3.287 3.094,0.963 5.15,3.51 4.119,6.826 z m -8.055,-2.443 c -0.403,1.297 0.327,2.646 1.626,3.049 1.298,0.404 2.666,-0.291 3.069,-1.59 0.403,-1.299 -0.319,-2.676 -1.617,-3.078 -1.299,-0.405 -2.675,0.32 -3.078,1.619 z"
       id="path98"
       inkscape:connector-curvature="0"
       style="fill:#ff6b6b" /></g><g
     id="g104"
     transform="matrix(1.2162932,0,0,1.2162932,-143.47639,59.200624)"><path
       d="m 278.198,38.865 5.951,-6.572 2.984,0.928 1.176,8.789 5.951,-6.572 5.553,1.727 -11.812,11.869 -3.259,-1.013 -1.095,-8.854 -5.923,6.672 -3.26,-1.014 -2.996,-16.474 5.58,1.735 z"
       id="path102"
       inkscape:connector-curvature="0"
       style="fill:#4ecdc4" /></g><g
     id="g112"
     transform="matrix(1.2162932,0,0,1.2162932,-143.47639,59.200624)"><path
       d="m 247.828,110.297 -5.214,-0.738 2.079,-14.695 5.214,0.738 z m 3.192,-20.293 c -0.227,1.604 -1.73,2.735 -3.335,2.508 -1.605,-0.227 -2.734,-1.73 -2.508,-3.334 0.227,-1.604 1.729,-2.736 3.334,-2.509 1.605,0.227 2.736,1.73 2.509,3.335 z"
       id="path106"
       inkscape:connector-curvature="0"
       style="fill:#b2d84a" /><path
       d="m 259.303,96.931 4.296,0.608 -0.733,5.185 5.185,0.734 -0.607,4.297 -5.185,-0.734 -0.738,5.214 -4.296,-0.608 0.738,-5.213 -5.186,-0.734 0.607,-4.297 5.186,0.734 z"
       id="path108"
       inkscape:connector-curvature="0"
       style="fill:#b2d84a" /><path
       d="m 282.206,113.496 -0.057,-0.008 c -1.124,1.331 -3.021,1.734 -4.74,1.491 -4.354,-0.616 -6.904,-4.688 -6.309,-8.898 0.595,-4.21 4.113,-7.395 8.468,-6.779 1.689,0.239 3.377,1.121 4.283,2.564 l 1.487,-10.512 5.213,0.737 -3.364,23.775 -5.213,-0.737 z m -5.725,-6.625 c -0.264,1.862 0.765,3.469 2.885,3.769 2.12,0.3 3.554,-0.958 3.817,-2.82 0.255,-1.805 -0.761,-3.497 -2.881,-3.797 -2.12,-0.3 -3.566,1.043 -3.821,2.848 z"
       id="path110"
       inkscape:connector-curvature="0"
       style="fill:#b2d84a" /></g><g
     id="g116"
     transform="matrix(1.2162932,0,0,1.2162932,-143.47639,59.200624)"><path
       d="m 205.299,91.857 -1.404,7.08 -3.418,0.805 5.918,-29.463 18.443,23.727 -3.418,0.805 -4.416,-5.709 z m 2.739,-14.608 -2.104,11.387 9.066,-2.135 z"
       id="path114"
       inkscape:connector-curvature="0"
       style="fill:#ff6b6b" /></g><g
     id="g120"
     transform="matrix(1.2162932,0,0,1.2162932,-143.47639,59.200624)"><path
       d="m 285.576,175.074 c 2.741,-0.645 4.769,-2.194 4.043,-5.273 -0.605,-2.571 -2.922,-3.919 -5.459,-3.322 -2.301,0.542 -3.549,2.373 -3.369,4.651 l -3.146,0.741 c -0.379,-4.339 1.768,-7.201 5.963,-8.189 4.061,-0.956 7.99,0.869 8.993,5.132 0.59,2.504 -0.015,4.789 -1.894,6.517 2.783,0.595 4.465,2.733 5.11,5.475 1.123,4.771 -1.786,8.49 -6.354,9.565 -3.992,0.94 -8.2,-0.854 -9.392,-5 l 3.079,-0.725 c 0.894,2.431 3.46,3.47 5.896,2.896 2.843,-0.669 4.347,-3.38 3.693,-6.155 -0.765,-3.248 -3.451,-4.651 -6.543,-3.673 z"
       id="path118"
       inkscape:connector-curvature="0"
       style="fill:#c44d58" /></g><g
     id="g124"
     transform="matrix(1.2162932,0,0,1.2162932,-143.47639,59.200624)"><path
       d="m 302.937,219.717 0.461,2.105 -7.688,1.68 2.979,-5.103 c 0.426,-0.731 0.77,-1.71 0.578,-2.584 -0.133,-0.609 -0.703,-1.148 -1.363,-1.003 -0.672,0.146 -0.926,0.747 -0.785,1.393 0.028,0.127 0.071,0.265 0.128,0.397 l -2.741,0.598 c -0.403,-2.209 0.668,-3.998 2.926,-4.491 2.005,-0.438 3.98,0.511 4.436,2.591 0.299,1.37 -0.098,2.293 -0.881,3.394 l -1.182,1.708 z"
       id="path122"
       inkscape:connector-curvature="0"
       style="fill:#0a3d54" /></g></svg>