<?xml version="1.0" encoding="UTF-8" standalone="no"?>
<svg
   xmlns:dc="http://purl.org/dc/elements/1.1/"
   xmlns:cc="http://creativecommons.org/ns#"
   xmlns:rdf="http://www.w3.org/1999/02/22-rdf-syntax-ns#"
   xmlns:svg="http://www.w3.org/2000/svg"
   xmlns="http://www.w3.org/2000/svg"
   xmlns:sodipodi="http://sodipodi.sourceforge.net/DTD/sodipodi-0.dtd"
   xmlns:inkscape="http://www.inkscape.org/namespaces/inkscape"
   version="1.1"
   id="Layer_1"
   x="0px"
   y="0px"
   viewBox="0 0 1024 400"
   enable-background="new 0 0 5120 2880"
   xml:space="preserve"
   sodipodi:docname="Products_space.svg"
   width="1024"
   height="400"
   inkscape:export-filename="Products_space.png"
   inkscape:export-xdpi="96"
   inkscape:export-ydpi="96"
   inkscape:version="0.92.2 5c3e80d, 2017-08-06"><metadata
     id="metadata2997"><rdf:RDF><cc:Work
         rdf:about=""><dc:format>image/svg+xml</dc:format><dc:type
           rdf:resource="http://purl.org/dc/dcmitype/StillImage" /><dc:title></dc:title></cc:Work></rdf:RDF></metadata><defs
     id="defs2995" /><sodipodi:namedview
     pagecolor="#000000"
     bordercolor="#666666"
     borderopacity="1"
     objecttolerance="10"
     gridtolerance="10"
     guidetolerance="10"
     inkscape:pageopacity="0"
     inkscape:pageshadow="2"
     inkscape:window-width="1249"
     inkscape:window-height="686"
     id="namedview2993"
     showgrid="false"
     inkscape:zoom="0.72558594"
     inkscape:cx="512"
     inkscape:cy="200"
     inkscape:window-x="0"
     inkscape:window-y="0"
     inkscape:window-maximized="0"
     inkscape:current-layer="g2990" /><g
     id="g2990"
     transform="matrix(0.11019318,0,0,0.11019318,0.05509659,82.588545)"><linearGradient
       id="SVGID_1_"
       gradientUnits="userSpaceOnUse"
       x1="6.6648998"
       y1="2872.7493"
       x2="5110.665"
       y2="8.7491999"
       gradientTransform="matrix(1.44025,0,0,1.0001736,3.100625,-3.600625)"><stop
         offset="0"
         style="stop-color:#37454D"
         id="stop2717" /><stop
         offset="1"
         style="stop-color:#000000"
         id="stop2719" /></linearGradient><path
       d="m 4319.11,143.12 c 6.54,-1.87 13.39,-2.01 20,-3.65 4.38,-0.84 10.02,-2.04 13.37,1.87 -59.29,41.03 -118.31,82.46 -177.48,123.66 -60.88,42.46 -121.76,84.91 -182.61,127.39 -31.71,21.94 -63.14,44.29 -94.98,66.03 -5.1,-5.96 -9.14,-12.72 -13.75,-19.04 -34.24,-49.12 -68.53,-98.21 -102.74,-147.34 -1.2,-1.59 -2.5,-3.08 -3.77,-4.55 7.71,-4.41 16.38,-6.59 24.76,-9.37 2.36,-0.44 4.84,-0.9 6.91,-2.32 5.43,-3.67 12.05,-4.59 18.1,-6.89 7.38,-2.75 15.2,-4.28 22.36,-7.68 5.33,-2.49 10.98,-4.22 16.7,-5.63 4.98,-1.46 9.87,-3.23 14.94,-4.49 6.27,-0.96 12.18,-3.35 18.27,-5.07 2.36,-0.67 4.6,-1.79 6.75,-3.03 0.5,-0.24 1.5,-0.73 2,-0.97 3.42,-0.63 6.86,-1.5 10.01,-3.12 5.16,-2.07 10.56,-3.48 15.91,-5.09 8.34,-2.26 16.45,-5.4 24.95,-7.14 2.22,0.57 4.6,0.04 6.12,-1.84 3.08,-1.35 6.29,-2.42 9.6,-3.21 3.38,-0.04 6.84,-0.55 9.66,-2.63 0.87,-0.3 1.78,-0.59 2.75,-0.87 4.38,-0.72 8.85,-1.46 12.84,-3.6 3.55,-1.62 7.33,-2.69 11.19,-3.45 2.71,-0.29 5.44,-0.93 7.99,-2.04 14.57,-4.75 29.61,-7.69 44.47,-11.32 2.62,-0.25 5.24,-0.84 7.69,-1.98 6.14,-2.46 12.72,-3.46 19.04,-5.41 6.34,-1.92 12.99,-2.53 19.44,-4.08 9.62,-2.31 19.12,-5.08 28.8,-7.18 5.34,-0.2 10.65,-1.11 15.69,-3.02 l 0.81,-0.22 c 6.87,-0.94 13.53,-2.97 20.2,-4.85 7.64,-1.5 15.19,-3.42 22.78,-5.19 2,0.88 4.32,0.66 6.09,-0.8 5.96,-1.46 11.98,-2.73 18.01,-4.01 2.21,0.55 4.55,0.17 6.58,-1.04 1.78,-0.32 3.61,-0.63 5.48,-0.94 1.98,0.82 4.27,0.42 5.78,-1.25 7.12,-3.08 15.11,-2.23 22.43,-4.68 4.29,-1.44 8.81,-1.89 13.35,-2.16 2.76,0.19 5.73,0.17 8.07,-1.66 6.52,-1.83 13.42,-1.68 19.94,-3.65 5.04,-1.49 10.42,-1.03 15.5,-2.49 z"
       id="path2752"
       inkscape:connector-curvature="0"
       style="fill:#be3e32;stroke:#be3e32" /><path
       d="m 4175,265 c 59.17,-41.2 118.19,-82.63 177.48,-123.66 1.7,3.8 -0.23,7.7 -2,11.07 -3.44,6.19 -6.63,12.54 -10.75,18.31 -3.55,5.04 -5.01,11.24 -8.96,16.01 -2.53,3.3 -4.42,7 -6.32,10.66 -2.69,5.21 -6.41,9.82 -8.86,15.16 -2.94,6.73 -8.2,12.06 -11.32,18.69 -3.3,6.79 -8.36,12.51 -11.76,19.23 -3.66,7.44 -9.11,13.79 -12.98,21.09 -4.04,8.01 -10.05,14.78 -14.36,22.62 -4.78,9.51 -11.83,17.59 -17.27,26.7 -8.4,15.52 -20.2,28.87 -28.73,44.31 -10.95,16.32 -23.01,31.9 -33.44,48.57 -5.75,8.39 -11.81,16.55 -17.53,24.96 -20.35,27.75 -41.41,54.97 -61.81,82.68 -11.85,13.31 -22.49,27.63 -33.04,41.96 -5.62,7.03 -12.24,13.2 -17.37,20.63 -5.85,6.84 -10.56,14.67 -17.17,20.84 -7.62,7.71 -12.89,17.52 -21.18,24.58 -3.73,-1.97 -5.46,-5.97 -7.84,-9.19 -34.64,-49.69 -69.29,-99.36 -103.95,-149.03 -2.96,-4.16 -5.65,-8.5 -8.99,-12.35 l 0.56,-0.42 c 31.84,-21.74 63.27,-44.09 94.98,-66.03 C 4053.24,349.91 4114.12,307.46 4175,265 Z"
       id="path2754"
       inkscape:connector-curvature="0"
       style="fill:#e84c3d;stroke:#e84c3d" /><path
       d="m 4275.6,150.92 c 2.64,-0.64 5.32,-1.21 8.07,-1.66 -2.34,1.83 -5.31,1.85 -8.07,1.66 z"
       id="path2756"
       inkscape:connector-curvature="0"
       style="fill:#855754;stroke:#855754" /><path
       d="m 3801.91,278.12 c 2.28,-0.77 4.6,-1.49 6.91,-2.32 -2.07,1.42 -4.55,1.88 -6.91,2.32 z"
       id="path2798"
       inkscape:connector-curvature="0"
       style="fill:#9da0a2;stroke:#9da0a2" /><path
       d="m 3766.52,291.34 c 3.59,-1.09 7.21,-2.2 10.63,-3.85 1.27,1.47 2.57,2.96 3.77,4.55 34.21,49.13 68.5,98.22 102.74,147.34 4.61,6.32 8.65,13.08 13.75,19.04 l -0.56,0.42 c -78.8,55.24 -157.86,110.11 -236.73,165.25 -5.8,4.13 -11.86,7.89 -17.36,12.41 l -0.59,0.43 c -6.18,-10.89 -14.2,-20.61 -21.02,-31.09 -1.82,-2.48 -3.38,-5.63 -6.56,-6.48 -24.07,-7.55 -48.03,-15.42 -72.09,-22.96 -3.88,-1.17 -7.62,-2.83 -11.6,-3.49 -3.33,0.16 -6.41,1.55 -9.52,2.51 -25.69,8.26 -51.43,16.36 -77.09,24.69 -3.74,0.96 -5.65,4.53 -7.88,7.31 -14.99,19.33 -30.09,38.58 -45.1,57.9 -2.43,3.25 -5.48,6.13 -7.12,9.88 -0.9,4.49 -0.51,9.11 -0.76,13.67 -0.89,15.69 -1.55,31.4 -2.14,47.11 -0.17,9.88 -1.54,19.8 -0.88,29.67 7.52,12.27 16.47,23.71 24.48,35.7 l 0.43,0.62 c -124.68,86.71 -249.09,173.82 -373.74,260.58 -31.96,22.38 -64,44.65 -96,67 -2.28,1.55 -4.49,3.19 -6.66,4.87 l -0.37,-0.56 c -9.46,-13.8 -18.52,-27.89 -28.35,-41.43 -99.52,78.07 -199.12,156.04 -298.74,233.98 -9.73,-8.95 -20.54,-16.79 -32.36,-22.71 -8.97,-4.71 -18.37,-8.61 -28.2,-11.07 0.37,-2.38 1.03,-4.7 1.73,-7 -0.67,0.09 -2.02,0.27 -2.7,0.36 4.75,-0.83 6.57,-5.61 8.79,-9.26 2.31,-3.74 4.1,-7.75 5.74,-11.82 8.74,-13.75 17.6,-27.42 26.31,-41.2 11.5,-17.36 22.23,-35.28 35.5,-51.38 5.66,-7.42 11.05,-15.05 16.29,-22.77 4.63,-6.25 7.44,-13.63 12.29,-19.74 4.26,-6.6 10.48,-11.56 15.04,-17.93 3.78,-5.23 7.25,-10.67 10.88,-16.01 3.3,-4.96 8.47,-8.31 11.72,-13.31 3.76,-5.6 7.16,-11.44 11.12,-16.91 3.03,-4.26 7.48,-7.29 10.4,-11.64 1.89,-2.81 3.43,-5.86 5.6,-8.49 2.91,-3.68 6.95,-6.29 9.79,-10.05 3.32,-4.41 5.73,-9.49 9.56,-13.52 4,-4.27 8.49,-8.19 11.48,-13.3 3.87,-6.71 11.04,-10.72 14.64,-17.65 2.26,-4.59 7.16,-6.79 10.19,-10.74 3.15,-3.85 5.27,-8.65 9.53,-11.5 5.35,-3.47 7.23,-10.06 12.21,-13.93 6.08,-3.99 8.2,-11.63 14.25,-15.6 4.62,-3.14 6.07,-9.22 11.09,-11.95 4.69,-2.74 5.78,-8.78 10.43,-11.54 2.81,-1.78 4.97,-4.35 6.61,-7.22 1.63,-3.04 4.63,-4.82 7.21,-6.95 2.45,-1.99 3.58,-5.05 5.55,-7.46 2.15,-2.19 5.29,-3.24 7.16,-5.76 1.74,-2.22 2.86,-5.03 5.32,-6.63 2.55,-1.72 5.05,-3.65 6.66,-6.35 2.37,-4.25 7.14,-6.2 9.92,-10.1 2.62,-3.7 6.55,-6.13 9.42,-9.6 2.95,-3.76 7.47,-5.94 10.05,-10.04 2.49,-3.81 7.23,-5.32 9.59,-9.27 2.12,-3.55 6.01,-5.33 8.73,-8.33 3.51,-3.83 7.62,-7.06 11.12,-10.92 7.44,-5.82 13.27,-13.41 20.78,-19.17 3.5,-2.5 5.76,-6.31 9.2,-8.9 4.59,-4.05 9.5,-7.79 13.56,-12.4 2.77,-2.97 6.42,-5.1 8.55,-8.66 4.8,-1.25 7.46,-5.73 11.14,-8.68 15.69,-13.29 30.53,-27.56 46.66,-40.33 4.42,-3.53 8.92,-7 12.95,-11 7.41,-6.63 15.49,-12.45 23.15,-18.8 7.52,-5.42 13.99,-12.13 21.53,-17.55 16.57,-12.01 32.44,-24.93 48.76,-37.28 9.7,-6.92 18.84,-14.57 28.81,-21.12 30.38,-22.37 61.75,-43.33 92.95,-64.52 7.2,-5.04 14.78,-9.5 21.9,-14.66 8.62,-4.99 17.46,-9.68 25.73,-15.28 14.04,-9.94 29.4,-17.78 43.82,-27.13 9.65,-5.71 19.26,-11.52 28.98,-17.15 9.33,-4.43 17.45,-11.01 26.86,-15.31 6.98,-3.32 13.34,-7.77 20.1,-11.5 5.48,-2.32 10.77,-5.1 15.75,-8.41 6.8,-4.52 14.63,-7.15 21.58,-11.44 4.8,-3.06 10.45,-4.47 15.18,-7.68 4.38,-2.9 9.13,-5.21 13.99,-7.23 3.88,-1.57 7.12,-4.39 11.06,-5.9 5.05,-2.07 9.86,-4.69 14.68,-7.28 18.46,-8.77 36.75,-17.98 55.25,-26.69 4.84,-3.18 10.73,-4.16 15.52,-7.45 2.68,-1.74 5.71,-2.8 8.7,-3.98 2.13,-0.87 4.16,-2.02 6.25,-3.07 3.63,-1.94 7.88,-2.48 11.39,-4.74 4.45,-2.91 9.91,-3.62 14.31,-6.66 4.25,-2.9 9.76,-2.89 13.97,-5.9 4.13,-3.2 9.69,-3.16 13.99,-6.08 4.07,-2.69 8.99,-3.42 13.36,-5.5 5.44,-2.32 10.77,-4.97 16.48,-6.63 4.1,-1.15 7.49,-3.93 11.55,-5.23 5.69,-1.79 11.07,-4.4 16.6,-6.64 6.68,-2.79 13.73,-4.68 20.24,-7.95 5.79,-3.03 12.46,-3.7 18.29,-6.68 4.1,-2.12 8.27,-4.18 12.83,-5.2 z"
       id="path2802"
       inkscape:connector-curvature="0"
       style="fill:#d1d1d1;stroke:#d1d1d1" /><path
       d="m 3660.12,624.09 c 78.87,-55.14 157.93,-110.01 236.73,-165.25 3.34,3.85 6.03,8.19 8.99,12.35 34.66,49.67 69.31,99.34 103.95,149.03 2.38,3.22 4.11,7.22 7.84,9.19 -4.52,3.96 -7.93,8.97 -11.58,13.68 -2.57,3.08 -5.82,5.49 -8.34,8.59 -3.42,3.64 -5.83,8.11 -9.49,11.52 -3.45,3.22 -6.69,6.66 -9.61,10.35 -5.39,7.21 -12.45,12.97 -17.77,20.22 -2.45,3.53 -6.49,5.48 -8.91,9.01 -4.07,5.58 -9.19,10.27 -13.92,15.25 -2.27,2.43 -3.88,5.42 -6.5,7.49 -2.59,2.05 -5.16,4.21 -6.83,7.11 -2.15,3.81 -6.58,5.4 -9.04,8.92 -1.92,2.74 -3.93,5.44 -6.6,7.47 -4.4,3.19 -6.98,8.17 -11.31,11.42 -3.55,2.63 -5.36,6.91 -8.99,9.43 -4.48,3.14 -7.23,8.05 -11.61,11.28 -3.84,2.84 -6.31,7.07 -10.07,9.98 -3.59,2.75 -6.13,6.54 -9.43,9.56 -14.57,13.39 -28.43,27.54 -43.08,40.83 -3.37,3 -6.16,6.63 -9.85,9.25 -3.87,2.75 -6.62,6.7 -10.21,9.74 -3.52,3.5 -8.02,5.89 -11.11,9.81 -2.84,3.55 -6.63,6.11 -10.03,9.06 -3.72,2.92 -6.92,6.41 -10.36,9.63 -3.2,3.19 -7.11,5.52 -10.41,8.57 -3.71,2.96 -6.59,6.81 -10.39,9.64 -5.82,4.46 -11.54,9.08 -16.7,14.3 -4.99,4.8 -10.86,8.53 -16.1,13.01 -15.31,13.72 -31.96,25.86 -47.65,39.13 -13.42,10.64 -27.09,20.94 -40.58,31.48 -13.3,11.22 -27.78,20.92 -41.76,31.25 -18.19,12.77 -36,26.09 -54.42,38.52 -15.78,10.51 -31.21,21.53 -47.19,31.73 -14.66,9.87 -29.97,18.71 -44.74,28.4 -10.05,6.24 -19.76,13.01 -30.04,18.84 -6.15,3.34 -12.43,6.53 -17.97,10.83 -24.97,13.84 -49.31,28.84 -74.81,41.7 -4.19,2.45 -8.45,4.78 -12.69,7.12 -6.85,2.86 -12.79,7.39 -19.5,10.55 -7.45,3.24 -14.43,7.43 -21.57,11.24 -5.88,1.61 -10.48,5.74 -16.06,8 -4.7,2.88 -10.28,3.94 -14.69,7.32 -8.12,4.14 -16.75,7.38 -24.34,12.46 -4.34,0.82 -8.2,2.77 -11.75,5.32 -10.69,3.73 -20.28,10.04 -31.06,13.54 -3.09,1.2 -5.33,4.04 -8.64,4.68 -3.1,0.65 -6.2,1.54 -8.67,3.57 -2.67,2.27 -6.23,2.59 -9.41,3.66 -3.58,1.16 -6.02,4.63 -9.88,5.04 -3.39,0.52 -6.65,1.62 -9.34,3.75 -4.35,3.53 -10.7,2.3 -14.91,6.07 -4.18,3.9 -10.57,2.59 -14.91,6.18 -4.47,3.77 -10.84,3.03 -15.48,6.45 -3.65,2.67 -8.17,3.33 -12.41,4.48 -5.7,1.02 -10.22,5.21 -16,5.91 -5.52,0.71 -9.52,5.12 -14.87,6.25 -4.61,1.03 -9.29,2.1 -13.23,4.82 -3.82,2.64 -8.5,3.09 -12.86,4.19 -5.52,1.32 -9.89,5.49 -15.54,6.4 -4.72,0.81 -9.38,2.06 -13.53,4.48 -5.68,3.28 -12.29,3.9 -18.5,5.53 -5.01,1.25 -9.14,4.64 -14.12,5.93 -5.69,1.53 -11.68,2.21 -16.97,4.96 -5.18,2.71 -10.77,4.53 -16.52,5.52 -8.74,1.83 -18.46,3.53 -24.96,10.17 -5.28,1.79 -10.94,1.89 -16.26,3.47 -9,2.01 -17.11,6.62 -26.02,8.88 -6.34,2.03 -12.98,2.64 -19.44,4 -8.07,1.98 -16.22,3.73 -24.03,6.6 -11.33,3.56 -22.76,6.81 -34.23,9.83 -25.24,5.58 -50.39,11.6 -75.76,16.56 -1.81,0.55 -4.23,0.63 -5.07,2.6 -8.3,18.16 -16.17,36.52 -24.27,54.76 -12.32,28.03 -24.95,55.9 -37.1,84 -3.57,6.67 -5.76,13.95 -9.32,20.63 -3.15,7.16 -6.06,14.42 -9.71,21.35 -31.27,21.27 -62.14,43.13 -93.25,64.63 -117.22,81.53 -234.45,163.04 -351.67,244.57 -59.9,41.68 -119.87,83.26 -179.71,125.03 -120.32,83.47 -240.45,167.22 -360.73,250.75 -7.75,5.43 -15.55,10.79 -23.28,16.26 -52.99,36.73 -105.88,73.61 -158.82,110.4 12.97,27.6 22.22,57.2 24.92,87.67 2.67,23.53 1,47.29 -2.52,70.64 -3.07,17.75 -8.23,35.11 -14.82,51.87 -13.52,32.4 -33.19,62.32 -58.48,86.75 -13.52,13.06 -28.39,24.76 -44.47,34.52 -4.36,2.4 -8.61,4.99 -12.93,7.48 4.09,7.04 9.77,13.01 13.79,20.13 16.99,26.41 29.07,55.9 35.57,86.62 H 426.38 c 13.64,-10.35 27.99,-19.74 41.92,-29.69 527.39,-368.28 1054.72,-736.63 1582.1,-1104.9 5.47,-3.03 9.72,-8.62 16.14,-9.64 -15.81,22.44 -32.4,44.32 -47.57,67.21 -3.06,4.96 -6.87,9.91 -7.09,16 4.53,-0.38 8.78,-2.15 12.68,-4.41 19.63,-10.86 38.59,-22.87 58.12,-33.9 70.46,-40.7 144.65,-75.06 221.63,-101.51 20.2,-7.08 40.78,-13 61.01,-20.03 69.86,-24.14 137.1,-58.13 193.82,-105.99 28.34,-24 53.98,-51.38 74.92,-82.11 5.61,-8.38 11.27,-16.78 15.91,-25.75 -2.85,-3.12 -2.12,-7.45 -2.08,-11.28 0.26,-9.44 -0.95,-18.84 -2.49,-28.12 -1.75,-10.19 -5.34,-19.89 -8.65,-29.63 65.42,-39.99 130.48,-80.58 195.79,-120.76 41.87,-25.94 83.82,-51.78 125.71,-77.69 -9.4,-14.71 -19.72,-28.81 -29.33,-43.38 2.17,-1.68 4.38,-3.32 6.66,-4.87 32,-22.35 64.04,-44.62 96,-67 124.65,-86.76 249.06,-173.87 373.74,-260.58 8.06,11.52 16.09,23.08 24.13,34.62 1.16,1.95 3.23,2.98 5.38,3.62 23.8,7.43 47.49,15.21 71.29,22.67 3.93,1.14 7.73,3.01 11.87,3.41 7.63,-1.74 14.92,-4.74 22.46,-6.91 21.25,-6.78 42.5,-13.61 63.79,-20.33 3.37,-0.86 5.06,-4.18 7.15,-6.66 14.26,-18.4 28.62,-36.72 42.9,-55.11 3.18,-4.66 7.71,-8.55 9.98,-13.76 1.67,-28.49 2.29,-57.06 3.89,-85.57 0.05,-2.08 0.21,-4.32 -1.05,-6.09 -7.98,-11.87 -16.61,-23.32 -24.35,-35.36 5.5,-4.52 11.56,-8.28 17.36,-12.41 z"
       id="path2822"
       inkscape:connector-curvature="0"
       style="fill:#ffffff;stroke:#ffffff" /><path
       d="m 3521.38,575.42 c 3.11,-0.96 6.19,-2.35 9.52,-2.51 3.98,0.66 7.72,2.32 11.6,3.49 24.06,7.54 48.02,15.41 72.09,22.96 3.18,0.85 4.74,4 6.56,6.48 6.82,10.48 14.84,20.2 21.02,31.09 -6.3,4.25 -13,8.03 -18.52,13.29 l -0.63,0.39 c -3.53,-7.58 -9.27,-13.83 -13.75,-20.83 -3.07,-3.87 -4.89,-9.5 -10.09,-10.97 -20.98,-6.78 -42.02,-13.4 -63.02,-20.12 -3,-0.98 -6.23,-2.04 -9.3,-0.85 -19.93,6.45 -39.91,12.8 -59.87,19.17 -4.94,1.69 -10.92,2.23 -14.18,6.8 -14.66,18.97 -29.43,37.85 -44.2,56.73 -2.31,3.12 -1.9,7.2 -2.21,10.86 -0.71,19.21 -1.59,38.4 -2.51,57.6 -0.05,4.39 -0.97,9.36 2.02,13.07 6.21,8.66 12.15,17.51 18.43,26.12 l 0.43,0.61 c -7.05,3.53 -12.64,9.37 -19.88,12.55 -8.01,-11.99 -16.96,-23.43 -24.48,-35.7 -0.66,-9.87 0.71,-19.79 0.88,-29.67 0.59,-15.71 1.25,-31.42 2.14,-47.11 0.25,-4.56 -0.14,-9.18 0.76,-13.67 1.64,-3.75 4.69,-6.63 7.12,-9.88 15.01,-19.32 30.11,-38.57 45.1,-57.9 2.23,-2.78 4.14,-6.35 7.88,-7.31 25.66,-8.33 51.4,-16.43 77.09,-24.69 z"
       id="path2830"
       inkscape:connector-curvature="0"
       style="fill:#585858;stroke:#585858" /><path
       d="m 3526.86,597.84 c 3.07,-1.19 6.3,-0.13 9.3,0.85 21,6.72 42.04,13.34 63.02,20.12 5.2,1.47 7.02,7.1 10.09,10.97 4.48,7 10.22,13.25 13.75,20.83 -3.64,1.21 -6.94,3.14 -9.89,5.52 -48.69,33.99 -97.42,67.93 -146.11,101.93 -14.13,10.18 -28.85,19.55 -42.68,30.13 -6.28,-8.61 -12.22,-17.46 -18.43,-26.12 -2.99,-3.71 -2.07,-8.68 -2.02,-13.07 0.92,-19.2 1.8,-38.39 2.51,-57.6 0.31,-3.66 -0.1,-7.74 2.21,-10.86 14.77,-18.88 29.54,-37.76 44.2,-56.73 3.26,-4.57 9.24,-5.11 14.18,-6.8 19.96,-6.37 39.94,-12.72 59.87,-19.17 z"
       id="path2834"
       inkscape:connector-curvature="0"
       style="fill:#273546;stroke:#273546" /><path
       d="m 3623.65,650.22 c 5.52,-5.26 12.22,-9.04 18.52,-13.29 l 0.59,-0.43 c 7.74,12.04 16.37,23.49 24.35,35.36 1.26,1.77 1.1,4.01 1.05,6.09 -1.6,28.51 -2.22,57.08 -3.89,85.57 -2.27,5.21 -6.8,9.1 -9.98,13.76 -14.28,18.39 -28.64,36.71 -42.9,55.11 -2.09,2.48 -3.78,5.8 -7.15,6.66 -21.29,6.72 -42.54,13.55 -63.79,20.33 -7.54,2.17 -14.83,5.17 -22.46,6.91 -4.14,-0.4 -7.94,-2.27 -11.87,-3.41 -23.8,-7.46 -47.49,-15.24 -71.29,-22.67 -2.15,-0.64 -4.22,-1.67 -5.38,-3.62 -8.04,-11.54 -16.07,-23.1 -24.13,-34.62 l -0.43,-0.62 c 7.24,-3.18 12.83,-9.02 19.88,-12.55 6.29,9.46 12.96,18.67 19.37,28.06 1.8,2.92 5.35,3.61 8.4,4.64 20.51,6.4 40.94,13.06 61.42,19.59 2.36,0.8 4.95,1.07 7.41,0.25 20.9,-6.78 41.84,-13.43 62.78,-20.1 3.99,-1.32 8.64,-2.16 11.25,-5.84 14.57,-18.77 29.22,-37.49 43.84,-56.22 3.52,-4.25 2.41,-10.09 2.78,-15.18 0.88,-20.01 1.69,-40.03 2.66,-60.04 0.21,-2.41 -0.67,-4.7 -2.07,-6.6 -6.4,-8.99 -12.76,-18.01 -18.96,-27.14 z"
       id="path2842"
       inkscape:connector-curvature="0"
       style="fill:#6b6b6b;stroke:#6b6b6b" /><path
       d="m 3613.13,656.13 c 2.95,-2.38 6.25,-4.31 9.89,-5.52 l 0.63,-0.39 c 6.2,9.13 12.56,18.15 18.96,27.14 1.4,1.9 2.28,4.19 2.07,6.6 -0.97,20.01 -1.78,40.03 -2.66,60.04 -0.37,5.09 0.74,10.93 -2.78,15.18 -14.62,18.73 -29.27,37.45 -43.84,56.22 -2.61,3.68 -7.26,4.52 -11.25,5.84 -20.94,6.67 -41.88,13.32 -62.78,20.1 -2.46,0.82 -5.05,0.55 -7.41,-0.25 -20.48,-6.53 -40.91,-13.19 -61.42,-19.59 -3.05,-1.03 -6.6,-1.72 -8.4,-4.64 -6.41,-9.39 -13.08,-18.6 -19.37,-28.06 l -0.43,-0.61 c 13.83,-10.58 28.55,-19.95 42.68,-30.13 48.69,-34 97.42,-67.94 146.11,-101.93 z"
       id="path2846"
       inkscape:connector-curvature="0"
       style="fill:#2f4155;stroke:#2f4155" /><path
       d="m 2768.06,955.6 c 6.32,-0.13 12.6,-1.53 18.95,-0.76 -4.98,3.87 -6.86,10.46 -12.21,13.93 -4.26,2.85 -6.38,7.65 -9.53,11.5 -3.03,3.95 -7.93,6.15 -10.19,10.74 -3.6,6.93 -10.77,10.94 -14.64,17.65 -2.99,5.11 -7.48,9.03 -11.48,13.3 -3.83,4.03 -6.24,9.11 -9.56,13.52 -2.84,3.76 -6.88,6.37 -9.79,10.05 -2.17,2.63 -3.71,5.68 -5.6,8.49 -2.92,4.35 -7.37,7.38 -10.4,11.64 -3.96,5.47 -7.36,11.31 -11.12,16.91 -3.25,5 -8.42,8.35 -11.72,13.31 -3.63,5.34 -7.1,10.78 -10.88,16.01 -4.56,6.37 -10.78,11.33 -15.04,17.93 -4.85,6.11 -7.66,13.49 -12.29,19.74 -5.24,7.72 -10.63,15.35 -16.29,22.77 -13.27,16.1 -24,34.02 -35.5,51.38 -8.71,13.78 -17.57,27.45 -26.31,41.2 -6.17,-0.95 -12.27,0.61 -18.42,0.66 -40.57,2.41 -81.11,5.15 -121.68,7.74 -9.36,0.58 -18.75,0.97 -28.05,2.21 -27.48,0.92 -54.89,3.52 -82.35,4.9 -59.41,3.94 -118.84,7.56 -178.23,11.5 -17.21,1.55 -34.57,1.44 -51.75,3.47 -33.34,1.97 -66.65,4.18 -99.98,6.32 -19.07,1.48 -38.2,2.11 -57.26,3.85 0.63,-0.61 1.31,-1.17 2.04,-1.68 39.44,-20.07 78.7,-40.61 118.06,-60.89 16.28,-8.89 33.22,-16.53 49.42,-25.58 20.45,-10.34 40.74,-20.98 61.07,-31.57 92.1,-47.33 183.95,-95.14 276.02,-142.54 8.26,-4.4 16.73,-8.44 24.78,-13.25 21.22,-10.18 41.9,-21.49 62.97,-32 6.29,-2.83 11.88,-6.99 18.27,-9.66 11.11,-5.48 21.95,-11.52 33.04,-17.06 2.43,-1.19 4.87,-2.59 7.63,-2.9 13.38,-1.49 26.89,-1.37 40.25,-3.06 4.24,-0.21 8.49,-0.29 12.76,-0.53 48.34,-3.04 96.66,-6.32 145.01,-9.24 z"
       id="path2880"
       inkscape:connector-curvature="0"
       style="fill:#be3e32;stroke:#be3e32" /><path
       d="m 0,974.54 c 42.07,38.37 83.1,77.86 124.54,116.91 15.06,14.94 30.53,29.45 45.64,44.33 29.33,28 57.99,56.7 86.74,85.3 12.06,11.6 23.91,23.42 35.57,35.43 25.25,25.74 50.72,51.27 75.86,77.12 26.11,27.23 52.39,54.29 78.4,81.62 24.52,26.13 49.11,52.2 73.6,78.36 24.77,26.92 49.46,53.91 74.22,80.84 20.88,23.11 41.57,46.4 62.4,69.56 25.13,27.9 49.61,56.37 74.39,84.58 27.99,31.77 55.19,64.22 82.74,96.36 5.32,5.77 9.72,12.42 15.76,17.48 l -0.59,0.43 c -6.28,4.07 -12.25,8.6 -17.87,13.53 -8,6.98 -16.19,13.82 -23.06,21.96 -3.45,3.53 -6.15,7.84 -10.12,10.84 -3.46,1.57 -7.39,1.38 -11.07,2 -44.49,6.23 -87.09,24.79 -122.27,52.67 -2.19,2.18 -5.3,1.98 -8.09,1.36 -23.23,-5 -47.22,-5.37 -70.85,-3.82 -37,3.25 -73.33,14.47 -105.5,33.08 -11.99,7.1 -23.82,14.65 -34.37,23.81 -1.03,-0.55 -2.07,-1.06 -3.1,-1.54 1.74,-4.4 2.63,-9.07 3.07,-13.75 0.69,-8.1 3,-15.96 3.73,-24.05 0.77,-9.08 3.3,-17.9 4.11,-26.97 0.8,-8.75 3.23,-17.25 4,-25.99 0.71,-8.13 2.95,-16.02 3.77,-24.12 0.67,-6.95 2.23,-13.78 2.77,-20.74 0.08,-2.07 0.57,-4.29 -0.4,-6.19 -64.54,-111.44 -128.87,-223.01 -193.44,-334.44 -1.61,-2.68 -2.88,-5.72 -5.35,-7.72 -3.28,-2.16 -7.21,-2.95 -10.84,-4.28 -68.71,-24.69 -137.53,-49.04 -206.26,-73.68 -9.42,-3.03 -18.49,-7.06 -28.13,-9.39 z"
       id="path2882"
       inkscape:connector-curvature="0"
       style="fill:#3d838e;stroke:#3d838e" /><path
       d="m 2601.46,1326.41 c 99.62,-77.94 199.22,-155.91 298.74,-233.98 9.83,13.54 18.89,27.63 28.35,41.43 -5.44,4.95 -11.86,8.6 -17.74,12.97 -97.95,68.29 -195.85,136.67 -293.84,204.92 l -0.64,0.44 c -5.75,-7.96 -11.68,-15.83 -16.74,-24.24 0.46,-0.38 1.4,-1.16 1.87,-1.54 z"
       id="path2890"
       inkscape:connector-curvature="0"
       style="fill:#be3e32;stroke:#be3e32" /><path
       d="m 2928.55,1133.86 0.37,0.56 c 9.61,14.57 19.93,28.67 29.33,43.38 -41.89,25.91 -83.84,51.75 -125.71,77.69 -65.31,40.18 -130.37,80.77 -195.79,120.76 -0.74,0.39 -1.44,0.81 -2.1,1.26 -5.17,-9.05 -11.54,-17.36 -17.68,-25.76 97.99,-68.25 195.89,-136.63 293.84,-204.92 5.88,-4.37 12.3,-8.02 17.74,-12.97 z"
       id="path2892"
       inkscape:connector-curvature="0"
       style="fill:#e84c3d;stroke:#e84c3d" /><path
       d="m 2536.04,1265.57 c 6.15,-0.05 12.25,-1.61 18.42,-0.66 -1.64,4.07 -3.43,8.08 -5.74,11.82 -2.22,3.65 -4.04,8.43 -8.79,9.26 -23.81,4.64 -47.19,11.27 -70.32,18.53 -15.9,4.78 -31.34,11.12 -45.79,19.31 -29.09,16.45 -55.06,37.84 -79.23,60.77 -28.87,27.55 -55.36,57.47 -80.88,88.1 -48.75,58.79 -94.07,120.32 -138.86,182.15 -19.59,26.86 -38.66,54.1 -58.31,80.92 -6.42,1.02 -10.67,6.61 -16.14,9.64 -527.38,368.27 -1054.71,736.62 -1582.1,1104.9 -13.93,9.95 -28.28,19.34 -41.92,29.69 H 0 v -825.08 c 17.44,-5.59 35.69,-8.41 53.92,-9.74 40.51,-2.78 81.72,3.78 119.03,19.93 38.18,16.21 72,42.12 98.2,74.24 7.72,-5.24 14.57,-11.65 22.3,-16.89 15.7,-10.62 32.26,-20.15 49.94,-27.09 13.51,-5.73 27.67,-9.63 41.88,-13.18 32.37,-6.65 65.99,-7.54 98.59,-1.99 3.5,0.42 7.09,1.95 10.62,1.21 5.53,-3.27 10.16,-7.87 15.55,-11.37 16.03,-10.65 32.88,-20.2 50.82,-27.24 18.96,-7.7 38.93,-12.96 59.2,-15.73 4.16,-0.77 9.27,-0.19 12.31,-3.69 22.96,-27.26 51.7,-49.63 83.74,-65.21 52.51,-25.76 113.94,-32.16 170.82,-18.96 9.52,2.19 18.77,5.36 28.17,8 7.43,3.67 15.31,6.32 22.74,10.01 31.52,15.08 60.15,36.44 82.95,62.99 1.31,1.43 2.72,2.78 4.13,4.15 9.95,-12.13 20.32,-23.96 32.07,-34.38 42.15,-37.87 97.19,-61.55 153.89,-64.59 16.36,-1.84 32.79,-0.17 49.12,1.06 27.15,3.61 53.83,11.22 78.53,23.1 14.92,7.06 28.89,15.97 42.42,25.38 56.4,-39.29 112.92,-78.42 169.27,-117.79 0.92,-0.67 1.86,-1.31 2.82,-1.92 38.37,-26.72 76.85,-53.26 115.1,-80.14 129.01,-89.42 257.75,-179.23 386.69,-268.74 95.81,-66.72 191.72,-133.31 287.56,-199.99 14.61,-10.33 29.55,-20.2 43.93,-30.83 9.3,-1.24 18.69,-1.63 28.05,-2.21 40.57,-2.59 81.11,-5.33 121.68,-7.74 z"
       id="path2902"
       inkscape:connector-curvature="0"
       style="fill:#f2f2f2;stroke:#f2f2f2" /><path
       d="m 2469.61,1304.52 c 23.13,-7.26 46.51,-13.89 70.32,-18.53 0.68,-0.09 2.03,-0.27 2.7,-0.36 -0.7,2.3 -1.36,4.62 -1.73,7 9.83,2.46 19.23,6.36 28.2,11.07 -8.46,2.67 -16.41,6.62 -24.67,9.77 -11.39,4.54 -22.53,9.97 -34.63,12.35 -19.02,4.2 -37.68,9.79 -56.16,15.88 -8.78,3.17 -17.69,6.29 -25.59,11.36 -11.9,7.56 -23.35,15.83 -34.37,24.63 -13.6,10.61 -25.34,23.31 -37.52,35.45 -25.2,25.93 -48.63,53.52 -71.49,81.51 -59.02,73.01 -113.71,149.36 -168.38,225.64 -3.79,5.52 -8.11,10.69 -11.42,16.53 15.7,-7.83 30.94,-16.56 46.69,-24.3 54.23,-27.7 110.57,-51.27 168.3,-70.65 16.78,-5.68 33.79,-10.67 50.53,-16.47 22.34,-7.71 44.36,-16.36 65.86,-26.18 29.98,-13.01 57.58,-30.84 83.9,-50.09 8.15,-6.11 16.21,-12.38 23.9,-19.08 12.81,-11.86 24.62,-24.78 35.78,-38.21 11.34,-13.66 21.04,-28.59 30.4,-43.65 3.08,-4.49 7.47,-7.87 10.75,-12.21 5.02,-6.58 10.58,-12.71 16.28,-18.7 3,-3.54 7.21,-6.58 8.14,-11.4 1.54,9.28 2.75,18.68 2.49,28.12 -0.04,3.83 -0.77,8.16 2.08,11.28 -4.64,8.97 -10.3,17.37 -15.91,25.75 -20.94,30.73 -46.58,58.11 -74.92,82.11 -56.72,47.86 -123.96,81.85 -193.82,105.99 -20.23,7.03 -40.81,12.95 -61.01,20.03 -76.98,26.45 -151.17,60.81 -221.63,101.51 -19.53,11.03 -38.49,23.04 -58.12,33.9 -3.9,2.26 -8.15,4.03 -12.68,4.41 0.22,-6.09 4.03,-11.04 7.09,-16 15.17,-22.89 31.76,-44.77 47.57,-67.21 19.65,-26.82 38.72,-54.06 58.31,-80.92 44.79,-61.83 90.11,-123.36 138.86,-182.15 25.52,-30.63 52.01,-60.55 80.88,-88.1 24.17,-22.93 50.14,-44.32 79.23,-60.77 14.45,-8.19 29.89,-14.53 45.79,-19.31 z"
       id="path2906"
       inkscape:connector-curvature="0"
       style="fill:#3cb4f2;stroke:#3cb4f2" /><path
       d="m 2544.43,1313.47 c 8.26,-3.15 16.21,-7.1 24.67,-9.77 11.82,5.92 22.63,13.76 32.36,22.71 -0.47,0.38 -1.41,1.16 -1.87,1.54 -132.92,103.95 -265.7,208.07 -398.57,312.07 -1.48,1.24 -2.87,2.57 -4.31,3.84 -6.19,3.98 -11.63,8.96 -17.57,13.27 -2.49,1.83 -4.9,3.75 -7.14,5.87 6.82,-2.79 12.52,-7.55 18.93,-11.11 131.83,-81.48 263.7,-162.92 395.54,-244.4 16.04,-10.01 32.3,-19.7 48.18,-29.98 0.66,-0.45 1.36,-0.87 2.1,-1.26 3.31,9.74 6.9,19.44 8.65,29.63 -0.93,4.82 -5.14,7.86 -8.14,11.4 -5.7,5.99 -11.26,12.12 -16.28,18.7 -3.28,4.34 -7.67,7.72 -10.75,12.21 -9.36,15.06 -19.06,29.99 -30.4,43.65 -11.16,13.43 -22.97,26.35 -35.78,38.21 -7.69,6.7 -15.75,12.97 -23.9,19.08 -26.32,19.25 -53.92,37.08 -83.9,50.09 -21.5,9.82 -43.52,18.47 -65.86,26.18 -16.74,5.8 -33.75,10.79 -50.53,16.47 -57.73,19.38 -114.07,42.95 -168.3,70.65 -15.75,7.74 -30.99,16.47 -46.69,24.3 3.31,-5.84 7.63,-11.01 11.42,-16.53 54.67,-76.28 109.36,-152.63 168.38,-225.64 22.86,-27.99 46.29,-55.58 71.49,-81.51 12.18,-12.14 23.92,-24.84 37.52,-35.45 11.02,-8.8 22.47,-17.07 34.37,-24.63 7.9,-5.07 16.81,-8.19 25.59,-11.36 18.48,-6.09 37.14,-11.68 56.16,-15.88 12.1,-2.38 23.24,-7.81 34.63,-12.35 z"
       id="path2908"
       inkscape:connector-curvature="0"
       style="fill:#4172fd;stroke:#4172fd" /><path
       d="m 3038.92,1331.75 c 5.78,-0.7 10.3,-4.89 16,-5.91 -2.92,1.3 -5.36,3.36 -7.85,5.29 -4.95,1.93 -10.65,1.69 -15.09,4.88 -4.54,3.35 -10.32,3.58 -15.44,5.48 -4.35,1.51 -7.77,5.16 -12.49,5.63 -5.25,0.56 -10.08,2.75 -14.57,5.38 -3.35,2.03 -7.29,2.46 -11.03,3.23 -4.21,0.84 -7.83,3.26 -11.66,5.04 -3.47,1.62 -7.27,2.23 -10.96,3.01 -4.97,0.72 -9.71,2.51 -13.98,5.1 -4.2,2.57 -9.14,3.17 -13.85,4.1 -5.65,1.06 -10.52,4.26 -15.8,6.3 -6.26,2.5 -13.17,2.36 -19.55,4.44 -5.21,1.47 -9.71,4.62 -14.83,6.28 6.5,-6.64 16.22,-8.34 24.96,-10.17 5.75,-0.99 11.34,-2.81 16.52,-5.52 5.29,-2.75 11.28,-3.43 16.97,-4.96 4.98,-1.29 9.11,-4.68 14.12,-5.93 6.21,-1.63 12.82,-2.25 18.5,-5.53 4.15,-2.42 8.81,-3.67 13.53,-4.48 5.65,-0.91 10.02,-5.08 15.54,-6.4 4.36,-1.1 9.04,-1.55 12.86,-4.19 3.94,-2.72 8.62,-3.79 13.23,-4.82 5.35,-1.13 9.35,-5.54 14.87,-6.25 z"
       id="path2914"
       inkscape:connector-curvature="0"
       style="fill:#c8b4b2;stroke:#c8b4b2" /><path
       d="m 2201.02,1640.02 c 132.87,-104 265.65,-208.12 398.57,-312.07 5.06,8.41 10.99,16.28 16.74,24.24 -136.69,95.36 -273.39,190.71 -410.1,286.06 -2.95,2.22 -6.18,4.05 -9.52,5.61 1.44,-1.27 2.83,-2.6 4.31,-3.84 z"
       id="path2916"
       inkscape:connector-curvature="0"
       style="fill:#c15a50;stroke:#c15a50" /><path
       d="m 3031.98,1336.01 c 4.44,-3.19 10.14,-2.95 15.09,-4.88 -1.07,5.31 -3.84,10 -6.01,14.9 -16.97,38.92 -34.4,77.61 -51.41,116.51 -8.3,18.18 -16.16,36.56 -24.31,54.81 -2.69,4.7 -3.67,10.46 -7.63,14.36 -35.4,32.39 -70.83,64.76 -106.19,97.2 -42.91,38.95 -85.37,78.37 -128.32,117.27 -13.82,13.2 -28.3,25.68 -42.19,38.8 -5.47,5.48 -11.74,10.11 -16.97,15.84 -13.64,11.71 -26.66,24.15 -40,36.21 -38.19,35.08 -76.62,69.91 -114.71,105.1 -21.09,18.96 -41.86,38.27 -62.83,57.36 -7.55,6.44 -14.38,13.68 -21.95,20.1 -1.09,0.85 -2.39,1.37 -3.59,1.98 1.06,-4.42 2.87,-8.59 4.97,-12.6 16.93,-38.03 33.58,-76.19 50.68,-114.14 8.25,-4.45 14.19,-11.96 21.24,-17.97 6.06,-4.92 11.25,-10.79 17.3,-15.73 7.79,-7.55 16.1,-14.54 23.97,-22.02 7.32,-6.33 14.04,-13.33 21.51,-19.5 9.6,-9.07 19.3,-18.02 29.12,-26.85 7.39,-7.66 16.02,-13.96 23.51,-21.5 18.62,-16.69 36.66,-34.03 55.45,-50.55 6.43,-6.6 13.67,-12.32 20.33,-18.67 5.34,-4.65 10.05,-9.98 15.5,-14.51 7.51,-6.12 14.11,-13.26 21.61,-19.39 7.7,-7.66 16.08,-14.56 23.93,-22.06 44.2,-40.47 88.37,-80.96 132.63,-121.37 3.45,-3.26 7.29,-6.41 9.09,-10.95 17.05,-37.73 33.18,-75.85 50.41,-113.5 4.82,-12.32 11.28,-23.96 15.61,-36.46 -0.5,0 -1.49,-0.01 -1.99,-0.02 3.69,-0.78 7.49,-1.39 10.96,-3.01 3.83,-1.78 7.45,-4.2 11.66,-5.04 3.74,-0.77 7.68,-1.2 11.03,-3.23 4.49,-2.63 9.32,-4.82 14.57,-5.38 4.72,-0.47 8.14,-4.12 12.49,-5.63 5.12,-1.9 10.9,-2.13 15.44,-5.48 z"
       id="path2920"
       inkscape:connector-curvature="0"
       style="fill:#e84c3d;stroke:#e84c3d" /><path
       d="m 2616.33,1352.19 0.64,-0.44 c 6.14,8.4 12.51,16.71 17.68,25.76 -15.88,10.28 -32.14,19.97 -48.18,29.98 -131.84,81.48 -263.71,162.92 -395.54,244.4 -6.41,3.56 -12.11,8.32 -18.93,11.11 2.24,-2.12 4.65,-4.04 7.14,-5.87 5.94,-4.31 11.38,-9.29 17.57,-13.27 3.34,-1.56 6.57,-3.39 9.52,-5.61 136.71,-95.35 273.41,-190.7 410.1,-286.06 z"
       id="path2926"
       inkscape:connector-curvature="0"
       style="fill:#ec6e62;stroke:#ec6e62" /><path
       d="m 2941.85,1368.88 c 4.27,-2.59 9.01,-4.38 13.98,-5.1 0.5,0.01 1.49,0.02 1.99,0.02 -4.33,12.5 -10.79,24.14 -15.61,36.46 -17.23,37.65 -33.36,75.77 -50.41,113.5 -1.8,4.54 -5.64,7.69 -9.09,10.95 -44.26,40.41 -88.43,80.9 -132.63,121.37 -7.85,7.5 -16.23,14.4 -23.93,22.06 -7.5,6.13 -14.1,13.27 -21.61,19.39 -5.45,4.53 -10.16,9.86 -15.5,14.51 -6.66,6.35 -13.9,12.07 -20.33,18.67 -18.79,16.52 -36.83,33.86 -55.45,50.55 -7.49,7.54 -16.12,13.84 -23.51,21.5 -9.82,8.83 -19.52,17.78 -29.12,26.85 -7.47,6.17 -14.19,13.17 -21.51,19.5 -7.87,7.48 -16.18,14.47 -23.97,22.02 -6.05,4.94 -11.24,10.81 -17.3,15.73 -7.05,6.01 -12.99,13.52 -21.24,17.97 16.2,-36.54 32.14,-73.2 48.55,-109.65 17.13,-39.11 34.5,-78.1 51.88,-117.1 6.15,-15.29 13.93,-29.93 19.57,-45.4 3.65,-6.93 6.56,-14.19 9.71,-21.35 3.56,-6.68 5.75,-13.96 9.32,-20.63 12.15,-28.1 24.78,-55.97 37.1,-84 8.1,-18.24 15.97,-36.6 24.27,-54.76 0.84,-1.97 3.26,-2.05 5.07,-2.6 25.37,-4.96 50.52,-10.98 75.76,-16.56 11.47,-3.02 22.9,-6.27 34.23,-9.83 7.81,-2.87 15.96,-4.62 24.03,-6.6 6.46,-1.36 13.1,-1.97 19.44,-4 8.91,-2.26 17.02,-6.87 26.02,-8.88 5.32,-1.58 10.98,-1.68 16.26,-3.47 5.12,-1.66 9.62,-4.81 14.83,-6.28 6.38,-2.08 13.29,-1.94 19.55,-4.44 5.28,-2.04 10.15,-5.24 15.8,-6.3 4.71,-0.93 9.65,-1.53 13.85,-4.1 z"
       id="path2928"
       inkscape:connector-curvature="0"
       style="fill:#c74134;stroke:#c74134" /><path
       d="m 0,1425.43 c 9.64,2.33 18.71,6.36 28.13,9.39 68.73,24.64 137.55,48.99 206.26,73.68 3.63,1.33 7.56,2.12 10.84,4.28 2.47,2 3.74,5.04 5.35,7.72 64.57,111.43 128.9,223 193.44,334.44 0.97,1.9 0.48,4.12 0.4,6.19 -0.54,6.96 -2.1,13.79 -2.77,20.74 -0.82,8.1 -3.06,15.99 -3.77,24.12 -0.77,8.74 -3.2,17.24 -4,25.99 -0.81,9.07 -3.34,17.89 -4.11,26.97 -0.73,8.09 -3.04,15.95 -3.73,24.05 -0.44,4.68 -1.33,9.35 -3.07,13.75 1.03,0.48 2.07,0.99 3.1,1.54 -2.1,1.91 -4.42,3.57 -6.86,5.05 -1.41,-1.47 -2.85,-2.89 -4.21,-4.36 -6.19,-8.37 -13.95,-15.38 -21.31,-22.67 -24.97,-22.96 -54.47,-41.05 -86.4,-52.55 -43.56,-15.84 -91.44,-19.27 -136.89,-10.43 -35.42,6.87 -69.29,21.46 -98.64,42.42 -2.87,2.04 -5.83,5.04 -9.7,4.17 -20.5,-3.14 -41.36,-4.3 -62.06,-2.57 z"
       id="path2930"
       inkscape:connector-curvature="0"
       style="fill:#479a8d;stroke:#479a8d" /><path
       d="m 1349.69,1789.88 c 25.13,-2.41 50.65,-1.54 75.47,3.2 30.94,6.51 61.12,17.73 87.67,35.07 13.65,8.02 25.8,18.25 37.38,28.99 -56.35,39.37 -112.87,78.5 -169.27,117.79 -13.53,-9.41 -27.5,-18.32 -42.42,-25.38 -24.7,-11.88 -51.38,-19.49 -78.53,-23.1 -16.33,-1.23 -32.76,-2.9 -49.12,-1.06 -56.7,3.04 -111.74,26.72 -153.89,64.59 -11.75,10.42 -22.12,22.25 -32.07,34.38 -1.41,-1.37 -2.82,-2.72 -4.13,-4.15 -22.8,-26.55 -51.43,-47.91 -82.95,-62.99 -7.43,-3.69 -15.31,-6.34 -22.74,-10.01 -3.13,-6.05 -8.2,-10.71 -12.24,-16.1 -24.49,-29.45 -48.97,-58.91 -73.58,-88.25 l 0.59,-0.43 c 6.31,-5.12 13.61,-8.79 20.5,-13.05 19.7,-11.41 41.17,-19.42 63.11,-25.34 4.28,-0.93 8.55,-1.9 12.84,-2.8 7.48,-1.65 15.17,-1.85 22.69,-3.27 14.26,-1.51 28.67,-1.85 42.99,-0.91 9.1,0.21 18.01,2.21 27.06,3.03 29.43,4.93 57.9,15.26 83.8,30.03 8.79,5.52 17.88,10.6 26.13,16.93 11.03,8.51 21.39,17.88 31.05,27.91 4.73,4.08 8.09,9.46 12.83,13.53 6.74,-7.79 13.13,-15.91 20.61,-23.02 7.13,-6.88 13.63,-14.5 21.76,-20.27 7.75,-6.79 16.47,-12.32 25.2,-17.76 26.23,-17.08 56.05,-28.07 86.63,-34.34 7.48,-1.49 15.11,-1.94 22.63,-3.22 z"
       id="path2946"
       inkscape:connector-curvature="0"
       style="fill:#9da0a2;stroke:#9da0a2" /><path
       d="m 811.4,1856.39 c 5.62,-4.93 11.59,-9.46 17.87,-13.53 24.61,29.34 49.09,58.8 73.58,88.25 4.04,5.39 9.11,10.05 12.24,16.1 -9.4,-2.64 -18.65,-5.81 -28.17,-8 -56.88,-13.2 -118.31,-6.8 -170.82,18.96 -32.04,15.58 -60.78,37.95 -83.74,65.21 -3.04,3.5 -8.15,2.92 -12.31,3.69 -20.27,2.77 -40.24,8.03 -59.2,15.73 -17.94,7.04 -34.79,16.59 -50.82,27.24 -5.39,3.5 -10.02,8.1 -15.55,11.37 -3.53,0.74 -7.12,-0.79 -10.62,-1.21 -32.6,-5.55 -66.22,-4.66 -98.59,1.99 -2.38,-0.75 -4.83,-1.34 -7.34,-1.04 3.55,-6.86 6.6,-13.98 10.67,-20.55 4.98,-7.76 7.87,-16.6 12.45,-24.58 5.96,-10.15 10.37,-21.13 16.93,-30.94 -1.02,-2.04 -1.95,-4.1 -2.98,-6.1 1.36,1.47 2.8,2.89 4.21,4.36 2.44,-1.48 4.76,-3.14 6.86,-5.05 10.55,-9.16 22.38,-16.71 34.37,-23.81 32.17,-18.61 68.5,-29.83 105.5,-33.08 23.63,-1.55 47.62,-1.18 70.85,3.82 2.79,0.62 5.9,0.82 8.09,-1.36 35.18,-27.88 77.78,-46.44 122.27,-52.67 3.68,-0.62 7.61,-0.43 11.07,-2 3.97,-3 6.67,-7.31 10.12,-10.84 6.87,-8.14 15.06,-14.98 23.06,-21.96 z"
       id="path2950"
       inkscape:connector-curvature="0"
       style="fill:#a5c1c5;stroke:#a5c1c5" /><path
       d="m 170.4,1913.33 c 45.45,-8.84 93.33,-5.41 136.89,10.43 31.93,11.5 61.43,29.59 86.4,52.55 7.36,7.29 15.12,14.3 21.31,22.67 1.03,2 1.96,4.06 2.98,6.1 -6.56,9.81 -10.97,20.79 -16.93,30.94 -4.58,7.98 -7.47,16.82 -12.45,24.58 -4.07,6.57 -7.12,13.69 -10.67,20.55 2.51,-0.3 4.96,0.29 7.34,1.04 -14.21,3.55 -28.37,7.45 -41.88,13.18 -17.68,6.94 -34.24,16.47 -49.94,27.09 -7.73,5.24 -14.58,11.65 -22.3,16.89 -26.2,-32.12 -60.02,-58.03 -98.2,-74.24 -37.31,-16.15 -78.52,-22.71 -119.03,-19.93 -18.23,1.33 -36.48,4.15 -53.92,9.74 v -97.57 c 20.7,-1.73 41.56,-0.57 62.06,2.57 3.87,0.87 6.83,-2.13 9.7,-4.17 29.35,-20.96 63.22,-35.55 98.64,-42.42 z"
       id="path2956"
       inkscape:connector-curvature="0"
       style="fill:#a9cac4;stroke:#a9cac4" /><path
       d="m 1429.15,2434.32 c 52.94,-36.79 105.83,-73.67 158.82,-110.4 6.25,17.91 11.28,36.34 13.47,55.23 3.14,26.72 2.56,53.92 -2.25,80.41 -4,19.97 -9.86,39.64 -18.63,58.06 -3.88,7.74 -7.13,15.82 -11.79,23.16 -5.3,8.04 -9.94,16.54 -15.85,24.18 -5.19,7.36 -11.59,13.74 -17.38,20.62 -7.09,6.87 -13.85,14.1 -21.11,20.8 -8.33,6.8 -16.87,13.41 -26.01,19.11 -6.42,3.86 -12.48,8.41 -19.43,11.32 0.85,1.79 1.82,3.54 3.07,5.15 21.82,29.1 37.5,62.78 45.4,98.32 2.79,10.7 3.67,21.73 5.24,32.65 -9.59,-15.46 -20.09,-30.33 -30.05,-45.55 -18.64,-27.63 -36.6,-55.72 -55.92,-82.88 6.59,-16.76 11.75,-34.12 14.82,-51.87 3.52,-23.35 5.19,-47.11 2.52,-70.64 -2.7,-30.47 -11.95,-60.07 -24.92,-87.67 z"
       id="path2970"
       inkscape:connector-curvature="0"
       style="fill:#a5a9ab;stroke:#a5a9ab" /><path
       d="m 1378.25,2731.25 c 25.29,-24.43 44.96,-54.35 58.48,-86.75 19.32,27.16 37.28,55.25 55.92,82.88 9.96,15.22 20.46,30.09 30.05,45.55 l 0.28,0.73 c -0.27,11.43 1.04,22.88 0.11,34.33 -0.73,24.54 -6.21,48.64 -13.45,72.01 h -10.14 c -3.18,-10.3 -9.28,-19.32 -13.3,-29.27 -3.22,-8.26 -7.87,-15.83 -11.21,-24.03 0.56,-0.11 1.68,-0.32 2.24,-0.43 -0.39,-5.65 -3.77,-11.09 -8.95,-13.46 -42.97,-13.14 -85.79,-26.91 -128.68,-40.35 -2.68,-0.89 -5.27,-2 -7.81,-3.18 0.63,-1.22 1.28,-2.39 1.99,-3.51 16.08,-9.76 30.95,-21.46 44.47,-34.52 z"
       id="path2978"
       inkscape:connector-curvature="0"
       style="fill:#b8e0e7;stroke:#b8e0e7" /><path
       d="m 3217.56,2691.62 c 2.37,-0.65 5.54,-0.61 6.83,1.94 0.59,2.38 0.58,5.55 -1.96,6.83 -2.42,0.6 -5.57,0.58 -6.82,-1.96 -0.65,-2.41 -0.6,-5.57 1.95,-6.81 z"
       id="path2982"
       inkscape:connector-curvature="0"
       style="fill:#fefefe;stroke:#fefefe" /><path
       d="m 2008.54,2730.61 c 3.93,-3.02 10.08,0.6 9.92,5.39 0.17,4.77 -5.98,8.39 -9.92,5.39 -3.95,-2.31 -3.94,-8.5 0,-10.78 z"
       id="path2984"
       inkscape:connector-curvature="0"
       style="fill:#ffffff;stroke:#ffffff" /><path
       d="m 1320.85,2773.25 c 4.32,-2.49 8.57,-5.08 12.93,-7.48 -0.71,1.12 -1.36,2.29 -1.99,3.51 2.54,1.18 5.13,2.29 7.81,3.18 42.89,13.44 85.71,27.21 128.68,40.35 5.18,2.37 8.56,7.81 8.95,13.46 -0.56,0.11 -1.68,0.32 -2.24,0.43 3.34,8.2 7.99,15.77 11.21,24.03 4.02,9.95 10.12,18.97 13.3,29.27 h -129.29 c -6.5,-30.72 -18.58,-60.21 -35.57,-86.62 -4.02,-7.12 -9.7,-13.09 -13.79,-20.13 z"
       id="path2986"
       inkscape:connector-curvature="0"
       style="fill:#bdede6;stroke:#bdede6" /><path
       d="m 1522.98,2773.66 c 3.86,5.01 7.08,10.48 10.61,15.74 19.57,30.2 39.27,60.31 58.69,90.6 h -82.64 c 7.24,-23.37 12.72,-47.47 13.45,-72.01 0.93,-11.45 -0.38,-22.9 -0.11,-34.33 z"
       id="path2988"
       inkscape:connector-curvature="0"
       style="fill:#55b5c5;stroke:#55b5c5" /><g
       id="g4078"
       transform="matrix(5.1795776,0,0,5.1795776,6720.1891,-751.33124)"><g
         id="g3913"><ellipse
           id="ellipse3883"
           ry="21.6"
           rx="2.4000001"
           cy="495.28271"
           cx="28.475929"
           style="fill:#dcf9f6" /><ellipse
           id="ellipse3885"
           ry="2.4000001"
           rx="21.6"
           cy="496.0827"
           cx="28.475929"
           style="fill:#dcf9f6" /><ellipse
           id="ellipse3887"
           ry="2.3999841"
           rx="21.599855"
           cy="406.38818"
           cx="226.03519"
           style="fill:#dcf9f6;stroke-width:0.99999332"
           transform="rotate(-45.137749)" /><ellipse
           id="ellipse3889"
           ry="2.3999841"
           rx="21.599855"
           cy="-227.6275"
           cx="405.30649"
           style="fill:#dcf9f6;stroke-width:0.99999332"
           transform="rotate(45.137749)" /><ellipse
           id="ellipse3891"
           ry="9.6000004"
           rx="0.80000001"
           cy="154.48271"
           cx="-19.054909"
           style="fill:#dcf9f6" /><ellipse
           id="ellipse3893"
           ry="0.80000001"
           rx="9.6000004"
           cy="154.48271"
           cx="-19.054909"
           style="fill:#dcf9f6" /><ellipse
           id="ellipse3895"
           ry="0.80000269"
           rx="10.400035"
           cy="-268.61563"
           cx="25.465187"
           style="fill:#dcf9f6;stroke-width:1.00000334"
           transform="rotate(-135.2917)" /><ellipse
           id="ellipse3897"
           ry="0.80000269"
           rx="10.400035"
           cy="-22.772499"
           cx="-268.66998"
           style="fill:#dcf9f6;stroke-width:1.00000334"
           transform="rotate(-44.708297)" /><ellipse
           id="ellipse3899"
           ry="0.79999495"
           rx="10.399934"
           cy="-314.77963"
           cx="-301.11343"
           style="fill:#dcf9f6;stroke-width:0.99999362"
           transform="rotate(-135.14585)" /><ellipse
           id="ellipse3901"
           ry="0.79999495"
           rx="10.399934"
           cy="302.93845"
           cx="-312.66666"
           style="fill:#dcf9f6;stroke-width:0.99999362"
           transform="rotate(-44.854148)" /><ellipse
           id="ellipse3903"
           ry="0.80003381"
           rx="4.8002028"
           cy="42.848251"
           cx="-160.96434"
           style="fill:#dcf9f6;stroke-width:1.0000422"
           transform="rotate(-45.58339)" /><ellipse
           id="ellipse3905"
           ry="0.80003381"
           rx="4.8002028"
           cy="171.04126"
           cx="-8.0831947"
           style="fill:#dcf9f6;stroke-width:1.0000422"
           transform="rotate(45.58339)" /><ellipse
           id="ellipse3907"
           ry="0.800035"
           rx="4.80021"
           cy="440.53488"
           cx="-291.96765"
           style="fill:#dcf9f6;stroke-width:1.00004375"
           transform="rotate(-45.591492)" /><ellipse
           id="ellipse3909"
           ry="0.800035"
           rx="4.80021"
           cy="282.9458"
           cx="446.97049"
           style="fill:#dcf9f6;stroke-width:1.00004375"
           transform="rotate(45.591492)" /><circle
           id="circle3911"
           r="160"
           cy="250"
           cx="249.60001"
           style="fill:#dcf9f6" /></g><path
         id="path3915"
         d="m 385.6,250 c 0,88 -48,160 -136,160 -88,0 -160,-72 -160,-160 0,-88 72,-160 160,-160 88,0 136,72 136,160 z"
         style="fill:#95bfb9"
         inkscape:connector-curvature="0" /><g
         id="g3975"><circle
           id="circle3917"
           r="9.6000004"
           cy="165.2"
           cx="138.39999"
           style="fill:#78a8a0" /><circle
           id="circle3919"
           r="1.6"
           cy="201.2"
           cx="124.8"
           style="fill:#78a8a0" /><circle
           id="circle3921"
           r="29.6"
           cy="222"
           cx="189.60001"
           style="fill:#78a8a0" /><circle
           id="circle3923"
           r="8"
           cy="157.2"
           cx="202.39999"
           style="fill:#78a8a0" /><circle
           id="circle3925"
           r="2.4000001"
           cy="153.2"
           cx="257.60001"
           style="fill:#78a8a0" /><circle
           id="circle3927"
           r="2.4000001"
           cy="126"
           cx="278.39999"
           style="fill:#78a8a0" /><circle
           id="circle3929"
           r="4"
           cy="127.6"
           cx="201.60001"
           style="fill:#78a8a0" /><circle
           id="circle3931"
           r="1.6"
           cy="114"
           cx="233.60001"
           style="fill:#78a8a0" /><circle
           id="circle3933"
           r="6.4000001"
           cy="206"
           cx="270.39999"
           style="fill:#78a8a0" /><circle
           id="circle3935"
           r="4"
           cy="202"
           cx="318.39999"
           style="fill:#78a8a0" /><circle
           id="circle3937"
           r="6.4000001"
           cy="156.39999"
           cx="328.79999"
           style="fill:#78a8a0" /><circle
           id="circle3939"
           r="17.6"
           cy="285.20001"
           cx="300.79999"
           style="fill:#78a8a0" /><circle
           id="circle3941"
           r="5.5999999"
           cy="295.60001"
           cx="156"
           style="fill:#78a8a0" /><circle
           id="circle3943"
           r="2.4000001"
           cy="271.60001"
           cx="213.60001"
           style="fill:#78a8a0" /><circle
           id="circle3945"
           r="9.6000004"
           cy="331.60001"
           cx="241.60001"
           style="fill:#78a8a0" /><circle
           id="circle3947"
           r="6.4000001"
           cy="254.8"
           cx="124.8"
           style="fill:#78a8a0" /><circle
           id="circle3949"
           r="1.6"
           cy="250.8"
           cx="267.20001"
           style="fill:#78a8a0" /><circle
           id="circle3951"
           r="4"
           cy="254"
           cx="344"
           style="fill:#78a8a0" /><circle
           id="circle3953"
           r="9.6000004"
           cy="339.60001"
           cx="174.39999"
           style="fill:#78a8a0" /><circle
           id="circle3955"
           r="3.2"
           cy="305.20001"
           cx="193.60001"
           style="fill:#78a8a0" /><circle
           id="circle3957"
           r="3.2"
           cy="342.79999"
           cx="292.79999"
           style="fill:#78a8a0" /><circle
           id="circle3959"
           r="2.4000001"
           cy="369.20001"
           cx="241.60001"
           style="fill:#78a8a0" /><circle
           id="circle3961"
           r="1.6"
           cy="365.20001"
           cx="201.60001"
           style="fill:#78a8a0" /><circle
           id="circle3963"
           r="6.4000001"
           cy="328.39999"
           cx="332.79999"
           style="fill:#78a8a0" /><circle
           id="circle3965"
           r="4"
           cy="375.60001"
           cx="284"
           style="fill:#78a8a0" /><circle
           id="circle3967"
           r="3.2"
           cy="289.20001"
           cx="245.60001"
           style="fill:#78a8a0" /><circle
           id="circle3969"
           r="6.4000001"
           cy="300.39999"
           cx="353.60001"
           style="fill:#78a8a0" /><circle
           id="circle3971"
           r="5.5999999"
           cy="323.60001"
           cx="134.39999"
           style="fill:#78a8a0" /><circle
           id="circle3973"
           r="7.1999998"
           cy="241.2"
           cx="309.60001"
           style="fill:#78a8a0" /></g><g
         id="g3977" /><g
         id="g3979" /><g
         id="g3981" /><g
         id="g3983" /><g
         id="g3985" /><g
         id="g3987" /><g
         id="g3989" /><g
         id="g3991" /><g
         id="g3993" /><g
         id="g3995" /><g
         id="g3997" /><g
         id="g3999" /><g
         id="g4001" /><g
         id="g4003" /><g
         id="g4005" /></g><text
       xml:space="preserve"
       style="font-style:normal;font-weight:normal;font-size:362.99887085px;line-height:125%;font-family:sans-serif;letter-spacing:0px;word-spacing:0px;fill:#000000;fill-opacity:1;stroke:none;stroke-width:9.07497215px;stroke-linecap:butt;stroke-linejoin:miter;stroke-opacity:1"
       x="4439.5186"
       y="2355.2021"
       id="text4082"><tspan
         sodipodi:role="line"
         id="tspan4080"
         x="4439.5186"
         y="2355.2021"
         style="font-style:normal;font-variant:normal;font-weight:normal;font-stretch:normal;font-size:266.19915771px;font-family:'Arial Black';-inkscape-font-specification:'Arial Black, ';fill:#ffffff;stroke-width:9.07497215px">We take you to the moon</tspan></text>
</g></svg>