<?xml version="1.0" encoding="UTF-8" standalone="no"?>
<!-- Created with Inkscape (http://www.inkscape.org/) -->

<svg
   xmlns:dc="http://purl.org/dc/elements/1.1/"
   xmlns:cc="http://creativecommons.org/ns#"
   xmlns:rdf="http://www.w3.org/1999/02/22-rdf-syntax-ns#"
   xmlns:svg="http://www.w3.org/2000/svg"
   xmlns="http://www.w3.org/2000/svg"
   xmlns:sodipodi="http://sodipodi.sourceforge.net/DTD/sodipodi-0.dtd"
   xmlns:inkscape="http://www.inkscape.org/namespaces/inkscape"
   width="150"
   height="30"
   viewBox="0 0 39.6875 7.9375"
   version="1.1"
   id="svg8"
   inkscape:version="0.91 r13725"
   sodipodi:docname="email.svg"
   inkscape:export-filename="email.png"
   inkscape:export-xdpi="90"
   inkscape:export-ydpi="90">
  <defs
     id="defs2" />
  <sodipodi:namedview
     id="base"
     pagecolor="#ffffff"
     bordercolor="#666666"
     borderopacity="1.0"
     inkscape:pageopacity="0.0"
     inkscape:pageshadow="2"
     inkscape:zoom="3.97"
     inkscape:cx="100"
     inkscape:cy="22.5"
     inkscape:document-units="mm"
     inkscape:current-layer="text836"
     showgrid="false"
     units="px"
     inkscape:window-width="1280"
     inkscape:window-height="717"
     inkscape:window-x="0"
     inkscape:window-y="0"
     inkscape:window-maximized="1" />
  <metadata
     id="metadata5">
    <rdf:RDF>
      <cc:Work
         rdf:about="">
        <dc:format>image/svg+xml</dc:format>
        <dc:type
           rdf:resource="http://purl.org/dc/dcmitype/StillImage" />
        <dc:title></dc:title>
      </cc:Work>
    </rdf:RDF>
  </metadata>
  <g
     inkscape:label="Layer 1"
     inkscape:groupmode="layer"
     id="layer1"
     transform="translate(0,-289.06251)">
    <g
       style="font-style:normal;font-weight:normal;font-size:10.58333302px;line-height:1.25;font-family:sans-serif;letter-spacing:0px;word-spacing:0px;fill:#000000;fill-opacity:1;stroke:none;stroke-width:0.26458332"
       id="text836">
      <path
         d="m 1.2952641,291.75975 0.4754232,0 0,2.89388 -0.4754232,0 0,-2.89388 z m 0,-1.12655 0.4754232,0 0,0.60203 -0.4754232,0 0,-0.60203 z"
         style="font-size:5.29166651px;stroke-width:0.26458332"
         id="path4136" />
      <path
         d="m 5.1684126,292.90696 0,1.74667 -0.4754232,0 0,-1.73116 q 0,-0.41083 -0.1601969,-0.61495 -0.160197,-0.20413 -0.4805908,-0.20413 -0.3849894,0 -0.6071981,0.24547 -0.2222086,0.24546 -0.2222086,0.66921 l 0,1.63556 -0.478007,0 0,-2.89388 0.478007,0 0,0.44958 q 0.1705322,-0.26097 0.4004923,-0.39016 0.2325439,-0.12919 0.5348511,-0.12919 0.4986775,0 0.7544758,0.31006 0.2557984,0.30748 0.2557984,0.90692 z"
         style="font-size:5.29166651px;stroke-width:0.26458332"
         id="path4138" />
      <path
         d="m 7.5868696,290.6332 0,0.39532 -0.4547526,0 q -0.2557984,0 -0.3565674,0.10336 -0.098185,0.10335 -0.098185,0.37207 l 0,0.2558 0.7828979,0 0,0.36948 -0.7828979,0 0,2.5244 -0.478007,0 0,-2.5244 -0.4547526,0 0,-0.36948 0.4547526,0 0,-0.20154 q 0,-0.48318 0.2247925,-0.7028 0.2247924,-0.22221 0.7131347,-0.22221 l 0.449585,0 z"
         style="font-size:5.29166651px;stroke-width:0.26458332"
         id="path4140" />
      <path
         d="m 9.1139083,292.09306 q -0.3824056,0 -0.6046142,0.29972 -0.2222087,0.29714 -0.2222087,0.81649 0,0.51935 0.2196248,0.81907 0.2222087,0.29714 0.6071981,0.29714 0.3798218,0 0.6020304,-0.29972 0.2222087,-0.29973 0.2222087,-0.81649 0,-0.51418 -0.2222087,-0.8139 -0.2222086,-0.30231 -0.6020304,-0.30231 z m 0,-0.40308 q 0.6201172,0 0.9741007,0.40308 0.353984,0.40307 0.353984,1.11621 0,0.71055 -0.353984,1.11621 -0.3539835,0.40308 -0.9741007,0.40308 -0.622701,0 -0.9766845,-0.40308 -0.3513998,-0.40566 -0.3513998,-1.11621 0,-0.71314 0.3513998,-1.11621 0.3539835,-0.40308 0.9766845,-0.40308 z"
         style="font-size:5.29166651px;stroke-width:0.26458332"
         id="path4142" />
      <path
         d="m 12.697669,293.26611 q 0,0.36949 0.183451,0.58136 0.183451,0.20929 0.503845,0.20929 0.31781,0 0.498678,-0.21187 0.183451,-0.21187 0.183451,-0.57878 0,-0.36173 -0.186035,-0.57361 -0.186035,-0.21445 -0.501262,-0.21445 -0.312642,0 -0.498677,0.21187 -0.183451,0.21187 -0.183451,0.57619 z m 1.408182,0.77257 q -0.155029,0.19895 -0.356567,0.29455 -0.198954,0.093 -0.465088,0.093 -0.444417,0 -0.72347,-0.32039 -0.276469,-0.32298 -0.276469,-0.83975 0,-0.51676 0.279053,-0.83974 0.279053,-0.32298 0.720886,-0.32298 0.266134,0 0.467672,0.0982 0.201538,0.0956 0.353983,0.29197 l 0,-0.33848 0.369487,0 0,1.90169 q 0.377238,-0.0568 0.589111,-0.34365 0.214457,-0.28938 0.214457,-0.74672 0,-0.27647 -0.08268,-0.51935 -0.0801,-0.24288 -0.245463,-0.44958 -0.268718,-0.33848 -0.656291,-0.51677 -0.384989,-0.18086 -0.839742,-0.18086 -0.31781,0 -0.609782,0.0853 -0.291971,0.0827 -0.540018,0.24805 -0.40566,0.26355 -0.63562,0.69246 -0.227377,0.42633 -0.227377,0.92501 0,0.41083 0.147278,0.76998 0.149862,0.35915 0.431498,0.63304 0.271302,0.26871 0.627869,0.40824 0.356567,0.14211 0.762227,0.14211 0.333313,0 0.653707,-0.11369 0.322978,-0.1111 0.591695,-0.32039 l 0.232544,0.2868 q -0.322977,0.25063 -0.705383,0.38241 -0.379822,0.13436 -0.772563,0.13436 -0.478007,0 -0.901753,-0.17054 -0.423747,-0.16794 -0.754476,-0.49092 -0.330729,-0.32298 -0.503846,-0.74673 -0.173116,-0.42633 -0.173116,-0.91467 0,-0.47026 0.1757,-0.89659 0.1757,-0.42633 0.501262,-0.7493 0.333313,-0.32815 0.769979,-0.50127 0.436665,-0.1757 0.925008,-0.1757 0.54777,0 1.015441,0.2248 0.470256,0.22479 0.788066,0.6382 0.193787,0.25322 0.294556,0.55036 0.103353,0.29713 0.103353,0.61494 0,0.67955 -0.410828,1.07229 -0.410828,0.39274 -1.134298,0.40824 l 0,-0.3979 z"
         style="font-size:5.29166651px;stroke-width:0.26458332"
         id="path4144" />
      <path
         d="m 18.935014,292.90696 0,1.74667 -0.475423,0 0,-1.73116 q 0,-0.41083 -0.160197,-0.61495 -0.160197,-0.20413 -0.480591,-0.20413 -0.384989,0 -0.607198,0.24547 -0.222209,0.24546 -0.222209,0.66921 l 0,1.63556 -0.478007,0 0,-2.89388 0.478007,0 0,0.44958 q 0.170533,-0.26097 0.400493,-0.39016 0.232544,-0.12919 0.534851,-0.12919 0.498677,0 0.754476,0.31006 0.255798,0.30748 0.255798,0.90692 z"
         style="font-size:5.29166651px;stroke-width:0.26458332"
         id="path4146" />
      <path
         d="m 19.839351,293.51158 0,-1.75183 0.475423,0 0,1.73374 q 0,0.41083 0.160197,0.61753 0.160197,0.20412 0.480591,0.20412 0.38499,0 0.607198,-0.24546 0.224793,-0.24546 0.224793,-0.66921 l 0,-1.64072 0.475423,0 0,2.89388 -0.475423,0 0,-0.44442 q -0.173116,0.26355 -0.403076,0.39274 -0.227377,0.12661 -0.529684,0.12661 -0.498677,0 -0.75706,-0.31006 -0.258382,-0.31006 -0.258382,-0.90692 z"
         style="font-size:5.29166651px;stroke-width:0.26458332"
         id="path4148" />
      <path
         d="m 24.368791,292.09306 q -0.382405,0 -0.604614,0.29972 -0.222209,0.29714 -0.222209,0.81649 0,0.51935 0.219625,0.81907 0.222209,0.29714 0.607198,0.29714 0.379822,0 0.602031,-0.29972 0.222208,-0.29973 0.222208,-0.81649 0,-0.51418 -0.222208,-0.8139 -0.222209,-0.30231 -0.602031,-0.30231 z m 0,-0.40308 q 0.620117,0 0.974101,0.40308 0.353983,0.40307 0.353983,1.11621 0,0.71055 -0.353983,1.11621 -0.353984,0.40308 -0.974101,0.40308 -0.622701,0 -0.976684,-0.40308 -0.3514,-0.40566 -0.3514,-1.11621 0,-0.71314 0.3514,-1.11621 0.353983,-0.40308 0.976684,-0.40308 z"
         style="font-size:5.29166651px;stroke-width:0.26458332"
         id="path4150" />
      <path
         d="m 27.947383,290.6332 0,0.39532 -0.454753,0 q -0.255798,0 -0.356567,0.10336 -0.09819,0.10335 -0.09819,0.37207 l 0,0.2558 0.782898,0 0,0.36948 -0.782898,0 0,2.5244 -0.478007,0 0,-2.5244 -0.454753,0 0,-0.36948 0.454753,0 0,-0.20154 q 0,-0.48318 0.224792,-0.7028 0.224793,-0.22221 0.713135,-0.22221 l 0.449585,0 z"
         style="font-size:5.29166651px;stroke-width:0.26458332"
         id="path4152" />
      <path
         d="m 29.668209,293.19893 q -0.576193,0 -0.798401,0.13178 -0.222209,0.13177 -0.222209,0.44958 0,0.25322 0.165365,0.40308 0.167948,0.14728 0.454752,0.14728 0.395325,0 0.633037,-0.27905 0.240295,-0.28164 0.240295,-0.74673 l 0,-0.10594 -0.472839,0 z m 0.948262,-0.19637 0,1.65107 -0.475423,0 0,-0.43925 q -0.162781,0.26355 -0.40566,0.39015 -0.242879,0.12403 -0.594279,0.12403 -0.444417,0 -0.707967,-0.24805 -0.260966,-0.25063 -0.260966,-0.66921 0,-0.48834 0.325561,-0.73639 0.328146,-0.24805 0.976685,-0.24805 l 0.666626,0 0,-0.0465 q 0,-0.32814 -0.217041,-0.50642 -0.214457,-0.18087 -0.604614,-0.18087 -0.248047,0 -0.483175,0.0594 -0.235128,0.0594 -0.452169,0.17828 l 0,-0.43925 q 0.260966,-0.10077 0.506429,-0.14986 0.245463,-0.0517 0.478007,-0.0517 0.627869,0 0.937928,0.32556 0.310058,0.32557 0.310058,0.98702 z"
         style="font-size:5.29166651px;stroke-width:0.26458332"
         id="path4154" />
      <path
         d="m 31.675838,293.99733 0.545186,0 0,0.6563 -0.545186,0 0,-0.6563 z"
         style="font-size:5.29166651px;stroke-width:0.26458332"
         id="path4156" />
      <path
         d="m 35.375871,291.87085 0,0.44442 q -0.201538,-0.11111 -0.40566,-0.16537 -0.201538,-0.0568 -0.408244,-0.0568 -0.462504,0 -0.718302,0.29455 -0.255798,0.29198 -0.255798,0.82166 0,0.52968 0.255798,0.82424 0.255798,0.29197 0.718302,0.29197 0.206706,0 0.408244,-0.0543 0.204122,-0.0568 0.40566,-0.16795 l 0,0.43925 q -0.198954,0.093 -0.413411,0.13953 -0.211874,0.0465 -0.452169,0.0465 -0.653707,0 -1.038696,-0.41083 -0.38499,-0.41083 -0.38499,-1.10846 0,-0.70797 0.387574,-1.11363 0.390157,-0.40566 1.067118,-0.40566 0.219625,0 0.428914,0.0465 0.20929,0.0439 0.40566,0.13436 z"
         style="font-size:5.29166651px;stroke-width:0.26458332"
         id="path4158" />
      <path
         d="m 37.318903,292.09306 q -0.382406,0 -0.604615,0.29972 -0.222208,0.29714 -0.222208,0.81649 0,0.51935 0.219624,0.81907 0.222209,0.29714 0.607199,0.29714 0.379821,0 0.60203,-0.29972 0.222209,-0.29973 0.222209,-0.81649 0,-0.51418 -0.222209,-0.8139 -0.222209,-0.30231 -0.60203,-0.30231 z m 0,-0.40308 q 0.620117,0 0.9741,0.40308 0.353984,0.40307 0.353984,1.11621 0,0.71055 -0.353984,1.11621 -0.353983,0.40308 -0.9741,0.40308 -0.622701,0 -0.976685,-0.40308 -0.3514,-0.40566 -0.3514,-1.11621 0,-0.71314 0.3514,-1.11621 0.353984,-0.40308 0.976685,-0.40308 z"
         style="font-size:5.29166651px;stroke-width:0.26458332"
         id="path4160" />
    </g>
  </g>
</svg>
