<svg xmlns="http://www.w3.org/2000/svg" id="Layer_1" data-name="Layer 1" viewBox="0 0 205.71 205.71"><defs><style>.cls-1{fill:#fff;}.cls-2{fill:#789ca5;}.cls-3{fill:#43a8c1;}.cls-4{fill:#e1eefb;}.cls-5{fill:#c3deee;}.cls-6{fill:#fefefe;}.cls-7{fill:#bbc1c9;}.cls-8{fill:#505c69;}.cls-9{fill:#de3750;}.cls-10{fill:#d7dbe0;}.cls-11{fill:none;stroke:#d7dbe0;stroke-miterlimit:10;stroke-width:0.22px;}.cls-12{fill:#4079af;}.cls-13{fill:#f7b46c;}.cls-14{fill:#f39a3d;}</style></defs><title>service-web-application-development</title><path class="cls-1" d="M82.78,150.57a43.31,43.31,0,0,0,0-86.62v86.62Z"/><path class="cls-1" d="M82.78,64a43.31,43.31,0,1,0,0,86.62V64Z"/><path class="cls-2" d="M124.2,119a1.79,1.79,0,0,0-1.32.48,2.48,2.48,0,0,1-1.06.65,3.41,3.41,0,0,0-.88,1.17,1.88,1.88,0,0,1-1,.29,1.42,1.42,0,0,0-.73.73c0,0.24-.13.21-0.3-0.06l-0.31.33-0.37.41a3.37,3.37,0,0,1-1.16,1.58c-0.24.07-.28,1.24-0.28,1.7a2.2,2.2,0,0,0,.41,1.29l0,0.37,0.08,0.74a1.34,1.34,0,0,0,.43,1.19,6,6,0,0,0,1.6-.29,2.7,2.7,0,0,0,.58-0.24,43.06,43.06,0,0,0,4.46-10.34Z"/><path class="cls-2" d="M52.7,120.15a4.51,4.51,0,0,0,1,1.18,7.77,7.77,0,0,1,1.06,2,3.29,3.29,0,0,1,0,1.29,2.24,2.24,0,0,0,.17.67,10.79,10.79,0,0,0-.15,1.94c0.11,0.51-.6,2.11-0.58,2.9a2.76,2.76,0,0,0,.52,1.75c0.14-.08.19,0.72,0,0.82a0.82,0.82,0,0,0-.39.76,2.58,2.58,0,0,1,0,.91c0,0.25.25,1.9,0.29,2.31a12.17,12.17,0,0,0,.76,1.75c0.12,0.34.25,1,.29,1.08a1.56,1.56,0,0,0,.12.21,3.61,3.61,0,0,1,.62.28,3.84,3.84,0,0,0,1.37,0c0.3-.06,0-0.34-0.11-0.49a7.2,7.2,0,0,0-.42-1,1.69,1.69,0,0,1-.09-1.21c0.14-.21.69-0.54,0.75-0.71a1.94,1.94,0,0,0-.07-1.1,15.68,15.68,0,0,1-.07-1.59c-0.11-.49.85-0.93,0.91-1.32s1.1-.8,1.33-1a2.48,2.48,0,0,0,.33-1.55c-0.12-.24.38-0.43,0.61-0.43a2.9,2.9,0,0,0,.55-0.16,7.7,7.7,0,0,0,.49-0.61,13.1,13.1,0,0,1,.69-1.48,2,2,0,0,0,.48-1.11,3.5,3.5,0,0,1,.52-1,5.73,5.73,0,0,1,1.28-.7,7.91,7.91,0,0,0,.51-2.19c0.07-.56.36-1.31,0.38-1.5a0.91,0.91,0,0,1,.39-0.4,9,9,0,0,1,.44-0.94,4.67,4.67,0,0,0,.7-1,6.69,6.69,0,0,1,.18-0.87v-1a1.35,1.35,0,0,0-.83-0.93,3.21,3.21,0,0,1-1-.53,6,6,0,0,0-1.27-.21c-0.19,0-.86-0.55-1.16-0.64s-1.06-.24-1.21-0.33-0.33-1.23-.94-1.6a6.67,6.67,0,0,1-1.82-1.56,5.84,5.84,0,0,0-1.67-1.19,1.48,1.48,0,0,0-1-.18,6.14,6.14,0,0,1-.76-0.81,1,1,0,0,0-1-.18c0,0.18-.5.08-0.61-0.07a0.78,0.78,0,0,0-.65.12c-0.17.05-.76,1-1,1.17s-0.6-.2-0.77-0.28a2,2,0,0,0-1,.27c-0.18.13-.61-1-0.51-1.45a1.61,1.61,0,0,0-.87-1.52c-0.42,0-.55-1.07-0.47-1.45s-0.76-.62-1-0.65a1.48,1.48,0,0,0-.83.77c-0.09.26-2-.35-1.78-1.5a5.28,5.28,0,0,1,1.36-2.48,3.43,3.43,0,0,1,1.73-.06,0.45,0.45,0,0,0,.57-0.07,3.6,3.6,0,0,1,1.35.13c0.3,0.12.73,1.28,1,1.42s0.43-.75.48-1a2.25,2.25,0,0,0-.22-0.93,3.17,3.17,0,0,1,1-1.8A2.21,2.21,0,0,0,53.57,98a0.76,0.76,0,0,1,.48-0.31,13.74,13.74,0,0,1,.17-1.44,5.58,5.58,0,0,1,1.35-.89,1.08,1.08,0,0,0,.39-1,2.2,2.2,0,0,1,1.15-1c0.43-.13.8,0.25,0.69,0.3,0.08,0,.67-0.35.93-0.52s0-.73-0.19-0.88a0.63,0.63,0,0,1,.15-0.83,0.79,0.79,0,0,0,.36-0.7,5.5,5.5,0,0,0,1.32-.19c0.38-.28.11,0.68-0.17,1.07a0.44,0.44,0,0,0,.38.68,0.42,0.42,0,0,1,.41.31c0,0.11.42-.11,0.67,0s0.4-.34.42-0.55a6.52,6.52,0,0,0-.7-0.9,16.34,16.34,0,0,1-.15-2,0.84,0.84,0,0,0-.55-0.7,5.57,5.57,0,0,1-.6-1,1.09,1.09,0,0,1-.25-0.74c0-.14-0.71-0.89-0.88-1.24s-0.42-.28-0.43-0.12a0.86,0.86,0,0,1-.72.16,1.63,1.63,0,0,1-.38-1.12c0-.3-0.93-0.35-1.08-0.59a5.47,5.47,0,0,0-.85-0.29,1,1,0,0,0-.73-0.26c-0.11.06-.06,2.22-0.16,2.8a1.44,1.44,0,0,1-.78,1.08c-0.18,0-.07.41,0.05,0.38s-0.35.63-.41,1.08-0.51,0-.58-0.42a1,1,0,0,0-.6-0.8,2.19,2.19,0,0,1-.52-0.08,4.7,4.7,0,0,1-1.29-.66,8.75,8.75,0,0,1-.71-1.29c-0.19-.09,0-0.22,0-0.37a5.53,5.53,0,0,1,.85-1,12.48,12.48,0,0,1,1.2-1.37,1.22,1.22,0,0,0,.46-0.83,7.52,7.52,0,0,1,1.56-.61,2.34,2.34,0,0,0,.68-1.35A1.14,1.14,0,0,0,54.1,79a0.84,0.84,0,0,1,.69,0c0.21,0.1.87-.19,1.12-0.06s0.78,0.45,1.15.69l-0.08.7-0.15,1.19c-1,.41-1.28,1.13-0.93,1.11a8.25,8.25,0,0,1,2.39,1C58.73,84,58.88,83.23,59,83a2,2,0,0,0,0-1.17c-0.11-.15.52-0.1,0.7,0.07s0.38-.18.52-0.24a3.42,3.42,0,0,0,.28-0.84,1.91,1.91,0,0,0-.31-0.43,2.63,2.63,0,0,0-1-.59A0.56,0.56,0,0,1,59,79.08a1.51,1.51,0,0,0-.2-0.92,1.93,1.93,0,0,0-1.11-.38,2.12,2.12,0,0,1-.65-0.66A3.86,3.86,0,0,0,55.75,77c-0.24.07-.67-0.68-1.07-0.45a1,1,0,0,1-1-.37,2.11,2.11,0,0,0-1.11,1.61,2,2,0,0,0,.51,1.41,1,1,0,0,1-.2.84c-0.16.18-.56-0.19-0.41-0.35a2.5,2.5,0,0,0-.6-1.2,2.39,2.39,0,0,0-1-.54c-0.2.21-.38,0.42-0.57,0.64a1.56,1.56,0,0,1,.08.85c-0.14.43-.5,0.5-0.52,0.31a0.49,0.49,0,0,0-.41-0.17,43.12,43.12,0,0,0-9.74,22.64,2.7,2.7,0,0,1,.51.73,1.85,1.85,0,0,0,.9.71,1.26,1.26,0,0,0,.08-0.94c-0.09-.21.16-0.34,0.15-0.18a5.79,5.79,0,0,0,.83,1.12c0.2,0.26.42,1.91,0.62,2.26a7.84,7.84,0,0,0,2.72,1.22,3.32,3.32,0,0,1,1.51,1,3.58,3.58,0,0,0,1.11.38c0.18,0.08.59,0.63,0.77,0.75a0.94,0.94,0,0,1,.31.53c0,0.09,1.08.49,1.34,0.78a0.58,0.58,0,0,0,.77.09,2,2,0,0,1,.41.81,1.57,1.57,0,0,1,.05.93,12.43,12.43,0,0,1-.42,1.39,5.65,5.65,0,0,0-.48,2.1,2.49,2.49,0,0,0,.81,1.05,0.25,0.25,0,0,1,0,.45,2,2,0,0,0,.32,1.75,1.52,1.52,0,0,1,.68,1"/><path class="cls-2" d="M57.79,93.77h0Z"/><path class="cls-2" d="M54.83,75.5a4.14,4.14,0,0,0,1.44-.38,0.9,0.9,0,0,0,0-.6h0.25a6.78,6.78,0,0,0,.73-1.33,10.69,10.69,0,0,1,1.67-.79A11.09,11.09,0,0,1,60,71.58a1.09,1.09,0,0,0,.53-0.74,3.22,3.22,0,0,1,1.13-.77c0.32-.14.49-0.52,0.37-0.54s-1.89.94-3.54,1.88a43.78,43.78,0,0,0-5.33,4.28c0.52,0,1.32-.13,1.66-0.19"/><path class="cls-2" d="M121.86,109.75a4.63,4.63,0,0,0,.88-0.34c0.32,0,.51-0.89.27-0.95a6.59,6.59,0,0,1-.73-0.79,0.55,0.55,0,0,0-.51.53,2.36,2.36,0,0,1-.68.57c-0.11.21-.1,0.36,0,0.34a2.23,2.23,0,0,1,.74.64"/><path class="cls-2" d="M121.22,114.29a0.84,0.84,0,0,0-.34-1,1.87,1.87,0,0,0-1.05,1.76c0.17,0.66.36,0.62,0.45,0.48a1.22,1.22,0,0,1,.79.15c0.16,0.05.16-.11,0-0.35a1.22,1.22,0,0,1,.16-1.07"/><path class="cls-2" d="M119.45,113.49c0-.3.1-1.22,0.14-1.4a1.47,1.47,0,0,0-.77-0.81c-0.27-.1-1.15,1.8-1.77,2.13a1.78,1.78,0,0,0-.69,1.76,13.6,13.6,0,0,0,1.7.61,0.58,0.58,0,0,0,.62-0.07c0.14,0,.09-0.12,0-0.16a7.84,7.84,0,0,0,.53-0.91c0.07-.34.16-0.86,0.2-1.15"/><path class="cls-2" d="M115.89,116.64a1,1,0,0,0-1.11.29c0,0.19,1.89.5,2.53,0.67s1,0.23.89,0.12-1.82-.9-2.31-1.09"/><path class="cls-2" d="M121,106.22c0.11-.26-0.14-0.55-0.56-0.64s-0.36,1.17-.17,1.34,0.62-.43.73-0.7"/><path class="cls-2" d="M123.17,114c0.5,0.35,1.62.19,1.65-.49-0.49-.32-1.69-0.27-1.65.49"/><path class="cls-2" d="M111.45,111.86h0"/><path class="cls-2" d="M114.57,114.77a5.34,5.34,0,0,0-1.33-1.54l-0.21-.34-0.23-.38a4.93,4.93,0,0,0-.88-0.86,1,1,0,0,1-.46.22l0.67,0.47c0.58,0.42,1.7,3.24,2,3.43s0.67-.59.49-1"/><path class="cls-2" d="M105.63,110.21a1.09,1.09,0,0,0,.91.84,1.83,1.83,0,0,0-.3-1.11c-0.17-.17-0.45-0.05-0.6.27"/><path class="cls-3" d="M119.82,104c0.16-.22-0.22-1.23-0.41-1a1.49,1.49,0,0,0,0,1c0.06,0.2.24,0.19,0.4,0m3.08-5.47a0.71,0.71,0,0,0-.26.67h-0.08a0.64,0.64,0,0,0,0,.77,2.13,2.13,0,0,0,.82-0.66,1.21,1.21,0,0,1,.73-0.19,2,2,0,0,0,.87-0.26,0.73,0.73,0,0,0,.24-0.29c-0.1-.48-0.21-1-0.33-1.43-0.21.15-.45,0.32-0.56,0.42S123.17,98.38,122.9,98.57ZM86.15,129.41a15.36,15.36,0,0,0,1.81-2,4.72,4.72,0,0,0,.6-1.58,1.51,1.51,0,0,1,.71-0.65c0.18-.05.73-2.39,1.23-2.9a8.5,8.5,0,0,0,1-3.87,12.22,12.22,0,0,1,.43-3,4,4,0,0,1,.93-1.28,27.92,27.92,0,0,0,1.76-2.54,5.58,5.58,0,0,0,.67-2.34,1,1,0,0,0-1.06-.39,2.79,2.79,0,0,1-1.18.29c-0.25,0-.82-1.34-1.18-1.61a12,12,0,0,1-.88-2.09,14.41,14.41,0,0,0-1-1.19,3.45,3.45,0,0,1-.25-1.2c0-.22.35,0.15,0.41,0.47a15.48,15.48,0,0,0,1.27,2.07c0.28,0.44,1,1.84,1.22,2.28s1.85,0.22,2.39,0a3.56,3.56,0,0,0,1.24-.84,7,7,0,0,1,1.12-.74,11.64,11.64,0,0,0,.61-1.35,2.33,2.33,0,0,0-.3-1.4,1.52,1.52,0,0,0-1.22-.4c-0.17.11-.55-0.64-0.68-0.92s-0.79-.61-0.87-0.8a0.65,0.65,0,0,1,.28-0.56A5.52,5.52,0,0,1,97,102a9.55,9.55,0,0,1,.82,1.34,1.76,1.76,0,0,0,1.24,0,0.34,0.34,0,0,1,.55.09l0.3-.05,1.05-.16a2.11,2.11,0,0,1,.63,1.12,1,1,0,0,0,.51.59,1.9,1.9,0,0,1,.42.91c0.06,0.17.66,1.21,0.79,1.64a10.44,10.44,0,0,0,.76,1.51,3.59,3.59,0,0,1,.22,1.07,0.78,0.78,0,0,0,.63.52,5.27,5.27,0,0,0,.84-2.09,1.56,1.56,0,0,1,.61-1,0.53,0.53,0,0,0,.2-0.44c0-.12.61-0.11,0.66-0.26a4.11,4.11,0,0,1,.45-1.3,9.4,9.4,0,0,1,1.27-.75,1.74,1.74,0,0,1,1.12.78,2.4,2.4,0,0,1,.24,1.1,1,1,0,0,0,.74.72,0.62,0.62,0,0,1,.49.64,9.39,9.39,0,0,0,.6.89,1.9,1.9,0,0,1,0,1,3.34,3.34,0,0,0,.05,1.15,11,11,0,0,0,1.63,1.72c0.43,0.35.63-.71,0.41-1s-1-1.1-1.13-1.33a2.8,2.8,0,0,1-.14-1.41c0.06-.26.65,0.14,0.89,0.33a1.83,1.83,0,0,1,.57.74A2.44,2.44,0,0,0,116,108.4a9.37,9.37,0,0,1,.61-2.21,0.57,0.57,0,0,0-.28-0.59,0.75,0.75,0,0,1,.66-0.7,3.94,3.94,0,0,0,1.7-1.59,3.54,3.54,0,0,1,.79-0.88,8.1,8.1,0,0,0,.46-1.57,4.7,4.7,0,0,0-.29-1.37,4.49,4.49,0,0,0-.5-0.93,1.94,1.94,0,0,1-.13-0.9c0.06-.11.44-0.24,0.48-0.34a2.41,2.41,0,0,0,.45-0.78c0-.21.27,0.27,0.48,0.44a12.11,12.11,0,0,0,.67,1.4c0.25,0.12,1.26-1.17,1.14-2a2.58,2.58,0,0,1,.54-2,5.46,5.46,0,0,0,1-1.23A43.44,43.44,0,0,0,113,76.33h-0.16l-0.37-.08a1.05,1.05,0,0,1-.87-0.95,0.44,0.44,0,0,0,0-.29c-0.35-.31-0.7-0.62-1.06-0.92h-0.78a3.37,3.37,0,0,1-1.32-.42,0.55,0.55,0,0,0-.66.4c0,0.27-.88.39-1,0.6a0.45,0.45,0,0,1-.6.1,6.21,6.21,0,0,0-1.26.33,6.9,6.9,0,0,0-1.29.45,2.05,2.05,0,0,0-.66.65,1.9,1.9,0,0,1-.73.51,0.81,0.81,0,0,0,.08.9,1.58,1.58,0,0,1-.65-0.23c-0.26-.13-0.55.31-0.64,0.46s-0.32-.09-0.31-0.31a0.56,0.56,0,0,0-.73-0.22,0.79,0.79,0,0,1-.73-0.16A3.8,3.8,0,0,0,98,78.21a3.58,3.58,0,0,1-2,.43c-0.27-.11-0.54.64-0.31,0.69s-0.59,0-1,0a7.3,7.3,0,0,0-2.06.8A0.34,0.34,0,0,1,92,79.9a1,1,0,0,0-.64-0.39c-0.15,0-.43,1-0.69,1.17s-0.57-.8-1.18-1-1.56-.75-1.83-0.82a3.64,3.64,0,0,1-1-.8,2.71,2.71,0,0,0-1.18-.3,3.82,3.82,0,0,0-1.27.65,2.08,2.08,0,0,1-.65.21c-0.11.06-1,1-1.37,1.24A11,11,0,0,0,81,81.65a0.83,0.83,0,0,1-.61.35,0.55,0.55,0,0,0-.22.44,4.86,4.86,0,0,0-1.16,1.14,10.94,10.94,0,0,0,.1,1.95,1.45,1.45,0,0,0,.68,1.16c0.29,0,.14.66,0.06,0.84a1.43,1.43,0,0,0,.17.53,2.44,2.44,0,0,1-1,.46,1.67,1.67,0,0,0-.64.78c0,0.17-.74.28-1,0.51a5.18,5.18,0,0,1,.2-0.51,0.84,0.84,0,0,0-.16-0.79c-0.11-.09-0.16-1.35-0.34-1.62a5.48,5.48,0,0,0-.73-0.82,0.73,0.73,0,0,1,.14-0.56c0.06-.14-0.59-0.22-0.77-0.12a6.66,6.66,0,0,0-.35,1.69,1.11,1.11,0,0,0,.43.89c0.11,0,.08.64-0.15,0.66a1.26,1.26,0,0,0-.32,1.13,0.74,0.74,0,0,1-.3.7,4.58,4.58,0,0,0,1.34,0,0.94,0.94,0,0,1,.77.23,3.36,3.36,0,0,0-1,.36c-0.14.2-.71,0.58-0.82,0.73s0.19,0.49.43,0.47a3.55,3.55,0,0,1,.7,1,0.7,0.7,0,0,1,0,.71c-0.08.12-1.21-.08-1.64,0a2.17,2.17,0,0,0-1,1.35,8.59,8.59,0,0,0,.13,1.6,3,3,0,0,0,1.13.57,10.23,10.23,0,0,0,1.22.08,2.4,2.4,0,0,0,.87-1.31,8.56,8.56,0,0,1,1.22-1.56c0.19-.3,1.18-0.27,1.42-0.42s0.11,0.75.22,1.25,1.06,0.43.92,0,0.1-.67.13-0.5,0.95,0.54,1.12.8,0.12,0.82-.08.81-0.21.61,0,.68,0.5-.7.72-0.81a0.63,0.63,0,0,0,.31-0.62c-0.1,0,.19-0.46.32-0.32a5.24,5.24,0,0,0-.87-1.32c-0.38-.39-0.11-0.22.61,0.39l0.5,0.7c0.1,0.12.22,0.51,0.31,0.65l0.11,0.21a4.7,4.7,0,0,1,.19,1.09,0.78,0.78,0,0,0,.63.52,0.36,0.36,0,0,1,.37.12,0.61,0.61,0,0,0,.39.48c0.24,0,.34-0.6.1-0.61s-0.2-.89-0.23-1.27a0.76,0.76,0,0,1,.25-0.7,3.91,3.91,0,0,1,0,1,2.57,2.57,0,0,0,.22.79l0.24,0.18L87,98.19a2.3,2.3,0,0,1,1.8.11c0,0.16.58,0.2,0.61-.06s0.07,0,.07.19-0.51.88-.6,1.2-1.9.1-2.68,0a3.2,3.2,0,0,0-2,.44c-0.09.23-1.3-.53-1.86-0.77a3.6,3.6,0,0,1-1.11-1.19,1.86,1.86,0,0,1,0-.56,3,3,0,0,0-1.69-.07c-0.37.14-2.28,0.34-2.73,0.54A2.42,2.42,0,0,1,75.45,98a5,5,0,0,0-1,.7,3.41,3.41,0,0,0-.72,2l-0.35.68-0.22.43a9.9,9.9,0,0,0-1.53,2.4,15.45,15.45,0,0,0-.37,3.4,10.7,10.7,0,0,0,.87,2.87,6.88,6.88,0,0,0,1.75,1.69,6.23,6.23,0,0,0,2.08.27,1.27,1.27,0,0,0,1-.88l0.61,0.06,0.28,0c0,0.34.91,0.62,1.14,0.73a1.93,1.93,0,0,0,1,0,3.67,3.67,0,0,1,.25,2,9.16,9.16,0,0,0,.44,2.56c0.13,0.48.68,1.81,0.74,2.29a22.11,22.11,0,0,1-.39,2.61,10.17,10.17,0,0,0,.89,2.64,8.91,8.91,0,0,1,.36,1.95c0,0.27.83,1.87,1,2.53S85.6,129.73,86.15,129.41Zm9.79-53.62c0.33-.33,1.68-0.77,1.84-1.12A0.43,0.43,0,0,0,97.55,74a0.53,0.53,0,0,0-.34.23c0,0.05-1.59.42-2.06,0.65a5.45,5.45,0,0,0-1.23.79,19.6,19.6,0,0,0-.64,1.92,1.73,1.73,0,0,0,.8,1,1,1,0,0,0,.77,0,4,4,0,0,0-.29-1.49C94.4,76.8,95.61,76.12,95.94,75.78Zm-10.79-4a2.11,2.11,0,0,0,1.45-.56,6.37,6.37,0,0,0-2.39-.54,1.71,1.71,0,0,0-1.26.21A6.91,6.91,0,0,0,85.15,71.78ZM104.22,72a3.51,3.51,0,0,0,1.83.27c0.42-.07-0.08-0.72-0.7-0.69A1.36,1.36,0,0,0,104.22,72Zm-9.95-.19c0.51,0.51.79-.23,1.36-0.15C95.62,70.58,94.23,70.94,94.28,71.77Zm-12.15-.62a0.76,0.76,0,0,0-.86.43c0.08,0.2-.51-0.25-0.92,0a0.81,0.81,0,0,0-.34,1,1.37,1.37,0,0,1,.33.78,1.38,1.38,0,0,0,1-.13c0.2-.17.17,0.58,0,0.78s0.07,0.61.3,0.64a8.69,8.69,0,0,0,.75.55,2.33,2.33,0,0,0,.7-1.21c0.09-.33.85-0.07,1.2,0s0.47-1.2.1-1.4-0.84-.1-1-0.25a1.28,1.28,0,0,0-.6-0.32A6.56,6.56,0,0,0,82.13,71.15Zm10.42,54.13a1,1,0,0,0,.91.55,3.74,3.74,0,0,0,.83-1.36,6.81,6.81,0,0,0,.14-1.07,1,1,0,0,1,.17-0.53,1.87,1.87,0,0,0,.28-0.76,21.68,21.68,0,0,0-.42-2.47c0-.32-0.36.16-0.45,0.48a9.36,9.36,0,0,1-1.18,1.23,2.72,2.72,0,0,0-.34,1.34,2,2,0,0,1-.17.95A9.3,9.3,0,0,0,92.54,125.28Z"/><path class="cls-2" d="M60.61,137.59h0.6c0.11-.64-0.63-0.54-0.6,0"/><path class="cls-2" d="M76.49,70.58a2,2,0,0,1-1-.22,2.54,2.54,0,0,0-1.36-.1c-0.28.12-.09-0.68,0.3-0.77s0.06-.64-0.35-0.64-1.43-.15-1.67-0.1a2.89,2.89,0,0,1-.88-0.19,17.89,17.89,0,0,1-2,.34,13.89,13.89,0,0,0-2.31.12,1,1,0,0,0-.49.9c0,0.22-1.38.21-1.83,0.22a14.84,14.84,0,0,0-3.46.86c-0.63.34-1.11,1.22-.9,1.24s-0.35.51-.68,0.63a5.71,5.71,0,0,0-1.32.36c-0.19.19,0.2,0.32,0.27,0.44s0.3-.11.51,0a10,10,0,0,0,1.09.24,1.51,1.51,0,0,1-1,.25c-0.37,0-.29.74,0,0.84a2.06,2.06,0,0,0,1.14.08,4.2,4.2,0,0,1,1.28.18c0.37,0,.66,1,0.77,1.18a3,3,0,0,1,.11,1.12,0.81,0.81,0,0,0,.79.45c0.12-.13.09,0.32-0.19,0.3s-0.09.77,0.24,0.89,0.11,0.6-.09.75-0.09.61-.29,0.78,0.71,1.74.71,2.56a1.65,1.65,0,0,0,.7,1.48,1.72,1.72,0,0,1,.95.34c0.09,0.17.41-.12,0.54-0.25a6.38,6.38,0,0,0,.6-0.87,19.92,19.92,0,0,0,.73-2.15,3.35,3.35,0,0,1,1-.15,8.15,8.15,0,0,0,.82-0.6c0.14-.12,1.23-0.58,1.53-0.79s0.79-1.14,1-1.33-0.12-.14-0.41-0.33a0.31,0.31,0,0,1-.08-0.51,3.48,3.48,0,0,1,1.26.26c0.3,0.12.88-.3,0.66-0.46s-0.11-.16,0-0.09a0.62,0.62,0,0,0,.1-0.65c-0.12-.11.89-0.85,0.71-1.54a1.22,1.22,0,0,1,.55-1.41c0.27,0,.19-0.78-0.13-0.86s0-.14.1-0.25a1.65,1.65,0,0,0,.2-0.93,2.15,2.15,0,0,1,.59-0.44,2.76,2.76,0,0,1,1-.52c0.23,0,.35-0.66.11-0.63"/><path class="cls-2" d="M74,88.3c-0.16-.07-0.25.54-0.22,0.77a0.85,0.85,0,0,0,.84.17A0.47,0.47,0,0,0,75,88.8a2.51,2.51,0,0,0-.49-1.1,3.46,3.46,0,0,1-.55.6"/><path class="cls-2" d="M75.81,81.27a2.71,2.71,0,0,0-1.32-.21,2.71,2.71,0,0,1-1.09-.41c-0.13-.15-0.24.59-0.46,0.69s0.11,0.24.2,0.16A0.67,0.67,0,0,1,73,82c-0.1.16,0.64,0.27,0.72,0.51a0.61,0.61,0,0,0,.67.35c0.29,0,.87-0.35,1.07-0.37a1.59,1.59,0,0,0,.3-1.26"/><path class="cls-2" d="M52.41,82.58a0.68,0.68,0,0,0,.26.86c0.29,0,.75-1.06,1.1-0.84s0.59,0.3.53,0.19a10,10,0,0,0-1.18-.63,1.39,1.39,0,0,0-.71.43"/><path class="cls-2" d="M56.07,106.33a0.65,0.65,0,0,0,.73-0.09c0.1-.19,0-0.34-0.12-0.34a1,1,0,0,0-.6.44"/><path class="cls-2" d="M53.29,105.31c0.3-.06.16,0.42,0.23,0.6a4.19,4.19,0,0,0,.93.43,4.64,4.64,0,0,0,.8-0.18c0.29,0-.09-1-0.57-1a1.59,1.59,0,0,1-1-.49,7.44,7.44,0,0,1-.83-0.52,6.79,6.79,0,0,0-1.8-.24,1.34,1.34,0,0,0-.93.56,0.9,0.9,0,0,0,.86.13,2.06,2.06,0,0,1,1.37.35,1.09,1.09,0,0,0,.92.32"/><path class="cls-2" d="M52,106.33a1.68,1.68,0,0,0,.78.05c0.15,0,.15-0.1,0-0.23a0.8,0.8,0,0,0-.77.18"/><path class="cls-2" d="M52.43,103.09c-0.16-.06-0.29.19-0.29,0.32a0.21,0.21,0,0,0,.2.22c0.11,0,.26-0.47.09-0.53"/><path class="cls-2" d="M53.75,103.19a0.62,0.62,0,0,0-.41-0.22,0.45,0.45,0,0,0-.12.46c0,0.25.58-.12,0.53-0.24"/><path class="cls-2" d="M54.71,104.66c0.25-.12.28-0.43,0.13-0.41a3.8,3.8,0,0,1-.59-0.5c-0.16-.07-0.3.27-0.3,0.42a0.18,0.18,0,0,0,.21.22,0.88,0.88,0,0,0,.55.28"/><path class="cls-2" d="M125.06,114.55a1.28,1.28,0,0,1-.85,0c-0.08-.13-0.21.26-0.35,0.32s-0.06.39,0.14,0.29a3,3,0,0,1,1.23.57c0.1-.48.18-1,0.26-1.46-0.18.09-.36,0.22-0.44,0.26"/><path class="cls-3" d="M82.13,71.15a0.76,0.76,0,0,0-.86.43c0.08,0.2-.51-0.25-0.92,0a0.81,0.81,0,0,0-.34,1,1.37,1.37,0,0,1,.33.78,1.38,1.38,0,0,0,1-.13c0.2-.17.17,0.58,0,0.78s0.07,0.61.3,0.64a8.69,8.69,0,0,0,.75.55,0.9,0.9,0,0,0,.41-0.49V72.06h0a7,7,0,0,0-.64-0.9m-8.36,11.4a0.61,0.61,0,0,0,.67.35c0.29,0,.87-0.35,1.07-0.37a1.59,1.59,0,0,0,.3-1.26,2.72,2.72,0,0,0-1.32-.21,2.71,2.71,0,0,1-1.09-.41c-0.13-.15-0.24.59-0.46,0.69s0.11,0.24.2,0.16A0.67,0.67,0,0,1,73,82C72.95,82.2,73.68,82.32,73.77,82.55Zm0.86,6.68A0.47,0.47,0,0,0,75,88.8a2.51,2.51,0,0,0-.49-1.1,3.45,3.45,0,0,1-.55.6c-0.16-.07-0.25.54-0.22,0.77A0.85,0.85,0,0,0,74.63,89.24Zm-20.88,14a0.62,0.62,0,0,0-.41-0.22,0.45,0.45,0,0,0-.12.46C53.24,103.69,53.81,103.31,53.75,103.19Zm1,1.46c0.25-.12.28-0.43,0.13-0.41a3.79,3.79,0,0,1-.59-0.5c-0.16-.07-0.3.27-0.3,0.42a0.18,0.18,0,0,0,.21.22A0.88,0.88,0,0,0,54.71,104.66ZM52,106.33a1.69,1.69,0,0,0,.78.05c0.15,0,.15-0.1,0-0.23A0.8,0.8,0,0,0,52,106.33Zm1.31-1c0.3-.06.16,0.42,0.23,0.6a4.17,4.17,0,0,0,.93.43,4.66,4.66,0,0,0,.8-0.18c0.29,0-.09-1-0.57-1a1.59,1.59,0,0,1-1-.49,7.47,7.47,0,0,1-.83-0.52,6.79,6.79,0,0,0-1.8-.24,1.35,1.35,0,0,0-.94.56,0.91,0.91,0,0,0,.86.13,2.06,2.06,0,0,1,1.37.35A1.09,1.09,0,0,0,53.29,105.31Zm2.78,1a0.65,0.65,0,0,0,.73-0.09c0.1-.19,0-0.34-0.12-0.34A1,1,0,0,0,56.07,106.33ZM52.7,120.15a4.51,4.51,0,0,0,1,1.18,7.76,7.76,0,0,1,1.06,2,3.28,3.28,0,0,1,0,1.29,2.25,2.25,0,0,0,.17.67,10.78,10.78,0,0,0-.15,1.94c0.11,0.51-.6,2.11-0.58,2.9a2.76,2.76,0,0,0,.52,1.75c0.14-.08.19,0.72,0,0.82a0.82,0.82,0,0,0-.39.76,2.58,2.58,0,0,1,0,.91c0,0.25.25,1.9,0.29,2.31a12.18,12.18,0,0,0,.76,1.75c0.12,0.34.25,1,.29,1.08a1.54,1.54,0,0,0,.12.21,3.61,3.61,0,0,1,.62.28,3.84,3.84,0,0,0,1.37,0c0.3-.06,0-0.34-0.11-0.49a7.22,7.22,0,0,0-.42-1,1.69,1.69,0,0,1-.09-1.21c0.14-.21.69-0.54,0.75-0.71a1.94,1.94,0,0,0-.07-1.1,15.48,15.48,0,0,1-.07-1.59c-0.11-.49.85-0.93,0.91-1.32s1.1-.8,1.33-1a2.48,2.48,0,0,0,.33-1.55c-0.12-.24.38-0.43,0.61-0.43a2.9,2.9,0,0,0,.55-0.16,7.57,7.57,0,0,0,.49-0.61,13.13,13.13,0,0,1,.69-1.48,2,2,0,0,0,.47-1.11,3.49,3.49,0,0,1,.52-1,5.74,5.74,0,0,1,1.28-.7,7.94,7.94,0,0,0,.51-2.19c0.07-.56.36-1.31,0.38-1.5a0.9,0.9,0,0,1,.39-0.4,9,9,0,0,1,.44-0.94,4.66,4.66,0,0,0,.7-1,6.64,6.64,0,0,1,.18-0.87v-1a1.35,1.35,0,0,0-.83-0.93,3.21,3.21,0,0,1-1-.53,6,6,0,0,0-1.27-.21c-0.19,0-.86-0.55-1.16-0.64s-1.06-.24-1.21-0.33-0.33-1.23-.94-1.6a6.66,6.66,0,0,1-1.82-1.56,5.84,5.84,0,0,0-1.67-1.19,1.48,1.48,0,0,0-1-.18,6.16,6.16,0,0,1-.76-0.81,1,1,0,0,0-1-.18c0,0.18-.5.08-0.61-0.07a0.78,0.78,0,0,0-.65.12c-0.17.05-.76,1-1,1.17s-0.6-.2-0.77-0.28a2,2,0,0,0-1,.27c-0.18.13-.61-1-0.51-1.45a1.61,1.61,0,0,0-.87-1.52c-0.42,0-.55-1.07-0.47-1.45s-0.76-.62-1-0.65a1.48,1.48,0,0,0-.83.77c-0.09.26-2-.35-1.78-1.5a5.29,5.29,0,0,1,1.36-2.48,3.42,3.42,0,0,1,1.73-.06,0.45,0.45,0,0,0,.57-0.07,3.6,3.6,0,0,1,1.35.13c0.3,0.12.73,1.28,1,1.42s0.43-.75.48-1a2.24,2.24,0,0,0-.22-0.93,3.17,3.17,0,0,1,1-1.8A2.21,2.21,0,0,0,53.57,98a0.76,0.76,0,0,1,.48-0.31,13.66,13.66,0,0,1,.17-1.44,5.58,5.58,0,0,1,1.35-.89,1.08,1.08,0,0,0,.39-1,2.2,2.2,0,0,1,1.15-1c0.43-.13.8,0.25,0.69,0.3,0.08,0,.67-0.35.93-0.52s0-.73-0.18-0.88a0.63,0.63,0,0,1,.15-0.83,0.79,0.79,0,0,0,.36-0.7,5.47,5.47,0,0,0,1.32-.19c0.38-.28.11,0.68-0.17,1.07a0.44,0.44,0,0,0,.38.68,0.42,0.42,0,0,1,.41.31c0,0.11.42-.11,0.67,0s0.4-.34.42-0.55a6.54,6.54,0,0,0-.7-0.9,16.24,16.24,0,0,1-.15-2,0.84,0.84,0,0,0-.55-0.7,5.52,5.52,0,0,1-.6-1,1.09,1.09,0,0,1-.25-0.74c0-.14-0.71-0.89-0.88-1.24s-0.42-.28-0.43-0.12a0.86,0.86,0,0,1-.72.16,1.63,1.63,0,0,1-.38-1.11c0-.3-0.93-0.35-1.08-0.59a5.43,5.43,0,0,0-.85-0.29,1,1,0,0,0-.73-0.26c-0.11.06-.06,2.22-0.16,2.8a1.44,1.44,0,0,1-.78,1.08c-0.18,0-.07.41,0.05,0.38s-0.35.63-.41,1.08-0.51,0-.58-0.42a1,1,0,0,0-.6-0.8,2.17,2.17,0,0,1-.52-0.08,4.69,4.69,0,0,1-1.29-.66,8.74,8.74,0,0,1-.71-1.29c-0.19-.09,0-0.22,0-0.37a5.56,5.56,0,0,1,.85-1,12.51,12.51,0,0,1,1.2-1.37,1.22,1.22,0,0,0,.46-0.83,7.54,7.54,0,0,1,1.56-.61,2.34,2.34,0,0,0,.68-1.35A1.15,1.15,0,0,0,54.1,79a0.84,0.84,0,0,1,.69,0c0.21,0.1.87-.19,1.12-0.06s0.78,0.45,1.15.69l-0.08.7-0.15,1.19c-1,.41-1.28,1.13-0.93,1.11a8.26,8.26,0,0,1,2.39,1C58.73,84,58.88,83.23,59,83a2,2,0,0,0,0-1.17c-0.11-.15.52-0.1,0.7,0.07s0.38-.18.52-0.24a3.42,3.42,0,0,0,.28-0.84,1.9,1.9,0,0,0-.31-0.43,2.63,2.63,0,0,0-1-.59A0.56,0.56,0,0,1,59,79.08a1.52,1.52,0,0,0-.2-0.92,1.94,1.94,0,0,0-1.11-.38,2.12,2.12,0,0,1-.65-0.66A3.87,3.87,0,0,0,55.75,77c-0.24.07-.67-0.68-1.07-0.45a1,1,0,0,1-1-.37,2.11,2.11,0,0,0-1.11,1.61,2,2,0,0,0,.51,1.41,1,1,0,0,1-.2.84c-0.16.18-.56-0.19-0.41-0.35a2.5,2.5,0,0,0-.6-1.2,2.39,2.39,0,0,0-1-.54c-0.2.21-.38,0.42-0.57,0.64a1.56,1.56,0,0,1,.08.85c-0.14.43-.5,0.5-0.52,0.31a0.49,0.49,0,0,0-.41-0.17c-0.2.23-.39,0.48-0.58,0.71L48.37,81l-0.58.77-0.5.7q-0.37.53-.72,1.06c-0.23.34-.45,0.69-0.67,1l-0.54.91L45,86.13l-0.53,1-0.29.56c-0.39.77-.77,1.54-1.11,2.33l0,0.06c-0.17.39-.33,0.79-0.49,1.18l-0.18.45c-0.16.41-.31,0.81-0.45,1.23l-0.07.21a42.52,42.52,0,0,0-1.23,4.23c0,0.1,0,.19-0.07.29a42.56,42.56,0,0,0-.78,4.54v0a2.7,2.7,0,0,1,.51.73,1.85,1.85,0,0,0,.9.71,1.26,1.26,0,0,0,.08-0.94c-0.09-.21.16-0.34,0.15-0.18a5.8,5.8,0,0,0,.83,1.12c0.2,0.26.42,1.91,0.62,2.26a7.83,7.83,0,0,0,2.72,1.22,3.32,3.32,0,0,1,1.51,1,3.58,3.58,0,0,0,1.11.38c0.18,0.08.59,0.63,0.77,0.75a0.94,0.94,0,0,1,.31.53c0,0.09,1.08.49,1.34,0.78a0.58,0.58,0,0,0,.77.09,2,2,0,0,1,.41.81,1.57,1.57,0,0,1,.05.93,12.48,12.48,0,0,1-.42,1.39,5.65,5.65,0,0,0-.48,2.1,2.49,2.49,0,0,0,.81,1.05,0.25,0.25,0,0,1,0,.45,2,2,0,0,0,.32,1.75A1.52,1.52,0,0,1,52.7,120.15ZM82.78,99.58c-0.19-.1-0.36-0.19-0.49-0.24a3.6,3.6,0,0,1-1.11-1.19,1.86,1.86,0,0,1,0-.56,3,3,0,0,0-1.69-.07c-0.37.14-2.28,0.34-2.73,0.54A2.42,2.42,0,0,1,75.45,98a5,5,0,0,0-1,.7,3.41,3.41,0,0,0-.72,2l-0.35.68-0.22.43a9.9,9.9,0,0,0-1.53,2.4,15.45,15.45,0,0,0-.37,3.4,10.7,10.7,0,0,0,.87,2.87,6.88,6.88,0,0,0,1.75,1.69,6.23,6.23,0,0,0,2.08.27,1.27,1.27,0,0,0,1-.88l0.61,0.06,0.28,0c0,0.34.91,0.62,1.14,0.73a1.93,1.93,0,0,0,1,0,3.67,3.67,0,0,1,.25,2,9.16,9.16,0,0,0,.44,2.56c0.13,0.48.68,1.81,0.74,2.29a22.11,22.11,0,0,1-.39,2.61,10.17,10.17,0,0,0,.89,2.64,8.91,8.91,0,0,1,.36,1.95,6.24,6.24,0,0,0,.45,1.14V99.58Zm-30.37-17a0.69,0.69,0,0,0,.26.86c0.29,0,.75-1.06,1.1-0.84s0.59,0.3.53,0.19a10,10,0,0,0-1.18-.63A1.4,1.4,0,0,0,52.41,82.58Zm20.2-4.2c0.3,0.12.88-.3,0.66-0.46s-0.11-.16,0-0.09a0.62,0.62,0,0,0,.1-0.65c-0.12-.11.89-0.85,0.71-1.54a1.22,1.22,0,0,1,.55-1.41c0.27,0,.19-0.78-0.13-0.86s0-.14.1-0.25a1.65,1.65,0,0,0,.2-0.93,2.15,2.15,0,0,1,.59-0.44,2.75,2.75,0,0,1,1-.52c0.23,0,.35-0.66.11-0.63a2,2,0,0,1-1-.22,2.54,2.54,0,0,0-1.36-.1c-0.28.12-.09-0.68,0.3-0.77s0.06-.64-0.35-0.64-1.43-.15-1.67-0.1a2.89,2.89,0,0,1-.88-0.19,18,18,0,0,1-2,.34,13.93,13.93,0,0,0-2.31.12,1,1,0,0,0-.49.9c0,0.22-1.38.21-1.83,0.22a14.83,14.83,0,0,0-3.46.86c-0.63.34-1.11,1.22-.9,1.24s-0.35.51-.68,0.63a5.71,5.71,0,0,0-1.32.36c-0.19.19,0.2,0.32,0.27,0.44s0.3-.11.51,0a9.92,9.92,0,0,0,1.09.24,1.5,1.5,0,0,1-1,.25c-0.37,0-.29.74,0,0.84a2.06,2.06,0,0,0,1.14.08,4.22,4.22,0,0,1,1.28.18c0.37,0,.66,1,0.77,1.18a3,3,0,0,1,.11,1.12,0.81,0.81,0,0,0,.79.45c0.12-.13.09,0.32-0.19,0.3s-0.09.77,0.24,0.89,0.11,0.6-.09.75-0.09.61-.29,0.78,0.71,1.74.71,2.56a1.65,1.65,0,0,0,.69,1.48,1.72,1.72,0,0,1,.95.34c0.09,0.17.41-.12,0.54-0.25a6.4,6.4,0,0,0,.6-0.87,19.92,19.92,0,0,0,.73-2.15,3.35,3.35,0,0,1,1-.15,8.07,8.07,0,0,0,.81-0.6c0.14-.12,1.23-0.58,1.53-0.79s0.79-1.14,1-1.33-0.12-.14-0.41-0.33a0.31,0.31,0,0,1-.08-0.51A3.47,3.47,0,0,1,72.61,78.38ZM52.43,103.09c-0.16-.06-0.29.19-0.29,0.32a0.21,0.21,0,0,0,.2.22C52.45,103.63,52.6,103.16,52.43,103.09Zm29.8-6.44c-0.2,0-.21.61,0,0.68a1.21,1.21,0,0,0,.53-0.61V94.31l-0.05-.05c-0.26-.26-0.22-0.26.05-0.06V79.38c-0.22.21-.44,0.4-0.57,0.51A11,11,0,0,0,81,81.65a0.83,0.83,0,0,1-.61.35,0.55,0.55,0,0,0-.22.44,4.86,4.86,0,0,0-1.16,1.14,10.94,10.94,0,0,0,.1,1.95,1.45,1.45,0,0,0,.68,1.16c0.29,0,.14.66,0.06,0.84a1.43,1.43,0,0,0,.17.53,2.44,2.44,0,0,1-1,.46,1.67,1.67,0,0,0-.64.78c0,0.17-.74.28-1,0.51a5.18,5.18,0,0,1,.2-0.51,0.84,0.84,0,0,0-.16-0.79c-0.11-.09-0.16-1.35-0.34-1.62a5.48,5.48,0,0,0-.73-0.82,0.73,0.73,0,0,1,.14-0.56c0.06-.14-0.59-0.22-0.77-0.12a6.66,6.66,0,0,0-.35,1.69,1.11,1.11,0,0,0,.43.89c0.11,0,.08.64-0.15,0.66a1.26,1.26,0,0,0-.32,1.13,0.74,0.74,0,0,1-.3.7,4.58,4.58,0,0,0,1.34,0,0.94,0.94,0,0,1,.77.23,3.36,3.36,0,0,0-1,.36c-0.14.2-.71,0.58-0.82,0.73s0.19,0.49.43,0.47a3.55,3.55,0,0,1,.7,1,0.7,0.7,0,0,1,0,.71c-0.08.12-1.21-.08-1.64,0a2.17,2.17,0,0,0-1,1.35,8.59,8.59,0,0,0,.13,1.6,3,3,0,0,0,1.13.57,10.23,10.23,0,0,0,1.22.08,2.4,2.4,0,0,0,.87-1.31,8.56,8.56,0,0,1,1.22-1.56c0.19-.3,1.18-0.27,1.42-0.42s0.11,0.75.22,1.25,1.06,0.43.92,0,0.1-.67.13-0.5,0.95,0.54,1.12.8S82.44,96.66,82.24,96.65ZM54.83,75.5a4.13,4.13,0,0,0,1.44-.38,0.9,0.9,0,0,0,0-.6h0.25a6.78,6.78,0,0,0,.73-1.33,10.69,10.69,0,0,1,1.67-.79A11.09,11.09,0,0,1,60,71.58a1.09,1.09,0,0,0,.53-0.74,3.22,3.22,0,0,1,1.13-.77c0.32-.14.49-0.52,0.37-0.54s-1.89.94-3.54,1.88l0,0c-0.47.32-.94,0.66-1.4,1s-0.62.47-.92,0.71l-0.48.38-1.08.9-0.22.2c-0.39.35-.78,0.69-1.17,1.05C53.69,75.65,54.49,75.56,54.83,75.5Z"/><path class="cls-3" d="M60.61,137.59h0.6c0.11-.64-0.63-0.54-0.6,0"/><path class="cls-4" d="M56.27,74.62l-0.14.17c0,0.05.22-.08,0.14-0.17"/><path class="cls-4" d="M61.07,88.92c0-.05-0.22.08-0.15,0.17Z"/><polygon class="cls-1" points="85.08 46.82 84.27 51.77 79.32 52.58 84.27 53.39 85.08 58.34 85.89 53.39 90.84 52.58 85.89 51.77 85.08 46.82"/><polygon class="cls-1" points="38.91 65.33 38.1 70.27 33.15 71.09 38.1 71.9 38.91 76.85 39.72 71.9 44.67 71.09 39.72 70.27 38.91 65.33"/><polygon class="cls-1" points="100.94 42.66 100.52 45.23 97.95 45.66 100.52 46.08 100.94 48.65 101.36 46.08 103.94 45.66 101.36 45.23 100.94 42.66"/><polygon class="cls-1" points="24.8 119.63 23.99 124.58 19.04 125.39 23.99 126.2 24.8 131.15 25.62 126.2 30.56 125.39 25.62 124.58 24.8 119.63"/><polygon class="cls-1" points="43.24 138.14 42.82 140.71 40.25 141.13 42.82 141.56 43.24 144.13 43.66 141.56 46.23 141.13 43.66 140.71 43.24 138.14"/><polygon class="cls-5" points="134.94 115.71 134.12 120.66 129.18 121.47 134.12 122.28 134.94 127.23 135.75 122.28 140.7 121.47 135.75 120.66 134.94 115.71"/><polygon class="cls-6" points="126.03 143.23 125.6 145.81 123.03 146.23 125.6 146.65 126.03 149.22 126.45 146.65 129.02 146.23 126.45 145.81 126.03 143.23"/><polygon class="cls-1" points="30.31 91.2 29.89 93.77 27.32 94.19 29.89 94.61 30.31 97.18 30.73 94.61 33.3 94.19 30.73 93.77 30.31 91.2"/><path class="cls-7" d="M121.41,158.21a1.39,1.39,0,0,0,1.37,1.27h27.88a1.39,1.39,0,0,0,1.37-1.27H121.41Z"/><path class="cls-8" d="M121.78,159.21a1.56,1.56,0,0,1-.48-1v-0.13h30.87v0.13a1.57,1.57,0,0,1-.49,1,1.46,1.46,0,0,1-1,.39H122.77a1.46,1.46,0,0,1-1-.39m-0.23-.88a1.33,1.33,0,0,0,.39.71,1.22,1.22,0,0,0,.84.33h27.88a1.22,1.22,0,0,0,.84-0.33,1.33,1.33,0,0,0,.39-0.71H121.55Z"/><path class="cls-8" d="M96.83,158h81.86v-50.7a2.09,2.09,0,0,0-2.08-2.09H96.83a2.09,2.09,0,0,0-2.09,2.09V158h2.09Z"/><path class="cls-7" d="M178.69,158.14h-84a0.18,0.18,0,0,1-.18-0.18v-50.7A2.27,2.27,0,0,1,96.83,105h79.78a2.27,2.27,0,0,1,2.26,2.27V158a0.18,0.18,0,0,1-.18.18m-83.77-.36h83.59V107.26a1.91,1.91,0,0,0-1.9-1.91H96.83a1.91,1.91,0,0,0-1.91,1.91v50.52Z"/><rect class="cls-1" x="99.94" y="110.19" width="73.55" height="42.63"/><path class="cls-7" d="M186.43,158.21H152a1.39,1.39,0,0,1-1.37,1.27H122.78a1.39,1.39,0,0,1-1.37-1.27H87c0,0.17-.05.33-0.05,0.5v1.51c0,2.5,2,2.65,4.53,2.65H182c2.49,0,4.53-.15,4.53-2.65v-1.51c0-.17,0-0.33-0.06-0.5"/><path class="cls-8" d="M182,163.05H91.48c-2.21,0-4.71,0-4.71-2.83v-1.51a2.16,2.16,0,0,1,0-.32l0-.19A0.18,0.18,0,0,1,87,158h34.41a0.18,0.18,0,0,1,.18.16,1.21,1.21,0,0,0,1.19,1.11h27.88a1.21,1.21,0,0,0,1.19-1.11A0.18,0.18,0,0,1,152,158h34.41a0.18,0.18,0,0,1,.18.16l0,0.18a2.16,2.16,0,0,1,0,.34v1.51c0,2.83-2.61,2.83-4.71,2.83m-94.8-4.66v0.05a2,2,0,0,0,0,.27v1.51c0,2.29,1.8,2.47,4.35,2.47H182c2.55,0,4.35-.18,4.35-2.47v-1.51a2,2,0,0,0,0-.29v0h-34.1a1.57,1.57,0,0,1-1.52,1.27H122.78a1.56,1.56,0,0,1-1.52-1.27H87.16Z"/><path class="cls-9" d="M114.4,122.45h37.69v-0.9H114.4v0.9Zm-6.78,3.47h30.44V125H107.62v0.9Zm7.49,3.47h31.81v-0.9H115.11v0.9ZM133,132.86h16.65V132H133v0.9Zm-17.89,0h16.65V132H115.11v0.9Zm-0.17,3.47H137v-0.9H114.94v0.9Zm0.17,3.62h31.81V139H115.11v0.9ZM133,143.42h16.65v-0.9H133v0.9Zm-17.89,0h16.65v-0.9H115.11v0.9Zm-0.17,3.47H137V146H114.94v0.9ZM103.78,119h17.94v-0.9H103.78V119Z"/><path class="cls-3" d="M139,136.33h3.08v-0.9H139v0.9Zm0.69-10.41h5.22V125H139.7v0.9ZM123.34,119h4.07v-0.9h-4.07V119Zm-19.57-3.47h12v-0.9h-12v0.9Zm0,6.94h8.72v-0.9h-8.72v0.9Zm3.84,6.94h5.84v-0.9h-5.84v0.9Zm0,3.47h5.84V132h-5.84v0.9Zm-3.84,3.47h9.8v-0.9h-9.8v0.9Zm3.84,3.62h5.84V139h-5.84v0.9Zm0,3.47h5.84v-0.9h-5.84v0.9Zm-3.84,3.47h9.8V146h-9.8v0.9Zm35.24,0h3.08V146H139v0.9Z"/><path class="cls-10" d="M44.21,157.47c-5.15,0-9.16-1.41-11.56-4.38-5-6.27-1.93-18.46,8.34-32.62a0.42,0.42,0,1,1,.68.49c-10,13.83-13.16,25.64-8.37,31.6,8.22,10.21,36.75.93,63.59-20.69a195,195,0,0,0,42.69-47.31,0.42,0.42,0,1,1,.71.45,195.84,195.84,0,0,1-42.87,47.52c-19.55,15.75-40.07,24.94-53.22,24.94"/><path class="cls-10" d="M44.39,152.35c-3.79,0-6.77-1-8.65-3.17-4-4.63-2.06-14.25,5.45-26.4a0.38,0.38,0,1,1,.65.4c-7.21,11.66-9.27,21.19-5.52,25.49,7.5,8.6,33.77-2,58.54-23.6a203.16,203.16,0,0,0,38.8-45,0.38,0.38,0,0,1,.65.41,204,204,0,0,1-39,45.2C76.32,142.26,56.33,152.35,44.39,152.35Z"/><path class="cls-11" d="M44.39,152.35c-3.79,0-6.77-1-8.65-3.17-4-4.63-2.06-14.25,5.45-26.4a0.38,0.38,0,1,1,.65.4c-7.21,11.66-9.27,21.19-5.52,25.49,7.5,8.6,33.77-2,58.54-23.6a203.16,203.16,0,0,0,38.8-45,0.38,0.38,0,0,1,.65.41,204,204,0,0,1-39,45.2C76.32,142.26,56.33,152.35,44.39,152.35Z"/><path class="cls-12" d="M139,79.66a13.15,13.15,0,0,1,5.14,13.92,13.15,13.15,0,1,0-20-14.2,13.15,13.15,0,0,1,14.83.28"/><path class="cls-12" d="M147,74.16L141.44,82a13.18,13.18,0,0,1,2.65,11.61A13.15,13.15,0,0,0,147,74.16"/><path class="cls-13" d="M138,81.05a15.25,15.25,0,0,1,3.36,3.27,37.25,37.25,0,0,0,12.27-11.24c5.71-8,8-16.89,6.45-23.09-6.35.61-14,5.65-19.69,13.67a37.26,37.26,0,0,0-6.59,15.28,15.28,15.28,0,0,1,4.2,2.11"/><path class="cls-14" d="M160.06,50H160L137.94,81l0,0a15.25,15.25,0,0,1,3.36,3.27,37.25,37.25,0,0,0,12.27-11.24c5.71-8,8-16.89,6.45-23.09"/><path class="cls-12" d="M154.66,57.59c1.66,1.18,3.25,2.4,4.77,3.64A22.46,22.46,0,0,0,160.06,50a22.49,22.49,0,0,0-10.41,4.29c1.67,1,3.34,2.13,5,3.31"/><path class="cls-12" d="M160,50l-5.38,7.56,0,0c1.66,1.18,3.25,2.4,4.77,3.64A22.46,22.46,0,0,0,160.06,50H160Z"/><path class="cls-12" d="M145,71.21c-1.85.82-4.48,3.3-6.86,6.64s-3.85,6.64-4,8.66c1.85-.82,4.48-3.3,6.86-6.64s3.85-6.64,4-8.66"/><path class="cls-12" d="M144.88,71.26L134.11,86.41v0.1c1.85-.82,4.48-3.3,6.86-6.64s3.85-6.64,4-8.66Z"/><path class="cls-12" d="M147,68.38a4.57,4.57,0,1,1,6.37-1.07A4.57,4.57,0,0,1,147,68.38"/><path class="cls-1" d="M151.47,62.07a3.17,3.17,0,1,0,.75,4.42,3.18,3.18,0,0,0-.75-4.42"/><path class="cls-12" d="M152.28,60.93l0,0L151.43,62l0,0a3.17,3.17,0,1,1-3.68,5.17l0,0L147,68.35l0,0a4.57,4.57,0,1,0,5.29-7.44"/><path class="cls-1" d="M152.22,66.49a3.18,3.18,0,0,0-.75-4.42l0,0-3.67,5.17,0,0a3.17,3.17,0,0,0,4.42-.75"/></svg>